<svg xmlns="http://www.w3.org/2000/svg" xmlns:xlink="http://www.w3.org/1999/xlink" viewBox="0 0 1232 821"><defs><style>.cls-1{isolation:isolate;}.cls-2{fill:url(#radial-gradient);}.cls-3,.cls-4,.cls-6{fill:none;stroke-linecap:round;stroke-linejoin:round;}.cls-3{stroke:#37b34a;stroke-width:1.2px;}.cls-4{stroke:#48c7f4;}.cls-4,.cls-6{stroke-width:1.3px;}.cls-5{mix-blend-mode:multiply;}.cls-6{stroke:#60cbf5;}.cls-7{fill:#fff;}.cls-8{fill:#c4c6c6;stroke:#c4c6c6;stroke-miterlimit:10;}</style><radialGradient id="radial-gradient" cx="616" cy="410.5" r="523.43" gradientUnits="userSpaceOnUse"><stop offset="0" stop-color="#b3b3b3"/><stop offset="0.01" stop-color="#9e9e9e"/><stop offset="0.03" stop-color="#868686"/><stop offset="0.06" stop-color="#747474"/><stop offset="0.08" stop-color="#696969"/><stop offset="0.1" stop-color="#666"/><stop offset="0.16" stop-color="#4e4e4e"/><stop offset="0.22" stop-color="#383838"/><stop offset="0.29" stop-color="#292929"/><stop offset="0.37" stop-color="#202020"/><stop offset="0.49" stop-color="#1d1d1d"/><stop offset="0.76"/><stop offset="1"/></radialGradient></defs><g class="cls-1"><g id="Layer_2" data-name="Layer 2"><rect class="cls-2" width="1232" height="821"/></g><g id="Layer_1" data-name="Layer 1"><g id="art"><path class="cls-3" d="M680.67,175.19c.84,1.45,4.93-4.61,5.69-3.29,1.13,1.95-9.78,4.49-8.68,6.38,1.68,2.91,11-10.16,12.67-7.32s-15.29,4.4-13.21,8c1.5,2.59,12.36-10.92,14-8.08,2.06,3.57-16.81,6.53-15.1,9.48,2,3.46,14.3-13.5,16.57-9.57,2.86,5-20.9,10.94-19.49,13.38,2.28,3.94,21.3-15.91,22.86-13.2,2.75,4.76-31.68,12.88-27.77,19.66,4.87,8.42,28.44-24.39,31.89-18.42,4.82,8.35-35.84,13.12-32.4,19.07,3.1,5.36,30.54-22.54,32.67-18.86,4.36,7.56-38.92,11.07-33.68,20.15,2.55,4.41,31.85-23.66,34.13-19.71,4.13,7.15-44.3,14.07-38.15,24.72,3.89,6.74,33.06-32.45,38.85-22.43,7.26,12.59-48.68,21.34-44.3,28.94,5,8.65,39.33-30.92,42.89-24.76,5.6,9.7-48.34,20.48-44.68,26.81,3.89,6.75,38.53-34.76,44-25.37s-50.19,20-45.86,27.49c6.46,11.19,41.57-32.11,45.08-26"/><path class="cls-3" d="M644.1,92.24c.56,1,3-2.94,3.51-2,.71,1.24-4.94,2.05-4.34,3.09.93,1.6,5.32-4,5.75-3.32.69,1.2-6.33,2.69-5.86,3.5.75,1.29,5.56-4.44,6.09-3.52.68,1.17-7,2-6.13,3.58.53.91,5.73-4.44,6.22-3.59,1.25,2.17-8.4,6.43-7.68,7.69,1.1,1.9,11-8.75,12.06-7,1.14,2-14.31,5.79-12.49,8.94,2.1,3.65,12.7-10.24,14-8.05s-16.65,8.43-14.64,11.91c1.14,2,14.72-12.41,16.41-9.48,2.76,4.79-18.68,10.35-17,13.33,2.19,3.79,14.82-14.67,17.47-10.08,1.54,2.66-20.74,6.94-17.74,12.13,1.95,3.38,16.31-13,17.85-10.3,1.43,2.47-20.42,8-18.07,12,2.1,3.64,16.39-13.51,18.14-10.47,1.64,2.84-21.25,6.66-18.31,11.76,2.64,4.57,16.54-13.73,18.35-10.59,3,5.13-20.28,11.83-18.85,14.32,1.92,3.32,16.46-15,18.86-10.89,3,5.17-22.11,6.86-19,12.2,1.74,3,16.53-15.24,19-11,2.17,3.77-21.06,11.36-19.41,14.22,1.34,2.32,17.29-14.43,19.22-11.09,2.61,4.53-21.47,8.88-19.39,12.47,1.75,3,16.41-16,19.26-11.12,2.3,4-21.86,9-19.51,13.09,1.76,3,17.23-14.61,19.25-11.11,2.57,4.44-21.09,10-19.46,12.82s16.48-15.8,19.2-11.09c1.9,3.29-21.88,11.1-19.68,14.91s16.11-16.24,19.11-11c3.46,6-22,11-19.63,15,2.09,3.62,17.29-13.94,19-11,3.09,5.34-22.06,8.54-19.31,13.3s16.5-15.14,18.93-10.93c2.87,4.95-22.32,7.89-19.26,13.21,1.26,2.18,16.87-14.41,18.89-10.91s-20.73,11.15-19.28,13.66c2.45,4.24,16-15.81,18.82-10.87,1.69,2.92-22.53,8.7-19.35,14.21,1.89,3.26,15.95-15.78,18.8-10.86,2.33,4-21.42,8.12-19,12.24,1.25,2.15,17.3-13.47,18.81-10.86,1.69,2.93-20.69,9.59-19.07,12.39,1.44,2.5,17.16-13.74,18.81-10.87,2.85,4.93-21.53,6.32-18.83,11,2.1,3.64,16.2-15.4,18.82-10.87s-21,10.9-19.36,13.78,17-14.19,18.88-10.9c2.85,4.94-22,10.28-19.58,14.48,2.56,4.42,17.62-13.35,19-11,3,5.23-22.12,9.56-19.59,13.94,2,3.47,16.22-16,19.11-11,1.49,2.56-23.35,8.9-19.91,14.86,1.39,2.41,17.56-14.18,19.31-11.15,1.4,2.42-21.5,8.46-19.48,12,2.63,4.56,18-13.55,19.35-11.17,3.63,6.27-23.49,12.12-21.41,15.71s17.55-17.71,20.83-12c2,3.51-22.67,9.33-21,12.27,2.86,5,17.65-17.79,20.94-12.1"/><path class="cls-3" d="M612,79.27c.27.46,3.21-2.39,3.44-2,.68,1.18-6.63,4.83-5.55,6.69S620,75.09,621.3,77.39c1.47,2.55-13.42,8.06-12,10.48,2,3.55,12.58-12.62,14.9-8.6,1.42,2.47-16.5,9.06-15,11.66,2.39,4.15,14.36-12.8,16.31-9.42,2.09,3.62-17.76,7.68-16.34,10.14S624,79.16,625.69,82.1c1.43,2.49-19.24,8.66-16.65,13.14s16-12.1,17.22-9.94c2,3.52-19.93,8.33-17.3,12.87,2.49,4.32,15-14.34,17.44-10.07,1.31,2.25-19.94,8.61-17.52,12.8,1.36,2.35,15.16-14.36,17.59-10.16,2.87,5-18.85,9.15-17.62,11.28,2.08,3.61,15.49-13.91,17.64-10.18,1.78,3.07-20.73,8.52-17.73,13.71,2,3.55,15.85-13.7,17.82-10.29,2.73,4.74-20.32,7.41-17.86,11.67,1.81,3.13,16.56-12.62,17.89-10.33,1.45,2.51-20.83,9.05-18,14s16.65-12.9,18.07-10.44c1.81,3.14-19.66,11.32-18.17,13.92s17-12.71,18.25-10.53c1.49,2.58-19.74,8.48-18.26,11,2.71,4.69,16.09-14.32,18.27-10.55,2.72,4.71-20.27,8.46-18.3,11.87,2.57,4.46,15.86-14.87,18.33-10.58,2,3.4-20.74,6.57-18.34,10.73s15.48-15.54,18.34-10.59-20.76,10.3-18.44,14.33,16.89-13.55,18.53-10.7c2.27,3.93-20.52,9.71-18.6,13,2,3.51,16-15.29,18.65-10.76,2.12,3.67-21,7.58-18.68,11.65,2.67,4.62,16.78-14.1,18.69-10.79,2.14,3.69-21,9-18.75,13,1.48,2.56,17.46-13.17,18.8-10.86,2.62,4.55-21.37,9.65-18.9,13.93,1.5,2.6,17.25-13.89,19-11,2.25,3.9-20.27,9.81-19,12,2.57,4.45,16.27-15.72,19-11,1.42,2.46-22.36,8.8-19.12,14.41,1.95,3.37,17.52-13.93,19.17-11.07,3.24,5.61-20.78,10.75-19.25,13.41,2.63,4.55,16.44-16.06,19.28-11.14,2.68,4.65-21.94,9.94-19.4,14.34,2.12,3.67,16.76-15.83,19.42-11.22,2.21,3.82-21.6,8.75-19.46,12.45,2.64,4.58,18-13.71,19.47-11.24,3,5.28-21.4,9.73-19.53,13,1.74,3,17.76-14.39,19.54-11.29,2.57,4.44-22.52,8.05-19.61,13.09,2.4,4.16,17.55-14.89,19.61-11.33,1.47,2.54-21.79,7.64-19.61,11.4,1.56,2.7,18.27-13.65,19.61-11.32,1.74,3-22,8.19-19.65,12.18,1.74,3,18-14.14,19.65-11.34,2.35,4.08-22.79,8.59-19.75,13.85,2.45,4.25,17.33-15.51,19.72-11.38s-22.34,7.82-19.76,12.29c3,5.13,18-14.32,19.74-11.39,2.52,4.37-22.63,10-19.87,14.82,1.6,2.78,17.46-15.43,19.77-11.42,2.61,4.52-22.21,9.61-19.87,13.66,1.42,2.46,18.44-13.79,19.8-11.43,2.27,3.93-22.73,8.29-19.88,13.22,1.91,3.31,17.41-15.59,19.81-11.44S604,153,607,158.05c2.11,3.65,16.74-16.81,19.83-11.45,3.2,5.55-21.69,10.77-19.94,13.8,1.29,2.24,16.8-16.73,19.84-11.46,1.8,3.11-22.63,12-21,14.88,3.3,5.71,18.94-15.38,20.86-12,3.28,5.69-23.73,8.36-21.17,12.79,2.88,5,19-16,21.15-12.21"/><path class="cls-3" d="M544.8,120.71c.28.49,2.85-2.24,3.11-1.8.78,1.36-5.77,3.77-4.79,5.47s7.15-7.26,8.51-4.91c1,1.72-9.89,6-8.62,8.26,1.63,2.83,9.37-8.54,10.72-6.2,1.81,3.14-11.6,5.58-10.13,8.12,1.26,2.17,9.52-9.68,11.33-6.54,1.38,2.4-11.93,6.2-10.84,8.1.87,1.5,10.34-9.22,11.75-6.78.85,1.47-13.06,5.13-11.31,8.16s10.22-10.16,12.07-7c1.73,3-13.43,5.46-11.45,8.9,1.47,2.54,11.42-8.92,12.43-7.17,1.13,2-12.78,7.24-11.93,8.71,1.62,2.8,11.07-10,12.64-7.29,1.73,3-13.48,5.95-12.55,7.56,1.61,2.78,10.67-10.77,12.67-7.32,1.39,2.41-13.32,6.82-12.21,8.73,1.46,2.54,11.2-10.13,12.79-7.38,1.45,2.52-13.81,6.19-12.37,8.68,2,3.48,11-10.72,12.87-7.44,1.29,2.24-14.4,4.81-12.85,7.5s11.23-10.29,12.88-7.43-13.55,7-12.33,9.08c1.07,1.85,11.59-9.87,13-7.49,2.07,3.58-13.57,7-12.49,8.9,1.67,2.9,11.25-10.66,13.05-7.54,2.08,3.61-14.08,6.24-12.68,8.65,1.2,2.08,11.52-10.35,13.12-7.58,1.36,2.35-14.49,6-12.52,9.38,1.06,1.83,11.81-10.16,13.26-7.65,2.14,3.7-14.7,5.86-12.66,9.38,1,1.77,11.59-10.83,13.38-7.73,1.93,3.34-14.33,6.45-13.08,8.61,1.37,2.38,11.79-10.64,13.45-7.76,2.19,3.79-14.84,6-13,9.22,1.05,1.82,12-10.54,13.59-7.85.9,1.55-14.31,7.29-13,9.64,1.47,2.54,12.21-10.6,13.74-7.94s-14.92,6-13.66,8.14,12.76-9.66,13.76-7.94c1.94,3.37-15.1,6.7-12.8,10.67,2,3.41,12.11-11.43,14-8.1,2.17,3.76-16.26,4.26-14,8.13,1.44,2.5,12.36-11,14-8.11,1.5,2.59-14.91,7.62-13,10.87,1.56,2.69,12.67-11.18,14.34-8.28,1.06,1.84-16.32,5.22-14,9.28,2,3.55,13.18-10.55,14.45-8.34,1,1.79-14.81,8.42-13.76,10.25,2.35,4.08,13.15-11.17,14.7-8.48,1.14,2-16,6.49-14.46,9.12,1.34,2.32,13.56-10.63,14.77-8.53,1.72,3-15.73,7-14.67,8.83,1.64,2.82,12.78-12.08,14.81-8.55,1.54,2.65-15.94,6.95-14.44,9.54,2.27,3.94,13.69-10.8,14.94-8.63,1.6,2.77-15.41,8.42-14.34,10.28,1.6,2.76,14.06-10.71,15.18-8.76,2.36,4.08-16.41,6.78-15,9.18,1.72,3,14.13-10.73,15.24-8.8,1.3,2.24-15.67,8.71-14.61,10.55,1.58,2.73,13.78-12,15.52-9,2.2,3.8-16.17,8.46-14.94,10.59,2,3.38,14.58-11.23,15.79-9.12,2.36,4.09-16.74,8.15-15.2,10.81,2.14,3.7,13.56-13.72,16.11-9.31s-16.9,8.9-15.29,11.7,14.52-13.15,16.58-9.58c2.62,4.54-17.83,8.15-16,11.36,2.64,4.57,14.65-13.82,17-9.79,1.12,1.94-19.25,6-16.85,10.13,2,3.41,15.26-12.92,17-9.84,1.44,2.49-19.25,6.18-16.91,10.23,1.42,2.47,14.58-14.29,17.12-9.89,2.77,4.78-18.85,7-17.06,10.07,2.51,4.35,14.87-13.89,17.17-9.91s-18.36,8.14-16.94,10.61c1.82,3.14,15.83-12.62,17.33-10,1.23,2.13-17.71,10.58-16.43,12.8,2.77,4.8,15.85-14.18,18-10.41,1.18,2.05-19.41,8.73-17.53,12C563.15,183.6,576.7,163.93,579,168c2.62,4.54-19.77,10.25-17.79,13.69,1.62,2.8,18.89-14.57,20.48-11.82s-22.87,8.22-20.15,12.94c1.91,3.3,18-17.71,21.2-12.24,2.15,3.71-22.5,10.2-21.08,12.65,3.63,6.29,35.72-32.08,40.68-23.49,3.32,5.74-43.28,20.49-39.86,26.42,4,6.92,37.52-28.57,40.51-23.39,4,7-44.43,16.85-40.38,23.86,4.43,7.67,34.71-33.57,40.58-23.42,5.37,9.31-43.11,19.95-40.11,25.15,3.26,5.65,35.52-32.9,40.88-23.61,2.77,4.79-46.09,15-40.68,24.38,3.8,6.59,38.74-29.37,41.77-24.12,2.91,5-45.71,19-41,27.15,9.23,16,53.52-51.36,62.38-36,6.36,11-66.9,30.15-61.63,39.27,8.65,15,51.86-52.43,61.6-35.57,6.11,10.58-70.37,22.46-60.92,38.82,4.27,7.41,57.41-42.49,61.45-35.48,9.84,17-69.92,22.43-61,37.86,9,15.65,51.75-52.47,61.53-35.53,5.81,10.07-67.74,25.57-61.32,36.69,9.09,15.75,54-49.17,61.77-35.66,8.44,14.61-67.35,27.21-61.5,37.34,10.76,18.64,71.05-70.56,83.84-48.41,6.22,10.76-90.28,38.78-83.52,50.49,12.16,21.06,70.57-69.77,83.14-48,6.7,11.6-95.89,26.83-83,49.22,10.6,18.36,77-57.73,82.75-47.77,11.77,20.37-88.57,39.73-82.42,50.38,6.37,11,71.56-65.35,82-47.32,10.72,18.57-94.8,25.93-81.85,48.35,5.85,10.14,74-60.52,81.67-47.15,6.2,10.74-94.16,25.82-81.63,47.51C580,233,640.23,148.94,649,164.08c6.3,10.91-94,28.09-81.24,50.19,5.63,9.75,74.42-57.52,80.72-46.6,13.12,22.71-88.87,33.41-80.6,47.73,7.78,13.48,75.31-55.28,80.42-46.43,8.16,14.13-91.68,29.72-80.07,49.84,11.75,20.34,69.44-63.41,79.54-45.92,10.53,18.24-85.78,35.68-79.46,46.64,9.63,16.67,70.48-61.18,79.35-45.81,8.44,14.61-88.57,30.69-79.23,46.87,5.14,8.91,72.53-57,79.08-45.65,9.13,15.83-84.59,38-78.81,48,6.59,11.4,70.76-58.68,78.48-45.3,5.44,9.41-83.48,38.75-78.1,48.07,5.53,9.58,68.94-60.13,77.74-44.89,9.12,15.79-86.13,30.55-77.7,45.14,6.92,12,66.27-64.6,77.67-44.84,6.69,11.58-89.56,26.32-77.22,47.69,8.53,14.77,64.75-65.43,76.89-44.4C657.2,203,559.05,212,569.91,230.75c5,8.59,65.09-63.5,76.32-44.06,5.91,10.24-87.27,26.47-75.84,46.27,11.1,19.22,64.27-63.39,75.65-43.68,5.28,9.15-83.75,31.23-74.93,46.52,9.5,16.45,65.6-59.09,74.79-43.18,8.21,14.23-85.31,25-74.75,43.31,6.72,11.63,63.78-62.16,74.75-43.16,8.38,14.53-85.29,25.56-74.35,44.51,7.12,12.34,64.59-60,74.41-43,11.64,20.16-82.78,28.89-74.06,44,11.4,19.76,63.51-61.26,74.16-42.82,6.63,11.48-82.56,29-73.52,44.62,10.93,18.93,69.08-50.71,73.77-42.59,9.21,16-83.9,25.65-72.86,44.79,9.2,15.92,66.82-53.54,73.3-42.32,8.14,14.09-82.82,26.19-72.09,44.78,7.05,12.2,62.71-59.26,72.7-42,7.08,12.28-82.86,24.37-71.65,43.79,7.42,12.86,64.19-55.46,72.16-41.66,11.53,20-77.63,32.2-72.15,41.69,7.69,13.32,67.15-50.33,72.16-41.66,8.65,15-82.56,23.5-71.4,42.83,8.89,15.4,65.84-51.67,71.75-41.43,9.92,17.17-74.62,35.82-70.05,43.73,6.18,10.7,59.67-60.88,71.12-41.06,5.62,9.75-77.71,28.32-69,43.4,9.51,16.48,106-85.94,116.68-67.36,8.5,14.72-131.33,41.81-116.45,67.59,12.43,21.53,101.53-92.3,116.12-67,14.78,25.61-127.11,46-113.77,69.14,12.38,21.44,97.91-84.86,110.18-63.61,16.5,28.59-123.79,38.11-108,65.43,13.24,22.94,95-77.35,104.77-60.49,12.17,21.08-117.33,38.68-104.44,61,9.18,15.9,97-71.48,103.69-59.87,9.23,16-112.47,45.4-103,61.79,11.34,19.64,94.11-69.24,100.56-58.06,11.45,19.82-113.51,38-100.48,60.51,8.61,14.91,88.77-72.2,97.84-56.49,10.59,18.33-109.37,36.66-97.84,56.62,12.51,21.67,87.32-74.42,97.71-56.41,7,12.21-111.18,37-97.87,60,11,19.11,84.5-71,94.13-54.34,6.24,10.82-105,36.07-94.16,54.79,6,10.46,80.88-76.29,93.69-54.09,9.74,16.86-109,30-93.84,56.36,9.71,16.81,83.35-67,91.52-52.84,10.89,18.87-103.71,32.36-91.56,53.4,10.9,18.88,79.37-72.65,91-52.53,6.61,11.46-101,36.41-91.06,53.58s80.7-68.05,90-52c13,22.42-98.07,38.92-90,52.81,8.35,14.47,75.56-75,89.17-51.48,7.53,13.05-98.3,35.85-89.18,51.63,9.44,16.36,82.76-62.25,89-51.39,8.75,15.14-96.58,41.55-89.19,54.34,11.46,19.85,73.83-71.12,86.17-49.75,11.12,19.27-98.8,31.79-86.33,53.39,12.05,20.86,72.81-64.54,82.55-47.67,9.38,16.24-89.93,36.65-82.62,49.32,6,10.39,73.44-59.61,80.89-46.7s-92.09,29.61-81,48.85c8.24,14.27,68.44-63.29,78.73-45.45,6.37,11-86,33.33-78.75,45.93,8.65,15,70-59.49,78.25-45.18,10.75,18.61-87.15,32-78.33,47.23,6.36,11,68.51-57.27,76.18-44,6.55,11.34-81.83,35.59-76.23,45.27,11.74,20.35,63.55-62.88,74.89-43.24,8.25,14.29-82.75,29.72-74.9,43.32,11.83,20.49,69.57-52.29,74.82-43.2C671,261,579,277.31,584.87,287.45c6,10.31,63.57-56.57,72.17-41.67,7.47,12.93-78.69,33-72.27,44.07,7.65,13.26,61.46-54.65,69.76-40.27,5.36,9.28-74.85,32.18-69.79,40.95,10.91,18.9,63.23-49.94,69-39.87,9.42,16.32-79.2,25.54-69.17,42.93,8.51,14.73,55.88-50.66,63.85-36.86,5.35,9.27-72.67,23.42-63.92,38.59,7.66,13.27,52.57-53.08,62.41-36s-70.42,24.65-62.5,38.35c8.55,14.81,53.29-51.25,62.17-35.89,7.7,13.35-71.07,20.86-62.19,36.25,8.35,14.46,55.07-48.26,62.2-35.91,6,10.48-72.26,22-62.33,39.17,10.09,17.49,57.32-45,62.47-36.07,6.83,11.82-68.84,27.72-62.57,38.58,8.67,15,57-46,62.69-36.19,5.39,9.34-71.77,23.05-62.79,38.6,5.41,9.37,53.53-52.53,62.89-36.31,9.19,15.93-72.72,22.22-63,39.07,7,12,53.72-52.75,63.13-36.45,6.4,11.09-71.66,21.79-63.13,36.57,9.32,16.15,53.9-52.44,63.13-36.45,10,17.35-69.58,28.22-63.24,39.2,5.25,9.08,53.41-53.84,63.37-36.59,4.87,8.44-67.72,32-63.48,39.32,4.78,8.26,53.73-53.84,63.61-36.73,10,17.31-73.86,21.16-63.69,38.78,7.41,12.83,54.39-53.11,63.79-36.82,6.68,11.56-74.13,20.77-63.85,38.57,5.73,9.94,58.26-46.74,63.93-36.91,6.18,10.7-68.4,30.28-64,37.95,10,17.32,57-49.14,64-37,4.64,8-69.92,30.76-64.17,40.71,7,12.07,55.66-52.22,64.36-37.16,5.05,8.75-74.29,22.28-64.45,39.33,4.72,8.16,55-53.86,64.56-37.27,8.34,14.45-71.46,28.54-64.68,40.29,4.75,8.22,54.35-55.56,64.83-37.42s-75.12,22.91-64.95,40.53c7.21,12.48,57.74-50.33,65.1-37.58,9.87,17.09-71.64,30.44-65.65,40.82,9.44,16.35,58.49-50.64,65.8-38,8.21,14.22-75.37,27.13-66.75,42.07,6,10.38,56.2-57.23,66.93-38.64,5.88,10.19-72.79,31.95-67.45,41.21,8.58,14.85,60.47-51.29,67.56-39,8.23,14.25-76.23,25.17-67.73,39.89,4.7,8.13,57.85-56.31,67.77-39.12,8.17,14.15-73.87,33-68.38,42.47,8.41,14.56,62.48-50,68.53-39.57,6.37,11-79.16,26.33-69.21,43.57,8.48,14.69,63.78-49.79,69.39-40.07,8.79,15.23-80.15,26.66-70.06,44.13,5.37,9.3,62.14-54.58,70.24-40.56,11,19.09-76.39,31.08-70.39,41.47,8,13.79,62.56-54.26,70.42-40.65,10.29,17.82-78.51,31-71,44.12,5.5,9.51,62.19-56.21,71-41,7.82,13.54-81.77,27-71.55,44.71,11,19,60.74-59.8,71.44-41.25,6.27,10.85-79,31.51-71.85,44,5.45,9.43,63.53-55.69,71.77-41.43,9.23,16-83.52,23.52-72,43.39,11.63,20.14,61.54-59.72,72-41.58,6.77,11.73-79,31.7-72.27,43.33,5.64,9.76,65.51-53.41,72.26-41.72,5.44,9.41-79.7,31.56-72.57,43.91,9.5,16.46,62.69-59.17,72.64-41.94,6.19,10.73-81.56,29.75-73,44.54,6.5,11.24,65.74-55.19,73.21-42.26,9.92,17.18-78.59,33.74-73.3,42.91,10.86,18.81,66.28-54.62,73.36-42.36,9.38,16.25-85.81,25-73.84,45.78,10.4,18,64-61,74.38-42.94,6.94,12-85.73,25.1-74.58,44.42,10,17.32,65.6-59.32,74.89-43.24,10.47,18.13-82.3,33.32-75.22,45.59,5.81,10.06,69.07-55.17,75.69-43.7,6.13,10.61-81.6,35.89-76,45.66,11.55,20,67.12-60,76.34-44.07,7.8,13.51-81.92,38.81-76.82,47.65,11.79,20.42,70.27-57.14,77.45-44.72,12,20.82-84.66,35.58-77.81,47.43,8.87,15.38,70.29-59,78.26-45.18,5.87,10.18-86.51,31.52-78.33,45.68,11.87,20.56,67.94-63.39,78.41-45.27,5.15,8.93-89.66,29-78.75,47.86,7.25,12.56,72.81-56.69,79.16-45.71,10.92,18.93-90.15,30.7-79.59,49,11.16,19.35,71.42-61.24,80.08-46.24,9.41,16.3-85.59,38.81-80.31,48s75.43-55.43,80.57-46.52c12.45,21.57-92.84,26.43-80.69,47.46,7.12,12.34,74.07-58.38,80.83-46.67,7.26,12.58-88.54,33.43-80.85,46.76C582.88,416,646.24,339,653.5,351.54c8.31,14.38-91,32.88-81.26,49.83C583,420,642,333.49,654,354.19c7,12.12-90.26,36.7-82.17,50.7,5.55,9.63,76.65-58.14,82.66-47.72,9.56,16.56-94.42,31-83,50.66,9.29,16.09,75.9-61.23,83.44-48.17,6.91,12-93.52,32.65-83.64,49.76,6.43,11.13,75.8-62.37,83.86-48.42,12.9,22.36-91.26,37.63-84.07,50.08,13,22.47,73-68.19,84.29-48.67,8.49,14.7-93.56,33.67-84.4,49.54,6.61,11.45,74.43-66.27,84.52-48.79,8,13.93-94.23,33.29-84.65,49.88,7.71,13.36,72-71.1,84.79-49,6.54,11.33-94.65,32.38-84.84,49.36,8.12,14.06,72.79-70,84.89-49,10.46,18.12-91.76,39.67-85.16,51.11,8.76,15.16,77.51-63,85.44-49.33,7.13,12.36-94.5,38.27-85.91,53.15,8.22,14.23,75-69.69,86.4-49.89,11.94,20.69-96.41,35.86-86.73,52.61,12,20.82,73.86-73.16,87.08-50.27,11.46,19.84-93.78,41.59-87.38,52.68,11.76,20.37,79.75-64.36,87.68-50.62,12.87,22.3-100.52,32.6-88.1,54.1,9.83,17,76.58-71.83,88.53-51.12,8.44,14.62-97.19,38.21-88.74,52.84,6.57,11.39,75.28-75.05,89-51.36,11.15,19.33-96.71,39-89.07,52.23,11.93,20.66,79.48-68.27,89.17-51.48,6,10.35-95.84,43.25-89.5,54.23,10.05,17.41,75.86-76.07,89.84-51.86,13.59,23.54-104.59,30.7-90.27,55.5,9.12,15.81,83.49-64.88,90.71-52.37,8.87,15.37-104.06,29.62-90.75,52.68,11.23,19.45,76.51-77.14,90.79-52.41,13.52,23.42-101,36.58-91,54,9.07,15.71,79-73.63,91.15-52.63,11.15,19.3-103.72,33.75-91.43,55,10.73,18.58,78.41-76,91.72-53,9.45,16.36-101.86,36.8-91.86,54.11,8.7,15.07,85.31-64.7,92-53.11s-106.41,32.32-92.41,56.58c6.73,11.64,82.54-71.39,92.82-53.59,6.54,11.34-106.05,30.7-92.82,53.62,11.1,19.23,82.71-71.1,92.82-53.59,11.49,19.89-107.19,30.24-93,54.88,8.74,15.14,80.93-74.89,93.12-53.77,10,17.3-99.66,43.37-93.21,54.54,8.55,14.8,83.9-70.15,93.3-53.87,11.82,20.47-105.5,36.05-93.62,56.63,9.4,16.28,79.41-79.41,93.94-54.24,6.41,11.1-102.95,39.58-94,55,14.47,25.07,85.9-68.59,94.12-54.34,13.2,22.86-103.35,40.32-94.31,56,9.7,16.8,80.55-78.73,94.5-54.56,6.76,11.71-107,34.31-94.63,55.73,9.23,16,88.15-66.18,94.77-54.71,14.1,24.42-102.36,45.47-95.15,58,15.23,26.38,83.73-75.58,95.52-55.14,13.72,23.76-107.81,37.92-95.9,58.54,11.65,20.19,86.61-72.35,96.29-55.59,13,22.54-104.37,44.15-96.53,57.72,11.95,20.7,88.84-69.6,96.77-55.88,12.66,21.93-104.72,43.73-96.93,57.23,8.41,14.56,86.39-74.57,97.08-56,14,24.28-108.7,37.88-97.26,57.69,7.62,13.21,83.37-80.65,97.45-56.26,14.73,25.52-106.38,43-97.66,58.11,9.76,16.9,87.09-75.16,97.87-56.5,8.8,15.24-110.88,34.56-97.92,57,9.33,16.16,89.29-71.61,98-56.57,15.36,26.6-106.92,41.6-98,57,10.47,18.14,85.61-78.21,98.07-56.62C677.46,438.58,551,447.41,564,470c12.2,21.13,91.24-69.05,98.33-56.77C669,424.69,554,455.39,563.79,472.27c14.08,24.39,91.89-69.09,98.83-57.07,10.86,18.8-106.26,45.34-98.94,58,14.09,24.4,84.08-83.12,99.05-57.18,12.09,20.93-108.06,45.62-99.42,60.59,9.74,16.87,87.45-79,99.8-57.62C673.68,437.32,550.81,458,563,479.14c9.69,16.78,92.49-71.55,100.35-57.94C674.7,440.79,547.87,453,563,479.27c14.07,24.38,87.31-80.59,100.38-57.95,7.18,12.45-107.29,47-100.47,58.77,11,19.06,90.55-75.39,100.56-58,13.88,24-113.66,39.92-101,61.89,12.92,22.37,89.24-79.59,101.4-58.54,14.13,24.48-110.77,43-101.46,59.11C569.24,496.27,647.84,398,664,425.89c9.22,16-116.55,33.38-101.59,59.29,11.84,20.52,94.18-71.66,101.66-58.7,14.07,24.37-111.9,45.37-102.06,62.42,13,22.45,94.34-73.24,102.47-59.16,9.12,15.8-119,34.59-102.83,62.59,13.48,23.36,91.62-79.63,103.2-59.58,15.35,26.58-114.32,41-103.26,60.12,14.62,25.32,94-75.73,103.32-59.65,13.18,22.84-117.71,34.84-103.33,59.74,11.48,19.89,94.79-74.45,103.34-59.66,10.33,17.91-120.54,33-103.62,62.28,14.82,25.66,89.76-84.46,103.9-60,13.87,24-116.33,42.84-104.28,63.7,15,26,96.48-74.63,104.67-60.44,10.28,17.81-113.95,45-104.73,60.95,11.72,20.3,89.43-87.11,104.79-60.5,8.76,15.18-116.82,43.68-105.14,63.91,14,24.17,89.13-89.27,105.5-60.91,7.12,12.32-118.09,43-105.84,64.23,16.2,28.05,97.3-76.71,106.19-61.31,9.06,15.69-114.56,49.55-106.43,63.65,12.5,21.65,98.35-76,106.68-61.59,7.53,13-117.74,44.81-106.88,63.62,10.57,18.31,96.9-79.49,107.09-61.83,13,22.45-123.21,34.23-107.12,62.11,13,22.43,99.85-74.52,107.15-61.87,16.91,29.29-114.14,50.1-107.18,62.16,14.57,25.24,97.53-78.67,107.21-61.9,10.5,18.19-114.84,49-107.24,62.18,12.56,21.75,90.18-91.55,107.27-61.93S544.41,488.75,559.33,514.6c11.43,19.8,96.44-82,107.85-62.27C679.35,473.4,546,494,559.12,516.74c12.18,21.1,91-92.38,108.28-62.52,14.68,25.42-121,44.06-108.59,65.64C575.62,549,656.18,437,667.73,457c13.54,23.44-116.25,51.24-109,63.79,8.53,14.77,95.91-85.84,109.1-63,11.2,19.4-121.85,43.28-109.29,65,9.3,16.12,96.73-85.35,109.51-63.22,16.23,28.11-127.68,35.85-109.85,66.73,16.27,28.19,98.26-84.32,110.21-63.63,10.93,18.93-118.18,52-110.39,65.49,13.1,22.69,95.48-90,110.58-63.84,8.87,15.35-122.16,48-110.92,67.5,13.74,23.8,98.25-86.87,111.3-64.26,10.51,18.2-121.11,51.37-111.63,67.8,10.34,17.9,98.64-87.78,112-64.65,14.39,24.92-128.45,38.22-112.15,66.45,13,22.56,99.31-87.41,112.34-64.86,14.21,24.63-126.83,40.57-112.4,65.55,18,31.27,103.71-80.11,112.47-64.93,10,17.39-124,45.85-112.54,65.64,14.58,25.24,101.74-83.84,112.61-65C687.81,505,544.78,518.29,557,539.41c9.06,15.7,95.54-94.93,112.76-65.1,17.36,30.05-129.37,37.62-112.86,66.21,7.45,12.92,103.4-81.81,113-65.22,17.78,30.79-129.05,38.21-113.05,65.93,16.24,28.12,98.24-91.09,113.12-65.31,18.06,31.29-120.64,55-113.33,67.7,14.46,25,98.29-92,113.57-65.57,8.28,14.33-122.41,53.78-113.83,68.64,9.47,16.41,100.35-89.8,114.14-65.9,13.08,22.65-124.82,49.26-114.28,67.51,10,17.42,100-91.06,114.45-66.07,8.69,15-129.63,42.36-114.64,68.32,14.42,25,100.47-91.24,114.86-66.32,14,24.23-127.7,47.08-115.08,68.94,15.08,26.11,98.22-96.26,115.35-66.59,13.09,22.68-126.27,47.91-115.36,66.8,15.82,27.41,105.57-83.62,115.38-66.62,16.42,28.44-126.22,49.5-115.5,68.07,11.85,20.53,97.6-98,115.64-66.77,16,27.76-134.11,36.64-115.77,68.41,13.19,22.85,100.64-93.45,115.94-66.94,12.25,21.22-130.15,46.39-116.22,70.51,10.84,18.78,108.27-81.7,116.58-67.31,17.31,30-126.89,49.94-116.62,67.73,13.47,23.32,108.85-80.87,116.66-67.35,16,27.77-130.22,45-116.73,68.4C571.24,589.41,656.35,467,672,494.05c11,19-133.62,40.31-117,69.17s102.78-92.5,117.13-67.63c12.58,21.78-135.55,39-117.34,70.53,18.44,32,100.32-97.91,117.63-67.92,9.53,16.51-127,55.33-117.86,71.13C564.73,586.92,659.43,478,672.75,501.1c11.84,20.49-129.09,51.06-118.28,69.79C572.3,601.78,663,485.28,672.91,502.51c12.61,21.85-130.27,51.67-118.65,71.79,10.21,17.69,111.25-82.1,119-68.7,9.89,17.13-137.18,37.83-119,69.27,15.54,26.92,110.07-84.36,119.08-68.75,11.39,19.73-130,52.29-119.21,71.07,11.78,20.4,102.35-98.57,119.44-69,10.21,17.67-133,49-119.61,72.17,8.35,14.47,110.3-85.93,119.93-69.24,18.36,31.79-131.59,51.11-120,71.15,18,31.23,111.95-83.72,120.21-69.4,17,29.5-132.48,45.77-118.18,70.55,14.5,25.11,106.82-88.44,118.42-68.36,9.84,17-130.21,43.84-115.83,68.75,13,22.57,99.31-95.92,116-67,15,26-126.37,42.89-112.1,67.6,11.68,20.24,99.22-87.69,112.39-64.89,14.72,25.5-129.18,34.66-111.66,65,7.89,13.65,98-88.3,111.71-64.49,9,15.65-122.89,44.67-111.42,64.54,9.94,17.21,100-84.25,111.44-64.35,16.86,29.21-124.15,40-110,64.59,15.32,26.54,96.26-87.47,110.06-63.55,8.78,15.2-119,46.76-109.18,63.69C579.41,608.67,659.24,494.64,675,522c10.25,17.75-121.62,40.44-108.48,63.2,13.4,23.22,96.85-82.9,108.54-62.67,10.83,18.77-113.61,50.54-106.41,63,13.9,24.07,91.17-88.19,106.56-61.52,14.27,24.71-111.57,46-102.21,62.22,14.79,25.61,91.48-78.34,102.53-59.2,8.52,14.76-114.6,34.1-99.87,59.61,12.83,22.23,90.51-74.34,100.07-57.78,7.8,13.51-106.81,36.63-94.54,57.9,11.1,19.22,83.95-73.67,94.86-54.77,9.55,16.54-107.32,29.33-92.64,54.76,6.69,11.58,82.61-71.16,92.77-53.56,13.54,23.46-95.29,42.71-89,53.55s75.66-75,89.24-51.52c8.94,15.48-100.74,29.63-88.1,51.52,8.48,14.69,80.67-63.89,88.16-50.9,6.29,10.88-90.85,39-84,50.9,12.53,21.7,76.31-62.39,84.25-48.64,13.13,22.74-89.15,36.83-82.33,48.63,5.94,10.3,76.69-57.54,82.43-47.59,13.06,22.62-94.85,24.75-81.66,47.59,9,15.52,73.06-62.15,81.71-47.17,10.72,18.57-91,29.72-80.92,47.18,7,12.1,71.77-62.66,81-46.75,9.47,16.41-86.26,35.61-79.84,46.75,7.07,12.23,69.42-64.28,79.9-46.14,12.2,21.13-89.55,24.65-77.15,46.14,8,13.87,66.89-62.67,77.3-44.63,10,17.35-87.74,23.63-75.62,44.63C612.07,605,665.23,522.25,677.2,543c5.28,9.14-79.27,30.48-71.63,43.71,10.36,17.95,61.45-59.5,71.85-41.48,10.6,18.36-79.62,25.5-70.39,41.49,6.74,11.65,64.74-50.61,70.47-40.69,9.55,16.54-72.71,26.76-64.66,40.7,9.58,16.6,54.75-55.25,65-37.52,8.48,14.68-72.5,21.08-63,37.52,5.33,9.23,56.09-48.61,63.12-36.44,5.2,9-64.63,25.9-58.53,36.45,4.7,8.15,53.45-43.17,58.78-33.94,4.19,7.26-62.48,23.7-56.56,33.94,6.44,11.16,52.93-39.22,56.68-32.72,7.33,12.7-56.95,25.32-52.67,32.73,6.78,11.73,48.71-37.76,52.88-30.53,6.9,11.95-57.8,17.44-50.24,30.53,6.65,11.52,43.76-40.54,50.38-29.08,7,12.13-50.1,22.4-46.24,29.09s43-32.78,46.46-26.82c5.22,9-52.22,16-46,26.82,7.4,12.82,38.85-39,46-26.58,6.54,11.33-50,16.27-44.07,26.58,6.47,11.2,40.64-31.62,44.17-25.5,4.22,7.31-44.67,17.3-39.93,25.5,5.34,9.26,36.29-29.87,40.15-23.18,5.94,10.29-40.29,15.08-35.62,23.18,5.22,9,31.69-27.9,35.85-20.7,4.41,7.66-38.57,15.41-35.52,20.7,5.07,8.78,29.8-30.45,35.53-20.52,2.45,4.24-33.75,15.69-31,20.51,4.49,7.77,26.4-26.32,31.19-18,3.46,6-34,11.6-30.31,18s27-23.4,30.36-17.52c2.67,4.62-30.68,13.24-28.21,17.52,2,3.5,25.27-21.6,28.31-16.35,3.77,6.53-30.16,11.53-27.39,16.34,3.4,5.89,24.26-21.32,27.43-15.83,3.4,5.89-28.41,12.52-26.5,15.83,3.72,6.45,23.15-21.21,26.54-15.33,2.42,4.18-24.71,10-21.65,15.3s19.73-16.32,21.87-12.62c2.76,4.79-18.9,10.07-17.44,12.6s16-13,17.61-10.17c1.78,3.06-12.61,7.32-11.11,9.94.88,1.52,9.89-8.54,11.11-6.42.69,1.19-6.32,4.14-5.6,5.4.33.56,3.49-3.37,4.08-2.35"/><path class="cls-3" d="M583.05,89.13c.35.61,3-2.51,3.36-1.94.94,1.63-5.37,4-4.95,4.77,1.26,2.19,7.62-6.45,8.51-4.91s-11,5.7-9.4,8.45c.83,1.44,10.85-8.94,12-6.93,1.76,3-13,6.92-12.09,8.52s11.57-9.72,12.89-7.44c1.57,2.73-14.22,7.82-12.77,10.34.91,1.56,11.94-11.28,13.84-8,2.48,4.29-16,7.36-13.69,11.33,2.12,3.68,12.6-11.82,14.56-8.4,1.07,1.84-15.66,8-14.48,10.07,1.38,2.38,13-11.57,14.76-8.52,1.64,2.84-16.27,6.78-14.71,9.47,1.18,2.06,13.18-11.4,14.82-8.56,1.85,3.21-15.93,9.49-14.66,11.68,2,3.51,13.54-11.09,15-8.64,2,3.5-16.66,8.83-14.77,12.1,1.72,3,13-12.32,15.1-8.72,1.17,2-16.37,8-15,10.37,1.72,3,13.29-12,15.16-8.75s-16.63,6.42-15.15,9c1.14,2,14-10.84,15.17-8.75,1,1.79-16.8,6.36-15.14,9.23,1.18,2,13-12.53,15.18-8.76s-16.35,9.2-15,11.52c1.67,2.89,12.89-13,15.29-8.82,1.12,2-16.87,7.24-15.2,10.13,2.15,3.73,13.65-11.75,15.32-8.85,1.45,2.5-17.79,5-15.29,9.29,1.88,3.27,12.87-13.11,15.33-8.85,1.14,2-16.63,7-15.3,9.31,1.85,3.21,14.11-11,15.35-8.86s-16.59,9.7-15.13,12.23,13.8-11.76,15.45-8.91c1.8,3.11-17.76,7.13-15.28,11.43,1.71,2.95,13.55-12.35,15.51-9s-16.62,8.82-15.35,11c2.1,3.64,13.17-13.09,15.55-9,1.67,2.9-18,5.7-15.47,10.1,1.63,2.82,13.19-13.12,15.57-9,2.51,4.34-17.94,6.39-15.43,10.73,2.27,3.93,13.58-12.51,15.6-9,2.24,3.88-16.58,7.62-15.57,9.37,1.62,2.81,13.23-13.12,15.6-9,2.25,3.89-16.84,7.43-15.55,9.67s14.28-11.33,15.62-9c1.94,3.37-17.1,8.85-15.37,11.84,1.19,2.06,13.5-12.74,15.64-9s-17.62,8.35-15.35,12.29c1.35,2.33,13.5-12.78,15.66-9,1.76,3-17.29,9-15.35,12.4,1.45,2.5,14.53-11,15.67-9,1.78,3.07-17.09,8.68-15.43,11.55,1.53,2.66,14.54-11,15.67-9,2.16,3.74-16.94,8.72-15.47,11.26,2,3.46,14.14-11.75,15.69-9.06,2.08,3.6-17.51,8.43-15.41,12.06,1.91,3.31,14.67-10.86,15.71-9.07,1.63,2.82-17.72,7.35-15.51,11.19,1.59,2.75,13.78-12.43,15.72-9.07,2.45,4.24-17.18,9.1-15.39,12.21,2.39,4.12,13.53-12.82,15.7-9.06,2.53,4.39-17.63,6.16-15.64,9.61,1.06,1.83,13.57-12.74,15.69-9.06,1.14,2-16.78,8.61-15.51,10.82,1.5,2.6,13.34-13.14,15.69-9.06,1.55,2.67-18.1,5.13-15.66,9.35,1.65,2.86,13.68-12.54,15.69-9.06,1.6,2.76-16.92,7.89-15.59,10.2,1.68,2.89,13.87-12.29,15.72-9.08C602,151,583.52,157.09,585.18,160c1.07,1.85,13.38-13.33,15.81-9.13,1.44,2.5-17.37,8-15.71,10.9s14.25-12.13,15.94-9.2c1.18,2-17.37,8.14-15.89,10.7,2.52,4.36,15-11.17,16.1-9.3,1.64,2.84-17.18,7.67-16.09,9.56s14.24-12.58,16.13-9.31c1.64,2.84-18.42,6.24-16.13,10.2,1.78,3.09,14.11-13.11,16.26-9.39S582.73,162.42,585,166.3s14.24-14.34,16.89-9.75c2.54,4.4-21.14,7.6-18.13,12.8,2.61,4.53,16.37-14.34,18.49-10.67,2.64,4.57-21.88,6.51-18.9,11.67,1.4,2.43,17.77-13.13,19-11"/><path class="cls-4" d="M611.07,343.84c.1.17,3.52-2.32,3.64-2.1s-3.78,4.89-3.75,4.95c.5.87,10-5.8,10-5.8s-9.51,6.79-9,7.69,12.28-7.11,12.29-7.1c.3.52-11,9-11,9s13.59-7.95,13.64-7.88c.18.33-12.33,9.61-12.33,9.61l14.39-8.3c.35.61-13.32,9.59-13.32,9.59.47.82,14.69-8.49,14.69-8.49l-13,10.35c0,.1,14.79-8.87,14.93-8.63,0,.06-14.1,9.47-13.92,9.78l15.07-8.7c0,.06-13.62,10.36-13.62,10.36l15.26-8.8c.25.42-13.9,10.37-13.9,10.37.11.19,15.42-8.91,15.42-8.91.66,1.15-14.75,9.29-14.09,10.45,0,0,15.55-9.05,15.58-9,.37.64-14.68,10-14.63,10.09l15.69-9.05S624.57,363.48,625,364.17c.63,1.09,15.88-9.17,15.88-9.17.16.27-14.3,11-14.3,11,.42.72,15.67-10,16.09-9.29.15.26-16,8.94-15.32,10.19.6,1,16.09-9.53,16.19-9.35.35.6-14.89,10.89-14.89,10.89L645,359c.71,1.24-14.87,11.28-14.87,11.28.3.52,16.54-9.54,16.54-9.54l-15.34,11c.81,1.4,16.49-10.12,16.75-9.67,0,0-16.24,10-15.76,10.85L649.4,363c.12.2-16.17,10.92-16.16,10.93s16.73-11.67,17.6-10.16c.15.26-16.93,10.85-16.71,11.22,3.2,5.55,92.42-62.46,96.36-55.63,0,0-98,52-94.89,57.39,3.71,6.43,94.13-54.34,94.13-54.34.5.87-94.22,53.46-92.79,55.93,0,0,88.2-59.92,92.1-53.17l-91,54.47c1.93,3.35,90.45-52.22,90.45-52.22,1,1.83-93.89,45.8-89.58,53.27l89.18-51.49-88.22,52.62s85-55.64,87.83-50.71c1.91,3.31-86.9,51.81-86.9,51.81.29.5,85.52-51.71,86.53-49.95,0,0-87.46,47.6-85.19,51.53,4.29,7.42,84.69-48.9,84.69-48.9,3,5.24-83.88,49.85-83.88,49.85,1.42,2.47,81.34-52.14,83.58-48.26,0,0-85.75,44-82.72,49.27,0,0,81.14-49.79,82.41-47.59,0,0-85.43,41.74-81.3,48.9,1.28,2.21,80.92-46.72,80.92-46.72.48.82-79.5,48.36-79.5,48.36l79.06-45.65s-78.79,45.4-77.82,47.09c.06.09,74.39-50.13,77.5-44.75,2.65,4.58-76.14,46.3-76.14,46.3,2.71,4.69,76.12-43.94,76.12-43.94.63,1.09-77.29,41-74.54,45.74,3.55,6.15,74.93-43.27,74.93-43.27s-77.76,37.9-74.16,44.15c1.87,3.23,74.34-42.92,74.34-42.92,1.72,3-73.5,43.86-73.5,43.86s70.06-48.82,73.68-42.54c2.33,4-72.67,43.46-72.31,44.07,0,.07,72.58-41.9,72.58-41.9,3.4,5.89-73.55,39.34-71.21,43.39.79,1.35,70.3-43.19,71.43-41.24.38.66-70.25,42.36-70.25,42.36l70.4-40.65s-69,41.37-68.7,41.94l68.87-39.76c.15.26-67.7,40.45-67.7,40.45,1.52,2.64,67.08-40.33,67.77-39.13l-66.25,40.47s65.08-40.51,66.35-38.31c0,0-66.84,38-65.43,40.41.75,1.31,64.28-39.89,65.48-37.81l-65.22,39.74,65.22-37.66-65.05,39.45c2.13,3.7,61.86-43,65-37.53,0,0-65.3,38.42-64.86,39.2,3.05,5.27,61.5-43.11,64.79-37.41L662.14,413s63.26-39.26,64.45-37.21c.62,1.08-66.4,35.53-64.23,39.27l64-37-63.77,39.36c.68,1.18,63.46-36.63,63.46-36.63,3.31,5.73-63.26,38.37-63.26,38.37,2.76,4.77,59.8-41.84,63-36.36,1,1.68-62.78,37.95-62.78,37.95,1.7,2.95,59.65-40.93,62.46-36.06l-62.14,38.68,61.5-35.51-61.32,36.88,60.92-35.18c.82,1.43-61.31,36.22-60.64,37.38l59.87-34.56c2.8,4.84-59.69,35.87-59.69,35.87.1.17,58.37-35.57,59.17-34.17,0,0-59.66,35.12-58.86,36.5l57.77-33.35c2.47,4.29-59.67,31.87-57.44,35.72.81,1.41,54.16-35.7,56.08-32.37,1,1.66-57.37,31.84-55.77,34.61,0,0,52.33-34.82,54.32-31.36.25.42-56.89,28-54.11,32.81,0,0,53.51-32.39,54.16-31.27,0,0-55.75,29.62-53.95,32.73,0,0,53.71-31.68,54-31.18,2.19,3.8-54.6,31.54-53.73,33,1.43,2.49,52.44-33.4,53.79-31.06,2.19,3.79-53.45,33.39-53.45,33.39l53.53-30.9L666.3,444.72c.1.19,53.26-30.75,53.26-30.75l-52.89,33.25,53-30.58c.94,1.62-52.61,33-52.61,33,.1.18,52.69-30.42,52.69-30.42s-54,29.7-52.38,32.54c0,0,51.2-32.45,52.45-30.28.72,1.24-52.83,30.81-52.21,31.88.09.17,52.26-30.17,52.26-30.17S665.91,452.38,668,455.9l52-30c.69,1.21-51.69,32-51.69,32S718.91,426.16,720,428c1.6,2.77-51.42,32.18-51.42,32.18,1.27,2.2,51.5-29.73,51.5-29.73s-52.66,29-51.26,31.41c0,0,50.42-31.18,51.32-29.63,1.24,2.16-52.76,28.18-51.12,31,0,0,49.92-31.69,51.16-29.54.13.22-53,27.91-50.88,31.54.75,1.29,51-29.41,51-29.41L669.6,467.52l50.71-29.28s-52,28.4-50.47,31.09l50.53-29.18c2.5,4.33-52.66,27.29-50.21,31.54.87,1.52,48.77-32.14,50.5-29.15,1.61,2.79-52.45,27.53-50.21,31.41,1.29,2.24,49.1-31.69,50.55-29.19,0,0-52.82,26.24-50.4,30.44,0,0,49.45-31.17,50.59-29.21l-50.38,30.83s49.85-30.57,50.62-29.22l-50.35,31.58c.46.78,50.71-29.27,50.71-29.27,2.32,4-50.46,31.36-50.46,31.36S721.54,451,722.1,452c.75,1.29-50.5,31.79-50.5,31.79s50.66-29.74,50.87-29.37c2.09,3.62-50.61,32-50.61,32l51-29.45L672,487.65s50.53-30.4,51.06-29.48S670,486.1,672.21,490c1.18,2,51.19-29.55,51.19-29.55l-51,31.46s49.73-32.33,51.29-29.62c0,0-51.78,30.64-51.09,31.82,1.2,2.09,51.42-29.68,51.42-29.68s-52.39,29.86-51.22,31.88c2.53,4.39,51.54-29.76,51.54-29.76S671.39,495.46,673,498.18c.35.61,49.74-33.13,51.65-29.82,0,0-53.66,28-51.48,31.77l51.77-29.89-51.65,31.22,51.85-29.93s-54.14,27.8-51.65,32.12c1.24,2.14,52-30,52-30s-53.15,29.5-51.8,31.85c.62,1.07,52.07-30.07,52.07-30.07,2.08,3.6-53.48,29.17-51.9,31.91,0,0,51.41-31.46,52.18-30.13,0,0-54.54,27.5-52,31.85,2.25,3.89,52.28-30.19,52.28-30.19,1.65,2.86-53.64,29.16-52.13,31.77,0,.06,52.37-30.23,52.37-30.23l-52.2,32.11s51.61-31.8,52.47-30.3c2.77,4.79-53.85,29.84-52.27,32.58.23.39,52.61-30.37,52.61-30.37.24.41-52.39,32.78-52.39,32.78,1.83,3.17,52.75-30.45,52.75-30.45l-52.6,32.08s51.31-33.15,52.84-30.51L675,521c1.68,2.91,51.73-32.69,53-30.57,1.85,3.21-53.59,31.23-52.77,32.66,1.84,3.19,52.94-30.88,53.08-30.65,1.61,2.8-52.9,32.67-52.9,32.67,1.27,2.19,53.2-30.71,53.2-30.71.4.71-53,32.85-53,32.85,1.42,2.46,53.31-30.78,53.31-30.78.8,1.38-53.7,31.2-53.19,32.09l53.39-30.83c.23.4-53.22,32.66-53.22,32.66s51.17-34.89,53.49-30.88C731.52,503.18,675.51,531,676,532c.84,1.46,53.57-30.93,53.57-30.93,2.51,4.35-53.41,33.45-53.33,33.59s53.46-31.49,53.73-31l-53.54,33.1,53.85-31.09c.87,1.52-53.66,33.22-53.66,33.22.9,1.55,53.43-32.1,54-31.16,0,0-54.27,32.25-53.79,33.07,2.74,4.75,53.45-32.3,54.08-31.22.93,1.62-54.13,33.13-53.86,33.58s54.21-31.29,54.21-31.29l-54,33.73s52.86-33.95,54.35-31.37c0,0-54.9,31.65-54.22,32.84,0,0,52.63-34.55,54.43-31.43s-55.16,31.4-54.29,32.91L732.06,517s-56.74,29.75-54.28,34c0,0,54-32.7,54.66-31.55,2.47,4.28-57,29.42-54.45,33.78l54.78-31.63c.87,1.5-55.3,32.89-54.54,34.2,0,0,54.41-32.59,54.92-31.71,1.1,1.9-54.75,33.62-54.75,33.62l55-31.77L678.52,559c.35.6,52.45-36.42,55.11-31.82l-54.94,33.7s53.84-34.26,55.22-31.87c0,0-55.27,33.93-55,34.43,2.52,4.36,55.11-32.39,55.36-32,0,0-57.58,30.32-55.12,34.59,0,0,54.35-34.05,55.5-32.05,0,0-55.85,33.45-55.27,34.45,2.07,3.59,55.63-32.12,55.63-32.12.31.53-57.41,30.57-55.46,34l55.73-32.18c2.2,3.8-55.49,34.79-55.49,34.79l55.88-32.26c.91,1.58-55.73,33.93-55.73,33.93,1.49,2.56,56-32.32,56-32.32S679.61,575.14,680.09,576c1.78,3.09,56-32.36,56-32.36,1.88,3.26-55.89,34.07-55.89,34.07,2,3.43,53.49-37,56.14-32.41,0,0-57.35,32.53-55.89,35.05,0,0,55.06-34.63,56.28-32.5,2,3.39-56.13,34.06-56.13,34.06L737,549.34c.7,1.22-55.33,33.7-55.3,33.74s53-36.55,55.55-32.07c.27.47-54.7,27.72-52.45,31.62,0,0,51.71-32,52.64-30.39,0,0-48,27.37-46.73,29.49,1.91,3.31,44.79-31.16,47.08-27.19.58,1-44.52,24.41-43.29,26.54C696.44,584.41,737,554.24,738,556c1.63,2.83-38.87,24.26-38.87,24.26l39.13-22.59c1.6,2.78-33.87,21.47-33.87,21.47.33.57,33.09-21.53,34.14-19.71C739.94,561.8,707.9,576,709.05,578l29.73-17.16c.77,1.35-24.86,14.69-24.31,15.65L739,562.29c0,.07-16,10.39-15.59,11,.81,1.41,15.85-9.21,15.88-9.16"/><path class="cls-4" d="M727.63,284.87c.12.19,2.68-1.88,2.83-1.63,0,0-5.12,5.14-5,5.35l8.18-4.72-9.53,7.89,11.33-6.54s-12.63,8.88-12.32,9.42S735.8,286,736.38,287c.09.16-13.84,9.45-13.84,9.45l14.1-8.15c.29.49-15.14,11.38-15.14,11.38.46.81,15.32-8.85,15.32-8.85.21.36-16.51,11.68-16.33,12,0,0,15.37-10.65,16.14-9.32.38.65-17.52,9.59-16.69,11,.09.15,16.46-9.5,16.46-9.5l-17.34,12.19s16.53-10.16,16.8-9.7c.58,1-17.54,11.6-17.48,11.71s17-9.82,17-9.82c.12.21-18.47,12.13-18.07,12.82.22.38,17.37-10,17.37-10,1,1.67-18.19,12.22-18.19,12.22.67,1.17,17.45-10.7,17.72-10.23.71,1.23-19.76,11.58-18.92,13,.64,1.12,17.69-11.69,18.33-10.58l-19.48,13c.12.2,18.15-12.44,19-11,.46.79-20.92,11.25-20,12.88l19.59-11.3c.32.55-20.78,13.6-20.78,13.6s19.28-13.55,20.32-11.74c0,0-22.11,14.27-21.88,14.68l21.29-12.29"/><path class="cls-4" d="M691.72,264.34l2.9-1.67s-4.15,4.16-4,4.45c.07.11,7.24-4.9,7.55-4.36l-7.84,6.81s9.54-6.41,9.93-5.73l-10.07,7.82,11.24-6.49-11.3,8.45s11.83-7.06,11.93-6.89-11.94,8.75-11.94,8.75c.35.61,11.72-7.91,12.22-7.05s-12.56,8.72-12.19,9.36l12.5-7.21c.56,1-12.44,9.73-12.44,9.73L703,273l-12.7,9.2s12.24-8.61,12.9-7.45-13.31,9-12.85,9.8c.08.14,13.08-7.56,13.09-7.55l-13,10s12.55-8.81,13.23-7.64l-13.19,9.39L703.73,281l-13.29,9.19c.41.71,13.38-7.72,13.38-7.72l-13.32,9.92,13.44-7.77c.5.86-14.06,8-13.41,9.11.5.87,13.48-7.78,13.48-7.78.12.21-13.43,10.17-13.43,10.17.62,1.06,13.48-7.92,13.54-7.82s-14.14,8.1-13.51,9.19c.11.2,13-8.86,13.57-7.83s-14.22,9.17-13.51,10.41c.48.83,13.63-7.87,13.63-7.87L690.72,302.5c.68,1.17,13.68-7.9,13.68-7.9.24.43-13.65,9.49-13.65,9.49.68,1.18,13.26-8.71,13.71-7.92,0,0-14.4,8.94-13.67,10.21,0,0,13.68-8.09,13.76-7.94.2.34-14,8.79-13.73,9.35.68,1.18,13.23-8.93,13.79-8,0,0-14.09,10-13.77,10.58,0,0,13.72-8.24,13.86-8l-13.86,10.78s13.59-8.71,14-8.06c0,0-14.4,8.81-14,9.55.7,1.21,14-8.1,14-8.1s-14.4,10.12-14.06,10.71c0,.07,14.15-8.17,14.15-8.17s-14.27,10.45-14.19,10.59S705,311.46,705,311.46c.8,1.39-14.34,11-14.34,11,.37.66,14.07-9,14.44-8.33,0,0-15.4,9.65-14.71,10.83l14.8-8.55"/><path class="cls-4" d="M665.27,260l3.5-2c.15.25-5,4.13-4.77,4.58s8.17-4.72,8.17-4.72c.46.8-8.56,6.73-8.39,7,0,0,10.55-6.32,10.65-6.15.58,1-10.57,7.72-10.52,7.79s11.44-7.32,11.75-6.78c0,0-11.64,8.89-11.55,9.05,0,0,12.43-7.92,12.76-7.37,0,.05-12.56,9.8-12.54,9.83.36.63,13-8.21,13.31-7.68,0,0-13.76,8.56-13.13,9.66.37.64,13.11-8.36,13.46-7.76,0,0-13.57,9.29-13.25,9.84.1.19,13-8.76,13.57-7.83s-13.43,9.29-13.43,9.29c.1.18,13.65-7.88,13.65-7.88L665,278.29c.07.12,13.55-8.28,13.75-7.94.44.78-13.5,10.32-13.5,10.32.34.61,13.5-8.63,13.86-8,.1.16-14.12,9-13.68,9.74,0,0,13.73-8.43,13.95-8.05s-13.71,10.34-13.71,10.34c.36.63,13.89-8.39,14.05-8.12.58,1-13.77,10.66-13.77,10.66l14.16-8.18c.7,1.22-14.71,8.29-14,9.47l14.21-8.2s-14.17,9.59-14,9.83l14.28-8.25-14,10.36,14.36-8.3s-14.78,9.13-14.13,10.27c.41.71,14.43-8.33,14.43-8.33.69,1.19-14.12,11-14.12,11s14.48-8.45,14.52-8.39-15,8.82-14.34,9.89L681.81,290s-14.55,10.39-14.25,10.92l14.63-8.45c.52.88-14.62,10.15-14.35,10.61,0,0,14.2-9.32,14.69-8.48,0,0-14.72,10.4-14.34,11.06,0,0,14.1-9.61,14.74-8.51.12.21-15.15,9-14.52,10.09.52.91,14.76-8.53,14.76-8.53.65,1.12-14.47,10.56-14.47,10.56s14.11-9.73,14.79-8.54l-14.58,10c.4.7,14.35-9.35,14.81-8.55,0,0-14.8,10-14.54,10.42.11.2,14.83-8.57,14.83-8.57.65,1.13-14.71,10.25-14.55,10.53s14.86-8.58,14.86-8.58c.34.58-15,10.28-14.49,11.16s14.9-8.6,14.9-8.6c.63,1.1-14.71,9.91-14.71,9.92.21.36,14.92-8.62,14.92-8.62.09.16-14.58,11-14.58,11s14.45-9.54,15-8.64L670.67,323c.21.36,14.48-9.62,15-8.67.38.64-14.77,10.49-14.77,10.49.44.77,14.8-9.19,15.08-8.71,0,0-15.65,9.67-15,10.81.34.59,15.32-8.85,15.32-8.85.66,1.16-15.88,11.27-15.67,11.62l16.07-9.28"/><path class="cls-4" d="M640.51,274.07l3.76-2.17-5,4.37s7.57-4.88,7.79-4.5c.36.61-8.49,6.13-8.12,6.77.08.14,10.21-5.9,10.21-5.9.3.53-10.73,6.53-10.26,7.34.22.38,11.19-6.46,11.19-6.46S638.8,281,639,281.3c.6,1,11.33-7.7,11.83-6.83,0,0-11.64,8.39-11.58,8.5.32.55,12.38-7.29,12.44-7.18s-12.09,8.83-12.09,8.83,12.9-7.44,12.9-7.44l-12.54,9.09s12.93-8.27,13.28-7.67c.16.28-12.75,10.08-12.75,10.08.22.39,13.33-8.47,13.67-7.89l-13.19,10c.07.11,13.44-8.64,13.82-8,0,0-14,9-13.27,10.27,0,0,13.88-8.07,13.9-8,.48.83-13.57,9.53-13.47,9.69s13.94-8,13.94-8c.7,1.21-13.53,9.63-13.53,9.63.31.53,13.29-9.23,14-8.06.21.36-13.56,9.51-13.56,9.51.64,1.1,13.93-8.13,14-8.06s-14.29,8.08-13.62,9.25c.52.9,14-8.06,14-8.06s-13.7,9.63-13.34,10.25c.47.81,13.82-8.27,13.94-8.05s-13.8,9.06-13.58,9.43c0,0,13.46-8.93,14-8.06,0,0-14.16,8.52-13.61,9.46.31.54,13.35-9.2,14-8.08l-13.64,9.55c.24.41,13.83-8.46,14-8.11.39.69-14,9-13.72,9.53.12.2,13.86-8.54,14.1-8.14l-13.79,9.53,14.16-8.17s-14,9.4-13.84,9.71c0,0,13.88-8.85,14.24-8.22,0,0-14.38,8.79-14,9.49l14.31-8.26C661,304,646.37,313,646.37,313c.11.19,14.43-8.33,14.43-8.33s-14.34,9.33-14.18,9.6,14.51-8.38,14.51-8.38c.18.31-14.9,8.89-14.16,10.17s14.63-8.45,14.63-8.45c.38.66-14.75,9.23-14.34,9.93.14.24,14.73-8.5,14.73-8.5.48.84-15,8.9-14.46,9.9,0,0,14.82-8.56,14.82-8.56.75,1.3-14.83,9.57-14.5,10.13.21.37,14.92-8.61,14.92-8.61L648.2,322.17c.46.8,15-8.67,15-8.67.74,1.28-15.11,9.52-14.68,10.26L663.64,315s-15.31,9.17-14.83,10L664,316.29c.69,1.2-15,9.83-14.89,10l15.22-8.79c.32.57-15.17,10-14.79,10.62,0,0,14.55-10.09,15.28-8.82l-14.94,10.16,15.31-8.84s-15.28,10.21-14.67,11.28c.39.67,15.34-8.86,15.34-8.86s-15.5,9.18-15,10c0,0,14.58-10.17,15.34-8.85s-15,10.19-15,10.19l15.35-8.86-15,10.08c.8,1.38,14.84-10.09,15.49-8.94,0,0-15.42,10.33-15,11.05s15.92-9.41,16-9.25c.2.34-15.78,10.43-15.78,10.43s16.09-10,16.38-9.45l-15.92,11.79s32.95-21.95,34.21-19.75C688.56,324.33,653,343,653,343c.86,1.5,34.4-19.86,34.4-19.86.53.92-34.74,20.38-34.14,21.42,1.57,2.72,34.7-20,34.7-20,.22.38-34.44,21.66-34.44,21.66.89,1.53,35-20.23,35-20.23.72,1.24-35.19,21.09-34.79,21.78L705.29,318,654,349c1.52,2.65,49.66-32.59,51.35-29.65.34.58-51,31.73-51,31.73l51.13-29.52s-53.18,27.33-50.85,31.36c1.11,1.92,51-29.43,51-29.43,1.17,2-50.62,31.75-50.62,31.75,1.29,2.23,51-29.44,51-29.44,1.63,2.82-51.42,30.05-50.78,31.16s51.38-29.67,51.38-29.67l-51.34,31c1.74,3,52.16-30.11,52.16-30.11l-52.24,31.61,76.28-44-76.95,46.71c.69,1.2,73.6-48.7,76.29-44"/><g class="cls-5"><path class="cls-6" d="M611.07,343.84c.1.17,3.52-2.32,3.64-2.1s-3.78,4.89-3.75,4.95c.5.87,10-5.8,10-5.8s-9.51,6.79-9,7.69,12.28-7.11,12.29-7.1c.3.52-11,9-11,9s13.59-7.95,13.64-7.88c.18.33-12.33,9.61-12.33,9.61l14.39-8.3c.35.61-13.32,9.59-13.32,9.59.47.82,14.69-8.49,14.69-8.49l-13,10.35c0,.1,14.79-8.87,14.93-8.63,0,.06-14.1,9.47-13.92,9.78l15.07-8.7c0,.06-13.62,10.36-13.62,10.36l15.26-8.8c.25.42-13.9,10.37-13.9,10.37.11.19,15.42-8.91,15.42-8.91.66,1.15-14.75,9.29-14.09,10.45,0,0,15.55-9.05,15.58-9,.37.64-14.68,10-14.63,10.09l15.69-9.05S624.57,363.48,625,364.17c.63,1.09,15.88-9.17,15.88-9.17.16.27-14.3,11-14.3,11,.42.72,15.67-10,16.09-9.29.15.26-16,8.94-15.32,10.19.6,1,16.09-9.53,16.19-9.35.35.6-14.89,10.89-14.89,10.89L645,359c.71,1.24-14.87,11.28-14.87,11.28.3.52,16.54-9.54,16.54-9.54l-15.34,11c.81,1.4,16.49-10.12,16.75-9.67,0,0-16.24,10-15.76,10.85L649.4,363c.12.2-16.17,10.92-16.16,10.93s16.73-11.67,17.6-10.16c.15.26-16.93,10.85-16.71,11.22,3.2,5.55,92.42-62.46,96.36-55.63,0,0-98,52-94.89,57.39,3.71,6.43,94.13-54.34,94.13-54.34.5.87-94.22,53.46-92.79,55.93,0,0,88.2-59.92,92.1-53.17l-91,54.47c1.93,3.35,90.45-52.22,90.45-52.22,1,1.83-93.89,45.8-89.58,53.27l89.18-51.49-88.22,52.62s85-55.64,87.83-50.71c1.91,3.31-86.9,51.81-86.9,51.81.29.5,85.52-51.71,86.53-49.95,0,0-87.46,47.6-85.19,51.53,4.29,7.42,84.69-48.9,84.69-48.9,3,5.24-83.88,49.85-83.88,49.85,1.42,2.47,81.34-52.14,83.58-48.26,0,0-85.75,44-82.72,49.27,0,0,81.14-49.79,82.41-47.59,0,0-85.43,41.74-81.3,48.9,1.28,2.21,80.92-46.72,80.92-46.72.48.82-79.5,48.36-79.5,48.36l79.06-45.65s-78.79,45.4-77.82,47.09c.06.09,74.39-50.13,77.5-44.75,2.65,4.58-76.14,46.3-76.14,46.3,2.71,4.69,76.12-43.94,76.12-43.94.63,1.09-77.29,41-74.54,45.74,3.55,6.15,74.93-43.27,74.93-43.27s-77.76,37.9-74.16,44.15c1.87,3.23,74.34-42.92,74.34-42.92,1.72,3-73.5,43.86-73.5,43.86s70.06-48.82,73.68-42.54c2.33,4-72.67,43.46-72.31,44.07,0,.07,72.58-41.9,72.58-41.9,3.4,5.89-73.55,39.34-71.21,43.39.79,1.35,70.3-43.19,71.43-41.24.38.66-70.25,42.36-70.25,42.36l70.4-40.65s-69,41.37-68.7,41.94l68.87-39.76c.15.26-67.7,40.45-67.7,40.45,1.52,2.64,67.08-40.33,67.77-39.13l-66.25,40.47s65.08-40.51,66.35-38.31c0,0-66.84,38-65.43,40.41.75,1.31,64.28-39.89,65.48-37.81l-65.22,39.74,65.22-37.66-65.05,39.45c2.13,3.7,61.86-43,65-37.53,0,0-65.3,38.42-64.86,39.2,3.05,5.27,61.5-43.11,64.79-37.41L662.14,413s63.26-39.26,64.45-37.21c.62,1.08-66.4,35.53-64.23,39.27l64-37-63.77,39.36c.68,1.18,63.46-36.63,63.46-36.63,3.31,5.73-63.26,38.37-63.26,38.37,2.76,4.77,59.8-41.84,63-36.36,1,1.68-62.78,37.95-62.78,37.95,1.7,2.95,59.65-40.93,62.46-36.06l-62.14,38.68,61.5-35.51-61.32,36.88,60.92-35.18c.82,1.43-61.31,36.22-60.64,37.38l59.87-34.56c2.8,4.84-59.69,35.87-59.69,35.87.1.17,58.37-35.57,59.17-34.17,0,0-59.66,35.12-58.86,36.5l57.77-33.35c2.47,4.29-59.67,31.87-57.44,35.72.81,1.41,54.16-35.7,56.08-32.37,1,1.66-57.37,31.84-55.77,34.61,0,0,52.33-34.82,54.32-31.36.25.42-56.89,28-54.11,32.81,0,0,53.51-32.39,54.16-31.27,0,0-55.75,29.62-53.95,32.73,0,0,53.71-31.68,54-31.18,2.19,3.8-54.6,31.54-53.73,33,1.43,2.49,52.44-33.4,53.79-31.06,2.19,3.79-53.45,33.39-53.45,33.39l53.53-30.9L666.3,444.72c.1.19,53.26-30.75,53.26-30.75l-52.89,33.25,53-30.58c.94,1.62-52.61,33-52.61,33,.1.18,52.69-30.42,52.69-30.42s-54,29.7-52.38,32.54c0,0,51.2-32.45,52.45-30.28.72,1.24-52.83,30.81-52.21,31.88.09.17,52.26-30.17,52.26-30.17S665.91,452.38,668,455.9l52-30c.69,1.21-51.69,32-51.69,32S718.91,426.16,720,428c1.6,2.77-51.42,32.18-51.42,32.18,1.27,2.2,51.5-29.73,51.5-29.73s-52.66,29-51.26,31.41c0,0,50.42-31.18,51.32-29.63,1.24,2.16-52.76,28.18-51.12,31,0,0,49.92-31.69,51.16-29.54.13.22-53,27.91-50.88,31.54.75,1.29,51-29.41,51-29.41L669.6,467.52l50.71-29.28s-52,28.4-50.47,31.09l50.53-29.18c2.5,4.33-52.66,27.29-50.21,31.54.87,1.52,48.77-32.14,50.5-29.15,1.61,2.79-52.45,27.53-50.21,31.41,1.29,2.24,49.1-31.69,50.55-29.19,0,0-52.82,26.24-50.4,30.44,0,0,49.45-31.17,50.59-29.21l-50.38,30.83s49.85-30.57,50.62-29.22l-50.35,31.58c.46.78,50.71-29.27,50.71-29.27,2.32,4-50.46,31.36-50.46,31.36S721.54,451,722.1,452c.75,1.29-50.5,31.79-50.5,31.79s50.66-29.74,50.87-29.37c2.09,3.62-50.61,32-50.61,32l51-29.45L672,487.65s50.53-30.4,51.06-29.48S670,486.1,672.21,490c1.18,2,51.19-29.55,51.19-29.55l-51,31.46s49.73-32.33,51.29-29.62c0,0-51.78,30.64-51.09,31.82,1.2,2.09,51.42-29.68,51.42-29.68s-52.39,29.86-51.22,31.88c2.53,4.39,51.54-29.76,51.54-29.76S671.39,495.46,673,498.18c.35.61,49.74-33.13,51.65-29.82,0,0-53.66,28-51.48,31.77l51.77-29.89-51.65,31.22,51.85-29.93s-54.14,27.8-51.65,32.12c1.24,2.14,52-30,52-30s-53.15,29.5-51.8,31.85c.62,1.07,52.07-30.07,52.07-30.07,2.08,3.6-53.48,29.17-51.9,31.91,0,0,51.41-31.46,52.18-30.13,0,0-54.54,27.5-52,31.85,2.25,3.89,52.28-30.19,52.28-30.19,1.65,2.86-53.64,29.16-52.13,31.77,0,.06,52.37-30.23,52.37-30.23l-52.2,32.11s51.61-31.8,52.47-30.3c2.77,4.79-53.85,29.84-52.27,32.58.23.39,52.61-30.37,52.61-30.37.24.41-52.39,32.78-52.39,32.78,1.83,3.17,52.75-30.45,52.75-30.45l-52.6,32.08s51.31-33.15,52.84-30.51L675,521c1.68,2.91,51.73-32.69,53-30.57,1.85,3.21-53.59,31.23-52.77,32.66,1.84,3.19,52.94-30.88,53.08-30.65,1.61,2.8-52.9,32.67-52.9,32.67,1.27,2.19,53.2-30.71,53.2-30.71.4.71-53,32.85-53,32.85,1.42,2.46,53.31-30.78,53.31-30.78.8,1.38-53.7,31.2-53.19,32.09l53.39-30.83c.23.4-53.22,32.66-53.22,32.66s51.17-34.89,53.49-30.88C731.52,503.18,675.51,531,676,532c.84,1.46,53.57-30.93,53.57-30.93,2.51,4.35-53.41,33.45-53.33,33.59s53.46-31.49,53.73-31l-53.54,33.1,53.85-31.09c.87,1.52-53.66,33.22-53.66,33.22.9,1.55,53.43-32.1,54-31.16,0,0-54.27,32.25-53.79,33.07,2.74,4.75,53.45-32.3,54.08-31.22.93,1.62-54.13,33.13-53.86,33.58s54.21-31.29,54.21-31.29l-54,33.73s52.86-33.95,54.35-31.37c0,0-54.9,31.65-54.22,32.84,0,0,52.63-34.55,54.43-31.43s-55.16,31.4-54.29,32.91L732.06,517s-56.74,29.75-54.28,34c0,0,54-32.7,54.66-31.55,2.47,4.28-57,29.42-54.45,33.78l54.78-31.63c.87,1.5-55.3,32.89-54.54,34.2,0,0,54.41-32.59,54.92-31.71,1.1,1.9-54.75,33.62-54.75,33.62l55-31.77L678.52,559c.35.6,52.45-36.42,55.11-31.82l-54.94,33.7s53.84-34.26,55.22-31.87c0,0-55.27,33.93-55,34.43,2.52,4.36,55.11-32.39,55.36-32,0,0-57.58,30.32-55.12,34.59,0,0,54.35-34.05,55.5-32.05,0,0-55.85,33.45-55.27,34.45,2.07,3.59,55.63-32.12,55.63-32.12.31.53-57.41,30.57-55.46,34l55.73-32.18c2.2,3.8-55.49,34.79-55.49,34.79l55.88-32.26c.91,1.58-55.73,33.93-55.73,33.93,1.49,2.56,56-32.32,56-32.32S679.61,575.14,680.09,576c1.78,3.09,56-32.36,56-32.36,1.88,3.26-55.89,34.07-55.89,34.07,2,3.43,53.49-37,56.14-32.41,0,0-57.35,32.53-55.89,35.05,0,0,55.06-34.63,56.28-32.5,2,3.39-56.13,34.06-56.13,34.06L737,549.34c.7,1.22-55.33,33.7-55.3,33.74s53-36.55,55.55-32.07c.27.47-54.7,27.72-52.45,31.62,0,0,51.71-32,52.64-30.39,0,0-48,27.37-46.73,29.49,1.91,3.31,44.79-31.16,47.08-27.19.58,1-44.52,24.41-43.29,26.54C696.44,584.41,737,554.24,738,556c1.63,2.83-38.87,24.26-38.87,24.26l39.13-22.59c1.6,2.78-33.87,21.47-33.87,21.47.33.57,33.09-21.53,34.14-19.71C739.94,561.8,707.9,576,709.05,578l29.73-17.16c.77,1.35-24.86,14.69-24.31,15.65L739,562.29c0,.07-16,10.39-15.59,11,.81,1.41,15.85-9.21,15.88-9.16"/><path class="cls-6" d="M727.63,284.87c.12.19,2.68-1.88,2.83-1.63,0,0-5.12,5.14-5,5.35l8.18-4.72-9.53,7.89,11.33-6.54s-12.63,8.88-12.32,9.42S735.8,286,736.38,287c.09.16-13.84,9.45-13.84,9.45l14.1-8.15c.29.49-15.14,11.38-15.14,11.38.46.81,15.32-8.85,15.32-8.85.21.36-16.51,11.68-16.33,12,0,0,15.37-10.65,16.14-9.32.38.65-17.52,9.59-16.69,11,.09.15,16.46-9.5,16.46-9.5l-17.34,12.19s16.53-10.16,16.8-9.7c.58,1-17.54,11.6-17.48,11.71s17-9.82,17-9.82c.12.21-18.47,12.13-18.07,12.82.22.38,17.37-10,17.37-10,1,1.67-18.19,12.22-18.19,12.22.67,1.17,17.45-10.7,17.72-10.23.71,1.23-19.76,11.58-18.92,13,.64,1.12,17.69-11.69,18.33-10.58l-19.48,13c.12.2,18.15-12.44,19-11,.46.79-20.92,11.25-20,12.88l19.59-11.3c.32.55-20.78,13.6-20.78,13.6s19.28-13.55,20.32-11.74c0,0-22.11,14.27-21.88,14.68l21.29-12.29"/><path class="cls-6" d="M691.72,264.34l2.9-1.67s-4.15,4.16-4,4.45c.07.11,7.24-4.9,7.55-4.36l-7.84,6.81s9.54-6.41,9.93-5.73l-10.07,7.82,11.24-6.49-11.3,8.45s11.83-7.06,11.93-6.89-11.94,8.75-11.94,8.75c.35.61,11.72-7.91,12.22-7.05s-12.56,8.72-12.19,9.36l12.5-7.21c.56,1-12.44,9.73-12.44,9.73L703,273l-12.7,9.2s12.24-8.61,12.9-7.45-13.31,9-12.85,9.8c.08.14,13.08-7.56,13.09-7.55l-13,10s12.55-8.81,13.23-7.64l-13.19,9.39L703.73,281l-13.29,9.19c.41.71,13.38-7.72,13.38-7.72l-13.32,9.92,13.44-7.77c.5.86-14.06,8-13.41,9.11.5.87,13.48-7.78,13.48-7.78.12.21-13.43,10.17-13.43,10.17.62,1.06,13.48-7.92,13.54-7.82s-14.14,8.1-13.51,9.19c.11.2,13-8.86,13.57-7.83s-14.22,9.17-13.51,10.41c.48.83,13.63-7.87,13.63-7.87L690.72,302.5c.68,1.17,13.68-7.9,13.68-7.9.24.43-13.65,9.49-13.65,9.49.68,1.18,13.26-8.71,13.71-7.92,0,0-14.4,8.94-13.67,10.21,0,0,13.68-8.09,13.76-7.94.2.34-14,8.79-13.73,9.35.68,1.18,13.23-8.93,13.79-8,0,0-14.09,10-13.77,10.58,0,0,13.72-8.24,13.86-8l-13.86,10.78s13.59-8.71,14-8.06c0,0-14.4,8.81-14,9.55.7,1.21,14-8.1,14-8.1s-14.4,10.12-14.06,10.71c0,.07,14.15-8.17,14.15-8.17s-14.27,10.45-14.19,10.59S705,311.46,705,311.46c.8,1.39-14.34,11-14.34,11,.37.66,14.07-9,14.44-8.33,0,0-15.4,9.65-14.71,10.83l14.8-8.55"/><path class="cls-6" d="M665.27,260l3.5-2c.15.25-5,4.13-4.77,4.58s8.17-4.72,8.17-4.72c.46.8-8.56,6.73-8.39,7,0,0,10.55-6.32,10.65-6.15.58,1-10.57,7.72-10.52,7.79s11.44-7.32,11.75-6.78c0,0-11.64,8.89-11.55,9.05,0,0,12.43-7.92,12.76-7.37,0,.05-12.56,9.8-12.54,9.83.36.63,13-8.21,13.31-7.68,0,0-13.76,8.56-13.13,9.66.37.64,13.11-8.36,13.46-7.76,0,0-13.57,9.29-13.25,9.84.1.19,13-8.76,13.57-7.83s-13.43,9.29-13.43,9.29c.1.18,13.65-7.88,13.65-7.88L665,278.29c.07.12,13.55-8.28,13.75-7.94.44.78-13.5,10.32-13.5,10.32.34.61,13.5-8.63,13.86-8,.1.16-14.12,9-13.68,9.74,0,0,13.73-8.43,13.95-8.05s-13.71,10.34-13.71,10.34c.36.63,13.89-8.39,14.05-8.12.58,1-13.77,10.66-13.77,10.66l14.16-8.18c.7,1.22-14.71,8.29-14,9.47l14.21-8.2s-14.17,9.59-14,9.83l14.28-8.25-14,10.36,14.36-8.3s-14.78,9.13-14.13,10.27c.41.71,14.43-8.33,14.43-8.33.69,1.19-14.12,11-14.12,11s14.48-8.45,14.52-8.39-15,8.82-14.34,9.89L681.81,290s-14.55,10.39-14.25,10.92l14.63-8.45c.52.88-14.62,10.15-14.35,10.61,0,0,14.2-9.32,14.69-8.48,0,0-14.72,10.4-14.34,11.06,0,0,14.1-9.61,14.74-8.51.12.21-15.15,9-14.52,10.09.52.91,14.76-8.53,14.76-8.53.65,1.12-14.47,10.56-14.47,10.56s14.11-9.73,14.79-8.54l-14.58,10c.4.7,14.35-9.35,14.81-8.55,0,0-14.8,10-14.54,10.42.11.2,14.83-8.57,14.83-8.57.65,1.13-14.71,10.25-14.55,10.53s14.86-8.58,14.86-8.58c.34.58-15,10.28-14.49,11.16s14.9-8.6,14.9-8.6c.63,1.1-14.71,9.91-14.71,9.92.21.36,14.92-8.62,14.92-8.62.09.16-14.58,11-14.58,11s14.45-9.54,15-8.64L670.67,323c.21.36,14.48-9.62,15-8.67.38.64-14.77,10.49-14.77,10.49.44.77,14.8-9.19,15.08-8.71,0,0-15.65,9.67-15,10.81.34.59,15.32-8.85,15.32-8.85.66,1.16-15.88,11.27-15.67,11.62l16.07-9.28"/><path class="cls-6" d="M640.51,274.07l3.76-2.17-5,4.37s7.57-4.88,7.79-4.5c.36.61-8.49,6.13-8.12,6.77.08.14,10.21-5.9,10.21-5.9.3.53-10.73,6.53-10.26,7.34.22.38,11.19-6.46,11.19-6.46S638.8,281,639,281.3c.6,1,11.33-7.7,11.83-6.83,0,0-11.64,8.39-11.58,8.5.32.55,12.38-7.29,12.44-7.18s-12.09,8.83-12.09,8.83,12.9-7.44,12.9-7.44l-12.54,9.09s12.93-8.27,13.28-7.67c.16.28-12.75,10.08-12.75,10.08.22.39,13.33-8.47,13.67-7.89l-13.19,10c.07.11,13.44-8.64,13.82-8,0,0-14,9-13.27,10.27,0,0,13.88-8.07,13.9-8,.48.83-13.57,9.53-13.47,9.69s13.94-8,13.94-8c.7,1.21-13.53,9.63-13.53,9.63.31.53,13.29-9.23,14-8.06.21.36-13.56,9.51-13.56,9.51.64,1.1,13.93-8.13,14-8.06s-14.29,8.08-13.62,9.25c.52.9,14-8.06,14-8.06s-13.7,9.63-13.34,10.25c.47.81,13.82-8.27,13.94-8.05s-13.8,9.06-13.58,9.43c0,0,13.46-8.93,14-8.06,0,0-14.16,8.52-13.61,9.46.31.54,13.35-9.2,14-8.08l-13.64,9.55c.24.41,13.83-8.46,14-8.11.39.69-14,9-13.72,9.53.12.2,13.86-8.54,14.1-8.14l-13.79,9.53,14.16-8.17s-14,9.4-13.84,9.71c0,0,13.88-8.85,14.24-8.22,0,0-14.38,8.79-14,9.49l14.31-8.26C661,304,646.37,313,646.37,313c.11.19,14.43-8.33,14.43-8.33s-14.34,9.33-14.18,9.6,14.51-8.38,14.51-8.38c.18.31-14.9,8.89-14.16,10.17s14.63-8.45,14.63-8.45c.38.66-14.75,9.23-14.34,9.93.14.24,14.73-8.5,14.73-8.5.48.84-15,8.9-14.46,9.9,0,0,14.82-8.56,14.82-8.56.75,1.3-14.83,9.57-14.5,10.13.21.37,14.92-8.61,14.92-8.61L648.2,322.17c.46.8,15-8.67,15-8.67.74,1.28-15.11,9.52-14.68,10.26L663.64,315s-15.31,9.17-14.83,10L664,316.29c.69,1.2-15,9.83-14.89,10l15.22-8.79c.32.57-15.17,10-14.79,10.62,0,0,14.55-10.09,15.28-8.82l-14.94,10.16,15.31-8.84s-15.28,10.21-14.67,11.28c.39.67,15.34-8.86,15.34-8.86s-15.5,9.18-15,10c0,0,14.58-10.17,15.34-8.85s-15,10.19-15,10.19l15.35-8.86-15,10.08c.8,1.38,14.84-10.09,15.49-8.94,0,0-15.42,10.33-15,11.05s15.92-9.41,16-9.25c.2.34-15.78,10.43-15.78,10.43s16.09-10,16.38-9.45l-15.92,11.79s32.95-21.95,34.21-19.75C688.56,324.33,653,343,653,343c.86,1.5,34.4-19.86,34.4-19.86.53.92-34.74,20.38-34.14,21.42,1.57,2.72,34.7-20,34.7-20,.22.38-34.44,21.66-34.44,21.66.89,1.53,35-20.23,35-20.23.72,1.24-35.19,21.09-34.79,21.78L705.29,318,654,349c1.52,2.65,49.66-32.59,51.35-29.65.34.58-51,31.73-51,31.73l51.13-29.52s-53.18,27.33-50.85,31.36c1.11,1.92,51-29.43,51-29.43,1.17,2-50.62,31.75-50.62,31.75,1.29,2.23,51-29.44,51-29.44,1.63,2.82-51.42,30.05-50.78,31.16s51.38-29.67,51.38-29.67l-51.34,31c1.74,3,52.16-30.11,52.16-30.11l-52.24,31.61,76.28-44-76.95,46.71c.69,1.2,73.6-48.7,76.29-44"/></g><path class="cls-4" d="M601.57,347.19c.15.25,5.39-3.56,5.59-3.23.31.55-13.29,10.24-13.19,10.4.95,1.66,19.11-11,19.11-11s-26.8,14.84-25.45,17.19,28.68-16.6,28.7-16.57c.8,1.39-32.33,20.16-32.33,20.16s33.87-19.81,34-19.62"/><path class="cls-4" d="M581.58,275.93c.12.22,2.91-2,3.07-1.77,0,0-5.7,5.45-5.57,5.68l9.16-5.29-10.63,8.53,12.78-7.37s-14,9.59-13.64,10.18c.44.76,14.35-9.8,15-8.66.11.18-15.5,10.4-15.5,10.4l16-9.26c.31.54-16.93,12.4-16.93,12.4.53.92,17.34-10,17.34-10,.24.4-18.39,12.72-18.19,13.07,0,0,17.36-12,18.23-10.52.42.72-19.61,10.56-18.68,12.17.09.17,18.52-10.69,18.52-10.69l-19.24,13.29s18.42-11.33,18.72-10.81c.64,1.11-19.32,12.61-19.25,12.73s18.85-10.88,18.85-10.88c.13.23-20,13-19.62,13.71.24.42,19-11,19-11,1,1.79-19.56,13-19.56,13,.73,1.26,18.82-11.54,19.11-11,.74,1.29-20.67,12-19.8,13.55.67,1.16,18.53-12.25,19.2-11.09l-19.76,13.16c.12.21,18.37-12.59,19.23-11.1.45.78-20.6,11.09-19.67,12.71L589,300c.3.53-19.72,13-19.72,13s18.19-12.78,19.18-11.07c0,0-20.06,13.13-19.85,13.5l19.18-11.07c.24.41-19.7,13-19.7,13,.8,1.39,19.21-11.09,19.21-11.09,1,1.69-20.79,12.05-19.9,13.59.33.57,19.33-11.15,19.33-11.15L566.9,321.71c.42.74,19.44-11.22,19.44-11.22L566.25,324c.9,1.55,19.16-12.13,19.63-11.33,0,0-20.87,12.73-20.29,13.73.88,1.53,18.88-13.08,19.82-11.44,0,0-21.39,13.91-21,14.61l20.44-11.79c.59,1-22.89,13.17-22.08,14.56l21.68-12.52"/><path class="cls-4" d="M555.89,262.26l3.49-2s-5.37,4.78-5.17,5.14c.08.13,8.36-5.66,8.72-5L553.72,268s11.06-7.43,11.51-6.65l-11.87,8.86,13.22-7.63L553,272.28s14.27-8.51,14.38-8.31-14.71,10.36-14.71,10.36c.44.75,14.52-9.8,15.14-8.74s-16,10.5-15.54,11.3l15.59-9c.71,1.22-16,11.79-16,11.79l15.79-9.11-16.1,11.16s15.1-10.62,15.92-9.2-16.9,10.83-16.33,11.81c.09.17,16.09-9.31,16.1-9.29l-16.52,12s15.44-10.82,16.27-9.39L550.42,289l16.39-9.46-16.65,11.13c.51.87,16.49-9.52,16.49-9.52l-16.87,12,16.62-9.6c.62,1.07-17.66,9.7-16.85,11.1.62,1.08,16.7-9.64,16.7-9.64.15.26-17.12,12.3-17.12,12.3.77,1.32,16.78-9.86,16.85-9.73s-17.88,9.89-17.09,11.26c.14.24,16.18-11.06,16.93-9.77s-18.29,11.08-17.38,12.64c.6,1.05,17.07-9.85,17.07-9.85L548,304.38c.85,1.48,17.2-9.93,17.2-9.93.31.54-17.48,11.7-17.48,11.7.86,1.5,16.71-11,17.28-10,0,0-18.62,10.92-17.69,12.53,0,0,17.29-10.23,17.4-10,.25.44-18.06,10.91-17.65,11.61.87,1.5,16.76-11.3,17.47-10.08,0,0-18.35,12.29-17.94,13,0,0,17.4-10.46,17.58-10.15L546.1,316.25s17.22-11,17.69-10.21c0,0-18.51,10.91-18,11.85.88,1.53,17.75-10.24,17.75-10.24S544.9,320,545.34,320.76c0,.1,17.83-10.29,17.83-10.29s-18.39,12.77-18.29,12.95,17.92-10.34,17.92-10.34c1,1.8-19,13.67-19,13.67.48.84,18.09-11.55,18.57-10.72"/><path class="cls-4" d="M496.21,287.69l3.38-1.95c.13.23-4.68,4-4.44,4.39s7.23-4.17,7.23-4.17c.42.72-7.64,6.23-7.48,6.5,0,0,9-5.41,9.11-5.26.51.88-9.13,6.9-9.1,7s9.67-6.19,9.93-5.73c0,0-9.77,7.84-9.7,8s10.44-6.64,10.71-6.18c0,0-10.28,8.5-10.27,8.52.3.53,11-6.94,11.26-6.5,0,0-11.37,7.42-10.83,8.34.31.55,11.21-7.15,11.51-6.64,0,0-11.3,8.09-11,8.56.09.16,11.19-7.53,11.65-6.73s-11.32,8.08-11.32,8.08,11.76-6.79,11.76-6.79l-11.41,8.24c.06.1,11.7-7.14,11.86-6.85.39.66-11.33,9.07-11.33,9.07.31.52,11.71-7.49,12-6.94.08.14-12,7.91-11.63,8.56,0,0,11.94-7.34,12.13-7s-11.62,9.13-11.62,9.13c.32.55,12.14-7.33,12.28-7.09.49.86-11.7,9.45-11.7,9.45l12.43-7.17c.61,1.06-12.73,7.35-12.13,8.38l12.5-7.22s-12.25,8.53-12.13,8.73l12.61-7.28-12.12,9.25L513.1,311s-12.87,8.2-12.29,9.2c.37.64,12.89-7.45,12.89-7.45.61,1-12.28,9.91-12.28,9.91s13.09-7.63,13.12-7.57-13.32,8-12.77,9L515,316.38s-12.95,9.54-12.68,10l13.57-7.84c.47.82-13.31,9.45-13.06,9.87,0,0,13.44-8.82,13.9-8,0,0-13.67,9.84-13.31,10.46,0,0,13.75-9.37,14.36-8.29.12.2-14.65,8.75-14,9.81s14.72-8.5,14.72-8.5c.64,1.11-14.33,10.47-14.33,10.47s14.51-10,15.21-8.78l-14.93,10.17c.42.73,15.07-9.82,15.55-9,0,0-15.47,10.35-15.2,10.81.12.22,16-9.25,16-9.25.69,1.2-15.84,10.86-15.66,11.17s16.59-9.58,16.59-9.58c.37.63-16.7,11.14-16.14,12.11,1.39,2.41,35.33-20.39,35.33-20.39,1.47,2.55-35.11,21.67-35.1,21.68C506.34,344.16,541,323,541,323c.2.36-34.74,22.63-34.74,22.63s33.59-22.16,34.79-20.09l-34.47,22.36c.48.83,33.65-22.36,34.92-20.16.85,1.46-34.73,22-34.73,22,1.63,2.83,54.35-33.73,55.37-32,0,0-58,30.24-55.65,34.28,1.23,2.13,55.32-31.93,55.32-31.93C564,324,505.36,353.7,506,354.89L561.38,323c1.55,2.69-55.57,33.77-55.57,33.77s55.12-32.27,55.32-31.94L505.54,359c2,3.38,55.25-32,55.27-31.92,2.35,4.07-55.52,34.56-55.52,34.56s53.68-35,55.43-32L505.1,364.13c2.3,4,55.28-33.38,55.91-32.28.52.9-58.37,31-56.05,35l79.26-45.77S504,367.64,504.89,369.18c3.52,6.11,78.34-46.3,78.8-45.49,0,0-81.65,43.26-78.82,48.17,0,0,77.73-45.93,78.18-45.14,3.92,6.79-81,42.62-78.13,47.51,0,0,75.06-49,77.51-44.76L505,376.85l76.63-44.24-76.54,45.66c3.23,5.59,74.36-46.86,76.06-43.91l-75.89,45.93c2.43,4.21,73.62-46.12,75.19-43.4L505.56,382.7l74.2-42.84s-75.13,43.06-73.87,45.25c3.22,5.57,73.27-42.3,73.27-42.3L506.21,387s70.94-44.63,72.53-41.87l-72.16,43.81c1.55,2.69,69.2-45.84,71.75-41.43l-71.4,43.07s68.31-45.83,71.07-41c3.68,6.37-71.83,41-70.51,43.3,2.22,3.85,66.83-46.08,70.08-40.46,0,0-73,36-69.76,41.69,1.47,2.54,69.52-40.14,69.52-40.14s-69.78,40.7-68.9,42.23c0,0,67.16-41.86,68.49-39.54,2.36,4.08-68,40.95-68,40.95l67.74-39.11c.13.22-69.16,37.47-67,41.26.75,1.3,66.85-38.59,66.85-38.59C578.77,365,509,399,510.14,400.94c2.16,3.73,66.11-39,66.48-38.39,1.94,3.36-66.48,38.72-66,39.47l66.28-38.27-65.79,39.39c1.16,2,66.22-38.23,66.22-38.23.22.39-65.52,39.78-65.52,39.78,1.33,2.29,65-41.25,66.64-38.48,0,0-67.8,37-65.95,40.14L618.9,344.89S508.68,402.4,512.38,408.81L620.66,346.3c1.37,2.36-108.33,64-108.33,64l108.73-62.77s-109,65.11-108.81,65.44l107.49-62.06S507.1,405.62,512.2,414.47L618,353.38,512.16,416l103.59-59.81c1.9,3.28-105.32,59.2-103.66,62.07,5.16,8.94,99.7-57.56,99.7-57.56C614,364.44,509.15,416,512,420.92c0,0,91.86-61,95.31-55,0,0-97.56,53.89-95.39,57.65,2.88,5,91.11-52.6,91.11-52.6.27.47-92.82,51.06-91.15,54l89-51.37c.26.44-89.66,53.14-89.06,54.18,3.93,6.79,84.57-48.82,84.57-48.82,3.73,6.45-88.51,43.84-84.62,50.58l81.81-47.23c4,6.85-84.31,44.95-81.87,49.17,3.67,6.37,78.74-45.46,78.74-45.46,3.45,6-78.82,48-78.82,48,1,1.81,73.84-44.46,74.63-43.09,3.49,6.05-77.67,39.86-74.69,45,0,0,68.59-46.08,71.4-41.22,0,0-71.47,43-71.45,43,3.1,5.38,68.29-39.43,68.29-39.43l-68.36,41.53,64-36.94c.65,1.12-66.63,34.17-64,38.67,2.43,4.22,59.18-34.17,59.18-34.17,2.61,4.53-60.67,33.1-59.23,35.6l58.88-34L511,445.25l59-34.05c2.93,5.08-59.29,36.05-59.29,36.05,2,3.49,59.11-34.12,59.11-34.12,1.88,3.27-59.56,37.08-59.56,37.08s56.45-39.1,59.27-34.22c.39.68-62,32.54-59.64,36.61,1.12,1.94,59.39-34.29,59.39-34.29s-61.51,33-59.68,36.21c1.45,2.51,58.81-35.46,59.47-34.33,2.42,4.2-62.49,31.39-59.75,36.14,1.07,1.85,59-35.3,59.54-34.37,0,0-61.54,33.68-59.87,36.57.75,1.3,59.62-34.42,59.62-34.42L508.7,460.29s58.29-36.84,59.67-34.45c1.76,3.06-62.64,32.12-60,36.68,0,0,58.38-36.84,59.73-34.49L508,465s59.32-35.33,59.79-34.52c0,0-61.28,35.67-60.25,37.47,0,0,59.16-35.76,59.86-34.56,0,0-61.65,33.39-60.09,36.09l59.87-34.57S504.21,467.38,506.9,472c0,0,59.91-34.59,59.91-34.59s-63,32.18-60.26,36.86c.28.48,56.95-39.78,59.94-34.6.19.34-60.29,36.87-60.29,36.87.31.53,58.44-37.26,60-34.62,2.31,4-61.11,36-60.36,37.26,0,0,57.39-39.12,60-34.63L505.4,481.81l60-34.64c.17.3-60.35,35.9-60.23,36.12,1.87,3.23,60-34.65,60-34.65s-60.56,36.22-60.31,36.65c1.4,2.43,60-34.65,60-34.65,1.7,2.94-60.32,36.57-60.32,36.57.24.41,60-34.66,60-34.66L504.14,490s58.38-37.57,60.05-34.67c1.09,1.88-60.44,37.25-60.44,37.25l60.07-34.68s-62.94,31.82-60.33,36.34l60.08-34.69s-61.4,34.93-60.38,36.69c2.21,3.82,57.21-39.7,60.1-34.7,0,0-62.32,34-60.49,37.21l60.13-34.71c.27.47-62.46,34.45-60.58,37.7,3,5.16,60.16-34.74,60.16-34.74,2,3.5-61.28,34.9-60.42,36.39,0,0,58.09-38.38,60.19-34.75,0,0-61.52,34.33-60.42,36.25,2,3.43,60.2-34.79,60.22-34.77l-60.5,36.62c.26.46,58.73-37.42,60.25-34.78,2,3.49-61.32,35-60.5,36.4,1.93,3.34,60.29-34.81,60.29-34.81.44.77-61.83,34.57-60.58,36.72.58,1,60.33-34.83,60.33-34.83l-60.73,37.42c.24.4,60.41-34.88,60.41-34.88l-60.84,37.69,60.51-34.93s-63.5,31.6-60.73,36.39c1.21,2.1,60.56-35,60.56-35,2.81,4.86-60.8,36.54-60.8,36.54,1.7,2.95,60.62-35,60.62-35,1.64,2.83-63.25,34.24-61.08,38l60.77-35.08s-63.26,33.76-61.13,37.44c1.26,2.19,60.9-35.16,60.9-35.16,2.36,4.09-62.5,36.23-61.37,38.19,1.57,2.71,61.08-35.26,61.08-35.26l-61.5,38c.1.18,61.26-35.37,61.26-35.37,1.23,2.14-63.94,34.59-61.73,38.43,3,5.16,60.24-37.61,61.46-35.49,2.7,4.68-61.81,37.78-61.81,37.78.85,1.48,61.61-35.57,61.61-35.57l-61.94,37.73s60.18-38.39,61.75-35.66c.05.08-62.17,38.39-62.17,38.39s61.89-35.84,61.94-35.76-64.32,33.51-62.17,37.24,62-35.81,62-35.81-63.2,37.41-62.48,38.67c.47.8,62.23-35.92,62.23-35.92,1.84,3.19-62.5,37.69-62.5,37.69l62.34-36s-64.24,35.55-62.68,38.25c1,1.7,61.19-38.33,62.48-36.08,2.75,4.76-62.79,38.06-62.79,38.06l62.62-36.15-63,38.87c.27.47,62.24-37.22,62.79-36.26,0,0-64.67,35.32-63.07,38.08,0,0,61.49-38.78,62.91-36.32.81,1.39-63.34,39.15-63.34,39.15s62.82-36.91,63.1-36.44c0,0-65.5,34.14-63.33,37.91l63.2-36.49c1.06,1.83-65.54,35.28-63.54,38.73,0,0,63.26-36.7,63.34-36.57s-66.45,33.32-63.6,38.25c0,0,61.19-40.55,63.45-36.63,0,0-64.39,38.1-63.83,39.09,0,0,63.12-37.59,63.61-36.73,2.39,4.13-63.53,38.09-63.53,38.09l63.4-36.6c2.56,4.43-61.33,38.1-61.33,38.1,2.73,4.73,61.07-35.26,61.07-35.26,2.81,4.87-59.55,36.28-59.55,36.28s58.45-35.86,59.36-34.27c0,0-59.15,32.68-57.6,35.36.57,1,57.4-33.13,57.4-33.13,1,1.7-56.23,33-55.5,34.23.14.24,52.73-36.36,55.29-31.92,0,0-55.13,30.58-53.93,32.64,2.41,4.18,51.15-35.61,53.78-31.05,1,1.77-53.16,30.46-52.42,31.75,1.6,2.77,50.13-33.91,52.28-30.19.54.94-50.07,31.24-50.07,31.24l49.84-28.77c2,3.5-47.4,29.58-47.2,29.92l46.94-27.11S507,572.19,509.23,576.1c0,0,43.2-29.1,45-26l-42.28,27,42-24.27s-39.48,24.76-39.21,25.24c1.87,3.24,39-22.5,39-22.5,1.15,2-36.77,23.19-36.77,23.19,1,1.66,35.95-22.21,36.58-21.12,0,0-35.81,19.64-34.62,21.7l34.46-19.89s-31.47,20.7-31.46,20.72l31.21-18c1,1.73-28.55,18.47-28.39,18.73.4.71,28.08-16.4,28.16-16.26l-24.77,17.06,24.5-14.15c1,1.73-22,14.69-22,14.69.8,1.38,21.71-12.73,21.8-12.58,1,1.8-19.86,12.31-19.43,13.06.32.54,19.24-11.11,19.24-11.11s-16.52,10.45-15.76,11.76,15.11-9.62,15.5-9l-13.24,9.35,13.08-7.55c0,.08-11.11,7.88-11.11,7.88s11-6.33,11-6.33L544,584.61s7.28-4.54,7.42-4.29l-4.18,4.77c.19.33,3.79-2.56,4-2.29,0,0-1,2.7-1,2.7l.65-.38"/><path class="cls-4" d="M530.7,267,534,265l-4.37,4s6.85-4.41,7.05-4.07c.32.56-7.76,5.77-7.42,6.36.08.14,9.67-5.58,9.67-5.58.29.51-10.35,6.34-9.89,7.13.2.36,10.85-6.26,10.85-6.26s-11.21,7.4-11,7.71c.59,1,11.14-7.58,11.63-6.72,0,0-11.94,8.56-11.88,8.68.32.54,12.32-7.25,12.38-7.15s-12.58,9.12-12.58,9.12,12.83-7.41,12.83-7.41l-13,9.37s12.83-8.2,13.18-7.61c.16.29-13.42,10.46-13.42,10.46.23.39,13.22-8.39,13.55-7.82l-13.7,10.34c.06.1,13.34-8.59,13.73-7.93,0,0-14.62,9.31-13.87,10.6,0,0,13.81-8,13.83-8,.49.85-14,9.78-13.92,9.95s13.88-8,13.88-8c.72,1.25-14,9.89-14,9.89.3.53,13.25-9.21,13.93-8,.22.37-14,9.77-14,9.77.64,1.11,13.94-8.14,14-8.07s-14.73,8.29-14,9.49c.52.91,14-8.09,14-8.09s-14.49,10.05-14.12,10.7c.48.82,13.93-8.33,14.06-8.12s-14.35,9.36-14.12,9.75c0,0,13.57-9,14.08-8.13,0,0-14.72,8.79-14.15,9.77.31.54,13.46-9.28,14.11-8.15l-14.18,9.85c.25.42,13.93-8.51,14.14-8.16.41.71-14.52,9.25-14.2,9.81.12.2,13.93-8.58,14.16-8.18L527,306.11l14.19-8.19s-14.44,9.64-14.25,10c0,0,13.84-8.84,14.21-8.21,0,0-14.68,8.95-14.27,9.66l14.23-8.22c.74,1.28-14.31,10.39-14.31,10.39.11.19,14.27-8.23,14.27-8.23s-14.48,9.41-14.32,9.68S541,304.7,541,304.7c.18.31-15.12,9-14.37,10.29S541,306.71,541,306.71c.38.66-14.8,9.26-14.39,10,.13.23,14.36-8.3,14.36-8.3.48.84-15,8.89-14.42,9.88,0,0,14.39-8.31,14.39-8.31.75,1.3-14.79,9.55-14.46,10.11.2.35,14.44-8.34,14.44-8.34L526.35,322c.45.77,14.51-8.38,14.51-8.38.73,1.28-15,9.47-14.58,10.2l14.58-8.42s-15.14,9.1-14.67,9.92l14.68-8.47c.69,1.19-14.93,9.8-14.84,10l14.85-8.57c.34.59-15.89,10.34-15.49,11,0,0,14.78-10.25,15.53-9"/><g class="cls-5"><path class="cls-6" d="M601.57,347.19c.15.25,5.39-3.56,5.59-3.23.31.55-13.29,10.24-13.19,10.4.95,1.66,19.11-11,19.11-11s-26.8,14.84-25.45,17.19,28.68-16.6,28.7-16.57c.8,1.39-32.33,20.16-32.33,20.16s33.87-19.81,34-19.62"/><path class="cls-6" d="M581.58,275.93c.12.22,2.91-2,3.07-1.77,0,0-5.7,5.45-5.57,5.68l9.16-5.29-10.63,8.53,12.78-7.37s-14,9.59-13.64,10.18c.44.76,14.35-9.8,15-8.66.11.18-15.5,10.4-15.5,10.4l16-9.26c.31.54-16.93,12.4-16.93,12.4.53.92,17.34-10,17.34-10,.24.4-18.39,12.72-18.19,13.07,0,0,17.36-12,18.23-10.52.42.72-19.61,10.56-18.68,12.17.09.17,18.52-10.69,18.52-10.69l-19.24,13.29s18.42-11.33,18.72-10.81c.64,1.11-19.32,12.61-19.25,12.73s18.85-10.88,18.85-10.88c.13.23-20,13-19.62,13.71.24.42,19-11,19-11,1,1.79-19.56,13-19.56,13,.73,1.26,18.82-11.54,19.11-11,.74,1.29-20.67,12-19.8,13.55.67,1.16,18.53-12.25,19.2-11.09l-19.76,13.16c.12.21,18.37-12.59,19.23-11.1.45.78-20.6,11.09-19.67,12.71L589,300c.3.53-19.72,13-19.72,13s18.19-12.78,19.18-11.07c0,0-20.06,13.13-19.85,13.5l19.18-11.07c.24.41-19.7,13-19.7,13,.8,1.39,19.21-11.09,19.21-11.09,1,1.69-20.79,12.05-19.9,13.59.33.57,19.33-11.15,19.33-11.15L566.9,321.71c.42.74,19.44-11.22,19.44-11.22L566.25,324c.9,1.55,19.16-12.13,19.63-11.33,0,0-20.87,12.73-20.29,13.73.88,1.53,18.88-13.08,19.82-11.44,0,0-21.39,13.91-21,14.61l20.44-11.79c.59,1-22.89,13.17-22.08,14.56l21.68-12.52"/><path class="cls-6" d="M555.89,262.26l3.49-2s-5.37,4.78-5.17,5.14c.08.13,8.36-5.66,8.72-5L553.72,268s11.06-7.43,11.51-6.65l-11.87,8.86,13.22-7.63L553,272.28s14.27-8.51,14.38-8.31-14.71,10.36-14.71,10.36c.44.75,14.52-9.8,15.14-8.74s-16,10.5-15.54,11.3l15.59-9c.71,1.22-16,11.79-16,11.79l15.79-9.11-16.1,11.16s15.1-10.62,15.92-9.2-16.9,10.83-16.33,11.81c.09.17,16.09-9.31,16.1-9.29l-16.52,12s15.44-10.82,16.27-9.39L550.42,289l16.39-9.46-16.65,11.13c.51.87,16.49-9.52,16.49-9.52l-16.87,12,16.62-9.6c.62,1.07-17.66,9.7-16.85,11.1.62,1.08,16.7-9.64,16.7-9.64.15.26-17.12,12.3-17.12,12.3.77,1.32,16.78-9.86,16.85-9.73s-17.88,9.89-17.09,11.26c.14.24,16.18-11.06,16.93-9.77s-18.29,11.08-17.38,12.64c.6,1.05,17.07-9.85,17.07-9.85L548,304.38c.85,1.48,17.2-9.93,17.2-9.93.31.54-17.48,11.7-17.48,11.7.86,1.5,16.71-11,17.28-10,0,0-18.62,10.92-17.69,12.53,0,0,17.29-10.23,17.4-10,.25.44-18.06,10.91-17.65,11.61.87,1.5,16.76-11.3,17.47-10.08,0,0-18.35,12.29-17.94,13,0,0,17.4-10.46,17.58-10.15L546.1,316.25s17.22-11,17.69-10.21c0,0-18.51,10.91-18,11.85.88,1.53,17.75-10.24,17.75-10.24S544.9,320,545.34,320.76c0,.1,17.83-10.29,17.83-10.29s-18.39,12.77-18.29,12.95,17.92-10.34,17.92-10.34c1,1.8-19,13.67-19,13.67.48.84,18.09-11.55,18.57-10.72"/><path class="cls-6" d="M496.21,287.69l3.38-1.95c.13.23-4.68,4-4.44,4.39s7.23-4.17,7.23-4.17c.42.72-7.64,6.23-7.48,6.5,0,0,9-5.41,9.11-5.26.51.88-9.13,6.9-9.1,7s9.67-6.19,9.93-5.73c0,0-9.77,7.84-9.7,8s10.44-6.64,10.71-6.18c0,0-10.28,8.5-10.27,8.52.3.53,11-6.94,11.26-6.5,0,0-11.37,7.42-10.83,8.34.31.55,11.21-7.15,11.51-6.64,0,0-11.3,8.09-11,8.56.09.16,11.19-7.53,11.65-6.73s-11.32,8.08-11.32,8.08,11.76-6.79,11.76-6.79l-11.41,8.24c.06.1,11.7-7.14,11.86-6.85.39.66-11.33,9.07-11.33,9.07.31.52,11.71-7.49,12-6.94.08.14-12,7.91-11.63,8.56,0,0,11.94-7.34,12.13-7s-11.62,9.13-11.62,9.13c.32.55,12.14-7.33,12.28-7.09.49.86-11.7,9.45-11.7,9.45l12.43-7.17c.61,1.06-12.73,7.35-12.13,8.38l12.5-7.22s-12.25,8.53-12.13,8.73l12.61-7.28-12.12,9.25L513.1,311s-12.87,8.2-12.29,9.2c.37.64,12.89-7.45,12.89-7.45.61,1-12.28,9.91-12.28,9.91s13.09-7.63,13.12-7.57-13.32,8-12.77,9L515,316.38s-12.95,9.54-12.68,10l13.57-7.84c.47.82-13.31,9.45-13.06,9.87,0,0,13.44-8.82,13.9-8,0,0-13.67,9.84-13.31,10.46,0,0,13.75-9.37,14.36-8.29.12.2-14.65,8.75-14,9.81s14.72-8.5,14.72-8.5c.64,1.11-14.33,10.47-14.33,10.47s14.51-10,15.21-8.78l-14.93,10.17c.42.73,15.07-9.82,15.55-9,0,0-15.47,10.35-15.2,10.81.12.22,16-9.25,16-9.25.69,1.2-15.84,10.86-15.66,11.17s16.59-9.58,16.59-9.58c.37.63-16.7,11.14-16.14,12.11,1.39,2.41,35.33-20.39,35.33-20.39,1.47,2.55-35.11,21.67-35.1,21.68C506.34,344.16,541,323,541,323c.2.36-34.74,22.63-34.74,22.63s33.59-22.16,34.79-20.09l-34.47,22.36c.48.83,33.65-22.36,34.92-20.16.85,1.46-34.73,22-34.73,22,1.63,2.83,54.35-33.73,55.37-32,0,0-58,30.24-55.65,34.28,1.23,2.13,55.32-31.93,55.32-31.93C564,324,505.36,353.7,506,354.89L561.38,323c1.55,2.69-55.57,33.77-55.57,33.77s55.12-32.27,55.32-31.94L505.54,359c2,3.38,55.25-32,55.27-31.92,2.35,4.07-55.52,34.56-55.52,34.56s53.68-35,55.43-32L505.1,364.13c2.3,4,55.28-33.38,55.91-32.28.52.9-58.37,31-56.05,35l79.26-45.77S504,367.64,504.89,369.18c3.52,6.11,78.34-46.3,78.8-45.49,0,0-81.65,43.26-78.82,48.17,0,0,77.73-45.93,78.18-45.14,3.92,6.79-81,42.62-78.13,47.51,0,0,75.06-49,77.51-44.76L505,376.85l76.63-44.24-76.54,45.66c3.23,5.59,74.36-46.86,76.06-43.91l-75.89,45.93c2.43,4.21,73.62-46.12,75.19-43.4L505.56,382.7l74.2-42.84s-75.13,43.06-73.87,45.25c3.22,5.57,73.27-42.3,73.27-42.3L506.21,387s70.94-44.63,72.53-41.87l-72.16,43.81c1.55,2.69,69.2-45.84,71.75-41.43l-71.4,43.07s68.31-45.83,71.07-41c3.68,6.37-71.83,41-70.51,43.3,2.22,3.85,66.83-46.08,70.08-40.46,0,0-73,36-69.76,41.69,1.47,2.54,69.52-40.14,69.52-40.14s-69.78,40.7-68.9,42.23c0,0,67.16-41.86,68.49-39.54,2.36,4.08-68,40.95-68,40.95l67.74-39.11c.13.22-69.16,37.47-67,41.26.75,1.3,66.85-38.59,66.85-38.59C578.77,365,509,399,510.14,400.94c2.16,3.73,66.11-39,66.48-38.39,1.94,3.36-66.48,38.72-66,39.47l66.28-38.27-65.79,39.39c1.16,2,66.22-38.23,66.22-38.23.22.39-65.52,39.78-65.52,39.78,1.33,2.29,65-41.25,66.64-38.48,0,0-67.8,37-65.95,40.14L618.9,344.89S508.68,402.4,512.38,408.81L620.66,346.3c1.37,2.36-108.33,64-108.33,64l108.73-62.77s-109,65.11-108.81,65.44l107.49-62.06S507.1,405.62,512.2,414.47L618,353.38,512.16,416l103.59-59.81c1.9,3.28-105.32,59.2-103.66,62.07,5.16,8.94,99.7-57.56,99.7-57.56C614,364.44,509.15,416,512,420.92c0,0,91.86-61,95.31-55,0,0-97.56,53.89-95.39,57.65,2.88,5,91.11-52.6,91.11-52.6.27.47-92.82,51.06-91.15,54l89-51.37c.26.44-89.66,53.14-89.06,54.18,3.93,6.79,84.57-48.82,84.57-48.82,3.73,6.45-88.51,43.84-84.62,50.58l81.81-47.23c4,6.85-84.31,44.95-81.87,49.17,3.67,6.37,78.74-45.46,78.74-45.46,3.45,6-78.82,48-78.82,48,1,1.81,73.84-44.46,74.63-43.09,3.49,6.05-77.67,39.86-74.69,45,0,0,68.59-46.08,71.4-41.22,0,0-71.47,43-71.45,43,3.1,5.38,68.29-39.43,68.29-39.43l-68.36,41.53,64-36.94c.65,1.12-66.63,34.17-64,38.67,2.43,4.22,59.18-34.17,59.18-34.17,2.61,4.53-60.67,33.1-59.23,35.6l58.88-34L511,445.25l59-34.05c2.93,5.08-59.29,36.05-59.29,36.05,2,3.49,59.11-34.12,59.11-34.12,1.88,3.27-59.56,37.08-59.56,37.08s56.45-39.1,59.27-34.22c.39.68-62,32.54-59.64,36.61,1.12,1.94,59.39-34.29,59.39-34.29s-61.51,33-59.68,36.21c1.45,2.51,58.81-35.46,59.47-34.33,2.42,4.2-62.49,31.39-59.75,36.14,1.07,1.85,59-35.3,59.54-34.37,0,0-61.54,33.68-59.87,36.57.75,1.3,59.62-34.42,59.62-34.42L508.7,460.29s58.29-36.84,59.67-34.45c1.76,3.06-62.64,32.12-60,36.68,0,0,58.38-36.84,59.73-34.49L508,465s59.32-35.33,59.79-34.52c0,0-61.28,35.67-60.25,37.47,0,0,59.16-35.76,59.86-34.56,0,0-61.65,33.39-60.09,36.09l59.87-34.57S504.21,467.38,506.9,472c0,0,59.91-34.59,59.91-34.59s-63,32.18-60.26,36.86c.28.48,56.95-39.78,59.94-34.6.19.34-60.29,36.87-60.29,36.87.31.53,58.44-37.26,60-34.62,2.31,4-61.11,36-60.36,37.26,0,0,57.39-39.12,60-34.63L505.4,481.81l60-34.64c.17.3-60.35,35.9-60.23,36.12,1.87,3.23,60-34.65,60-34.65s-60.56,36.22-60.31,36.65c1.4,2.43,60-34.65,60-34.65,1.7,2.94-60.32,36.57-60.32,36.57.24.41,60-34.66,60-34.66L504.14,490s58.38-37.57,60.05-34.67c1.09,1.88-60.44,37.25-60.44,37.25l60.07-34.68s-62.94,31.82-60.33,36.34l60.08-34.69s-61.4,34.93-60.38,36.69c2.21,3.82,57.21-39.7,60.1-34.7,0,0-62.32,34-60.49,37.21l60.13-34.71c.27.47-62.46,34.45-60.58,37.7,3,5.16,60.16-34.74,60.16-34.74,2,3.5-61.28,34.9-60.42,36.39,0,0,58.09-38.38,60.19-34.75,0,0-61.52,34.33-60.42,36.25,2,3.43,60.2-34.79,60.22-34.77l-60.5,36.62c.26.46,58.73-37.42,60.25-34.78,2,3.49-61.32,35-60.5,36.4,1.93,3.34,60.29-34.81,60.29-34.81.44.77-61.83,34.57-60.58,36.72.58,1,60.33-34.83,60.33-34.83l-60.73,37.42c.24.4,60.41-34.88,60.41-34.88l-60.84,37.69,60.51-34.93s-63.5,31.6-60.73,36.39c1.21,2.1,60.56-35,60.56-35,2.81,4.86-60.8,36.54-60.8,36.54,1.7,2.95,60.62-35,60.62-35,1.64,2.83-63.25,34.24-61.08,38l60.77-35.08s-63.26,33.76-61.13,37.44c1.26,2.19,60.9-35.16,60.9-35.16,2.36,4.09-62.5,36.23-61.37,38.19,1.57,2.71,61.08-35.26,61.08-35.26l-61.5,38c.1.18,61.26-35.37,61.26-35.37,1.23,2.14-63.94,34.59-61.73,38.43,3,5.16,60.24-37.61,61.46-35.49,2.7,4.68-61.81,37.78-61.81,37.78.85,1.48,61.61-35.57,61.61-35.57l-61.94,37.73s60.18-38.39,61.75-35.66c.05.08-62.17,38.39-62.17,38.39s61.89-35.84,61.94-35.76-64.32,33.51-62.17,37.24,62-35.81,62-35.81-63.2,37.41-62.48,38.67c.47.8,62.23-35.92,62.23-35.92,1.84,3.19-62.5,37.69-62.5,37.69l62.34-36s-64.24,35.55-62.68,38.25c1,1.7,61.19-38.33,62.48-36.08,2.75,4.76-62.79,38.06-62.79,38.06l62.62-36.15-63,38.87c.27.47,62.24-37.22,62.79-36.26,0,0-64.67,35.32-63.07,38.08,0,0,61.49-38.78,62.91-36.32.81,1.39-63.34,39.15-63.34,39.15s62.82-36.91,63.1-36.44c0,0-65.5,34.14-63.33,37.91l63.2-36.49c1.06,1.83-65.54,35.28-63.54,38.73,0,0,63.26-36.7,63.34-36.57s-66.45,33.32-63.6,38.25c0,0,61.19-40.55,63.45-36.63,0,0-64.39,38.1-63.83,39.09,0,0,63.12-37.59,63.61-36.73,2.39,4.13-63.53,38.09-63.53,38.09l63.4-36.6c2.56,4.43-61.33,38.1-61.33,38.1,2.73,4.73,61.07-35.26,61.07-35.26,2.81,4.87-59.55,36.28-59.55,36.28s58.45-35.86,59.36-34.27c0,0-59.15,32.68-57.6,35.36.57,1,57.4-33.13,57.4-33.13,1,1.7-56.23,33-55.5,34.23.14.24,52.73-36.36,55.29-31.92,0,0-55.13,30.58-53.93,32.64,2.41,4.18,51.15-35.61,53.78-31.05,1,1.77-53.16,30.46-52.42,31.75,1.6,2.77,50.13-33.91,52.28-30.19.54.94-50.07,31.24-50.07,31.24l49.84-28.77c2,3.5-47.4,29.58-47.2,29.92l46.94-27.11S507,572.19,509.23,576.1c0,0,43.2-29.1,45-26l-42.28,27,42-24.27s-39.48,24.76-39.21,25.24c1.87,3.24,39-22.5,39-22.5,1.15,2-36.77,23.19-36.77,23.19,1,1.66,35.95-22.21,36.58-21.12,0,0-35.81,19.64-34.62,21.7l34.46-19.89s-31.47,20.7-31.46,20.72l31.21-18c1,1.73-28.55,18.47-28.39,18.73.4.71,28.08-16.4,28.16-16.26l-24.77,17.06,24.5-14.15c1,1.73-22,14.69-22,14.69.8,1.38,21.71-12.73,21.8-12.58,1,1.8-19.86,12.31-19.43,13.06.32.54,19.24-11.11,19.24-11.11s-16.52,10.45-15.76,11.76,15.11-9.62,15.5-9l-13.24,9.35,13.08-7.55c0,.08-11.11,7.88-11.11,7.88s11-6.33,11-6.33L544,584.61s7.28-4.54,7.42-4.29l-4.18,4.77c.19.33,3.79-2.56,4-2.29,0,0-1,2.7-1,2.7l.65-.38"/><path class="cls-6" d="M530.7,267,534,265l-4.37,4s6.85-4.41,7.05-4.07c.32.56-7.76,5.77-7.42,6.36.08.14,9.67-5.58,9.67-5.58.29.51-10.35,6.34-9.89,7.13.2.36,10.85-6.26,10.85-6.26s-11.21,7.4-11,7.71c.59,1,11.14-7.58,11.63-6.72,0,0-11.94,8.56-11.88,8.68.32.54,12.32-7.25,12.38-7.15s-12.58,9.12-12.58,9.12,12.83-7.41,12.83-7.41l-13,9.37s12.83-8.2,13.18-7.61c.16.29-13.42,10.46-13.42,10.46.23.39,13.22-8.39,13.55-7.82l-13.7,10.34c.06.1,13.34-8.59,13.73-7.93,0,0-14.62,9.31-13.87,10.6,0,0,13.81-8,13.83-8,.49.85-14,9.78-13.92,9.95s13.88-8,13.88-8c.72,1.25-14,9.89-14,9.89.3.53,13.25-9.21,13.93-8,.22.37-14,9.77-14,9.77.64,1.11,13.94-8.14,14-8.07s-14.73,8.29-14,9.49c.52.91,14-8.09,14-8.09s-14.49,10.05-14.12,10.7c.48.82,13.93-8.33,14.06-8.12s-14.35,9.36-14.12,9.75c0,0,13.57-9,14.08-8.13,0,0-14.72,8.79-14.15,9.77.31.54,13.46-9.28,14.11-8.15l-14.18,9.85c.25.42,13.93-8.51,14.14-8.16.41.71-14.52,9.25-14.2,9.81.12.2,13.93-8.58,14.16-8.18L527,306.11l14.19-8.19s-14.44,9.64-14.25,10c0,0,13.84-8.84,14.21-8.21,0,0-14.68,8.95-14.27,9.66l14.23-8.22c.74,1.28-14.31,10.39-14.31,10.39.11.19,14.27-8.23,14.27-8.23s-14.48,9.41-14.32,9.68S541,304.7,541,304.7c.18.31-15.12,9-14.37,10.29S541,306.71,541,306.71c.38.66-14.8,9.26-14.39,10,.13.23,14.36-8.3,14.36-8.3.48.84-15,8.89-14.42,9.88,0,0,14.39-8.31,14.39-8.31.75,1.3-14.79,9.55-14.46,10.11.2.35,14.44-8.34,14.44-8.34L526.35,322c.45.77,14.51-8.38,14.51-8.38.73,1.28-15,9.47-14.58,10.2l14.58-8.42s-15.14,9.1-14.67,9.92l14.68-8.47c.69,1.19-14.93,9.8-14.84,10l14.85-8.57c.34.59-15.89,10.34-15.49,11,0,0,14.78-10.25,15.53-9"/></g></g><path class="cls-7" d="M450.47,667.69c12.46,0,20,7.37,20,19.25v26.68h-7.63v-12.2H438.33v12.2h-7.69V686.94C430.64,675.06,438.2,667.69,450.47,667.69Zm.07,6.91c-7.64,0-12.27,4.7-12.21,12.34l-.06,7.63h24.6v-7.63C462.8,679.3,458.23,674.6,450.54,674.6Z"/><path class="cls-7" d="M558.26,684.65v29H550.5V686.48c0-6.53-4-11.09-10-11.09-6.92.13-11.88,6.13-11.88,13.7v24.53h-7.76V686.48c0-6.53-4.11-11.09-10.05-11.09-6.92.13-11.81,6.13-11.81,13.7v24.53h-7.7V668H499v7.24A17.44,17.44,0,0,1,513.57,668a14.32,14.32,0,0,1,13.77,9.52c2.93-5.87,8.54-9.46,15.85-9.52C551.93,668,558.26,674.73,558.26,684.65Z"/><path class="cls-7" d="M615.36,683.54c0,10.31-6.59,16.31-18.07,16.31H586.78v13.77h-7.7V668h18.21C608.77,668,615.36,673.62,615.36,683.54Zm-7.37.2c0-6-4-8.88-11-8.88H586.78v18.08H597C604,692.94,608,689.94,608,683.74Z"/><path class="cls-7" d="M651.71,667.69c12.46,0,20,7.37,20,19.25v26.68H664.1v-12.2H639.57v12.2h-7.7V686.94C631.87,675.06,639.44,667.69,651.71,667.69Zm.06,6.91c-7.63,0-12.27,4.7-12.2,12.34l-.07,7.63h24.6v-7.63C664,679.3,659.47,674.6,651.77,674.6Z"/><path class="cls-7" d="M721.52,713.62l-8.35-13.83c-.65.06-1.37.06-2.09.06H700.25v13.77h-7.69V668h18.52c11.68,0,18.41,5.67,18.41,15.59,0,7.31-3.4,12.46-9.47,14.81l10.25,15.27Zm-10.44-20.68c7,0,11.1-3,11.1-9.2,0-6-4-8.88-11.1-8.88H700.25v18.08Z"/><path class="cls-7" d="M794.15,690.79c0,13-10.57,23.16-24.21,23.16s-24.2-10.12-24.2-23.16,10.57-23,24.2-23S794.15,677.74,794.15,690.79Zm-40.58,0A16.37,16.37,0,0,0,770,707a16.18,16.18,0,1,0-16.44-16.24Z"/><path class="cls-8" d="M481.79,632.2H469.22v14.9h-1.73V614.92H485v1.82H469.22v13.63h12.57Z"/><path class="cls-8" d="M508.72,647.05c-6,0-11.48-5-11.2-11.2V615h2V635.9A9.24,9.24,0,0,0,518,636V615h1.92v20.75A11.29,11.29,0,0,1,508.72,647.05Z"/><path class="cls-8" d="M551.41,647.1l-16.92-29.81.09,29.76h-1.92V615.14h3L552.28,645V615.14h1.92v32Z"/><path class="cls-8" d="M574.85,647.05H567v-32h7.9a16,16,0,0,1,0,32Zm-.22-1.78a14.34,14.34,0,0,0,14-14.26,14.18,14.18,0,0,0-14-14h-5.81l0,28.3Z"/><path class="cls-8" d="M608.08,639.51,605,647.1h-2.29L616.27,615l13.62,32.14h-2.33l-3.2-7.59Zm.73-1.78h14.86l-7.4-17.6Z"/><path class="cls-8" d="M666.27,617.38l-1,1.79a13.41,13.41,0,0,0-7.27-2,14,14,0,1,0,0,28.07,13.91,13.91,0,0,0,7.36-2.11l.92,1.83A16.07,16.07,0,1,1,658,615.1,16.18,16.18,0,0,1,666.27,617.38Z"/><path class="cls-8" d="M680.71,614.87V647H679V614.87Z"/><path class="cls-8" d="M723.82,631c0,8.82-6.86,16-15.32,16s-15.31-7.22-15.31-16,6.86-16,15.31-16S723.82,622.18,723.82,631Zm-1.69,0c0-7.64-6.22-14.08-13.63-14.08s-13.62,6.44-13.62,14.08,6.26,14.12,13.62,14.12S722.13,638.69,722.13,631Zm-10.38-25.42.82,1.92-7,3.25-.91-1.92Z"/><path class="cls-8" d="M755.13,647.1l-16.92-29.81.09,29.76h-1.92V615.14h3L756,645V615.14h1.92v32Z"/></g></g></svg>