<?xml version="1.0" encoding="utf-8"?>
<!-- Generator: Adobe Illustrator 24.2.1, SVG Export Plug-In . SVG Version: 6.00 Build 0)  -->
<svg version="1.1" id="Layer_4" xmlns="http://www.w3.org/2000/svg" xmlns:xlink="http://www.w3.org/1999/xlink" x="0px" y="0px"
	 viewBox="0 0 612 792" style="enable-background:new 0 0 612 792;" xml:space="preserve">
<style type="text/css">
	.st0{fill:none;stroke:#39B54A;stroke-width:1.2;stroke-linecap:round;stroke-linejoin:round;}
	.st1{fill:none;stroke:#48C8F5;stroke-width:1.3;stroke-linecap:round;stroke-linejoin:round;}
	.st2{fill:none;stroke:#60CCF6;stroke-width:1.3;stroke-linecap:round;stroke-linejoin:round;}
	.st3{fill:#68767B;}
</style>
<g id="art">
	<g>
		<g>
			<g>
				<path class="st0" d="M364.3,186c0.8,1.4,4.7-4.4,5.5-3.1c1.1,1.9-9.4,4.3-8.3,6.2c1.6,2.8,10.6-9.7,12.1-7
					c1.6,2.8-14.7,4.2-12.7,7.7c1.4,2.5,11.9-10.5,13.4-7.8c2,3.5-16.2,6.3-14.5,9.2c1.9,3.3,13.8-13,15.9-9.2
					c2.8,4.8-20.2,10.6-18.9,13c2.2,3.8,20.6-15.4,22.1-12.8c2.7,4.6-30.9,12.6-27.1,19.3c4.7,8.1,27.5-23.5,30.8-17.8
					c4.7,8.1-34.6,12.7-31.3,18.4c3,5.2,29.5-21.8,31.5-18.2c4.2,7.3-37.6,10.7-32.6,19.5c2.5,4.3,30.7-22.8,32.9-19
					c4,6.9-43,13.7-37,24c3.7,6.4,31.6-31,37.1-21.4c7,12.2-47.1,20.7-42.8,28.1c4.7,8.2,37.4-29.4,40.8-23.5
					c5.2,9-45.3,18.8-41.8,24.7c3.7,6.4,36.3-32.8,41.4-23.9"/>
				<path class="st0" d="M330.7,109.7c0.5,0.9,2.9-2.8,3.4-1.9c0.7,1.2-4.7,2-4.2,3c0.9,1.5,5.1-3.9,5.5-3.2
					c0.7,1.1-6.1,2.6-5.6,3.4c0.7,1.2,5.3-4.2,5.8-3.4c0.6,1.1-6.7,1.9-5.9,3.4c0.5,0.9,5.5-4.2,5.9-3.4c1.2,2.1-8,6.3-7.3,7.5
					c1,1.8,10.5-8.4,11.5-6.6c1.1,1.9-13.7,5.6-11.9,8.6c2,3.5,12.1-9.7,13.3-7.7c1.2,2.2-15.9,8.2-13.9,11.5
					c1.1,1.9,13.8-11.7,15.4-8.9c2.6,4.5-17.6,9.9-15.9,12.7c2,3.5,13.8-13.7,16.3-9.4c1.4,2.5-19.3,6.6-16.5,11.4
					c1.8,3.1,15.2-12.1,16.6-9.6c1.3,2.3-19.1,7.5-16.9,11.3c2,3.4,15.3-12.6,16.9-9.8c1.5,2.7-19.8,6.3-17.1,11.1
					c2.5,4.3,15.4-12.8,17.1-9.9c2.8,4.8-18.9,11.3-17.6,13.6c1.8,3.1,15.3-14,17.5-10.1c2.8,4.8-20.6,6.4-17.7,11.4
					c1.6,2.8,15.3-14.1,17.6-10.2c2,3.5-19.6,10.8-18,13.4c1.2,2.1,15.9-13.3,17.7-10.2c2.4,4.2-19.8,8.3-17.9,11.6
					c1.6,2.8,15.1-14.7,17.7-10.2c2.1,3.7-20.1,8.4-17.9,12.2c1.6,2.8,15.8-13.4,17.6-10.2c2.4,4.1-19.3,9.3-17.8,11.9
					c1.5,2.6,15.1-14.5,17.6-10.2c1.8,3-20.1,10.5-18.1,14c2,3.5,14.7-14.9,17.5-10.1c3.2,5.5-20.2,10.3-18,14.1
					c1.9,3.3,15.8-12.7,17.4-10c2.8,4.9-20.3,8-17.7,12.4c2.6,4.5,15.1-13.9,17.3-10c2.6,4.6-20.5,7.4-17.7,12.3
					c1.2,2,15.4-13.2,17.3-10c1.8,3.2-19.1,10.4-17.7,12.8c2.2,3.9,14.7-14.5,17.3-10c1.6,2.7-20.8,8.2-17.9,13.4
					c1.7,3,14.7-14.5,17.3-10c2.2,3.7-19.8,7.6-17.6,11.4c1.1,2,16-12.4,17.4-10c1.6,2.7-19.1,9-17.7,11.6
					c1.3,2.3,15.9-12.7,17.4-10c2.6,4.6-19.9,5.8-17.4,10.2c1.9,3.4,15-14.2,17.4-10c2.4,4.2-19.5,10.3-18,13
					c1.5,2.7,15.7-13.2,17.5-10.1c2.7,4.6-20.5,9.8-18.3,13.7c2.4,4.1,16.4-12.4,17.7-10.2c2.8,4.9-20.7,9.1-18.4,13.2
					c1.9,3.2,15.2-15,17.9-10.3c1.4,2.5-22.9,7.9-19.6,13.6c1.4,2.4,17.5-14.1,19.2-11.1"/>
				<path class="st0" d="M301.3,97.8c0.3,0.4,3.1-2.3,3.3-1.9c0.7,1.1-6.3,4.7-5.3,6.5c1,1.7,9.6-8.5,10.9-6.3
					c1.4,2.4-12.7,7.8-11.4,10.1c1.9,3.3,11.9-11.9,14.1-8.1c1.3,2.3-15.6,8.7-14.1,11.2c2.2,3.9,13.4-12,15.3-8.8
					c2,3.4-16.6,7.2-15.3,9.5c1.3,2.2,13.8-11.6,15.4-8.9c1.3,2.3-18,8.3-15.5,12.5c2.4,4.1,14.8-11.2,16-9.2
					c1.9,3.3-18.5,7.9-16,12.1c2.3,4,13.8-13.2,16.1-9.3c1.2,2.1-18.4,8.1-16.2,12c1.3,2.2,14-13.3,16.2-9.4
					c2.7,4.6-17.4,8.5-16.3,10.5c1.9,3.3,14.3-12.9,16.3-9.4c1.7,2.9-19.2,8.1-16.4,12.9c1.9,3.3,14.7-12.7,16.5-9.5
					c2.5,4.4-18.8,7-16.5,10.9c1.7,2.9,15.3-11.7,16.6-9.6c1.3,2.3-19.3,8.6-16.6,13.2c2.6,4.6,15.4-11.9,16.7-9.7
					c1.7,2.9-18.2,10.7-16.8,13.1c1.5,2.5,15.7-11.8,16.9-9.8c1.4,2.4-18.3,7.9-16.9,10.3c2.5,4.3,14.9-13.3,16.9-9.8
					c2.5,4.4-18.8,7.9-17,11.1c2.4,4.1,14.7-13.8,17-9.8c1.8,3.2-19.2,6.1-17,10c2.3,4,14.4-14.4,17-9.8c2.7,4.7-19.3,9.8-17.1,13.6
					c2.2,3.9,15.7-12.6,17.2-9.9c2.1,3.7-19.1,9.2-17.3,12.3c1.9,3.3,14.9-14.2,17.3-10c2,3.4-19.5,7.1-17.3,10.9
					c2.5,4.3,15.6-13.1,17.4-10c2,3.4-19.6,8.5-17.4,12.2c1.4,2.4,16.2-12.2,17.5-10.1c2.5,4.3-19.9,9.2-17.6,13.2
					c1.4,2.4,16-12.9,17.6-10.2c2.1,3.6-18.8,9.2-17.6,11.2c2.4,4.1,15.1-14.6,17.7-10.2c1.3,2.3-20.8,8.4-17.8,13.6
					c1.8,3.1,16.3-12.9,17.8-10.3c3,5.2-19.3,10.1-17.9,12.6c2.4,4.2,15.3-14.9,17.9-10.3c2.5,4.3-20.4,9.4-18,13.5
					c2,3.4,15.6-14.7,18-10.4c2.1,3.6-20.1,8.2-18.1,11.7c2.5,4.3,16.8-12.7,18.1-10.4c2.8,4.9-19.9,9.2-18.2,12.2
					c1.6,2.8,16.5-13.3,18.1-10.5c2.4,4.1-20.9,7.6-18.2,12.3c2.2,3.8,16.3-13.8,18.2-10.5c1.4,2.3-20.2,7.1-18.2,10.6
					c1.4,2.5,16.9-12.6,18.2-10.5c1.6,2.8-20.3,7.6-18.2,11.3c1.6,2.8,16.7-13.1,18.2-10.5c2.2,3.8-21.1,8.1-18.3,13
					c2.3,3.9,16-14.3,18.2-10.5c2.2,3.9-20.6,7.3-18.2,11.4c2.7,4.7,16.6-13.2,18.2-10.5c2.3,4.1-20.9,9.5-18.4,13.9
					c1.5,2.6,16.1-14.2,18.2-10.5c2.4,4.2-20.5,9-18.3,12.8c1.3,2.3,17-12.7,18.2-10.5c2.1,3.7-21.1,7.8-18.5,12.4
					c1.8,3.1,16.2-14.5,18.4-10.6c2.3,4-22.3,8.5-19.5,13.3c2.1,3.6,16.4-16.5,19.4-11.2"/>
				<path class="st0" d="M239.4,135.9c0.3,0.5,2.7-2.2,3-1.7c0.8,1.3-5.5,3.7-4.5,5.3c1,1.7,6.8-6.9,8.1-4.7c0.9,1.6-9.2,5.8-8,7.9
					c1.5,2.6,8.7-8,10-5.8c1.7,2.9-10.8,5.3-9.4,7.7c1.2,2,8.9-9,10.6-6.1c1.3,2.2-11.1,5.9-10.1,7.7c0.8,1.4,9.6-8.6,11-6.3
					c0.8,1.4-12.2,4.9-10.5,7.7c1.7,2.9,9.5-9.5,11.3-6.5c1.6,2.8-12.5,5.2-10.6,8.4c1.4,2.4,10.6-8.3,11.6-6.7
					c1.1,1.8-11.9,6.8-11.1,8.2c1.5,2.6,10.3-9.3,11.7-6.8c1.6,2.8-12.5,5.5-11.6,7c1.5,2.6,9.9-10,11.7-6.8
					c1.3,2.2-12.3,6.4-11.3,8.2c1.4,2.3,10.4-9.4,11.8-6.8c1.3,2.3-12.7,5.8-11.4,8.1c1.9,3.2,10.1-9.9,11.9-6.9
					c1.2,2.1-13.3,4.4-11.9,6.9c1.4,2.4,10.4-9.5,11.9-6.9c1.6,2.7-12.5,6.6-11.4,8.5c1,1.7,10.7-9.1,12-6.9
					c1.9,3.3-12.5,6.6-11.5,8.3c1.6,2.7,10.4-9.9,12.1-7c1.9,3.3-13,5.9-11.7,8.1c1.1,1.9,10.7-9.6,12.2-7
					c1.3,2.2-13.4,5.6-11.6,8.8c1,1.7,11-9.4,12.3-7.1c2,3.5-13.6,5.6-11.7,8.8c1,1.7,10.8-10.1,12.5-7.2c1.8,3.1-13.3,6.1-12.2,8.1
					c1.3,2.2,11-9.9,12.5-7.2c2,3.5-13.8,5.6-12,8.7c1,1.7,11.2-9.8,12.7-7.3c0.8,1.4-13.3,6.9-12,9.1c1.4,2.4,11.4-9.9,12.9-7.4
					c1.5,2.6-14,5.6-12.8,7.6c1.2,2,11.9-9.1,12.9-7.4c1.8,3.2-14.1,6.4-11.9,10.2c1.8,3.2,11.4-10.7,13.2-7.6
					c2,3.5-15.3,4-13.2,7.6c1.4,2.3,11.6-10.3,13.2-7.6c1.4,2.4-13.9,7.3-12.2,10.4c1.5,2.5,11.9-10.5,13.5-7.8
					c1,1.7-15.4,5-13.1,8.8c1.9,3.3,12.4-9.9,13.6-7.9c1,1.7-13.9,8.1-12.9,9.8c2.2,3.9,12.4-10.6,13.9-8c1.1,1.9-15.1,6.2-13.7,8.7
					c1.3,2.2,12.8-10.1,14-8.1c1.6,2.8-14.9,6.6-13.9,8.4c1.5,2.7,12.1-11.5,14-8.1c1.5,2.5-15.1,6.6-13.7,9.1
					c2.2,3.7,13-10.3,14.2-8.2c1.5,2.6-14.6,8.1-13.6,9.9c1.5,2.6,13.4-10.2,14.5-8.4c2.3,3.9-15.6,6.5-14.3,8.8
					c1.6,2.8,13.5-10.2,14.6-8.4c1.2,2.1-15,8.4-13.9,10.2c1.5,2.6,13.2-11.5,14.9-8.6c2.1,3.7-15.5,8.2-14.3,10.2
					c1.9,3.2,14-10.8,15.2-8.8c2.3,3.9-16.1,7.9-14.6,10.5c2.1,3.6,13.1-13.3,15.6-9c2.5,4.3-16.3,8.7-14.8,11.4
					c1.6,2.8,14.1-12.8,16.1-9.3c2.6,4.4-17.4,8-15.6,11.1c2.6,4.5,14.3-13.5,16.6-9.6c1.1,1.9-18.8,5.9-16.5,9.9
					c1.9,3.3,15-12.7,16.7-9.6c1.4,2.4-18.9,6.1-16.6,10c1.4,2.4,14.4-14.1,16.8-9.7c2.7,4.7-18.6,6.9-16.8,9.9
					c2.5,4.3,14.7-13.7,16.9-9.8c2.3,3.9-18.1,8-16.7,10.5c1.8,3.1,15.8-12.6,17.3-10c1.2,2.1-17.7,10.6-16.4,12.8
					c2.9,5.1,16.8-15,19.1-11c1.3,2.2-20.6,9.2-18.6,12.6c5.6,9.7,32.7-29.7,37.3-21.6c5.1,8.9-40.4,17.8-36.5,24.5
					c3,5.1,34.5-26.6,37.4-21.6c3,5.2-42,14.1-37.1,22.7c3.4,5.9,32-31.4,37.6-21.7c3.8,6.6-40,17.8-37.5,22.1
					c3.4,5.9,33.2-29.8,37.9-21.9c3.1,5.4-40.3,19.3-37.1,24.8c5.7,9.8,53.2-40.5,57.4-33.1c5.7,9.9-63,23.7-57.3,33.6
					c6.2,10.8,49-47.4,57.3-33.1c7.6,13.1-61.1,27.5-56.9,34.8c4.5,7.9,49.4-45.7,56.8-32.8c3.8,6.6-64.2,20.6-56.6,33.6
					c5.2,8.9,52.6-39.8,56.7-32.7c3.9,6.8-62.4,24.8-56,35.8c8.4,14.5,48.5-46.5,56.5-32.6c5.8,10-60.7,27.7-55.9,36
					c8,13.8,47.8-48.4,56.8-32.8c5.7,9.8-65,21-56.3,36.1c5.3,9.2,71.4-52.9,76.5-44.2c12.2,21.2-87.2,27.4-76.1,46.6
					c11.1,19.3,63.7-64.6,75.7-43.7c7.1,12.4-83.5,31.2-75.6,44.9c11.1,19.2,65.8-60,75.4-43.5c10.3,17.8-82.3,32.9-75.2,45.2
					c9.6,16.6,63.4-63,74.9-43.2c5.6,9.6-80.7,34.9-74.6,45.4c10.9,18.8,63.1-62.3,74.3-42.9c6,10.4-85.7,24.1-74.2,44.1
					c9.5,16.4,68.8-51.6,74-42.7c10.5,18.2-79.2,35.8-73.7,45.3c5.7,9.9,64-58.4,73.3-42.3c9.6,16.6-84.7,23.3-73.2,43.3
					c5.2,9.1,66.1-54.1,73-42.1c5.5,9.6-84.2,23.1-73,42.5c11.3,19.5,65.1-55.6,72.9-42.1c5.6,9.8-84,25.4-72.5,45.2
					c5,8.7,66.5-51.4,72.1-41.6c11.7,20.3-79.4,29.9-72,42.7c6.9,12,67.3-49.4,71.8-41.5c7.3,12.6-81.7,26.8-71.3,44.8
					c10.5,18.1,61.9-56.5,70.9-40.9c9.4,16.3-76.4,31.9-70.8,41.6c8.6,14.9,62.8-54.5,70.7-40.8c7.5,13-78.9,27.4-70.5,41.9
					c4.6,7.9,64.6-50.8,70.4-40.7c8.1,14.1-75.1,34-70,42.9c5.9,10.1,62.9-52.2,69.8-40.3c4.8,8.4-73.9,34.6-69.1,42.9
					c4.9,8.5,61.1-53.3,68.9-39.8c8.1,14-76.3,27.1-68.9,40c6.1,10.6,58.8-57.3,68.9-39.8c5.9,10.2-79,23.5-68.1,42.4
					c7.6,13.1,57.4-58,68.2-39.4c9.5,16.5-77.2,24.6-67.6,41.2c4.4,7.6,57.8-56.4,67.8-39.2c5.2,9.1-77.1,23.6-67,41.2
					c9.9,17.1,57.3-56.5,67.4-38.9c4.7,8.1-73.9,27.9-66.1,41.4c8.5,14.7,58.6-52.7,66.8-38.5c7.3,12.7-76.1,22.3-66.7,38.7
					c6,10.4,56.9-55.5,66.7-38.5c7.5,12.9-75.8,22.9-66,39.7c6.4,11,57.6-53.5,66.4-38.3c10.3,17.9-73.6,25.8-65.8,39.2
					c10.2,17.6,56.6-54.6,66.1-38.1c5.9,10.2-73,25.8-65,39.7c9.7,16.8,61.4-45,65.5-37.8c8.1,14.1-73.7,22.8-64,39.7
					c8.3,14.3,60-48.1,65.8-38c7.2,12.5-73.4,23.5-63.9,40c10.2,17.6,90.6-85.6,105-60.6c10.2,17.6-119.5,34.2-103.4,62.1
					c10.4,18,89.7-77.5,100.8-58.2c16.1,27.9-108.4,45-100.8,58.2c10.7,18.6,93.8-70.3,100.7-58.2c12,20.8-115.1,32.2-99.5,59.1
					c12.1,21,89.8-70.5,97.9-56.5c13.6,23.5-102.7,48.1-96.4,59c8.1,14,78-79.6,92.9-53.7c7.5,13-104.5,37-92.8,57.1
					c7.3,12.6,80.9-65.6,89.1-51.4c6.5,11.3-100.5,32.1-89.1,51.8c9.5,16.4,77.6-70.5,88.7-51.2c11.6,20.1-99.4,36.7-88.9,54.8
					c9.6,16.6,75.7-65.6,85.2-49.2c13.1,22.7-98,30.7-85.4,52.4c10.4,18,74.5-60.7,82.2-47.4c9.6,16.6-92.4,30.6-82.2,48.2
					c7.2,12.5,76.2-56.2,81.5-47c7.3,12.7-89.1,36.4-81.6,49.4c8.9,15.5,74.1-54.5,79.1-45.7c9.1,15.7-89.6,30.4-79.3,48.3
					c6.7,11.7,69.5-56.5,76.6-44.2c8.3,14.4-85.6,28.7-76.6,44.4c9.8,17,68.3-58.2,76.5-44.1c5.5,9.6-87.1,29.6-76.6,47.8
					c8.5,14.8,65.4-54.9,72.8-42c4.8,8.4-81.2,28-72.9,42.5c4.7,8.1,62.5-58.9,72.4-41.8c7.5,13.1-84.3,23.6-72.5,44
					c7.4,12.9,63.9-51.3,70.1-40.5c8.4,14.5-79.5,24.9-70.2,41c8.3,14.4,60.7-55.6,69.6-40.2c5.1,8.8-77.2,28.1-69.6,41.2
					c7.6,13.1,61.5-51.8,68.5-39.6c9.9,17.1-74.7,29.8-68.6,40.4c6.3,11,57.4-57,67.7-39.1c5.7,9.9-74.6,27.3-67.7,39.2
					c7.2,12.4,62.8-47.2,67.6-39c6.7,11.5-73.3,32.2-67.7,41.9c8.6,14.9,55.4-53.3,64.6-37.3c8.4,14.5-74.2,24.6-64.8,40.9
					c8.6,14.9,52.1-46.2,59.1-34.1c6.7,11.7-64.4,26.7-59.2,35.8c4.3,7.4,52.2-42.4,57.5-33.2c5.4,9.3-65.5,21.6-57.6,35.3
					c6,10.4,49.7-45.9,57.1-33c4.6,8-62.4,24.3-57.2,33.5c6.3,10.9,51.1-43.5,57.2-33c7.9,13.7-63.7,23.9-57.3,35.1
					c4.8,8.3,51.6-43.1,57.4-33.1c4.9,8.6-61.6,27.1-57.4,34.4c9,15.6,48.8-48.3,57.5-33.2c6.3,11-63.5,22.8-57.5,33.3
					c9.1,15.7,53.4-40.2,57.5-33.2c8.6,14.9-62.1,28-57.6,35.8c4.8,8.2,50.8-45.2,57.7-33.3c6,10.4-62.9,26.8-57.8,35.7
					c6.4,11,51-45.4,57.9-33.4c4.5,7.7-62.1,26.8-57.9,34.1c9.2,15.9,53.1-41.9,57.9-33.5c7.9,13.7-66.5,21.9-58.1,36.5
					c7.8,13.4,51-46.2,58.2-33.6c4.9,8.5-66.3,21.5-58.3,35.3c7.2,12.4,49.2-49.6,58.4-33.7c9.2,16-65.9,23.2-58.5,36
					c8.1,14,50.2-48.3,58.6-33.8c7.3,12.6-67,19.7-58.6,34.2c7.9,13.6,51.9-45.5,58.6-33.8c5.7,9.9-68.1,20.9-58.7,37.1
					c9.5,16.5,54-42.4,58.9-34c6.4,11.2-64.9,26.3-59,36.5c8.2,14.2,53.7-43.4,59.1-34.1c5.1,8.8-67.7,21.9-59.2,36.5
					c5.1,8.8,50.5-49.5,59.3-34.2c8.7,15-68.6,21.1-59.4,37c6.6,11.4,50.7-49.8,59.6-34.4c6,10.5-67.6,20.6-59.6,34.5
					c8.8,15.2,50.9-49.5,59.6-34.4c9.5,16.4-65.7,26.8-59.7,37.1c5,8.6,50.4-50.8,59.8-34.5c4.6,8-64,30.3-59.9,37.3
					c4.5,7.8,50.7-50.8,60.1-34.7c9.5,16.4-69.9,20.1-60.3,36.8c7,12.1,51.5-50.3,60.4-34.8c6.3,11-70.3,19.8-60.5,36.7
					c5.4,9.4,55.2-44.3,60.6-35c5.9,10.2-64.9,28.8-60.7,36.1c9.5,16.4,54.1-46.7,60.8-35.1c4.4,7.7-66.7,29.5-61.2,39
					c6.7,11.5,53.1-49.8,61.4-35.5c4.8,8.4-71.1,21.4-61.7,37.7c4.5,7.8,52.6-51.6,61.8-35.7c8,13.9-68.7,27.5-62.2,38.9
					c4.6,7.9,52.3-53.4,62.3-36c10.2,17.6-72.6,22.2-62.7,39.3c7,12.1,55.8-48.6,62.9-36.3c9.5,16.5-69.1,29.5-63.3,39.5
					c9.1,15.8,56.4-48.8,63.4-36.6c7.9,13.6-72.2,26.1-63.9,40.4c5.7,9.9,53.8-54.8,64-37c5.6,9.7-69.5,30.6-64.3,39.4
					c8.2,14.2,57.7-48.9,64.4-37.2c7.8,13.6-72.6,24-64.5,38.1c4.5,7.7,55.1-53.6,64.6-37.3c7.8,13.5-70.2,31.5-65,40.5
					c8,13.8,59.3-47.5,65.1-37.6c6,10.5-75,25.1-65.6,41.5c8,13.9,60.4-47.1,65.7-37.9c8.3,14.4-75.8,25.4-66.2,41.9
					c5.1,8.8,58.7-51.6,66.4-38.3c10.4,18-72.2,29.4-66.5,39.2c7.5,13,59.1-51.3,66.5-38.4c9.7,16.8-74.1,29.5-67,41.8
					c5.2,9,58.9-53.3,67.2-38.8c7.4,12.8-77.4,25.7-67.7,42.5c10.5,18.1,57.9-57,68.1-39.3c6,10.3-75.3,30.1-68.4,42
					c5.2,9,60.8-53.3,68.7-39.6c8.8,15.3-79.9,22.6-68.9,41.6c11.2,19.3,59.1-57.3,69.1-39.9c6.5,11.3-75.8,30.5-69.3,41.6
					c5.4,9.4,63-51.4,69.5-40.1c5.2,9.1-76.7,30.4-69.8,42.3c9.2,15.9,60.4-57,70-40.4c6,10.3-78.6,28.7-70.4,43
					c6.3,10.8,63.4-53.2,70.6-40.8c9.6,16.6-75.8,32.6-70.7,41.4c10.5,18.1,63.9-52.7,70.8-40.9c9.1,15.7-82.8,24.2-71.2,44.3
					c10,17.3,61.5-58.7,71.6-41.3c6.7,11.6-82.5,24.2-71.8,42.8c9.6,16.6,63-57,71.9-41.5c10.1,17.4-79,32.1-72.2,43.9
					c5.6,9.6,66.1-52.8,72.5-41.8c5.9,10.2-78.1,34.4-72.7,43.8c11,19.1,64.1-57.4,72.9-42.1c7.5,12.9-78.3,37.2-73.4,45.7
					c11.2,19.5,66.9-54.4,73.8-42.6c11.5,19.8-80.7,34-74.1,45.3c8.4,14.6,66.8-56.1,74.4-43c5.6,9.7-82.3,30-74.5,43.5
					c11.3,19.5,64.6-60.3,74.5-43c4.9,8.5-85.3,27.7-74.9,45.6c6.9,11.9,69.1-53.8,75.2-43.4c10.4,18-85.6,29.3-75.6,46.7
					c10.6,18.3,67.7-58.1,75.9-43.8c8.9,15.5-81.2,36.9-76.2,45.6c5,8.6,71.5-52.5,76.4-44.1c11.8,20.4-88,25.1-76.5,45
					c6.7,11.7,70.2-55.3,76.6-44.2c6.9,11.9-83.9,31.7-76.6,44.3c9.7,16.8,69.7-56.2,76.6-44.2c7.9,13.6-86.3,31.3-77,47.4
					c10.2,17.6,66.1-64.3,77.4-44.7c6.6,11.5-85.5,34.9-77.8,48.2c5.3,9.1,72.5-55,78.2-45.2c9.1,15.7-89.4,29.4-78.6,48.1
					c8.8,15.2,71.8-57.9,78.9-45.6c6.5,11.3-88.5,31-79.1,47.2c6.1,10.5,71.7-59,79.3-45.8c12.2,21.2-86.3,35.7-79.5,47.4
					c12.3,21.3,69-64.5,79.7-46c8,13.9-88.5,31.9-79.8,46.9c6.2,10.8,70.4-62.7,79.9-46.1c7.6,13.2-89.1,31.5-80.1,47.2
					c7.3,12.6,68.1-67.2,80.2-46.3c6.2,10.7-89.5,30.6-80.2,46.7c7.7,13.3,68.8-66.2,80.3-46.3c9.9,17.1-86.8,37.6-80.5,48.4
					c8.3,14.3,73.3-59.6,80.8-46.6c6.8,11.7-89.4,36.4-81.3,50.5c7.8,13.5,70.9-65.9,81.7-47.2c11.3,19.6-91.2,34-82,49.9
					c11.4,19.7,69.9-69.2,82.4-47.5c10.8,18.8-88.7,39.5-82.7,50c11.1,19.3,75.4-60.9,82.9-47.9c12.2,21.1-95.1,31-83.4,51.4
					c9.3,16.1,72.5-68,83.8-48.4c8,13.8-92,36.2-84,50.1c6.2,10.8,71.2-71,84.2-48.6c10.6,18.3-91.5,36.9-84.3,49.5
					c11.3,19.6,75.2-64.6,84.4-48.7c5.7,9.8-90.8,41.1-84.7,51.5c9.5,16.5,71.8-72,85.1-49.1c12.9,22.3-99.1,29.2-85.5,52.8
					c8.6,15,79.1-61.5,85.9-49.6c8.4,14.6-98.6,28.1-86,49.9c10.6,18.4,72.5-73.1,86-49.7c12.8,22.2-95.7,34.7-86.2,51.2
					c8.6,14.9,74.9-69.8,86.4-49.9c10.6,18.3-98.3,32.1-86.7,52.3c10.2,17.6,74.3-72.1,87-50.2c9,15.5-96.6,34.9-87.1,51.4
					c8.2,14.3,80.9-61.4,87.2-50.4c6.3,10.9-101,30.8-87.7,53.8c6.4,11,78.3-67.7,88.1-50.8c6.2,10.8-100.6,29.1-88.1,50.9
					c10.5,18.2,78.5-67.5,88.1-50.8c10.9,18.9-101.7,28.8-88.2,52.1c8.3,14.4,76.8-71.1,88.4-51c9.5,16.4-94.6,41.2-88.5,51.8
					c8.1,14.1,79.6-66.6,88.6-51.1c11.2,19.4-100.2,34.4-88.9,53.9c8.9,15.5,75.4-75.4,89.2-51.5c6.1,10.5-97.8,37.6-89.3,52.3
					c13.7,23.8,81.6-65.1,89.4-51.6c12.5,21.7-98.2,38.4-89.6,53.3c9.2,16,76.5-74.8,89.8-51.8c6.4,11.1-101.7,32.7-89.9,53
					c8.8,15.2,83.8-62.9,90.1-52c13.4,23.2-97.3,43.4-90.5,55.3c14.5,25.1,79.6-71.9,90.8-52.5c13.1,22.6-102.6,36.2-91.3,55.9
					c11.1,19.2,82.4-68.9,91.7-52.9c12.4,21.5-99.4,42.1-91.9,55c11.4,19.7,84.6-66.3,92.2-53.2c12.1,20.9-99.7,41.7-92.3,54.6
					c8,13.9,82.3-71,92.5-53.4c13.4,23.1-103.6,36.2-92.7,55.1c7.3,12.6,79.4-76.9,92.9-53.6c14,24.3-101.4,41.1-93.1,55.5
					c9.3,16.1,83-71.7,93.3-53.9c8.4,14.5-105.7,33-93.4,54.4c8.9,15.4,85.1-68.3,93.4-53.9c14.6,25.4-102,39.7-93.5,54.4
					c10,17.3,81.6-74.6,93.5-54c14.5,25.2-106.1,33.6-93.7,55.1c11.6,20.2,87-65.9,93.8-54.1c6.3,11-103.4,40.3-94.1,56.4
					c13.4,23.3,87.7-65.9,94.3-54.5c10.4,17.9-101.4,43.3-94.4,55.4c13.4,23.3,80.3-79.3,94.5-54.6c11.6,20-103.2,43.7-94.9,58
					c9.3,16.1,83.5-75.5,95.3-55c10.1,17.5-107.3,37.3-95.6,57.6c9.3,16,88.4-68.4,95.9-55.4c10.8,18.7-110.4,30.4-95.9,55.5
					c13.5,23.3,83.5-77,96-55.4c6.9,11.9-102.6,44.9-96,56.2c10.5,18.2,86.6-72.1,96.1-55.5c13.3,23-108.7,38.3-96.6,59.4
					c12.4,21.4,85.4-76.2,97-56c13.5,23.4-106,41.2-97.1,56.6c6.5,11.3,81.7-82.8,97.2-56.1c8.8,15.3-111.6,32-97.2,56.8
					c11.3,19.6,90.1-68.6,97.3-56.2c13.5,23.4-107.2,43.6-97.7,59.9c12.4,21.5,90.4-70.2,98.2-56.7c8.7,15.1-114.1,33.3-98.6,60.1
					c12.9,22.4,87.8-76.3,98.9-57.1c14.7,25.5-109.6,39.3-99,57.7c14,24.3,90.2-72.6,99.1-57.2c12.6,21.9-112.9,33.4-99.1,57.3
					c11,19.1,90.9-71.4,99.1-57.2c9.9,17.2-115.6,31.7-99.4,59.8c14.2,24.6,86.1-81,99.7-57.5c13.3,23.1-111.6,41.2-100.1,61.3
					c14.4,24.9,92.6-71.7,100.5-58c9.9,17.1-109.4,43.2-100.6,58.5c11.3,19.5,85.9-83.6,100.6-58.1c8.4,14.6-112.2,42.1-101,61.5
					c13.4,23.2,85.6-85.8,101.4-58.5C359.4,474,239,503.6,250.8,524c15.6,27,93.6-73.8,102.1-59c8.7,15.1-110.2,47.7-102.3,61.3
					c12,20.8,94.6-73.1,102.6-59.2c7.2,12.5-113.3,43.2-102.8,61.3c10.2,17.6,93.2-76.5,103.1-59.5c12.5,21.6-118.6,32.9-103.1,59.8
					c12.5,21.6,96.1-71.7,103.1-59.5c16.3,28.2-109.8,48.2-103.1,59.8c14,24.3,93.9-75.7,103.2-59.6
					c10.1,17.5-110.5,47.2-103.2,59.9c12.1,20.9,86.8-88.1,103.2-59.6c16.4,28.5-117.9,37.5-103.5,62.4c11,19.1,92.9-79,103.8-60
					c11.7,20.3-116.7,40.2-104,62.1c11.7,20.3,87.7-89,104.3-60.2c14.1,24.5-116.6,42.5-104.6,63.3c16.2,28.1,93.8-79.9,104.9-60.6
					c13,22.6-112,49.4-105,61.5c8.2,14.2,92.4-82.7,105.1-60.7c10.8,18.7-117.4,41.8-105.3,62.7c9,15.5,93.2-82.3,105.6-60.9
					c15.7,27.1-123,34.7-105.9,64.4c15.7,27.2,94.7-81.3,106.3-61.3c10.5,18.2-113.9,50.2-106.4,63.2
					c12.6,21.9,92.1-86.8,106.6-61.6c8.5,14.8-117.7,46.4-106.9,65.2c13.2,22.9,94.7-83.8,107.3-62c10.1,17.5-116.7,49.6-107.6,65.5
					c10,17.3,95.1-84.6,108-62.3c13.9,24-123.8,36.9-108.1,64.1c12.6,21.8,95.8-84.3,108.3-62.5c13.7,23.7-122.3,39.1-108.3,63.2
					c17.4,30.1,100-77.2,108.4-62.6c9.7,16.8-119.5,44.2-108.5,63.3c14,24.3,98.1-80.8,108.6-62.7c17.5,30.3-120.4,43.1-108.6,63.5
					c8.7,15.1,92.1-91.5,108.7-62.8c16.7,29-124.7,36.3-108.8,63.8c7.2,12.4,99.7-78.8,108.9-62.9c17.1,29.7-124.3,36.8-108.9,63.6
					c15.6,27.1,94.7-87.8,109-62.9c17.4,30.1-116.2,53.1-109.1,65.3c13.9,24.1,94.7-88.6,109.4-63.2c7.7,13.3-113.7,50.1-105.7,64
					c8.8,15.2,93.2-83.4,106.1-61.2c11.9,20.6-113.6,44.9-104,61.6c9.2,15.8,91-82.9,104.2-60.1c7.7,13.3-114.5,37.6-101.3,60.6
					c12.7,22.1,88.8-80.6,101.5-58.6c11.9,20.7-108.9,40.5-98.1,59.2c12.9,22.3,83.8-82.2,98.4-56.8c11.1,19.3-107.5,40.8-98.2,56.9
					c13.5,23.3,89.8-71.2,98.2-56.7C372,530,253,547.8,262,563.3c9.9,17.1,81.4-81.8,96.5-55.7c13.1,22.7-109.4,30.1-94.4,56
					c10.8,18.6,82.1-76.2,94.6-54.6c9.5,16.5-100.7,36.6-89.9,55.3c8.4,14.5,83.8-63.3,90.3-52.1c13.3,23.1-97.5,38.5-89.6,52.1
					c10.3,17.9,83.7-62.2,89.7-51.8c12.1,20.9-98.1,34.1-87.9,51.8c12.1,21,76.3-71.2,88-50.8c8,13.9-97.3,29.8-85.2,50.8
					c12.1,21,74.9-67.4,85.4-49.3c8.7,15-93.1,27.5-80.5,49.3c12.7,22,69-67.3,80.9-46.7c6.1,10.6-81.4,36.5-75.5,46.7
					c6.5,11.3,67.3-58.6,75.9-43.8c7.4,12.7-80,32.2-73.3,43.8c11.1,19.2,67.3-53.1,73.5-42.4c7.3,12.6-74.5,30.8-67.8,42.4
					c5.8,10.1,63.7-47,68.1-39.3c5.6,9.7-77.5,21.6-67.2,39.3c8.8,15.2,62.2-47.7,67.3-38.8c6.1,10.6-69.2,28.8-63.4,38.8
					c6.3,10.9,54.5-52.5,63.7-36.8c5,8.7-64.9,25.3-58.3,36.8c4.1,7.1,53.9-42,58.6-33.9c8.5,14.8-60.8,24.5-55.4,33.9
					c8.3,14.5,51.8-38.7,55.6-32.1c7.5,13-57.9,21.2-51.6,32.1c6.4,11,46.8-38.8,51.9-30c4.2,7.2-54.7,19.4-48.6,30
					c5.5,9.5,41.8-40.4,48.8-28.2c6,10.4-49.6,18.4-43.9,28.2c4.6,8,39-34.5,44.2-25.5c5.7,9.9-50.1,13.7-43.2,25.5
					c3.1,5.3,38-34.2,43.3-25c3.5,6-47.4,17.3-42.9,25c3.8,6.6,38.5-32.5,43-24.8c6.3,11-46.4,15.6-41.1,24.8
					c5.7,9.9,36-32.7,41.2-23.8c3.2,5.6-43.7,17.5-40.1,23.8c5,8.7,34.3-33.2,40.1-23.2c3.7,6.4-43.9,14.9-39.1,23.2
					c4.8,8.4,35-29.9,39.2-22.6c3.8,6.5-39,18.3-36.5,22.6c4.8,8.3,31.4-30.3,36.6-21.2c4.5,7.8-34,16.1-31.1,21.2
					c4.5,7.8,28-24,31.4-18.1c2.4,4.2-32.3,10.8-28,18.1c3.6,6.3,25.5-21,28.2-16.3c2,3.4-25.5,11-22.5,16.3
					c2.7,4.6,20.2-17.7,22.8-13.2c2.2,3.8-23.9,7.4-20.6,13.1c1.5,2.6,18.4-15.9,20.7-11.9c2.7,4.7-18.2,9.8-16.9,11.9
					c1.2,2.1,14.5-14.4,17.1-9.9c1.6,2.8-18.3,5.8-16,9.9c1.5,2.7,14.6-11.6,16-9.2c0.9,1.6-12.7,7.3-11.7,9.1
					c1.8,3,10.7-8.7,11.8-6.8c1.6,2.8-10.4,5.2-9.5,6.6c0.7,1.2,8.7-6.5,9.4-5.4c1.4,2.4-9.8,2.9-8.4,5.3c0.9,1.6,7.3-6.2,8.2-4.7
					c1,1.7-8,3-7.1,4.6c0.6,1,6.1-5.3,6.8-4c0.6,1.1-5.4,2.8-4.9,3.5c0.4,0.6,3.7-3.4,4.2-2.4c0.6,1.1-4.7,1.3-4,2.4
					c0.4,0.7,3.4-3.2,3.9-2.3"/>
				<path class="st0" d="M274.6,106.8c0.3,0.6,2.9-2.4,3.2-1.9c0.9,1.6-5.1,3.9-4.7,4.6c1.2,2.1,7.3-6.2,8.1-4.7
					c0.9,1.6-10.4,5.5-8.9,8.2c0.8,1.4,10.2-8.4,11.3-6.5c1.7,2.9-12.2,6.6-11.3,8.1c0.9,1.6,10.8-9.1,12.1-7
					c1.5,2.6-13.3,7.5-11.9,9.9c0.8,1.5,11.1-10.5,12.9-7.5c2.3,4-14.9,7.1-12.8,10.8c2,3.4,11.7-11,13.5-7.8
					c1,1.7-14.5,7.6-13.4,9.5c1.3,2.2,12-10.7,13.6-7.9c1.5,2.6-15,6.3-13.6,8.8c1.1,1.9,12.2-10.5,13.7-7.9c1.7,3-14.7,9-13.5,11
					c1.9,3.2,12.5-10.2,13.8-8c1.9,3.3-15.4,8.4-13.6,11.4c1.6,2.7,12-11.4,13.9-8c1.1,1.9-15.1,7.5-13.8,9.7
					c1.6,2.8,12.3-11.1,14-8.1c1.8,3.1-15.4,5.9-14,8.3c1,1.8,12.9-10,14-8.1c1,1.7-15.5,5.9-14,8.6c1.1,1.9,12-11.6,14-8.1
					c2,3.5-15.1,8.7-13.9,10.8c1.5,2.7,11.9-12,14.1-8.1c1,1.8-15.6,6.8-14,9.5c2,3.4,12.6-10.8,14.2-8.2c1.3,2.3-16.4,4.6-14.1,8.6
					c1.7,3,11.9-12.1,14.2-8.2c1.1,1.8-15.4,6.5-14.1,8.6c1.7,3,13-10.2,14.2-8.2c1.1,1.9-15.3,9.2-13.9,11.6
					c1.4,2.4,12.7-10.9,14.3-8.2c1.7,2.9-16.4,6.7-14.1,10.7c1.6,2.7,12.5-11.4,14.3-8.3c1.8,3.1-15.3,8.3-14.1,10.3
					c1.9,3.4,12.2-12.1,14.3-8.3c1.5,2.7-16.6,5.3-14.2,9.4c1.5,2.6,12.2-12.1,14.4-8.3c2.3,4-16.5,6-14.2,10
					c2.1,3.6,12.5-11.5,14.4-8.3c2.1,3.6-15.3,7-14.3,8.7c1.5,2.6,12.2-12.1,14.4-8.3c2.1,3.6-15.5,6.9-14.3,9
					c1.2,2,13.1-10.4,14.4-8.3c1.8,3.1-15.7,8.3-14.1,11.1c1.1,1.9,12.4-11.7,14.4-8.3c2,3.5-16.2,7.9-14.1,11.6
					c1.2,2.1,12.4-11.8,14.4-8.3c1.6,2.8-15.9,8.6-14.1,11.7c1.3,2.3,13.4-10.1,14.4-8.3c1.6,2.8-15.7,8.2-14.2,10.8
					c1.4,2.4,13.4-10.1,14.4-8.3c2,3.5-15.6,8.2-14.2,10.5c1.8,3.2,13-10.8,14.4-8.3c1.9,3.3-16.1,8-14.1,11.3
					c1.8,3,13.5-10,14.4-8.3c1.5,2.6-16.3,6.9-14.2,10.4c1.5,2.5,12.6-11.4,14.4-8.3c2.3,3.9-15.8,8.6-14.1,11.5
					c2.2,3.8,12.5-11.9,14.5-8.4c2.3,4.1-16.3,5.7-14.5,8.9c1,1.7,12.6-11.8,14.5-8.4c1.1,1.8-15.6,8.1-14.4,10.2
					c1.4,2.4,12.5-12.3,14.7-8.5c1.4,2.5-17,4.8-14.7,8.8c1.6,2.7,12.8-11.8,14.7-8.5c1.5,2.6-16,7.5-14.7,9.7
					c1.6,2.7,13.1-11.6,14.9-8.6c1.3,2.2-16.9,8.2-15.3,11c1.1,1.8,13.2-13.1,15.6-9c1.5,2.6-18.3,8.4-16.6,11.4
					c1.8,3.1,15.1-12.8,16.9-9.7c1.3,2.2-18.9,8.1-17.3,10.9c2.7,4.7,16.3-12.1,17.5-10.1"/>
			</g>
		</g>
	</g>
	<g>
		<g>
			<g>
				<path class="st1" d="M300.4,341c0.1,0.2,3.4-2.2,3.5-2c0.1,0.2-3.5,4.7-3.5,4.8c0.5,0.8,9.5-5.5,9.5-5.5s-8.9,6.5-8.4,7.4
					c0.5,0.9,11.6-6.7,11.6-6.7c0.3,0.5-10.3,8.5-10.3,8.5s12.7-7.5,12.8-7.4c0.2,0.3-11.4,9.1-11.4,9.1l13.4-7.7
					c0.3,0.6-12.3,9-12.3,9c0.4,0.8,13.6-7.9,13.6-7.9l-12,9.7c0.1,0.1,13.7-8.2,13.8-8c0,0-13,8.9-12.8,9.1l14-8.1
					c0,0.1-12.5,9.7-12.5,9.7l14.1-8.2c0.2,0.4-12.8,9.7-12.8,9.7c0.1,0.2,14.3-8.3,14.3-8.3c0.6,1.1-13.6,8.7-13,9.8
					c0,0,14.4-8.4,14.5-8.3c0.3,0.6-13.6,9.4-13.5,9.4l14.6-8.4c0,0-13.4,9.6-13,10.2c0.6,1,14.8-8.5,14.8-8.5
					c0.1,0.3-13.2,10.4-13.2,10.4c0.4,0.7,14.6-9.3,15-8.7c0.1,0.2-14.9,8.4-14.2,9.6c0.6,1,15-8.9,15.1-8.7
					c0.3,0.6-13.8,10.3-13.8,10.3s15.2-8.8,15.2-8.8c0.7,1.1-13.7,10.6-13.7,10.6c0.3,0.5,15.6-9,15.6-9l-14.4,10.4
					c0.8,1.4,16-9.8,16.2-9.4c0,0-15.7,9.7-15.3,10.6l88.2-50.9c0.6,1.1-87.4,51.9-87.3,52c0,0,82.5-57.6,86.8-50.1
					c0.8,1.3-87,49.4-86,51.2c2.8,4.9,82-55.4,85.5-49.4c0,0-86.8,46.4-84,51.1c3.3,5.7,83.3-48.1,83.3-48.1
					c0.4,0.8-83.2,47.5-81.9,49.7c0,0,77.9-52.9,81.3-47l-80.2,48.3c1.7,3,79.8-46.1,79.8-46.1c0.9,1.6-82.7,40.5-78.9,47.1
					l78.6-45.4l-77.6,46.5c0,0,74.8-49,77.3-44.6c1.7,2.9-76.3,45.7-76.3,45.7c0.3,0.4,75.1-45.4,76-43.9c0,0-76.6,42-74.7,45.4
					c3.8,6.5,74.2-42.8,74.2-42.8c2.6,4.6-73.4,43.8-73.4,43.8c1.2,2.2,71.2-45.6,73.1-42.2c0,0-74.9,38.6-72.3,43.2
					c0,0,70.9-43.5,72-41.6c0,0-74.5,36.6-70.9,42.9c1.1,1.9,70.6-40.8,70.6-40.8c0.4,0.7-69.2,42.4-69.2,42.4l69.5-40.1
					c0,0-69.1,40.1-68.2,41.5c0,0.1,65.8-44.3,68.5-39.6c2.3,4-67.1,41.1-67.1,41.1c2.4,4.1,67.4-38.9,67.4-38.9
					c0.6,1-68.3,36.5-65.8,40.7c3.1,5.4,66.1-38.2,66.1-38.2s-68.5,33.5-65.3,39c1.6,2.8,65.4-37.8,65.4-37.8
					c1.5,2.6-64.5,38.6-64.5,38.6s61.4-42.8,64.6-37.3c2,3.5-63.1,38-62.8,38.6c0,0.1,62.9-36.3,62.9-36.3
					c2.9,5.1-63.2,34.1-61.2,37.6c0.7,1.2,60.3-37.1,61.3-35.4c0.3,0.6-60.4,36.7-60.4,36.7l60.5-34.9c0,0-60.3,36.4-60,36.9
					l60-34.7c0.1,0.2-59.9,36-59.9,36c1.3,2.3,59.3-35.7,59.9-34.6l-59.7,36.7c0,0,58.5-36.4,59.6-34.4c0,0-60.7,34.7-59.4,36.9
					c0.7,1.2,58.1-36.1,59.2-34.2l-59,36.2l58.8-34l-58.6,35.7c1.9,3.3,55.6-38.6,58.4-33.7c0,0-58.6,34.7-58.2,35.4
					c2.7,4.7,55-38.6,58-33.5l-57.7,35.5c0,0,56.3-34.9,57.3-33.1c0.6,1-59,31.8-57.1,35.1l56.5-32.6l-56.2,35
					c0.6,1,55.5-32.1,55.5-32.1c2.9,5-55.3,33.8-55.3,33.8c2.4,4.1,51.9-36.3,54.6-31.5c0.8,1.5-54.4,33.1-54.4,33.1
					c1.5,2.5,51.3-35.2,53.7-31l-53.4,33.6l52-30l-51.8,31.4l50.9-29.4c0.7,1.2-51.2,30.6-50.6,31.6l49.8-28.8
					c2.3,4-49.7,30.1-49.7,30.1c0.1,0.1,49-29.9,49.7-28.7c0,0-50,29.9-49.4,31L400,401c2.1,3.7-51,27.6-49.1,30.9
					c0.7,1.2,47.5-31.3,49.2-28.4c0.8,1.5-50.3,28.2-48.8,30.6c0,0,47.1-31.4,48.9-28.2c0.2,0.4-51.2,25.4-48.7,29.7
					c0,0,48.2-29.2,48.8-28.1c0,0-50.2,26.8-48.5,29.6c0,0,48.3-28.5,48.6-28.1c2,3.4-49.1,28.6-48.3,29.9
					c1.3,2.2,47.2-30,48.4-27.9c2,3.4-48,30.3-48,30.3l48.1-27.8l-47.8,30.2c0.1,0.2,47.8-27.6,47.8-27.6L353,446.1l47.6-27.5
					c0.8,1.5-47.2,29.9-47.2,29.9c0.1,0.2,47.3-27.3,47.3-27.3s-48.5,26.9-47,29.4c0,0,45.9-29.1,47.1-27.2
					c0.6,1.1-47.4,27.8-46.8,28.8c0.1,0.1,46.9-27.1,46.9-27.1s-48.4,26.4-46.5,29.6l46.6-26.9c0.6,1.1-46.3,28.9-46.3,28.9
					s45.4-28.5,46.4-26.8c1.4,2.5-46.1,29.1-46.1,29.1c1.1,2,46.4-26.8,46.4-26.8s-47.5,26.3-46.2,28.5c0,0,45.7-28.2,46.5-26.8
					c1.1,2-47.8,25.7-46.3,28.2c0,0,45.4-28.8,46.5-26.9c0.1,0.2-48.2,25.6-46.3,28.9c0.7,1.2,46.6-26.9,46.6-26.9l-46.3,29.1
					l46.7-26.9c0,0-47.9,26.3-46.4,28.8l46.7-27c2.3,4-48.7,25.4-46.5,29.4c0.8,1.4,45.2-29.8,46.8-27c1.5,2.6-48.7,25.7-46.6,29.3
					c1.2,2.1,45.6-29.4,46.9-27.1c0,0-49.1,24.5-46.8,28.4c0,0,46-29,47-27.1L356.7,476c0,0,46.4-28.4,47.1-27.2l-46.9,29.6
					c0.4,0.7,47.2-27.3,47.2-27.3c2.2,3.8-47,29.4-47,29.4s46.8-28.2,47.4-27.3c0.7,1.2-47.1,29.8-47.1,29.8s47.3-27.8,47.5-27.4
					c2,3.4-47.3,30-47.3,30l47.6-27.5l-47.5,28.8c0,0,47.2-28.4,47.7-27.6c0.4,0.7-49.6,26.3-47.5,29.9c1.1,1.9,47.9-27.6,47.9-27.6
					l-47.7,29.5c0,0,46.5-30.2,48-27.7c0,0-48.4,28.8-47.8,29.9c1.1,1.9,48.1-27.8,48.1-27.8s-49,28.1-47.9,30
					c2.4,4.1,48.2-27.8,48.2-27.8s-49.5,27.2-48,29.7c0.3,0.6,46.5-31,48.3-27.9c0,0-50.2,26.3-48.2,29.8l48.4-28L359,500.7l48.5-28
					c0,0-50.6,26.2-48.3,30.2c1.2,2,48.6-28.1,48.6-28.1s-49.7,27.7-48.5,29.9c0.6,1,48.7-28.1,48.7-28.1c1.9,3.4-50.1,27.4-48.6,30
					c0,0,48.1-29.5,48.8-28.2c0,0-51,25.8-48.7,29.9c2.1,3.6,48.9-28.3,48.9-28.3c1.5,2.7-50.2,27.4-48.8,29.8
					c0,0.1,49-28.3,49-28.3L360,511.8c0,0,48.3-29.8,49.1-28.4c2.6,4.5-50.4,28.1-48.9,30.7c0.2,0.4,49.3-28.4,49.3-28.4
					c0.2,0.4-49,30.9-49,30.9c1.7,3,49.4-28.5,49.4-28.5l-49.3,30.1c0,0,48.1-31.1,49.5-28.6l-49.3,30.7
					c1.6,2.7,48.5-30.6,49.6-28.6c1.7,3-50.2,29.4-49.4,30.7c1.7,3,49.6-28.9,49.7-28.7c1.5,2.6-49.6,30.7-49.6,30.7
					c1.2,2.1,49.8-28.8,49.8-28.8c0.4,0.7-49.7,30.9-49.7,30.9c1.3,2.3,50-28.9,50-28.9c0.7,1.3-50.3,29.3-49.9,30.2l50-28.9
					c0.2,0.4-49.9,30.7-49.9,30.7s48-32.7,50.1-29c2,3.5-50.5,29.7-50,30.5c0.8,1.4,50.2-29,50.2-29c2.4,4.1-50.1,31.5-50,31.7
					c0,0,50.1-29.5,50.4-29.1L362.2,536l50.5-29.2c0.8,1.4-50.3,31.3-50.3,31.3c0.8,1.5,50.1-30.1,50.6-29.2
					c0,0-50.9,30.4-50.4,31.1c2.6,4.5,50.1-30.3,50.7-29.3c0.9,1.5-50.8,31.2-50.5,31.6c0.2,0.4,50.9-29.4,50.9-29.4L363,544.8
					c0,0,49.6-31.9,51-29.4c0,0-51.5,29.8-50.9,30.9c0,0,49.4-32.4,51.1-29.5c1.6,2.8-51.8,29.6-50.9,31l51.2-29.5
					c0,0-53.2,28.1-50.9,32.1c0,0,50.7-30.7,51.3-29.6c2.3,4-53.5,27.8-51.1,31.8l51.4-29.7c0.8,1.4-51.9,31-51.2,32.3
					c0,0,51.1-30.6,51.6-29.8c1,1.8-51.4,31.7-51.4,31.7l51.7-29.8l-51.6,31.1c0.3,0.6,49.2-34.2,51.7-29.9l-51.5,31.7
					c0,0,50.5-32.2,51.8-29.9c0,0-48,29.8-47.7,30.3c2.2,3.8,47.9-28.2,48.1-27.8c0,0-43.4,23.5-41.6,26.8c0,0,41.1-25.7,42-24.2
					c0,0-35.9,22.4-35.5,23.1c1.3,2.3,35.9-20.7,35.9-20.7c0.2,0.3-31.7,17.7-30.6,19.6l30.9-17.8c0.9,1.6-22,15.5-22,15.5
					l22.4-12.9c0.3,0.4-14.7,10.3-14.7,10.3c0.4,0.7,15-8.6,15-8.6"/>
				<path class="st1" d="M407.6,286.8c0.1,0.2,2.6-1.8,2.7-1.6c0,0-4.9,5-4.8,5.2l7.9-4.5l-9.2,7.7l10.8-6.3c0,0-12.1,8.6-11.8,9.1
					c0.4,0.6,12-8.2,12.6-7.3c0.1,0.2-13.1,9-13.1,9l13.3-7.7c0.3,0.5-14.4,10.9-14.4,10.9c0.4,0.8,14.4-8.3,14.4-8.3
					c0.2,0.3-15.6,11.2-15.4,11.5c0,0,14.4-10,15.1-8.7c0.4,0.6-16.4,9.1-15.7,10.4c0.1,0.1,15.3-8.9,15.3-8.9l-16.2,11.6
					c0,0,15.4-9.5,15.6-9c0.5,0.9-16.4,10.9-16.3,11c0.1,0.2,15.9-9.2,15.9-9.2c0.1,0.2-17.4,11.5-17,12.2
					c0.2,0.4,16.3-9.4,16.3-9.4c0.9,1.6-17.3,11.7-17.3,11.7c0.6,1.1,16.6-10.2,16.8-9.7c0.7,1.2-19.1,11.2-18.2,12.6
					c0.6,1.1,17-11.3,17.7-10.2l-18.9,12.7c0.1,0.2,17.6-12.1,18.4-10.6c0.4,0.8-20.4,11-19.5,12.6l19.1-11"/>
				<path class="st1" d="M374.6,267.9l2.8-1.6c0,0-3.9,4.1-3.8,4.3c0.1,0.1,6.9-4.7,7.2-4.2l-7.5,6.6c0,0,9.1-6.1,9.4-5.4l-9.5,7.5
					l10.6-6.1l-10.6,8.1c0,0,11-6.6,11.1-6.4c0.1,0.2-11.1,8.3-11.1,8.3c0.3,0.6,10.9-7.3,11.3-6.5c0.5,0.9-11.6,8.2-11.3,8.8
					l11.6-6.7c0.5,0.9-11.5,9.2-11.5,9.2l11.8-6.8l-11.8,8.7c0,0,11.3-8,12-6.9c0.6,1.1-12.3,8.5-11.9,9.3c0.1,0.1,12.1-7,12.1-7
					l-12.1,9.4c0,0,11.6-8.2,12.2-7.1l-12.2,8.8l12.3-7.1l-12.3,8.6c0.4,0.7,12.4-7.1,12.4-7.1l-12.3,9.3l12.4-7.2
					c0.5,0.8-13,7.5-12.4,8.5C374,298,386,290,386,290c0.1,0.2-12.4,9.6-12.4,9.6c0.6,1,12.4-7.3,12.5-7.2c0,0-13.1,7.6-12.5,8.6
					c0.1,0.2,12-8.2,12.5-7.2c0.5,0.9-13.1,8.7-12.5,9.8c0.4,0.8,12.6-7.3,12.6-7.3l-12.5,9.7c0.6,1.1,12.6-7.3,12.6-7.3
					c0.2,0.4-12.6,8.9-12.6,8.9c0.6,1.1,12.2-8,12.7-7.3c0,0-13.3,8.4-12.6,9.6c0,0,12.7-7.5,12.7-7.4c0.2,0.3-13,8.3-12.7,8.8
					c0.6,1.1,12.3-8.3,12.8-7.4c0,0-13.1,9.5-12.8,10c0,0,12.8-7.7,12.9-7.4l-12.9,10.2c0,0,12.7-8.1,13-7.5c0,0-13.4,8.3-13,9
					c0.6,1.1,13.1-7.6,13.1-7.6s-13.5,9.6-13.2,10.2c0,0.1,13.2-7.6,13.2-7.6s-13.5,10-13.4,10.1c0.1,0.1,13.5-7.8,13.5-7.8"/>
				<path class="st1" d="M350.2,263.9l3.4-1.9c0.1,0.2-4.8,4-4.5,4.4c0.3,0.5,7.8-4.5,7.8-4.5c0.4,0.8-8.1,6.5-7.9,6.8
					c0,0,10-6,10-5.8c0.6,1-9.9,7.4-9.9,7.4c0,0,10.8-6.9,11.1-6.4c0,0-10.9,8.5-10.9,8.6c0,0,11.6-7.4,11.9-6.9
					c0,0-11.7,9.3-11.7,9.3c0.3,0.6,12-7.6,12.3-7.1c0,0-12.7,8.1-12.1,9.1c0.3,0.6,12.1-7.7,12.4-7.2c0,0-12.5,8.7-12.2,9.2
					c0.1,0.2,12-8.1,12.5-7.2c0.4,0.8-12.4,8.7-12.4,8.7c0.1,0.2,12.6-7.3,12.6-7.3l-12.5,8.9c0.1,0.1,12.5-7.6,12.7-7.3
					c0.4,0.7-12.5,9.7-12.5,9.7c0.3,0.6,12.5-8,12.8-7.4c0.1,0.1-13,8.4-12.6,9.1c0,0,12.7-7.8,12.9-7.4c0.2,0.3-12.7,9.7-12.7,9.7
					c0.3,0.6,12.9-7.8,13-7.5c0.5,0.9-12.7,10-12.7,10l13.1-7.6c0.7,1.1-13.6,7.8-13,8.9l13.2-7.6c0,0-13.1,9-13,9.2l13.2-7.6
					l-13,9.7l13.3-7.7c0,0-13.7,8.6-13.1,9.6c0.4,0.7,13.4-7.7,13.4-7.7c0.6,1.1-13,10.3-13,10.3s13.4-7.8,13.4-7.8
					c0,0-13.8,8.3-13.2,9.3l13.5-7.8c0,0-13.4,9.8-13.1,10.3l13.5-7.8c0.5,0.8-13.5,9.5-13.2,10c0,0,13.1-8.6,13.6-7.8
					c0,0-13.6,9.8-13.2,10.4c0,0,13-8.9,13.6-7.9c0.1,0.2-14,8.4-13.4,9.4c0.5,0.8,13.6-7.9,13.6-7.9c0.6,1-13.3,9.9-13.3,9.9
					s13-9,13.6-7.9l-13.4,9.3c0.4,0.6,13.2-8.6,13.7-7.9c0,0-13.6,9.4-13.4,9.8c0.1,0.2,13.7-7.9,13.7-7.9c0.6,1-13.6,9.6-13.4,9.9
					c0.2,0.3,13.7-7.9,13.7-7.9c0.3,0.5-13.8,9.7-13.4,10.5c0.5,0.9,13.8-8,13.8-8c0.6,1-13.6,9.3-13.6,9.3c0.2,0.3,13.8-8,13.8-8
					c0.1,0.1-13.5,10.4-13.5,10.4s13.4-8.9,13.9-8l-14.2,10.6c0.2,0.3,14-9.3,14.5-8.4"/>
				<path class="st1" d="M327.4,276.9l3.6-2.1l-4.7,4.2c0,0,7.2-4.6,7.4-4.3c0.3,0.6-8,5.9-7.7,6.5c0.1,0.1,9.6-5.6,9.6-5.6
					c0.3,0.5-10.1,6.2-9.7,7c0.2,0.4,10.5-6.1,10.5-6.1s-10.6,7.1-10.4,7.4c0.6,1,10.6-7.2,11.1-6.4c0,0-10.8,7.9-10.8,8
					c0.3,0.5,11.6-6.8,11.6-6.7c0,0-11.3,8.4-11.3,8.4c0,0.1,12-7,12-7l-11.7,8.6c0,0,12-7.7,12.4-7.1c0.2,0.3-11.8,9.5-11.8,9.5
					c0.2,0.4,12.3-7.8,12.7-7.3l-12.2,9.4c0.1,0.1,12.4-8,12.7-7.4c0,0-12.8,8.5-12.2,9.6c0,0,12.8-7.4,12.8-7.4
					c0.4,0.8-12.5,8.9-12.4,9.1c0.1,0.3,12.8-7.4,12.8-7.4c0.6,1.1-12.4,9-12.4,9c0.3,0.5,12.2-8.5,12.8-7.4
					c0.2,0.3-12.4,8.8-12.4,8.8c0.6,1,12.8-7.5,12.8-7.4c0,0-13.1,7.5-12.5,8.6c0.5,0.8,12.8-7.4,12.8-7.4s-12.6,9-12.2,9.6
					c0.4,0.8,12.7-7.6,12.8-7.4c0.1,0.1-12.7,8.5-12.5,8.8c0,0,12.4-8.2,12.9-7.4c0,0-13.1,8-12.6,8.9c0.3,0.5,12.3-8.5,12.9-7.5
					l-12.6,9c0.2,0.4,12.8-7.8,13-7.5c0.4,0.6-13,8.4-12.7,8.9c0.1,0.2,12.9-7.9,13.1-7.6l-12.8,9l13.2-7.6c0,0-13,8.9-12.9,9.1
					c0,0,12.9-8.2,13.3-7.7c0,0-13.4,8.3-13,8.9l13.3-7.7c0.7,1.2-13,9.6-13,9.6c0.1,0.2,13.5-7.8,13.5-7.8s-13.4,8.8-13.2,9
					c0.2,0.4,13.6-7.8,13.6-7.8c0.2,0.3-13.9,8.4-13.2,9.6c0.7,1.2,13.7-7.9,13.7-7.9c0.4,0.6-13.8,8.7-13.4,9.4
					c0.1,0.2,13.8-7.9,13.8-7.9c0.5,0.8-14,8.4-13.5,9.3c0,0,13.8-8,13.8-8c0.7,1.2-13.8,9-13.5,9.6c0.2,0.3,13.9-8,13.9-8
					l-13.5,9.7c0.4,0.7,14-8.1,14-8.1c0.7,1.2-14,9-13.6,9.6l14-8.1c0,0-14.2,8.6-13.7,9.4l14.1-8.1c0.6,1.1-13.9,9.2-13.8,9.3
					l14.1-8.1c0.3,0.5-14,9.3-13.6,9.9c0,0,13.4-9.3,14.1-8.1l-13.7,9.5l14.1-8.1c0,0-14,9.6-13.5,10.6c0.4,0.6,14.5-8.4,14.5-8.4
					s-14.7,8.8-14.2,9.6c0,0,14.1-9.8,14.8-8.6c0.7,1.2-14.5,10-14.5,10l15.2-8.8l-15,10.1c1.6,2.8,30.1-20.5,31.4-18.2
					c0,0-31.9,18.9-31.1,20.3c0.9,1.6,31.5-18.6,31.7-18.3c0.4,0.7-31.5,19.5-31.5,19.5c0,0,31.3-19.4,31.9-18.4l-31.5,20.8
					c0,0,45.6-30.4,47.4-27.4c2.3,3.9-47.1,29.2-47.1,29.2c1.2,2.1,47.2-27.3,47.2-27.3c0.7,1.3-47.8,27.4-47,28.8
					c2.1,3.7,47-27.2,47-27.2c0.3,0.5-46.8,28.8-46.8,28.8c1.2,2.1,46.9-27.1,46.9-27.1c1,1.7-47.2,27.7-46.6,28.6l46.9-27.1
					l-46.7,28.3c1.4,2.4,45.4-29.8,46.9-27.1c0.3,0.5-46.8,29.2-46.8,29.2l47.8-27.6c0,0-50.1,25.9-47.9,29.7
					c1.5,2.6,70.1-40.5,70.1-40.5c1.6,2.8-70.8,42.9-70.8,42.9c1.8,3.1,70.3-40.6,70.3-40.6"/>
			</g>
			<g>
				<path class="st2" d="M300.4,341c0.1,0.2,3.4-2.2,3.5-2c0.1,0.2-3.5,4.7-3.5,4.8c0.5,0.8,9.5-5.5,9.5-5.5s-8.9,6.5-8.4,7.4
					c0.5,0.9,11.6-6.7,11.6-6.7c0.3,0.5-10.3,8.5-10.3,8.5s12.7-7.5,12.8-7.4c0.2,0.3-11.4,9.1-11.4,9.1l13.4-7.7
					c0.3,0.6-12.3,9-12.3,9c0.4,0.8,13.6-7.9,13.6-7.9l-12,9.7c0.1,0.1,13.7-8.2,13.8-8c0,0-13,8.9-12.8,9.1l14-8.1
					c0,0.1-12.5,9.7-12.5,9.7l14.1-8.2c0.2,0.4-12.8,9.7-12.8,9.7c0.1,0.2,14.3-8.3,14.3-8.3c0.6,1.1-13.6,8.7-13,9.8
					c0,0,14.4-8.4,14.5-8.3c0.3,0.6-13.6,9.4-13.5,9.4l14.6-8.4c0,0-13.4,9.6-13,10.2c0.6,1,14.8-8.5,14.8-8.5
					c0.1,0.3-13.2,10.4-13.2,10.4c0.4,0.7,14.6-9.3,15-8.7c0.1,0.2-14.9,8.4-14.2,9.6c0.6,1,15-8.9,15.1-8.7
					c0.3,0.6-13.8,10.3-13.8,10.3s15.2-8.8,15.2-8.8c0.7,1.1-13.7,10.6-13.7,10.6c0.3,0.5,15.6-9,15.6-9l-14.4,10.4
					c0.8,1.4,16-9.8,16.2-9.4c0,0-15.7,9.7-15.3,10.6l88.2-50.9c0.6,1.1-87.4,51.9-87.3,52c0,0,82.5-57.6,86.8-50.1
					c0.8,1.3-87,49.4-86,51.2c2.8,4.9,82-55.4,85.5-49.4c0,0-86.8,46.4-84,51.1c3.3,5.7,83.3-48.1,83.3-48.1
					c0.4,0.8-83.2,47.5-81.9,49.7c0,0,77.9-52.9,81.3-47l-80.2,48.3c1.7,3,79.8-46.1,79.8-46.1c0.9,1.6-82.7,40.5-78.9,47.1
					l78.6-45.4l-77.6,46.5c0,0,74.8-49,77.3-44.6c1.7,2.9-76.3,45.7-76.3,45.7c0.3,0.4,75.1-45.4,76-43.9c0,0-76.6,42-74.7,45.4
					c3.8,6.5,74.2-42.8,74.2-42.8c2.6,4.6-73.4,43.8-73.4,43.8c1.2,2.2,71.2-45.6,73.1-42.2c0,0-74.9,38.6-72.3,43.2
					c0,0,70.9-43.5,72-41.6c0,0-74.5,36.6-70.9,42.9c1.1,1.9,70.6-40.8,70.6-40.8c0.4,0.7-69.2,42.4-69.2,42.4l69.5-40.1
					c0,0-69.1,40.1-68.2,41.5c0,0.1,65.8-44.3,68.5-39.6c2.3,4-67.1,41.1-67.1,41.1c2.4,4.1,67.4-38.9,67.4-38.9
					c0.6,1-68.3,36.5-65.8,40.7c3.1,5.4,66.1-38.2,66.1-38.2s-68.5,33.5-65.3,39c1.6,2.8,65.4-37.8,65.4-37.8
					c1.5,2.6-64.5,38.6-64.5,38.6s61.4-42.8,64.6-37.3c2,3.5-63.1,38-62.8,38.6c0,0.1,62.9-36.3,62.9-36.3
					c2.9,5.1-63.2,34.1-61.2,37.6c0.7,1.2,60.3-37.1,61.3-35.4c0.3,0.6-60.4,36.7-60.4,36.7l60.5-34.9c0,0-60.3,36.4-60,36.9
					l60-34.7c0.1,0.2-59.9,36-59.9,36c1.3,2.3,59.3-35.7,59.9-34.6l-59.7,36.7c0,0,58.5-36.4,59.6-34.4c0,0-60.7,34.7-59.4,36.9
					c0.7,1.2,58.1-36.1,59.2-34.2l-59,36.2l58.8-34l-58.6,35.7c1.9,3.3,55.6-38.6,58.4-33.7c0,0-58.6,34.7-58.2,35.4
					c2.7,4.7,55-38.6,58-33.5l-57.7,35.5c0,0,56.3-34.9,57.3-33.1c0.6,1-59,31.8-57.1,35.1l56.5-32.6l-56.2,35
					c0.6,1,55.5-32.1,55.5-32.1c2.9,5-55.3,33.8-55.3,33.8c2.4,4.1,51.9-36.3,54.6-31.5c0.8,1.5-54.4,33.1-54.4,33.1
					c1.5,2.5,51.3-35.2,53.7-31l-53.4,33.6l52-30l-51.8,31.4l50.9-29.4c0.7,1.2-51.2,30.6-50.6,31.6l49.8-28.8
					c2.3,4-49.7,30.1-49.7,30.1c0.1,0.1,49-29.9,49.7-28.7c0,0-50,29.9-49.4,31L400,401c2.1,3.7-51,27.6-49.1,30.9
					c0.7,1.2,47.5-31.3,49.2-28.4c0.8,1.5-50.3,28.2-48.8,30.6c0,0,47.1-31.4,48.9-28.2c0.2,0.4-51.2,25.4-48.7,29.7
					c0,0,48.2-29.2,48.8-28.1c0,0-50.2,26.8-48.5,29.6c0,0,48.3-28.5,48.6-28.1c2,3.4-49.1,28.6-48.3,29.9
					c1.3,2.2,47.2-30,48.4-27.9c2,3.4-48,30.3-48,30.3l48.1-27.8l-47.8,30.2c0.1,0.2,47.8-27.6,47.8-27.6L353,446.1l47.6-27.5
					c0.8,1.5-47.2,29.9-47.2,29.9c0.1,0.2,47.3-27.3,47.3-27.3s-48.5,26.9-47,29.4c0,0,45.9-29.1,47.1-27.2
					c0.6,1.1-47.4,27.8-46.8,28.8c0.1,0.1,46.9-27.1,46.9-27.1s-48.4,26.4-46.5,29.6l46.6-26.9c0.6,1.1-46.3,28.9-46.3,28.9
					s45.4-28.5,46.4-26.8c1.4,2.5-46.1,29.1-46.1,29.1c1.1,2,46.4-26.8,46.4-26.8s-47.5,26.3-46.2,28.5c0,0,45.7-28.2,46.5-26.8
					c1.1,2-47.8,25.7-46.3,28.2c0,0,45.4-28.8,46.5-26.9c0.1,0.2-48.2,25.6-46.3,28.9c0.7,1.2,46.6-26.9,46.6-26.9l-46.3,29.1
					l46.7-26.9c0,0-47.9,26.3-46.4,28.8l46.7-27c2.3,4-48.7,25.4-46.5,29.4c0.8,1.4,45.2-29.8,46.8-27c1.5,2.6-48.7,25.7-46.6,29.3
					c1.2,2.1,45.6-29.4,46.9-27.1c0,0-49.1,24.5-46.8,28.4c0,0,46-29,47-27.1L356.7,476c0,0,46.4-28.4,47.1-27.2l-46.9,29.6
					c0.4,0.7,47.2-27.3,47.2-27.3c2.2,3.8-47,29.4-47,29.4s46.8-28.2,47.4-27.3c0.7,1.2-47.1,29.8-47.1,29.8s47.3-27.8,47.5-27.4
					c2,3.4-47.3,30-47.3,30l47.6-27.5l-47.5,28.8c0,0,47.2-28.4,47.7-27.6c0.4,0.7-49.6,26.3-47.5,29.9c1.1,1.9,47.9-27.6,47.9-27.6
					l-47.7,29.5c0,0,46.5-30.2,48-27.7c0,0-48.4,28.8-47.8,29.9c1.1,1.9,48.1-27.8,48.1-27.8s-49,28.1-47.9,30
					c2.4,4.1,48.2-27.8,48.2-27.8s-49.5,27.2-48,29.7c0.3,0.6,46.5-31,48.3-27.9c0,0-50.2,26.3-48.2,29.8l48.4-28L359,500.7l48.5-28
					c0,0-50.6,26.2-48.3,30.2c1.2,2,48.6-28.1,48.6-28.1s-49.7,27.7-48.5,29.9c0.6,1,48.7-28.1,48.7-28.1c1.9,3.4-50.1,27.4-48.6,30
					c0,0,48.1-29.5,48.8-28.2c0,0-51,25.8-48.7,29.9c2.1,3.6,48.9-28.3,48.9-28.3c1.5,2.7-50.2,27.4-48.8,29.8
					c0,0.1,49-28.3,49-28.3L360,511.8c0,0,48.3-29.8,49.1-28.4c2.6,4.5-50.4,28.1-48.9,30.7c0.2,0.4,49.3-28.4,49.3-28.4
					c0.2,0.4-49,30.9-49,30.9c1.7,3,49.4-28.5,49.4-28.5l-49.3,30.1c0,0,48.1-31.1,49.5-28.6l-49.3,30.7
					c1.6,2.7,48.5-30.6,49.6-28.6c1.7,3-50.2,29.4-49.4,30.7c1.7,3,49.6-28.9,49.7-28.7c1.5,2.6-49.6,30.7-49.6,30.7
					c1.2,2.1,49.8-28.8,49.8-28.8c0.4,0.7-49.7,30.9-49.7,30.9c1.3,2.3,50-28.9,50-28.9c0.7,1.3-50.3,29.3-49.9,30.2l50-28.9
					c0.2,0.4-49.9,30.7-49.9,30.7s48-32.7,50.1-29c2,3.5-50.5,29.7-50,30.5c0.8,1.4,50.2-29,50.2-29c2.4,4.1-50.1,31.5-50,31.7
					c0,0,50.1-29.5,50.4-29.1L362.2,536l50.5-29.2c0.8,1.4-50.3,31.3-50.3,31.3c0.8,1.5,50.1-30.1,50.6-29.2
					c0,0-50.9,30.4-50.4,31.1c2.6,4.5,50.1-30.3,50.7-29.3c0.9,1.5-50.8,31.2-50.5,31.6c0.2,0.4,50.9-29.4,50.9-29.4L363,544.8
					c0,0,49.6-31.9,51-29.4c0,0-51.5,29.8-50.9,30.9c0,0,49.4-32.4,51.1-29.5c1.6,2.8-51.8,29.6-50.9,31l51.2-29.5
					c0,0-53.2,28.1-50.9,32.1c0,0,50.7-30.7,51.3-29.6c2.3,4-53.5,27.8-51.1,31.8l51.4-29.7c0.8,1.4-51.9,31-51.2,32.3
					c0,0,51.1-30.6,51.6-29.8c1,1.8-51.4,31.7-51.4,31.7l51.7-29.8l-51.6,31.1c0.3,0.6,49.2-34.2,51.7-29.9l-51.5,31.7
					c0,0,50.5-32.2,51.8-29.9c0,0-48,29.8-47.7,30.3c2.2,3.8,47.9-28.2,48.1-27.8c0,0-43.4,23.5-41.6,26.8c0,0,41.1-25.7,42-24.2
					c0,0-35.9,22.4-35.5,23.1c1.3,2.3,35.9-20.7,35.9-20.7c0.2,0.3-31.7,17.7-30.6,19.6l30.9-17.8c0.9,1.6-22,15.5-22,15.5
					l22.4-12.9c0.3,0.4-14.7,10.3-14.7,10.3c0.4,0.7,15-8.6,15-8.6"/>
				<path class="st2" d="M407.6,286.8c0.1,0.2,2.6-1.8,2.7-1.6c0,0-4.9,5-4.8,5.2l7.9-4.5l-9.2,7.7l10.8-6.3c0,0-12.1,8.6-11.8,9.1
					c0.4,0.6,12-8.2,12.6-7.3c0.1,0.2-13.1,9-13.1,9l13.3-7.7c0.3,0.5-14.4,10.9-14.4,10.9c0.4,0.8,14.4-8.3,14.4-8.3
					c0.2,0.3-15.6,11.2-15.4,11.5c0,0,14.4-10,15.1-8.7c0.4,0.6-16.4,9.1-15.7,10.4c0.1,0.1,15.3-8.9,15.3-8.9l-16.2,11.6
					c0,0,15.4-9.5,15.6-9c0.5,0.9-16.4,10.9-16.3,11c0.1,0.2,15.9-9.2,15.9-9.2c0.1,0.2-17.4,11.5-17,12.2
					c0.2,0.4,16.3-9.4,16.3-9.4c0.9,1.6-17.3,11.7-17.3,11.7c0.6,1.1,16.6-10.2,16.8-9.7c0.7,1.2-19.1,11.2-18.2,12.6
					c0.6,1.1,17-11.3,17.7-10.2l-18.9,12.7c0.1,0.2,17.6-12.1,18.4-10.6c0.4,0.8-20.4,11-19.5,12.6l19.1-11"/>
				<path class="st2" d="M374.6,267.9l2.8-1.6c0,0-3.9,4.1-3.8,4.3c0.1,0.1,6.9-4.7,7.2-4.2l-7.5,6.6c0,0,9.1-6.1,9.4-5.4l-9.5,7.5
					l10.6-6.1l-10.6,8.1c0,0,11-6.6,11.1-6.4c0.1,0.2-11.1,8.3-11.1,8.3c0.3,0.6,10.9-7.3,11.3-6.5c0.5,0.9-11.6,8.2-11.3,8.8
					l11.6-6.7c0.5,0.9-11.5,9.2-11.5,9.2l11.8-6.8l-11.8,8.7c0,0,11.3-8,12-6.9c0.6,1.1-12.3,8.5-11.9,9.3c0.1,0.1,12.1-7,12.1-7
					l-12.1,9.4c0,0,11.6-8.2,12.2-7.1l-12.2,8.8l12.3-7.1l-12.3,8.6c0.4,0.7,12.4-7.1,12.4-7.1l-12.3,9.3l12.4-7.2
					c0.5,0.8-13,7.5-12.4,8.5C374,298,386,290,386,290c0.1,0.2-12.4,9.6-12.4,9.6c0.6,1,12.4-7.3,12.5-7.2c0,0-13.1,7.6-12.5,8.6
					c0.1,0.2,12-8.2,12.5-7.2c0.5,0.9-13.1,8.7-12.5,9.8c0.4,0.8,12.6-7.3,12.6-7.3l-12.5,9.7c0.6,1.1,12.6-7.3,12.6-7.3
					c0.2,0.4-12.6,8.9-12.6,8.9c0.6,1.1,12.2-8,12.7-7.3c0,0-13.3,8.4-12.6,9.6c0,0,12.7-7.5,12.7-7.4c0.2,0.3-13,8.3-12.7,8.8
					c0.6,1.1,12.3-8.3,12.8-7.4c0,0-13.1,9.5-12.8,10c0,0,12.8-7.7,12.9-7.4l-12.9,10.2c0,0,12.7-8.1,13-7.5c0,0-13.4,8.3-13,9
					c0.6,1.1,13.1-7.6,13.1-7.6s-13.5,9.6-13.2,10.2c0,0.1,13.2-7.6,13.2-7.6s-13.5,10-13.4,10.1c0.1,0.1,13.5-7.8,13.5-7.8"/>
				<path class="st2" d="M350.2,263.9l3.4-1.9c0.1,0.2-4.8,4-4.5,4.4c0.3,0.5,7.8-4.5,7.8-4.5c0.4,0.8-8.1,6.5-7.9,6.8
					c0,0,10-6,10-5.8c0.6,1-9.9,7.4-9.9,7.4c0,0,10.8-6.9,11.1-6.4c0,0-10.9,8.5-10.9,8.6c0,0,11.6-7.4,11.9-6.9
					c0,0-11.7,9.3-11.7,9.3c0.3,0.6,12-7.6,12.3-7.1c0,0-12.7,8.1-12.1,9.1c0.3,0.6,12.1-7.7,12.4-7.2c0,0-12.5,8.7-12.2,9.2
					c0.1,0.2,12-8.1,12.5-7.2c0.4,0.8-12.4,8.7-12.4,8.7c0.1,0.2,12.6-7.3,12.6-7.3l-12.5,8.9c0.1,0.1,12.5-7.6,12.7-7.3
					c0.4,0.7-12.5,9.7-12.5,9.7c0.3,0.6,12.5-8,12.8-7.4c0.1,0.1-13,8.4-12.6,9.1c0,0,12.7-7.8,12.9-7.4c0.2,0.3-12.7,9.7-12.7,9.7
					c0.3,0.6,12.9-7.8,13-7.5c0.5,0.9-12.7,10-12.7,10l13.1-7.6c0.7,1.1-13.6,7.8-13,8.9l13.2-7.6c0,0-13.1,9-13,9.2l13.2-7.6
					l-13,9.7l13.3-7.7c0,0-13.7,8.6-13.1,9.6c0.4,0.7,13.4-7.7,13.4-7.7c0.6,1.1-13,10.3-13,10.3s13.4-7.8,13.4-7.8
					c0,0-13.8,8.3-13.2,9.3l13.5-7.8c0,0-13.4,9.8-13.1,10.3l13.5-7.8c0.5,0.8-13.5,9.5-13.2,10c0,0,13.1-8.6,13.6-7.8
					c0,0-13.6,9.8-13.2,10.4c0,0,13-8.9,13.6-7.9c0.1,0.2-14,8.4-13.4,9.4c0.5,0.8,13.6-7.9,13.6-7.9c0.6,1-13.3,9.9-13.3,9.9
					s13-9,13.6-7.9l-13.4,9.3c0.4,0.6,13.2-8.6,13.7-7.9c0,0-13.6,9.4-13.4,9.8c0.1,0.2,13.7-7.9,13.7-7.9c0.6,1-13.6,9.6-13.4,9.9
					c0.2,0.3,13.7-7.9,13.7-7.9c0.3,0.5-13.8,9.7-13.4,10.5c0.5,0.9,13.8-8,13.8-8c0.6,1-13.6,9.3-13.6,9.3c0.2,0.3,13.8-8,13.8-8
					c0.1,0.1-13.5,10.4-13.5,10.4s13.4-8.9,13.9-8l-14.2,10.6c0.2,0.3,14-9.3,14.5-8.4"/>
				<path class="st2" d="M327.4,276.9l3.6-2.1l-4.7,4.2c0,0,7.2-4.6,7.4-4.3c0.3,0.6-8,5.9-7.7,6.5c0.1,0.1,9.6-5.6,9.6-5.6
					c0.3,0.5-10.1,6.2-9.7,7c0.2,0.4,10.5-6.1,10.5-6.1s-10.6,7.1-10.4,7.4c0.6,1,10.6-7.2,11.1-6.4c0,0-10.8,7.9-10.8,8
					c0.3,0.5,11.6-6.8,11.6-6.7c0,0-11.3,8.4-11.3,8.4c0,0.1,12-7,12-7l-11.7,8.6c0,0,12-7.7,12.4-7.1c0.2,0.3-11.8,9.5-11.8,9.5
					c0.2,0.4,12.3-7.8,12.7-7.3l-12.2,9.4c0.1,0.1,12.4-8,12.7-7.4c0,0-12.8,8.5-12.2,9.6c0,0,12.8-7.4,12.8-7.4
					c0.4,0.8-12.5,8.9-12.4,9.1c0.1,0.3,12.8-7.4,12.8-7.4c0.6,1.1-12.4,9-12.4,9c0.3,0.5,12.2-8.5,12.8-7.4
					c0.2,0.3-12.4,8.8-12.4,8.8c0.6,1,12.8-7.5,12.8-7.4c0,0-13.1,7.5-12.5,8.6c0.5,0.8,12.8-7.4,12.8-7.4s-12.6,9-12.2,9.6
					c0.4,0.8,12.7-7.6,12.8-7.4c0.1,0.1-12.7,8.5-12.5,8.8c0,0,12.4-8.2,12.9-7.4c0,0-13.1,8-12.6,8.9c0.3,0.5,12.3-8.5,12.9-7.5
					l-12.6,9c0.2,0.4,12.8-7.8,13-7.5c0.4,0.6-13,8.4-12.7,8.9c0.1,0.2,12.9-7.9,13.1-7.6l-12.8,9l13.2-7.6c0,0-13,8.9-12.9,9.1
					c0,0,12.9-8.2,13.3-7.7c0,0-13.4,8.3-13,8.9l13.3-7.7c0.7,1.2-13,9.6-13,9.6c0.1,0.2,13.5-7.8,13.5-7.8s-13.4,8.8-13.2,9
					c0.2,0.4,13.6-7.8,13.6-7.8c0.2,0.3-13.9,8.4-13.2,9.6c0.7,1.2,13.7-7.9,13.7-7.9c0.4,0.6-13.8,8.7-13.4,9.4
					c0.1,0.2,13.8-7.9,13.8-7.9c0.5,0.8-14,8.4-13.5,9.3c0,0,13.8-8,13.8-8c0.7,1.2-13.8,9-13.5,9.6c0.2,0.3,13.9-8,13.9-8
					l-13.5,9.7c0.4,0.7,14-8.1,14-8.1c0.7,1.2-14,9-13.6,9.6l14-8.1c0,0-14.2,8.6-13.7,9.4l14.1-8.1c0.6,1.1-13.9,9.2-13.8,9.3
					l14.1-8.1c0.3,0.5-14,9.3-13.6,9.9c0,0,13.4-9.3,14.1-8.1l-13.7,9.5l14.1-8.1c0,0-14,9.6-13.5,10.6c0.4,0.6,14.5-8.4,14.5-8.4
					s-14.7,8.8-14.2,9.6c0,0,14.1-9.8,14.8-8.6c0.7,1.2-14.5,10-14.5,10l15.2-8.8l-15,10.1c1.6,2.8,30.1-20.5,31.4-18.2
					c0,0-31.9,18.9-31.1,20.3c0.9,1.6,31.5-18.6,31.7-18.3c0.4,0.7-31.5,19.5-31.5,19.5c0,0,31.3-19.4,31.9-18.4l-31.5,20.8
					c0,0,45.6-30.4,47.4-27.4c2.3,3.9-47.1,29.2-47.1,29.2c1.2,2.1,47.2-27.3,47.2-27.3c0.7,1.3-47.8,27.4-47,28.8
					c2.1,3.7,47-27.2,47-27.2c0.3,0.5-46.8,28.8-46.8,28.8c1.2,2.1,46.9-27.1,46.9-27.1c1,1.7-47.2,27.7-46.6,28.6l46.9-27.1
					l-46.7,28.3c1.4,2.4,45.4-29.8,46.9-27.1c0.3,0.5-46.8,29.2-46.8,29.2l47.8-27.6c0,0-50.1,25.9-47.9,29.7
					c1.5,2.6,70.1-40.5,70.1-40.5c1.6,2.8-70.8,42.9-70.8,42.9c1.8,3.1,70.3-40.6,70.3-40.6"/>
			</g>
		</g>
	</g>
	<g>
		<g>
			<g>
				<path class="st1" d="M291.6,344.1c0.1,0.2,5.1-3.4,5.3-3.1c0.3,0.5-12.9,10-12.9,10.2c0.9,1.6,18.6-10.7,18.6-10.7
					s-26.3,14.6-25,16.9c1.3,2.2,28.1-16.2,28.1-16.2"/>
				<path class="st1" d="M273.3,278.6c0.1,0.2,2.8-2,2.9-1.7c0,0-5.5,5.3-5.4,5.6l8.8-5.1l-10.2,8.3l12.2-7.1c0,0-13.4,9.3-13,9.8
					c0.4,0.7,13.6-9.3,14.3-8.2c0.1,0.2-14.7,10-14.7,10l15.2-8.8c0.3,0.5-16,11.9-16,11.9c0.5,0.9,16.3-9.4,16.3-9.4
					c0.2,0.4-17.3,12.1-17.1,12.5c0,0,16.2-11.2,17-9.8c0.4,0.7-18.3,10-17.5,11.5c0.1,0.2,17.1-9.9,17.1-9.9l-17.9,12.5
					c0,0,17-10.5,17.3-10c0.6,1-17.9,11.8-17.8,11.9c0.1,0.2,17.4-10.1,17.4-10.1c0.1,0.2-18.6,12.2-18.2,12.9
					c0.2,0.4,17.6-10.1,17.6-10.1c1,1.7-18.1,12.2-18.1,12.2c0.7,1.2,17.4-10.6,17.6-10.2c0.7,1.2-19.1,11.3-18.3,12.7
					c0.6,1.1,17-11.3,17.7-10.2L262.2,312c0.1,0.2,16.9-11.5,17.6-10.2c0.4,0.7-18.9,10.3-18.1,11.8l17.6-10.2
					c0.3,0.5-18.1,12.1-18.1,12.1c0,0.1,16.7-11.8,17.6-10.2c0,0-18.5,12.3-18.3,12.6l17.7-10.2c0.2,0.4-18.2,12.2-18.2,12.2
					c0.7,1.3,17.8-10.3,17.8-10.3c0.9,1.6-19.4,11.4-18.5,12.8c0.3,0.5,18-10.4,18-10.4l-18.5,12.3c0.4,0.7,18.2-10.5,18.2-10.5
					l-18.8,12.8c0.8,1.5,18-11.4,18.4-10.6c0,0-20.5,12.5-19.9,13.5c0.9,1.5,18.6-12.9,19.5-11.3"/>
				<path class="st1" d="M249.6,266l3.4-1.9c0,0-5.1,4.6-4.9,5c0.1,0.1,8-5.4,8.3-4.8l-8.8,7.4c0,0,10.5-7.1,10.9-6.3l-11.3,8.5
					l12.5-7.2l-12.9,9.3c0,0,13.4-8,13.5-7.8c0.1,0.2-13.9,9.9-13.9,9.9c0.4,0.7,13.6-9.2,14.1-8.2c0.6,1.1-15,10-14.5,10.7
					l14.4-8.3c0.7,1.1-14.8,11.1-14.8,11.1l14.6-8.4l-14.9,10.5c0,0,14-9.8,14.7-8.5c0.8,1.3-15.7,10.2-15.1,11.1
					c0.1,0.2,14.9-8.6,14.9-8.6l-15.3,11.3c0,0,14.3-10,15.1-8.7l-15.4,10.7l15.2-8.8l-15.4,10.4c0.5,0.8,15.3-8.8,15.3-8.8
					l-15.7,11.3l15.4-8.9c0.6,1-16.4,9.1-15.6,10.4c0.6,1,15.5-8.9,15.5-8.9c0.1,0.2-15.9,11.6-15.9,11.6c0.7,1.2,15.6-9.1,15.6-9
					c0,0-16.6,9.3-15.9,10.6c0.1,0.2,15-10.3,15.7-9.1c0.7,1.2-17,10.5-16.2,11.9c0.6,1,15.8-9.1,15.8-9.1l-16.3,11.9
					c0.8,1.4,16-9.2,16-9.2c0.3,0.5-16.2,11-16.2,11c0.8,1.4,15.5-10.2,16-9.3c0,0-17.3,10.3-16.5,11.8c0,0,16-9.5,16.1-9.3
					c0.2,0.4-16.8,10.2-16.4,10.9c0.8,1.4,15.6-10.5,16.2-9.4c0,0-17.1,11.6-16.7,12.3c0,0,16.1-9.7,16.3-9.4L240,320
					c0,0,16-10.2,16.4-9.5c0,0-17.2,10.2-16.7,11.1c0.8,1.4,16.4-9.5,16.4-9.5s-17.7,11.9-17.3,12.6c0.1,0.1,16.9-9.8,16.9-9.8
					s-17.8,11.5-17.7,11.7c0.1,0.2,17.5-10.1,17.5-10.1"/>
				<path class="st1" d="M194.8,289.4l3.2-1.9c0.1,0.2-4.4,3.8-4.2,4.3c0.3,0.4,6.8-3.9,6.8-3.9c0.4,0.7-7.2,6-7.1,6.3
					c0,0,8.5-5.1,8.6-4.9c0.5,0.8-8.6,6.6-8.5,6.6c0,0,9.1-5.8,9.3-5.4c0,0-9.1,7.5-9,7.6c0,0,9.8-6.2,10-5.8c0,0-9.5,8.1-9.5,8.1
					c0.3,0.5,10.2-6.5,10.5-6c0,0-10.5,7-10,7.9c0.3,0.5,10.4-6.6,10.7-6.2c0,0-10.4,7.6-10.2,8.1c0.1,0.1,10.4-7,10.8-6.2
					c0.4,0.7-10.5,7.6-10.5,7.6c0.1,0.1,10.9-6.3,10.9-6.3l-10.5,7.7c0.1,0.1,10.8-6.6,11-6.3c0.4,0.6-10.5,8.6-10.5,8.6
					c0.3,0.5,10.9-6.9,11.2-6.4c0.1,0.1-11.1,7.5-10.8,8.1c0,0,11.1-6.8,11.3-6.5c0.1,0.2-10.7,8.6-10.7,8.6
					c0.3,0.5,11.3-6.8,11.4-6.6c0.5,0.8-10.8,8.9-10.8,8.9l11.6-6.7c0.6,1-11.8,6.9-11.3,7.9l11.6-6.7c0,0-11.4,8-11.3,8.2l11.8-6.8
					l-11.3,8.7l11.9-6.9c0,0-12,7.8-11.5,8.7c0.3,0.6,12.1-7,12.1-7c0.6,1-11.5,9.4-11.5,9.4s12.3-7.2,12.4-7.1c0,0-12.5,7.6-12,8.5
					l12.6-7.3c0,0-12.2,9.2-12,9.6l13-7.5c0.5,0.8-12.8,9.1-12.5,9.6c0,0,13-8.5,13.4-7.7c0,0-13.3,9.6-12.9,10.2
					c0,0,13.4-9.1,14-8.1c0.1,0.2-14.3,8.6-13.7,9.6c0.5,0.9,14.4-8.3,14.4-8.3c0.6,1.1-14,10.3-14,10.3s14.2-9.8,14.9-8.6l-14.7,10
					c0.4,0.7,15-9.8,15.5-8.9c0,0-15.4,10.3-15.2,10.8c0.3,0.4,32.5-18.8,32.5-18.8c1.4,2.4-32.5,20.1-32.2,20.7
					c0.4,0.8,32.2-18.6,32.2-18.6c0.7,1.2-32.9,19.3-31.8,21.2c1.3,2.2,31.9-18.4,31.9-18.4c1.3,2.3-31.7,19.7-31.7,19.7
					c0.5,0.8,32.2-18.6,32.2-18.6c0.2,0.3-32.2,21.1-32.2,21.1s49.1-32.4,50.8-29.3l-51.3,32c0.7,1.2,49-32.6,50.9-29.4
					c1.2,2.1-51.2,31.5-51.2,31.5c1.5,2.6,49.9-31,50.9-29.4c0,0-53.3,28-51.1,31.7c1.1,2,50.8-29.3,50.8-29.3
					c2.1,3.6-51.7,31-51.1,32.1l51-29.4c1.4,2.5-51.1,31.2-51.1,31.2s51.2-29.9,51.3-29.6l-51.5,31.8c1.9,3.2,52.8-30.5,52.8-30.5
					c2.2,3.9-52.9,33-52.9,33s70.2-45.8,72.5-41.9l-72.5,44.3c3,5.1,71.2-43,72-41.6c0.7,1.2-74.9,39-71.9,44.1l71.3-41.1
					c0,0-72,42-71.2,43.4c3.2,5.5,70.1-41.4,70.5-40.7c0,0-72.8,38.9-70.3,43.3c0,0,69-40.8,69.4-40.1c3.5,6-71.7,38-69.2,42.4
					c0,0,66.3-43.3,68.5-39.5l-68.2,42l67.5-39l-67.3,40.3c2.8,4.9,65.5-41.3,67-38.7l-66.6,40.6c2.1,3.7,64.8-40.6,66.2-38.2
					l-65.7,40.5l65.3-37.7c0,0-65.8,38-64.7,40c2.8,4.9,64.3-37.1,64.3-37.1l-63.8,38.9c0,0,62.1-39,63.4-36.6l-62.9,38.5
					c1.4,2.3,60.3-39.9,62.5-36.1l-62,37.6c0,0,59.4-39.8,61.8-35.7c3.2,5.5-62.1,35.8-61,37.8c1.9,3.4,58.3-40.2,61.1-35.3
					c0,0-63.5,31.5-60.6,36.4c1.3,2.2,60.9-35.2,60.9-35.2s-60.8,35.8-60,37.1c0,0,60-37.4,61.1-35.3c2.1,3.6-60.5,36.6-60.5,36.6
					l63.6-36.7c0.1,0.2-65.7,35.7-63.6,39.3c1.1,1.9,99.5-57.4,99.5-57.4c3.4,5.8-101.2,56-99.5,59c3.2,5.6,99.4-58.7,100-57.7
					c2.9,5.1-100.7,57.9-100,59.1l99.7-57.5l-99.7,59c1.7,3,98.5-56.8,98.5-56.8c0.3,0.6-98.5,58.8-98.5,58.8
					c1.9,3.3,93.7-59.4,96-55.4c0,0-98.7,52.9-96,57.5l92.4-53.3c0,0-95.7,50.2-92.5,55.8l88.3-51c1.1,1.9-88.3,52.4-88.3,52.4
					l85.9-49.6c0,0-86.1,52-86,52.3l81.7-47.2c0,0-85.6,41.9-81.7,48.7l79.3-45.8l-79.4,47.3l76.9-44.4c1.4,2.4-78.2,44.5-77,46.7
					c3.8,6.6,73.4-42.4,73.4-42.4c1.6,2.8-75.6,41.4-73.4,45c0,0,66.6-44.2,69.1-39.9c0,0-70.7,39.8-69.2,42.5
					c2,3.5,64.7-37.3,64.7-37.3c0.2,0.3-65.9,36.6-64.7,38.7l62.3-36c0.2,0.3-62.8,38.1-62.4,38.8c2.5,4.4,54.6-31.5,54.6-31.5
					c2.4,4.2-57.2,28.9-54.7,33.3l54.1-31.3c2.6,4.6-56,30.5-54.4,33.3c2.5,4.4,54.2-31.3,54.2-31.3c2.4,4.2-54.6,34-54.6,34
					c0.8,1.3,53.8-32.4,54.4-31.4c2.6,4.4-56.9,29.7-54.7,33.5c0,0,52.4-35.2,54.5-31.5c0,0-54.8,33.4-54.8,33.4
					c2.5,4.3,54.6-31.5,54.6-31.5L207,443.2l54.7-31.6c0.6,1-57.2,29.6-55,33.4c2.3,3.9,54.8-31.6,54.8-31.6
					c2.4,4.2-56.3,30.8-55,33.2l54.8-31.6l-55.2,34l54.9-31.7c2.7,4.7-55.2,33.7-55.2,33.7c1.9,3.2,54.9-31.7,54.9-31.7
					c1.8,3-55.4,34.7-55.4,34.7s52.4-36.3,55-31.8c0.4,0.6-57.6,30.4-55.4,34.1c1,1.8,55-31.8,55-31.8s-57,30.8-55.3,33.7
					c1.3,2.3,54.5-32.8,55.1-31.8c2.2,3.9-57.9,29.2-55.4,33.6c1,1.7,54.6-32.7,55.1-31.8c0,0-57,31.3-55.4,34
					c0.7,1.2,55.1-31.8,55.1-31.8L203.9,464c0,0,53.9-34,55.1-31.8c1.6,2.8-57.9,29.8-55.5,34.1c0,0,53.9-34,55.2-31.8l-55.5,34.3
					c0,0,54.7-32.6,55.2-31.9c0,0-56.6,33.1-55.6,34.8c0,0,54.5-33,55.2-31.9c0,0-56.9,30.9-55.4,33.4l55.2-31.9
					c0,0-58.1,30.1-55.6,34.4c0,0,55.2-31.9,55.2-31.9s-58.1,29.8-55.6,34.1c0.3,0.4,52.5-36.7,55.2-31.9
					c0.2,0.3-55.6,34.2-55.6,34.2c0.3,0.5,53.8-34.3,55.2-31.9c2.1,3.7-56.3,33.3-55.7,34.5c0,0,52.9-36,55.3-31.9l-55.7,34.5
					l55.3-31.9c0.2,0.3-55.6,33.2-55.5,33.4c1.7,3,55.3-31.9,55.3-31.9S199.8,488.6,200,489c1.3,2.2,55.4-32,55.4-32
					c1.6,2.7-55.7,33.9-55.7,33.9c0.2,0.4,55.4-32,55.4-32l-55.8,34.8c0,0,53.9-34.7,55.5-32c1,1.7-55.9,34.6-55.9,34.6l55.5-32.1
					c0,0-58.2,29.5-55.8,33.7l55.6-32.1c0,0-56.8,32.5-55.9,34.1c2,3.5,53-36.8,55.7-32.1c0,0-57.8,31.7-56.1,34.6l55.8-32.2
					c0.3,0.4-58,32.2-56.2,35.2c2.8,4.8,55.9-32.3,55.9-32.3c1.9,3.2-57,32.5-56.2,33.9c0,0,54.1-35.7,56-32.3
					c0,0-57.3,32.1-56.2,33.8c1.9,3.2,56.1-32.4,56.1-32.4l-56.4,34.3c0.2,0.4,54.8-34.9,56.2-32.5c1.9,3.3-57.2,32.7-56.5,34.1
					c1.8,3.1,56.3-32.5,56.3-32.5c0.4,0.7-57.8,32.4-56.6,34.4c0.5,0.9,56.5-32.6,56.5-32.6l-56.8,35.2c0.2,0.4,56.6-32.7,56.6-32.7
					l-57.1,35.5l56.8-32.8c0,0-59.6,29.8-57,34.3c1.1,2,56.9-32.9,56.9-32.9c2.6,4.6-57.1,34.4-57.1,34.4c1.6,2.8,57-32.9,57-32.9
					c1.5,2.7-59.5,32.4-57.5,35.9l57.2-33c0,0-59.6,31.9-57.6,35.4c1.2,2.1,57.4-33.1,57.4-33.1c2.2,3.9-58.9,34.3-57.8,36.1
					c1.5,2.6,57.6-33.2,57.6-33.2l-58,36c0.1,0.2,57.7-33.3,57.7-33.3c1.2,2-60.3,32.8-58.2,36.4c2.8,4.9,56.8-35.5,57.9-33.5
					c2.5,4.4-58.3,35.7-58.3,35.7c0.8,1.4,58.1-33.5,58.1-33.5l-58.4,35.7c0,0,56.7-36.2,58.2-33.6c0,0.1-58.7,36.4-58.7,36.4
					S250,510,250,510.1c0,0-60.7,31.7-58.6,35.2c2,3.5,58.5-33.8,58.5-33.8s-57.8,34.5-57.2,35.6c0.4,0.7,56.9-32.9,56.9-32.9
					c1.6,2.9-55.7,33.7-55.7,33.7l55.5-32c0,0-55.2,30.8-53.8,33.1c0.8,1.5,52.5-32.9,53.6-31c2.3,4-52.1,31.9-52.1,31.9l51.9-30
					l-49.7,31.2c0.2,0.4,49-29.3,49.5-28.6c0,0-49.1,27.2-47.9,29.3c0,0,46.7-29.4,47.8-27.6c0.6,1-45.3,28.7-45.3,28.7
					s44.9-26.3,45.1-26c0,0-45.2,24-43.7,26.6l43.6-25.2c0.7,1.2-42.8,23.7-41.5,26c0,0,41.3-23.9,41.3-23.9
					c0,0-41.5,21.4-39.7,24.5c0,0,38.1-25.3,39.6-22.8c0,0-37.5,23.1-37.2,23.7c0,0,36.7-21.8,36.9-21.3
					c1.3,2.3-35.4,21.8-35.4,21.8l35.3-20.4c1.4,2.4-32.2,21.3-32.2,21.3c1.4,2.5,31.9-18.4,31.9-18.4c1.4,2.5-29.7,19.1-29.7,19.1
					s29.1-17.8,29.5-17.1c0,0-27.8,16.4-27,17.7c0.3,0.5,26.8-15.5,26.8-15.5c0.4,0.8-24.5,15.6-24.1,16.1
					c0.1,0.1,22.8-15.7,23.9-13.8c0,0-22.6,13.4-22.1,14.2c1,1.7,20.8-14.5,21.9-12.6c0.4,0.7-20.3,12.5-20,13
					c0.6,1.1,19.1-12.9,19.9-11.5c0.2,0.3-16.9,12.1-16.9,12.1l16.7-9.6c0.6,1-13.2,10.2-13.1,10.3L246,554c0,0-11.1,6.9-10.5,7.8
					c0,0,10-6.7,10.4-6l-6.9,6.5l6.6-3.8c0,0-3.1,4.3-3,4.3c0.1,0.2,2.8-1.6,2.8-1.6"/>
				<path class="st1" d="M226.5,270.3l3.2-1.8l-4.1,3.9c0,0,6.5-4.2,6.7-3.9c0.3,0.5-7.4,5.6-7.1,6.2c0.1,0.1,9.2-5.3,9.2-5.3
					c0.3,0.5-9.8,6.1-9.4,6.8c0.2,0.3,10.3-5.9,10.3-5.9s-10.6,7.1-10.4,7.4c0.6,1,10.5-7.1,10.9-6.3c0,0-11.2,8.2-11.2,8.3
					c0.3,0.5,11.5-6.8,11.6-6.7c0,0.1-11.8,8.6-11.8,8.6c0,0.1,12-6.9,12-6.9l-12.1,8.9c0,0,11.9-7.6,12.3-7.1
					c0.2,0.3-12.5,9.9-12.5,9.9c0.2,0.4,12.2-7.8,12.5-7.2l-12.7,9.8c0.1,0.1,12.3-7.9,12.7-7.3c0,0-13.5,8.8-12.8,10
					c0,0,12.7-7.4,12.8-7.4c0.5,0.8-12.9,9.2-12.8,9.3c0.1,0.3,12.8-7.4,12.8-7.4c0.7,1.2-12.9,9.3-12.9,9.3
					c0.3,0.5,12.2-8.5,12.9-7.4c0.2,0.3-12.9,9.1-12.9,9.1c0.6,1,12.9-7.5,12.9-7.4c0,0-13.6,7.8-12.9,8.9
					c0.5,0.8,12.9-7.5,12.9-7.5s-13.4,9.5-13,10.1c0.4,0.8,12.8-7.7,13-7.5c0.1,0.1-13.2,8.8-13,9.1c0,0,12.5-8.3,13-7.5
					c0,0-13.6,8.2-13,9.1c0.3,0.5,12.4-8.6,13-7.5l-13.1,9.2c0.2,0.4,12.8-7.9,13-7.5c0.4,0.7-13.4,8.6-13.1,9.2
					c0.1,0.2,12.8-7.9,13.1-7.5l-13.1,9.1l13.1-7.6c0,0-13.3,9-13.1,9.3c0,0,12.8-8.2,13.1-7.6c0,0-13.5,8.4-13.2,9L236,305
					c0.7,1.2-13.2,9.8-13.2,9.8c0.1,0.2,13.2-7.6,13.2-7.6s-13.4,8.8-13.2,9.1c0.2,0.4,13.2-7.6,13.2-7.6c0.2,0.3-14,8.5-13.3,9.7
					c0.7,1.2,13.3-7.7,13.3-7.7c0.4,0.6-13.7,8.7-13.3,9.3c0.1,0.2,13.3-7.7,13.3-7.7c0.4,0.8-13.9,8.3-13.4,9.3
					c0,0,13.4-7.7,13.4-7.7c0.7,1.2-13.7,9-13.4,9.5c0.2,0.3,13.4-7.8,13.4-7.8l-13.6,9.8c0.4,0.7,13.6-7.9,13.6-7.9
					c0.7,1.2-14.6,9.2-14.2,10l14.2-8.2"/>
			</g>
			<g>
				<path class="st2" d="M291.6,344.1c0.1,0.2,5.1-3.4,5.3-3.1c0.3,0.5-12.9,10-12.9,10.2c0.9,1.6,18.6-10.7,18.6-10.7
					s-26.3,14.6-25,16.9c1.3,2.2,28.1-16.2,28.1-16.2"/>
				<path class="st2" d="M273.3,278.6c0.1,0.2,2.8-2,2.9-1.7c0,0-5.5,5.3-5.4,5.6l8.8-5.1l-10.2,8.3l12.2-7.1c0,0-13.4,9.3-13,9.8
					c0.4,0.7,13.6-9.3,14.3-8.2c0.1,0.2-14.7,10-14.7,10l15.2-8.8c0.3,0.5-16,11.9-16,11.9c0.5,0.9,16.3-9.4,16.3-9.4
					c0.2,0.4-17.3,12.1-17.1,12.5c0,0,16.2-11.2,17-9.8c0.4,0.7-18.3,10-17.5,11.5c0.1,0.2,17.1-9.9,17.1-9.9l-17.9,12.5
					c0,0,17-10.5,17.3-10c0.6,1-17.9,11.8-17.8,11.9c0.1,0.2,17.4-10.1,17.4-10.1c0.1,0.2-18.6,12.2-18.2,12.9
					c0.2,0.4,17.6-10.1,17.6-10.1c1,1.7-18.1,12.2-18.1,12.2c0.7,1.2,17.4-10.6,17.6-10.2c0.7,1.2-19.1,11.3-18.3,12.7
					c0.6,1.1,17-11.3,17.7-10.2L262.2,312c0.1,0.2,16.9-11.5,17.6-10.2c0.4,0.7-18.9,10.3-18.1,11.8l17.6-10.2
					c0.3,0.5-18.1,12.1-18.1,12.1c0,0.1,16.7-11.8,17.6-10.2c0,0-18.5,12.3-18.3,12.6l17.7-10.2c0.2,0.4-18.2,12.2-18.2,12.2
					c0.7,1.3,17.8-10.3,17.8-10.3c0.9,1.6-19.4,11.4-18.5,12.8c0.3,0.5,18-10.4,18-10.4l-18.5,12.3c0.4,0.7,18.2-10.5,18.2-10.5
					l-18.8,12.8c0.8,1.5,18-11.4,18.4-10.6c0,0-20.5,12.5-19.9,13.5c0.9,1.5,18.6-12.9,19.5-11.3"/>
				<path class="st2" d="M249.6,266l3.4-1.9c0,0-5.1,4.6-4.9,5c0.1,0.1,8-5.4,8.3-4.8l-8.8,7.4c0,0,10.5-7.1,10.9-6.3l-11.3,8.5
					l12.5-7.2l-12.9,9.3c0,0,13.4-8,13.5-7.8c0.1,0.2-13.9,9.9-13.9,9.9c0.4,0.7,13.6-9.2,14.1-8.2c0.6,1.1-15,10-14.5,10.7
					l14.4-8.3c0.7,1.1-14.8,11.1-14.8,11.1l14.6-8.4l-14.9,10.5c0,0,14-9.8,14.7-8.5c0.8,1.3-15.7,10.2-15.1,11.1
					c0.1,0.2,14.9-8.6,14.9-8.6l-15.3,11.3c0,0,14.3-10,15.1-8.7l-15.4,10.7l15.2-8.8l-15.4,10.4c0.5,0.8,15.3-8.8,15.3-8.8
					l-15.7,11.3l15.4-8.9c0.6,1-16.4,9.1-15.6,10.4c0.6,1,15.5-8.9,15.5-8.9c0.1,0.2-15.9,11.6-15.9,11.6c0.7,1.2,15.6-9.1,15.6-9
					c0,0-16.6,9.3-15.9,10.6c0.1,0.2,15-10.3,15.7-9.1c0.7,1.2-17,10.5-16.2,11.9c0.6,1,15.8-9.1,15.8-9.1l-16.3,11.9
					c0.8,1.4,16-9.2,16-9.2c0.3,0.5-16.2,11-16.2,11c0.8,1.4,15.5-10.2,16-9.3c0,0-17.3,10.3-16.5,11.8c0,0,16-9.5,16.1-9.3
					c0.2,0.4-16.8,10.2-16.4,10.9c0.8,1.4,15.6-10.5,16.2-9.4c0,0-17.1,11.6-16.7,12.3c0,0,16.1-9.7,16.3-9.4L240,320
					c0,0,16-10.2,16.4-9.5c0,0-17.2,10.2-16.7,11.1c0.8,1.4,16.4-9.5,16.4-9.5s-17.7,11.9-17.3,12.6c0.1,0.1,16.9-9.8,16.9-9.8
					s-17.8,11.5-17.7,11.7c0.1,0.2,17.5-10.1,17.5-10.1"/>
				<path class="st2" d="M194.8,289.4l3.2-1.9c0.1,0.2-4.4,3.8-4.2,4.3c0.3,0.4,6.8-3.9,6.8-3.9c0.4,0.7-7.2,6-7.1,6.3
					c0,0,8.5-5.1,8.6-4.9c0.5,0.8-8.6,6.6-8.5,6.6c0,0,9.1-5.8,9.3-5.4c0,0-9.1,7.5-9,7.6c0,0,9.8-6.2,10-5.8c0,0-9.5,8.1-9.5,8.1
					c0.3,0.5,10.2-6.5,10.5-6c0,0-10.5,7-10,7.9c0.3,0.5,10.4-6.6,10.7-6.2c0,0-10.4,7.6-10.2,8.1c0.1,0.1,10.4-7,10.8-6.2
					c0.4,0.7-10.5,7.6-10.5,7.6c0.1,0.1,10.9-6.3,10.9-6.3l-10.5,7.7c0.1,0.1,10.8-6.6,11-6.3c0.4,0.6-10.5,8.6-10.5,8.6
					c0.3,0.5,10.9-6.9,11.2-6.4c0.1,0.1-11.1,7.5-10.8,8.1c0,0,11.1-6.8,11.3-6.5c0.1,0.2-10.7,8.6-10.7,8.6
					c0.3,0.5,11.3-6.8,11.4-6.6c0.5,0.8-10.8,8.9-10.8,8.9l11.6-6.7c0.6,1-11.8,6.9-11.3,7.9l11.6-6.7c0,0-11.4,8-11.3,8.2l11.8-6.8
					l-11.3,8.7l11.9-6.9c0,0-12,7.8-11.5,8.7c0.3,0.6,12.1-7,12.1-7c0.6,1-11.5,9.4-11.5,9.4s12.3-7.2,12.4-7.1c0,0-12.5,7.6-12,8.5
					l12.6-7.3c0,0-12.2,9.2-12,9.6l13-7.5c0.5,0.8-12.8,9.1-12.5,9.6c0,0,13-8.5,13.4-7.7c0,0-13.3,9.6-12.9,10.2
					c0,0,13.4-9.1,14-8.1c0.1,0.2-14.3,8.6-13.7,9.6c0.5,0.9,14.4-8.3,14.4-8.3c0.6,1.1-14,10.3-14,10.3s14.2-9.8,14.9-8.6l-14.7,10
					c0.4,0.7,15-9.8,15.5-8.9c0,0-15.4,10.3-15.2,10.8c0.3,0.4,32.5-18.8,32.5-18.8c1.4,2.4-32.5,20.1-32.2,20.7
					c0.4,0.8,32.2-18.6,32.2-18.6c0.7,1.2-32.9,19.3-31.8,21.2c1.3,2.2,31.9-18.4,31.9-18.4c1.3,2.3-31.7,19.7-31.7,19.7
					c0.5,0.8,32.2-18.6,32.2-18.6c0.2,0.3-32.2,21.1-32.2,21.1s49.1-32.4,50.8-29.3l-51.3,32c0.7,1.2,49-32.6,50.9-29.4
					c1.2,2.1-51.2,31.5-51.2,31.5c1.5,2.6,49.9-31,50.9-29.4c0,0-53.3,28-51.1,31.7c1.1,2,50.8-29.3,50.8-29.3
					c2.1,3.6-51.7,31-51.1,32.1l51-29.4c1.4,2.5-51.1,31.2-51.1,31.2s51.2-29.9,51.3-29.6l-51.5,31.8c1.9,3.2,52.8-30.5,52.8-30.5
					c2.2,3.9-52.9,33-52.9,33s70.2-45.8,72.5-41.9l-72.5,44.3c3,5.1,71.2-43,72-41.6c0.7,1.2-74.9,39-71.9,44.1l71.3-41.1
					c0,0-72,42-71.2,43.4c3.2,5.5,70.1-41.4,70.5-40.7c0,0-72.8,38.9-70.3,43.3c0,0,69-40.8,69.4-40.1c3.5,6-71.7,38-69.2,42.4
					c0,0,66.3-43.3,68.5-39.5l-68.2,42l67.5-39l-67.3,40.3c2.8,4.9,65.5-41.3,67-38.7l-66.6,40.6c2.1,3.7,64.8-40.6,66.2-38.2
					l-65.7,40.5l65.3-37.7c0,0-65.8,38-64.7,40c2.8,4.9,64.3-37.1,64.3-37.1l-63.8,38.9c0,0,62.1-39,63.4-36.6l-62.9,38.5
					c1.4,2.3,60.3-39.9,62.5-36.1l-62,37.6c0,0,59.4-39.8,61.8-35.7c3.2,5.5-62.1,35.8-61,37.8c1.9,3.4,58.3-40.2,61.1-35.3
					c0,0-63.5,31.5-60.6,36.4c1.3,2.2,60.9-35.2,60.9-35.2s-60.8,35.8-60,37.1c0,0,60-37.4,61.1-35.3c2.1,3.6-60.5,36.6-60.5,36.6
					l63.6-36.7c0.1,0.2-65.7,35.7-63.6,39.3c1.1,1.9,99.5-57.4,99.5-57.4c3.4,5.8-101.2,56-99.5,59c3.2,5.6,99.4-58.7,100-57.7
					c2.9,5.1-100.7,57.9-100,59.1l99.7-57.5l-99.7,59c1.7,3,98.5-56.8,98.5-56.8c0.3,0.6-98.5,58.8-98.5,58.8
					c1.9,3.3,93.7-59.4,96-55.4c0,0-98.7,52.9-96,57.5l92.4-53.3c0,0-95.7,50.2-92.5,55.8l88.3-51c1.1,1.9-88.3,52.4-88.3,52.4
					l85.9-49.6c0,0-86.1,52-86,52.3l81.7-47.2c0,0-85.6,41.9-81.7,48.7l79.3-45.8l-79.4,47.3l76.9-44.4c1.4,2.4-78.2,44.5-77,46.7
					c3.8,6.6,73.4-42.4,73.4-42.4c1.6,2.8-75.6,41.4-73.4,45c0,0,66.6-44.2,69.1-39.9c0,0-70.7,39.8-69.2,42.5
					c2,3.5,64.7-37.3,64.7-37.3c0.2,0.3-65.9,36.6-64.7,38.7l62.3-36c0.2,0.3-62.8,38.1-62.4,38.8c2.5,4.4,54.6-31.5,54.6-31.5
					c2.4,4.2-57.2,28.9-54.7,33.3l54.1-31.3c2.6,4.6-56,30.5-54.4,33.3c2.5,4.4,54.2-31.3,54.2-31.3c2.4,4.2-54.6,34-54.6,34
					c0.8,1.3,53.8-32.4,54.4-31.4c2.6,4.4-56.9,29.7-54.7,33.5c0,0,52.4-35.2,54.5-31.5c0,0-54.8,33.4-54.8,33.4
					c2.5,4.3,54.6-31.5,54.6-31.5L207,443.2l54.7-31.6c0.6,1-57.2,29.6-55,33.4c2.3,3.9,54.8-31.6,54.8-31.6
					c2.4,4.2-56.3,30.8-55,33.2l54.8-31.6l-55.2,34l54.9-31.7c2.7,4.7-55.2,33.7-55.2,33.7c1.9,3.2,54.9-31.7,54.9-31.7
					c1.8,3-55.4,34.7-55.4,34.7s52.4-36.3,55-31.8c0.4,0.6-57.6,30.4-55.4,34.1c1,1.8,55-31.8,55-31.8s-57,30.8-55.3,33.7
					c1.3,2.3,54.5-32.8,55.1-31.8c2.2,3.9-57.9,29.2-55.4,33.6c1,1.7,54.6-32.7,55.1-31.8c0,0-57,31.3-55.4,34
					c0.7,1.2,55.1-31.8,55.1-31.8L203.9,464c0,0,53.9-34,55.1-31.8c1.6,2.8-57.9,29.8-55.5,34.1c0,0,53.9-34,55.2-31.8l-55.5,34.3
					c0,0,54.7-32.6,55.2-31.9c0,0-56.6,33.1-55.6,34.8c0,0,54.5-33,55.2-31.9c0,0-56.9,30.9-55.4,33.4l55.2-31.9
					c0,0-58.1,30.1-55.6,34.4c0,0,55.2-31.9,55.2-31.9s-58.1,29.8-55.6,34.1c0.3,0.4,52.5-36.7,55.2-31.9
					c0.2,0.3-55.6,34.2-55.6,34.2c0.3,0.5,53.8-34.3,55.2-31.9c2.1,3.7-56.3,33.3-55.7,34.5c0,0,52.9-36,55.3-31.9l-55.7,34.5
					l55.3-31.9c0.2,0.3-55.6,33.2-55.5,33.4c1.7,3,55.3-31.9,55.3-31.9S199.8,488.6,200,489c1.3,2.2,55.4-32,55.4-32
					c1.6,2.7-55.7,33.9-55.7,33.9c0.2,0.4,55.4-32,55.4-32l-55.8,34.8c0,0,53.9-34.7,55.5-32c1,1.7-55.9,34.6-55.9,34.6l55.5-32.1
					c0,0-58.2,29.5-55.8,33.7l55.6-32.1c0,0-56.8,32.5-55.9,34.1c2,3.5,53-36.8,55.7-32.1c0,0-57.8,31.7-56.1,34.6l55.8-32.2
					c0.3,0.4-58,32.2-56.2,35.2c2.8,4.8,55.9-32.3,55.9-32.3c1.9,3.2-57,32.5-56.2,33.9c0,0,54.1-35.7,56-32.3
					c0,0-57.3,32.1-56.2,33.8c1.9,3.2,56.1-32.4,56.1-32.4l-56.4,34.3c0.2,0.4,54.8-34.9,56.2-32.5c1.9,3.3-57.2,32.7-56.5,34.1
					c1.8,3.1,56.3-32.5,56.3-32.5c0.4,0.7-57.8,32.4-56.6,34.4c0.5,0.9,56.5-32.6,56.5-32.6l-56.8,35.2c0.2,0.4,56.6-32.7,56.6-32.7
					l-57.1,35.5l56.8-32.8c0,0-59.6,29.8-57,34.3c1.1,2,56.9-32.9,56.9-32.9c2.6,4.6-57.1,34.4-57.1,34.4c1.6,2.8,57-32.9,57-32.9
					c1.5,2.7-59.5,32.4-57.5,35.9l57.2-33c0,0-59.6,31.9-57.6,35.4c1.2,2.1,57.4-33.1,57.4-33.1c2.2,3.9-58.9,34.3-57.8,36.1
					c1.5,2.6,57.6-33.2,57.6-33.2l-58,36c0.1,0.2,57.7-33.3,57.7-33.3c1.2,2-60.3,32.8-58.2,36.4c2.8,4.9,56.8-35.5,57.9-33.5
					c2.5,4.4-58.3,35.7-58.3,35.7c0.8,1.4,58.1-33.5,58.1-33.5l-58.4,35.7c0,0,56.7-36.2,58.2-33.6c0,0.1-58.7,36.4-58.7,36.4
					S250,510,250,510.1c0,0-60.7,31.7-58.6,35.2c2,3.5,58.5-33.8,58.5-33.8s-57.8,34.5-57.2,35.6c0.4,0.7,56.9-32.9,56.9-32.9
					c1.6,2.9-55.7,33.7-55.7,33.7l55.5-32c0,0-55.2,30.8-53.8,33.1c0.8,1.5,52.5-32.9,53.6-31c2.3,4-52.1,31.9-52.1,31.9l51.9-30
					l-49.7,31.2c0.2,0.4,49-29.3,49.5-28.6c0,0-49.1,27.2-47.9,29.3c0,0,46.7-29.4,47.8-27.6c0.6,1-45.3,28.7-45.3,28.7
					s44.9-26.3,45.1-26c0,0-45.2,24-43.7,26.6l43.6-25.2c0.7,1.2-42.8,23.7-41.5,26c0,0,41.3-23.9,41.3-23.9
					c0,0-41.5,21.4-39.7,24.5c0,0,38.1-25.3,39.6-22.8c0,0-37.5,23.1-37.2,23.7c0,0,36.7-21.8,36.9-21.3
					c1.3,2.3-35.4,21.8-35.4,21.8l35.3-20.4c1.4,2.4-32.2,21.3-32.2,21.3c1.4,2.5,31.9-18.4,31.9-18.4c1.4,2.5-29.7,19.1-29.7,19.1
					s29.1-17.8,29.5-17.1c0,0-27.8,16.4-27,17.7c0.3,0.5,26.8-15.5,26.8-15.5c0.4,0.8-24.5,15.6-24.1,16.1
					c0.1,0.1,22.8-15.7,23.9-13.8c0,0-22.6,13.4-22.1,14.2c1,1.7,20.8-14.5,21.9-12.6c0.4,0.7-20.3,12.5-20,13
					c0.6,1.1,19.1-12.9,19.9-11.5c0.2,0.3-16.9,12.1-16.9,12.1l16.7-9.6c0.6,1-13.2,10.2-13.1,10.3L246,554c0,0-11.1,6.9-10.5,7.8
					c0,0,10-6.7,10.4-6l-6.9,6.5l6.6-3.8c0,0-3.1,4.3-3,4.3c0.1,0.2,2.8-1.6,2.8-1.6"/>
				<path class="st2" d="M226.5,270.3l3.2-1.8l-4.1,3.9c0,0,6.5-4.2,6.7-3.9c0.3,0.5-7.4,5.6-7.1,6.2c0.1,0.1,9.2-5.3,9.2-5.3
					c0.3,0.5-9.8,6.1-9.4,6.8c0.2,0.3,10.3-5.9,10.3-5.9s-10.6,7.1-10.4,7.4c0.6,1,10.5-7.1,10.9-6.3c0,0-11.2,8.2-11.2,8.3
					c0.3,0.5,11.5-6.8,11.6-6.7c0,0.1-11.8,8.6-11.8,8.6c0,0.1,12-6.9,12-6.9l-12.1,8.9c0,0,11.9-7.6,12.3-7.1
					c0.2,0.3-12.5,9.9-12.5,9.9c0.2,0.4,12.2-7.8,12.5-7.2l-12.7,9.8c0.1,0.1,12.3-7.9,12.7-7.3c0,0-13.5,8.8-12.8,10
					c0,0,12.7-7.4,12.8-7.4c0.5,0.8-12.9,9.2-12.8,9.3c0.1,0.3,12.8-7.4,12.8-7.4c0.7,1.2-12.9,9.3-12.9,9.3
					c0.3,0.5,12.2-8.5,12.9-7.4c0.2,0.3-12.9,9.1-12.9,9.1c0.6,1,12.9-7.5,12.9-7.4c0,0-13.6,7.8-12.9,8.9
					c0.5,0.8,12.9-7.5,12.9-7.5s-13.4,9.5-13,10.1c0.4,0.8,12.8-7.7,13-7.5c0.1,0.1-13.2,8.8-13,9.1c0,0,12.5-8.3,13-7.5
					c0,0-13.6,8.2-13,9.1c0.3,0.5,12.4-8.6,13-7.5l-13.1,9.2c0.2,0.4,12.8-7.9,13-7.5c0.4,0.7-13.4,8.6-13.1,9.2
					c0.1,0.2,12.8-7.9,13.1-7.5l-13.1,9.1l13.1-7.6c0,0-13.3,9-13.1,9.3c0,0,12.8-8.2,13.1-7.6c0,0-13.5,8.4-13.2,9L236,305
					c0.7,1.2-13.2,9.8-13.2,9.8c0.1,0.2,13.2-7.6,13.2-7.6s-13.4,8.8-13.2,9.1c0.2,0.4,13.2-7.6,13.2-7.6c0.2,0.3-14,8.5-13.3,9.7
					c0.7,1.2,13.3-7.7,13.3-7.7c0.4,0.6-13.7,8.7-13.3,9.3c0.1,0.2,13.3-7.7,13.3-7.7c0.4,0.8-13.9,8.3-13.4,9.3
					c0,0,13.4-7.7,13.4-7.7c0.7,1.2-13.7,9-13.4,9.5c0.2,0.3,13.4-7.8,13.4-7.8l-13.6,9.8c0.4,0.7,13.6-7.9,13.6-7.9
					c0.7,1.2-14.6,9.2-14.2,10l14.2-8.2"/>
			</g>
		</g>
	</g>
</g>
<g>
	<path d="M152.8,638.8c11.5,0,18.4,6.8,18.4,17.7V681h-7v-11.2h-22.6V681h-7.1v-24.5C134.5,645.5,141.5,638.8,152.8,638.8z
		 M152.8,645.1c-7,0-11.3,4.3-11.2,11.3l-0.1,7h22.6v-7C164.1,649.4,159.9,645.1,152.8,645.1z"/>
	<path d="M251.9,654.4V681h-7.1v-25c0-6-3.7-10.2-9.2-10.2c-6.4,0.1-10.9,5.6-10.9,12.6V681h-7.1v-25c0-6-3.8-10.2-9.2-10.2
		c-6.4,0.1-10.9,5.6-10.9,12.6V681h-7.1v-42h7.1v6.7c2.9-4.1,7.6-6.6,13.4-6.7c5.9,0,10.6,3.4,12.7,8.8c2.7-5.4,7.9-8.7,14.6-8.8
		C246.1,639,251.9,645.2,251.9,654.4z"/>
	<path d="M304.4,653.3c0,9.5-6.1,15-16.6,15h-9.7V681H271v-42h16.7C298.3,639,304.4,644.2,304.4,653.3z M297.6,653.5
		c0-5.5-3.7-8.2-10.1-8.2h-9.4V662h9.4C293.9,662,297.6,659.2,297.6,653.5z"/>
	<path d="M337.8,638.8c11.5,0,18.4,6.8,18.4,17.7V681h-7v-11.2h-22.6V681h-7.1v-24.5C319.6,645.5,326.5,638.8,337.8,638.8z
		 M337.9,645.1c-7,0-11.3,4.3-11.2,11.3l-0.1,7h22.6v-7C349.1,649.4,344.9,645.1,337.9,645.1z"/>
	<path d="M402,681l-7.7-12.7c-0.6,0.1-1.3,0.1-1.9,0.1h-10V681h-7.1v-42h17c10.7,0,16.9,5.2,16.9,14.3c0,6.7-3.1,11.5-8.7,13.6
		l9.4,14H402z M392.4,662c6.5,0,10.2-2.8,10.2-8.5c0-5.5-3.7-8.2-10.2-8.2h-10V662H392.4z"/>
	<path d="M468.8,660c0,12-9.7,21.3-22.3,21.3c-12.5,0-22.3-9.3-22.3-21.3c0-12.1,9.7-21.2,22.3-21.2
		C459.1,638.8,468.8,648,468.8,660z M431.5,660c0,8.3,6.9,14.9,15.1,14.9s14.9-6.6,14.9-14.9s-6.7-14.8-14.9-14.8
		C438.3,645.2,431.5,651.7,431.5,660z"/>
</g>
<g>
	<path class="st3" d="M181.6,606.1H170v13.7h-1.6v-29.6h16.1v1.7H170v12.5h11.6V606.1z"/>
	<path class="st3" d="M206.3,619.8c-5.5,0-10.5-4.6-10.3-10.3v-19.2h1.8v19.2c0,4.7,3.8,8.5,8.5,8.5c4.7,0,8.5-3.8,8.5-8.4v-19.2
		h1.8v19.1C216.4,615.3,211.9,619.8,206.3,619.8z"/>
	<path class="st3" d="M245.6,619.8L230,592.4l0.1,27.4h-1.8v-29.3h2.8l15.3,27.4v-27.4h1.8v29.4H245.6z"/>
	<path class="st3" d="M267.1,619.8h-7.3v-29.4h7.3c8,0.1,14.5,6.7,14.5,14.7C281.6,613.1,275.1,619.7,267.1,619.8z M266.9,618.2
		c7,0,12.9-6.1,12.9-13.1c0-7-5.8-12.9-12.9-12.9h-5.3l0,26H266.9z"/>
	<path class="st3" d="M297.7,612.9l-2.8,7h-2.1l12.4-29.5l12.5,29.5h-2.1l-2.9-7H297.7z M298.4,611.2H312l-6.8-16.2L298.4,611.2z"/>
	<path class="st3" d="M351.2,592.5l-0.9,1.6c-2-1.3-4.3-1.8-6.7-1.8c-7,0-12.9,5.9-12.9,12.9s5.9,12.9,12.9,12.9
		c2.4,0,4.7-0.7,6.8-1.9l0.8,1.7c-2.3,1.4-4.9,2.1-7.6,2.1c-8.1,0-14.8-6.6-14.8-14.8s6.6-14.8,14.8-14.8
		C346.3,590.4,348.9,591.2,351.2,592.5z"/>
	<path class="st3" d="M364.5,590.2v29.5h-1.6v-29.5H364.5z"/>
	<path class="st3" d="M404.1,605c0,8.1-6.3,14.8-14.1,14.8s-14.1-6.6-14.1-14.8s6.3-14.7,14.1-14.7S404.1,596.9,404.1,605z
		 M402.5,605c0-7-5.7-12.9-12.5-12.9c-6.8,0-12.5,5.9-12.5,12.9c0,7.1,5.8,13,12.5,13C396.8,618,402.5,612.1,402.5,605z M393,581.7
		l0.8,1.8l-6.5,3l-0.8-1.8L393,581.7z"/>
	<path class="st3" d="M432.9,619.8l-15.5-27.4l0.1,27.4h-1.8v-29.3h2.8l15.3,27.4v-27.4h1.8v29.4H432.9z"/>
</g>
</svg>
