<?xml version="1.0" encoding="utf-8"?>
<!-- Generator: Adobe Illustrator 24.2.1, SVG Export Plug-In . SVG Version: 6.00 Build 0)  -->
<svg version="1.1" id="Layer_1" xmlns="http://www.w3.org/2000/svg" xmlns:xlink="http://www.w3.org/1999/xlink" x="0px" y="0px"
	 viewBox="0 0 800 500" style="enable-background:new 0 0 800 500;" xml:space="preserve">
<style type="text/css">
	.st0{opacity:0.8;}
	.st1{fill:#ED3794;}
	.st2{fill:#54C8EF;}
	.st3{fill:#9D782C;}
	.st4{fill:url(#SVGID_1_);}
	.st5{fill:url(#SVGID_2_);}
	.st6{fill:url(#SVGID_3_);}
	.st7{opacity:0.3;}
	.st8{display:none;fill:#231F20;}
	.st9{fill:#231F20;}
	.st10{font-family:'Lobster1.4';}
	.st11{font-size:93.1913px;}
	.st12{letter-spacing:2;}
	.st13{font-family:'ThemBONESTT-Regular';}
	.st14{font-size:32.0929px;}
	.st15{letter-spacing:5.6;}
	.st16{font-size:36.9055px;}
	.st17{letter-spacing:6.8;}
	.st18{fill:none;stroke:#231F20;stroke-width:1.4092;stroke-miterlimit:10;}
	.st19{fill:none;stroke:#231F20;stroke-width:1.409;stroke-miterlimit:10;}
	.st20{fill:none;stroke:#231F20;stroke-width:0.5;stroke-miterlimit:10;}
	.st21{display:none;fill:#ED3794;}
	.st22{fill:#FFFFFF;}
	.st23{display:none;}
	.st24{display:inline;fill:none;stroke:url(#SVGID_4_);stroke-width:1.4092;stroke-miterlimit:10;}
	.st25{display:inline;fill:none;stroke:url(#SVGID_5_);stroke-width:1.4092;stroke-miterlimit:10;}
	.st26{display:inline;fill:none;stroke:url(#SVGID_6_);stroke-width:0.3523;stroke-miterlimit:10;}
	.st27{display:inline;fill:none;stroke:url(#SVGID_7_);stroke-width:0.3523;stroke-miterlimit:10;}
	.st28{fill:none;stroke:#000000;stroke-width:1.4092;stroke-miterlimit:10;}
	.st29{fill:none;stroke:#000000;stroke-width:1.409;stroke-miterlimit:10;}
	.st30{fill:none;stroke:#000000;stroke-width:0.5;stroke-miterlimit:10;}
	.st31{fill:none;stroke:#FFFFFF;stroke-width:1.4092;stroke-miterlimit:10;}
	.st32{fill:none;stroke:#FFFFFF;stroke-width:1.409;stroke-miterlimit:10;}
	.st33{fill:none;stroke:#FFFFFF;stroke-width:0.5;stroke-miterlimit:10;}
	.st34{display:inline;}
	.st35{fill:#5F4A35;}
	.st36{fill:#FCFDFF;}
</style>
<g class="st0">
	<path class="st1" d="M787.7,508.1H20.1C3,508.1-11,494.1-11,477V21.1C-11,4,3-10,20.1-10h767.6c17.1,0,31.1,14,31.1,31.1V477
		C818.7,494.1,804.7,508.1,787.7,508.1z"/>
	<g>
		<path class="st2" d="M430.8,263.4L819,298.9v-36.2l-40.8,0l-347.4,0.6c0,0,0,0-0.1,0c0.1,0,0.1,0,0,0L819,248.5v-36l-388.3,50.6
			c0,0,0,0-0.1,0c0,0,0.1,0,0,0L819,197.8v-38.1L430.7,262.9c0,0,0,0-0.1,0c0,0,0.1,0,0,0L819,143.7v-42.4L430.6,262.7
			c0,0,0,0-0.1,0c0,0,0.1-0.1,0-0.1L819,83.2V33.5l-388.5,229c0,0,0,0-0.1,0c0,0,0-0.1,0-0.1L817.6,12.4
			c-3.9-12.9-15.5-22.3-29.2-22.3h-20.2L430.3,262.3c0,0,0,0-0.1,0c0,0,0-0.1,0-0.1L739.8-9.9H678L430.1,262.2c0,0,0,0-0.1,0
			c0,0,0-0.1,0-0.1L656.2-9.9h-49.5l-176.7,272c0,0,0,0-0.1,0c0,0,0-0.1,0-0.1l158.6-272h-42.3L429.7,262c0,0,0,0,0,0
			c0,0,0-0.1,0-0.1L530.1-9.9H492L429.4,262c0,0,0,0,0,0c0,0,0-0.1,0-0.1L477.2-9.9h-36.1l-11.9,271.9c0,0,0,0,0,0c0,0,0-0.1,0-0.1
			L426.9-9.9H391l38,272.1c0-0.1-0.1-0.2-0.1-0.1L376.4-9.9h-37.6l90,271.9c0,0,0,0,0,0.1c0,0,0,0,0,0L323.1-9.9h-41.3l146.7,272
			c0,0,0,0,0,0.1c0,0-0.1,0-0.1,0L264.2-9.9h-47.8l211.8,272.1c0,0,0,0,0,0.1c0,0-0.1,0-0.1,0L195.5-9.9h-58.8L428,262.3
			c0,0,0,0,0,0.1c0,0-0.1,0-0.1,0L109.9-9.9H31.5l396.4,272.4c0,0,0,0,0,0.1c0,0-0.1,0-0.1,0L2.7-4.5c-8.1,5.7-13.4,15.3-13.4,26.1
			v23.8l438.5,217.2c0,0,0,0,0,0.1c0,0-0.1,0-0.1,0l-438.4-196v49.1l438.4,147c0,0,0,0,0,0c-0.1,0-0.1,0-0.1,0L-10.7,134.2V178
			l438.3,85c0,0,0,0,0,0c-0.1,0-0.1,0-0.1,0l-438.3-68.3v40.9l438.2,27.5c0,0,0,0,0,0c-0.1,0-0.1,0-0.1,0l-438.2-11.5v40l438.2-28.4
			c0,0,0,0,0.1,0c0,0-0.1,0,0,0L-10.7,308v41.5l438.3-85.9c0,0,0,0,0.1,0c0,0-0.1,0,0,0l-438.3,103v45l438.4-147.9c0,0,0,0,0.1,0
			c0,0-0.1,0,0,0L-10.7,430.8v45.8c0,1.8,0.2,3.6,0.5,5.3l438-217.9c0,0,0,0,0.1,0c0,0,0,0.1,0,0.1l-429,235.2
			c5.5,5.5,12.9,8.8,21.1,8.8h54.3l353.8-244c0,0,0,0,0.1,0c0,0,0,0.1,0,0.1L104.1,508.1H168l260-243.8c0,0,0,0,0.1,0
			c0,0,0,0.1,0,0.1l-238,243.8h49.2l188.9-243.7c0,0,0,0,0.1,0c0,0,0,0.1,0,0.1L257.1,508.1h40.7l130.7-243.6c0,0,0,0,0.1,0
			c0,0,0,0.1,0,0.1L313,508.1h35.8l79.9-243.5c0,0,0,0,0,0c0,0,0,0.1,0,0.1l-66.3,243.5h33.1L429,264.6c0,0,0,0,0.1-0.2l-20.5,243.6
			h32l-11.3-243.4c0,0,0,0,0-0.1c0,0,0,0,0,0l24.1,243.5h32.7l-56.6-243.5c0,0,0,0,0-0.1c0,0,0,0,0,0l70,243.5h35.1l-105-243.6
			c0,0,0,0,0-0.1c0,0,0,0,0,0l119.7,243.6h39.5l-159-243.6c0,0,0,0,0-0.1c0,0,0.1,0,0.1,0l176,243.7h47L430.1,264.4c0,0,0,0,0-0.1
			c0,0,0.1,0,0.1,0l243.7,243.8H734L430.3,264.2c0,0,0,0,0-0.1c0,0,0.1,0,0.1,0l331.6,243.9h26.5c12,0,22.4-7.3,27.4-17.7
			L430.5,264.1c0,0,0,0,0-0.1c0,0,0.1,0,0.1,0L819,471.6v-47.1L430.6,263.9c0,0,0,0,0,0c0,0,0.1,0,0.1,0L819,407v-40.9L430.7,263.7
			c0,0,0,0,0,0c0,0,0.1,0,0.1,0l388.3,87v-37.3L430.8,263.4C430.8,263.5,430.8,263.5,430.8,263.4
			C430.8,263.5,430.8,263.5,430.8,263.4z"/>
	</g>
</g>
<g>
	<g>
		<g>
			<polygon class="st3" points="281.5,257.1 282.1,296.1 74.3,299.8 83.8,276.9 71.1,247 			"/>
		</g>
	</g>
</g>
<g>
	<g>
		<g>
			<linearGradient id="SVGID_1_" gradientUnits="userSpaceOnUse" x1="74.7533" y1="277.8121" x2="288.6266" y2="277.8121">
				<stop  offset="1.282051e-02" style="stop-color:#654320"/>
				<stop  offset="0.168" style="stop-color:#72542D"/>
				<stop  offset="0.3531" style="stop-color:#7D6137"/>
				<stop  offset="0.5256" style="stop-color:#80653A"/>
				<stop  offset="0.6786" style="stop-color:#7E6338"/>
				<stop  offset="0.7627" style="stop-color:#785B32"/>
				<stop  offset="0.83" style="stop-color:#6C4D28"/>
				<stop  offset="0.8882" style="stop-color:#5D3A19"/>
				<stop  offset="0.9103" style="stop-color:#553012"/>
				<stop  offset="0.9667" style="stop-color:#270900"/>
			</linearGradient>
			<polygon class="st4" points="288.6,299.9 286.1,259.1 78.1,251.4 87.1,274.3 74.8,304.2 			"/>
		</g>
	</g>
</g>
<g>
	<g>
		<g>
			<polygon class="st3" points="503.7,294.3 506.4,253.4 721.1,244.8 711.6,267.7 724.3,297.6 			"/>
		</g>
	</g>
</g>
<g>
	<g>
		<g>
			
				<linearGradient id="SVGID_2_" gradientUnits="userSpaceOnUse" x1="249.099" y1="273.4127" x2="462.9722" y2="273.4127" gradientTransform="matrix(-1 0 0 1 970.021 0)">
				<stop  offset="3.333333e-02" style="stop-color:#553012"/>
				<stop  offset="5.861770e-02" style="stop-color:#5D3A19"/>
				<stop  offset="0.1253" style="stop-color:#6C4D28"/>
				<stop  offset="0.2026" style="stop-color:#785B32"/>
				<stop  offset="0.299" style="stop-color:#7E6338"/>
				<stop  offset="0.4744" style="stop-color:#80653A"/>
				<stop  offset="0.6321" style="stop-color:#7D6137"/>
				<stop  offset="0.8014" style="stop-color:#73542D"/>
				<stop  offset="0.8641" style="stop-color:#6E4D28"/>
				<stop  offset="0.9021" style="stop-color:#6B4B26"/>
				<stop  offset="0.9302" style="stop-color:#624320"/>
				<stop  offset="0.9552" style="stop-color:#523516"/>
				<stop  offset="0.9782" style="stop-color:#3B2207"/>
				<stop  offset="0.9872" style="stop-color:#301900"/>
			</linearGradient>
			<polygon class="st5" points="507,295.5 509.5,254.7 717.6,247 708.5,269.9 720.9,299.8 			"/>
		</g>
	</g>
</g>
<g>
	<g>
		<g>
			<path class="st3" d="M503.8,301.4l-225.7,1.3c0,0-3.5-50.7-2.8-61.6c14.5,3.3,133.9,2.1,240.8-1.9
				C513.9,250.9,503.8,301.4,503.8,301.4z"/>
		</g>
	</g>
</g>
<g>
	<g>
		<g>
			
				<linearGradient id="SVGID_3_" gradientUnits="userSpaceOnUse" x1="257.6237" y1="279.8088" x2="548.7979" y2="279.8088" gradientTransform="matrix(0.8433 -1.944160e-02 -7.535919e-02 1.1531 73.5823 -38.8014)">
				<stop  offset="1.282051e-02" style="stop-color:#654320"/>
				<stop  offset="0.168" style="stop-color:#72542D"/>
				<stop  offset="0.3531" style="stop-color:#7D6137"/>
				<stop  offset="0.5256" style="stop-color:#80653A"/>
				<stop  offset="0.701" style="stop-color:#7E6338"/>
				<stop  offset="0.7974" style="stop-color:#785B32"/>
				<stop  offset="0.8747" style="stop-color:#6C4D28"/>
				<stop  offset="0.9414" style="stop-color:#5D3A19"/>
				<stop  offset="0.9667" style="stop-color:#553012"/>
			</linearGradient>
			<polyline class="st6" points="517.3,242.9 271.9,246.2 274.1,307.8 506.9,305.9 			"/>
		</g>
	</g>
</g>
<g id="sandhya_2_">
	<g class="st7">
		<path class="st8" d="M741.3,453.1H86.5c-14.3,0-26.1-11.7-26.1-26.1V51.6c0-14.3,11.7-26.1,26.1-26.1h654.9
			c14.3,0,26.1,11.7,26.1,26.1v375.4C767.4,441.4,755.7,453.1,741.3,453.1z"/>
		<path class="st9" d="M401.8,82c-1,1.9-2,3.8-2.9,5.5c-0.7,1.4-1.3,2.7-1.8,4c0,1.4,0.2,2.7,0.5,4c0.8,3.3,2.1,6.2,3.7,8.3
			c0.3,0.6,0.8,1,1.2,1.5c0.4,0.4,0.7,0.9,1.1,1.3c0.1,0.1,0.2,0.2,0.3,0.3c-0.9-1.1-1.9-2.7-2.2-4.9c-0.4-3,0.5-6.3,1.8-9.7
			c1.3-3.4,3.4-6.9,4.3-10.4c0.9-3.6,0.2-7.2-0.9-10.5c-0.9-2.4-1.9-4.6-2.9-6.5c0.3,1,0.6,2.1,0.7,3.2c0.4,2.3,0.4,4.9-0.3,7.3
			C403.9,77.9,402.8,80,401.8,82z"/>
		<path class="st9" d="M393.6,99.2c0.4,0.6,0.9,1.1,1.3,1.7c0.4,0.5,0.8,1,1.3,1.4c0.1,0.1,0.2,0.2,0.3,0.3c-1-1.2-2.2-3-2.5-5.5
			c-0.4-3.3,0.5-7,2-10.9c1.5-3.8,3.8-7.7,4.9-11.6c1-4,0.2-8.1-1-11.7c-1.3-3.6-2.9-6.8-4.5-9.3c-1.1-1.8-2.3-3.2-3.3-4.3
			c1,1.2,2.1,2.9,3.1,5.2c0.6,1.6,0.9,3.4,0.9,5.3c0,1.9-0.3,4-0.9,6.1c-1.2,4.1-3.3,8.1-4.8,12.3c-0.7,2.1-1.3,4.1-1.5,6.1
			c-0.2,1.9,0.1,3.9,0.5,5.8C390.3,93.6,391.8,96.8,393.6,99.2z"/>
		<path class="st9" d="M401.6,81.8c-1,1.9-2,3.8-2.9,5.5c-0.7,1.4-1.3,2.7-1.8,4c0,1.4,0.2,2.7,0.5,4c0.8,3.3,2.1,6.2,3.7,8.3
			c0.3,0.6,0.8,1,1.2,1.5c0.4,0.4,0.7,0.9,1.1,1.3c0.1,0.1,0.2,0.2,0.3,0.3c-0.9-1.1-1.9-2.7-2.2-4.9c-0.4-3,0.5-6.3,1.8-9.7
			c1.3-3.4,3.4-6.9,4.3-10.4c0.9-3.6,0.2-7.2-0.9-10.5c-0.9-2.4-1.9-4.6-2.9-6.5c0.3,1,0.6,2.1,0.7,3.2c0.4,2.3,0.4,4.9-0.3,7.3
			C403.7,77.7,402.6,79.8,401.6,81.8z"/>
		<path class="st9" d="M393.4,99c0.4,0.6,0.9,1.1,1.3,1.7c0.4,0.5,0.8,1,1.3,1.4c0.1,0.1,0.2,0.2,0.3,0.3c-1-1.2-2.2-3-2.5-5.5
			c-0.4-3.3,0.5-7,2-10.9c1.5-3.8,3.8-7.7,4.9-11.6c1-4,0.2-8.1-1-11.7c-1.3-3.6-2.9-6.8-4.5-9.3c-1.1-1.8-2.3-3.2-3.3-4.3
			c1,1.2,2.1,2.9,3.1,5.2c0.6,1.6,0.9,3.4,0.9,5.3c0,1.9-0.3,4-0.9,6.1c-1.2,4.1-3.3,8.1-4.8,12.3c-0.7,2.1-1.3,4.1-1.5,6.1
			c-0.2,1.9,0.1,3.9,0.5,5.8C390.1,93.4,391.6,96.6,393.4,99z"/>
		<text transform="matrix(1 0 0 1 308.5899 302.6187)" class="st9 st10 st11 st12">Cafe</text>
		<text transform="matrix(0.885 0 0 1 497.0973 290.2769)"><tspan x="0" y="0" class="st9 st13 st14 st15">  </tspan><tspan x="26.1" y="0" class="st9 st13 st16 st17">sandwiches </tspan></text>
		<text transform="matrix(0.885 0 0 1 101.3595 292.4449)" class="st9 st13 st16 st17">ice cream</text>
		<path class="st18" d="M559.7,150.4c-28.7-27.6-74.5-47.4-127.7-53.1"/>
		<path class="st19" d="M254,141.3c28.2-23,69.2-39.1,116.2-44.1"/>
		<path class="st20" d="M431.9,102.8c53.4,6.5,94.5,24.2,123.6,51.8"/>
		<path class="st20" d="M256.8,145.1c35.5-25.6,65.7-36.6,113.2-42.6"/>
		<path class="st18" d="M559.5,150.2c-28.7-27.6-74.5-47.4-127.7-53.1"/>
		<path class="st19" d="M253.8,141.1c28.2-23,69.2-39.1,116.2-44.1"/>
		<path class="st20" d="M431.7,102.6c53.4,6.5,94.5,24.2,123.6,51.8"/>
		<path class="st20" d="M256.6,144.9c35.5-25.6,65.7-36.6,113.2-42.6"/>
		<path class="st9" d="M489.7,282.5c2.8,1.6,6.8-0.2,8.9-4c2-3.7,1.4-8-1.4-9.6c0,0-3.5,1.7-3.7,6.8
			C493.2,280.8,489.7,282.5,489.7,282.5z"/>
		<path class="st9" d="M496.1,269c-2.5-1.4-6.3,0.5-8.3,4.3c-2,3.7-1.6,7.9,0.9,9.3c0,0,3.3-1.8,3.7-6.8S496.1,269,496.1,269z"/>
		<path class="st9" d="M291.3,283c-2.5,1.4-6.3-0.5-8.3-4.3c-2-3.7-1.6-7.9,0.9-9.3c0,0,3.3,1.8,3.7,6.8S291.3,283,291.3,283z"/>
		<path class="st9" d="M284.9,268.9c2.5-1.4,6.3,0.5,8.3,4.3c2,3.7,1.6,7.9-0.9,9.3c0,0-3.3-1.8-3.7-6.8S284.9,268.9,284.9,268.9z"
			/>
		<path class="st9" d="M316.2,377.2c2.9,1.5,5.2,5.2,9,6.2c0.8,0.2,1.7,0.3,2.6,0.2c-0.9,2.5-2.6,3.8-4.2,3.4
			c-4.3-1.1-6.4-8.2-11.5-9.9c-0.2-0.1-0.4-0.1-0.7-0.2c4.1-6.8,6-10.2,9.9-17.1c-2.7,0.2-4.8,1.8-5.6,4.6c-0.4,1.3-0.1,1.7-0.2,1.9
			c-1.9-0.6-2.8-1.6-2.2-3.5c1.1-3.5,7.2-5.2,11.8-4c0.4,0.1,0.7,0.2,1.1,0.4C322.2,366.5,320.2,370.1,316.2,377.2z"/>
		<path class="st9" d="M334.4,372.6c0,0.1,0.2,0.1,0.3,0.1c1.3,0.3,3.4-0.1,4.8-0.6c0,0.3,0.1,0.5,0.1,0.8c-1.3,0.9-3.4,1.3-5.6,1.1
			c-1.6,4.9-5.4,7.3-9,6.4c-2.7-0.7-4.4-2.5-3.5-5.5c0.9-3.1,4.6-8.9,10.3-7.4C334.2,368,334,371.4,334.4,372.6z M331.6,373.5
			c-0.6-0.3-0.6-0.8-0.5-1.3c0.2-0.8,0.7-1.1,1.2-1.2c0.2-1.1,0-1.6-0.7-1.8c-2-0.5-5.1,3.9-5.7,6.6c-0.5,1.8-0.2,2.3,0.9,2.6
			C328.2,378.6,330.3,376.5,331.6,373.5z"/>
		<path class="st9" d="M345.3,373c0.1-0.7,0-1.2-0.6-1.3c-1.8-0.4-4.7,4.2-5.3,7.2c-0.4,1.8,0.2,2.4,1.6,2.7c2.3,0.5,4-0.5,5.8-1.7
			c0.4,0.1,0.6,0.1,1,0.2c-2.1,2.2-5.2,4.3-9.1,3.4c-2.8-0.6-4.4-2.3-3.7-5.3c0.7-3.1,4.1-9.1,9.8-8c2.5,0.5,2.9,1.9,2.7,3.1
			c-0.2,1.3-1.1,1.9-1.9,1.7c-0.3-0.1-0.6-0.2-0.9-0.5C345,374,345.2,373.5,345.3,373z"/>
		<path class="st9" d="M362.8,373.5c-1.3,3.6-2,5.4-3.3,9.1c-0.1,0.3-0.2,0.6-0.2,0.9c-0.1,0.8,0.2,1.2,1.1,1.3
			c1.2,0.2,2.1-1,2.7-2.3c0.5,0.1,0.7,0.1,1.2,0.2c-2.2,4.3-5,4.5-6.7,4.3c-1.7-0.2-2.6-1.3-2.6-3c-1.1,1.1-2.7,2.2-4.9,1.8
			c-2-0.3-3.8-1.8-3.2-5.1c0.7-3.7,4.1-9.1,9.1-8.3c1.6,0.3,2.2,1,2.1,1.7c0,0.1,0,0.1,0,0.2c0.2-0.6,0.3-0.8,0.5-1.4
			C360.3,373.2,361.2,373.3,362.8,373.5z M351.4,381.1c-0.4,2.1,0.6,2.3,1.1,2.4c0.9,0.1,2.2-0.5,2.8-2c0.9-2.4,1.4-3.6,2.3-6
			c0-0.3-0.1-1.1-1-1.2C354.3,373.9,351.9,378.5,351.4,381.1z"/>
		<path class="st9" d="M372.7,369c-1.9,5.8-2.8,8.8-4.8,14.6c-0.1,0.3-0.2,0.6-0.2,0.9c-0.1,0.8,0.3,1.1,1.1,1.1
			c1.2,0.1,2.3-0.8,2.9-2.2c0.5,0,0.7,0.1,1.2,0.1c-2.1,4.4-5.2,4.7-6.8,4.5c-1.8-0.2-3.1-1.4-2.8-3.7c0.1-0.5,0.2-1.1,0.5-1.8
			c1.9-5.4,2.9-8,4.7-13.4C370.2,369.1,371,369.1,372.7,369z"/>
		<path class="st9" d="M380.9,369.7c-1.7,5.9-2.6,8.8-4.4,14.7c-0.1,0.4-0.2,0.6-0.2,0.9c-0.1,0.8,0.3,1.1,1.1,1.1
			c1.2,0.1,2.3-0.9,2.8-2.3c0.5,0,0.7,0,1.2,0.1c-2,4.4-5,4.8-6.6,4.7c-1.8-0.1-3.1-1.3-2.9-3.6c0-0.5,0.2-1.1,0.4-1.8
			c1.8-5.4,2.6-8.1,4.3-13.6C378.4,369.9,379.2,369.8,380.9,369.7z"/>
		<path class="st9" d="M387.7,375.6c-1,3.7-1.5,5.6-2.5,9.3c-0.1,0.2-0.1,0.5-0.1,0.7c0,0.6,0.2,1.2,0.8,1.3c1.2,0.1,2-1,2.5-2.3
			c0.9-3.5,1.4-5.3,2.3-8.8c1.7,0,2.5,0.1,4.2,0.1c-1.5,6.4-2.3,9.6-3.9,16c-1,3.9-3.7,4.6-5.8,4.5c-1.9-0.1-3.6-1.4-3.5-3.2
			c0.1-2.6,2.6-3.2,5.5-3.9c0.1-0.5,0.2-0.7,0.3-1.2c-1.3,1.3-2.7,1.5-3.8,1.4c-1.8-0.1-3.2-1.2-3-3.5c0-0.5,0.2-1.1,0.3-1.8
			c1-3.5,1.5-5.3,2.5-8.8C385.2,375.5,386.1,375.5,387.7,375.6z M384.6,393.8c0.6,0,1.4-0.5,1.9-2.1c0.2-0.6,0.3-1,0.4-1.6
			c-1.9,0.5-3.4,1.2-3.5,2.7C383.4,393.2,383.9,393.8,384.6,393.8z"/>
		<path class="st9" d="M410.3,384.1c0.1,1.9,0.6,3.2,1.9,3.1c3-0.1,5.8-7.3,5.4-12.9c-0.2-3.2-1-4.8-3.9-4.6c-4.3,0.2-8,3.1-7.9,7.5
			c0,1.1,0.3,1.3,0.3,1.5c-1.8,0.1-3-0.6-3-2.3c-0.1-3.9,5.3-7.7,11.2-8c4.9-0.3,6.9,2.5,7.2,6.6c0.5,5.3-2.1,14.2-10,14.5
			c-3.2,0.1-5.5-1.3-5.6-5.4c-0.1-4.5,2.2-13,7.3-13.3c0.5,0,1,0,1.5,0.1C412.2,372.6,410.1,379.8,410.3,384.1z"/>
		<path class="st9" d="M428.5,374.1c-0.4,3.8-0.6,5.8-1.1,9.6c0,0.2,0,0.5,0,0.7c0.1,0.6,0.3,1.2,1,1.1c1.2-0.1,1.8-1.3,2.1-2.7
			c0.4-3.6,0.6-5.4,0.9-9.1c1.7-0.2,2.5-0.3,4.1-0.5c-0.3,3.8-0.5,5.8-0.9,9.6c0,0.4-0.1,0.8,0,1c0.1,0.6,0.4,0.9,1.1,0.8
			c2.9-0.4,4.2-6.9,3.8-9.9c-0.1,0.2-0.7,0.4-0.9,0.4c-0.7,0.1-1.2-0.6-1.2-1.2c-0.1-0.9,0.4-1.6,1.6-1.7c1.4-0.2,2,0.9,2.2,2.1
			c0.7,4.4-0.5,12.5-6.7,13.2c-2,0.2-3.3-0.4-3.9-1.9c-1.2,2.2-2.8,2.6-4,2.8c-1.8,0.2-3.3-0.7-3.5-3c0-0.5,0-1.1,0.1-1.8
			c0.5-3.6,0.7-5.4,1.2-9C426,374.4,426.8,374.3,428.5,374.1z"/>
		<path class="st9" d="M449.7,373.4c-1,0.2-1.6,1.5-1.8,2.9c-0.2,3.6-0.2,5.5-0.5,9.1c-1.7,0.3-2.6,0.4-4.3,0.7
			c0.4-5.7,0.6-8.5,0.9-14.2c1.6-0.3,2.5-0.4,4.1-0.7c0,0.6,0,0.9-0.1,1.5c1-1.5,2.2-2,3-2.2c1.8-0.4,3.3,0.3,3.8,2.4
			c0.5,2.2-0.3,5.8,0,7.3c0.1,0.7,0.5,1.1,1.4,0.9c1.3-0.3,1.6-1.4,2-2.9c0.5-0.1,0.7-0.2,1.2-0.3c-0.7,4.8-2.9,5.9-4.4,6.2
			c-2.6,0.5-3.8-0.8-4.1-2.4c-0.3-1.9,0.3-5.5,0-7.2C450.8,373.7,450.3,373.3,449.7,373.4z"/>
		<path class="st9" d="M465.7,379.5c2.3-0.6,3.4-2.1,4.5-4c0.4-0.1,0.6-0.2,1-0.3c-1,2.9-2.9,6.1-6.8,7c-2.8,0.7-4.9-0.2-5.6-3.3
			c-0.7-3.1-0.3-10,5.5-11.4c2.5-0.6,3.4,0.4,3.8,1.8c0.8,3.1-1.8,6.3-5.2,7.3c0.1,0.4,0.1,0.8,0.2,1.1
			C463.5,379.5,464.3,379.8,465.7,379.5z M464.9,368.9c-1.4,0.4-2.1,3.6-2.1,6.4c2.2-0.7,3.6-3.2,3.1-5.5
			C465.7,369.1,465.4,368.7,464.9,368.9z"/>
		<path class="st9" d="M482.8,372.4c0,0.3,0,0.6,0.1,0.8c0.2,0.6,0.6,1,1.5,0.7c0.5-0.2,0.7-0.3,0.9-0.5c0.5,1.9-0.8,3.2-2.3,3.7
			c-1.5,0.5-2.9,0.1-3.7-1.3c-0.5,1.4-1.6,2.9-3.5,3.4c-2,0.6-4.2-0.1-5.1-3.3c-1-3.6-0.1-10,4.7-11.4c1.6-0.5,2.4-0.1,2.7,0.7
			c0,0,0,0.1,0,0.1c-0.2-2.6-0.3-3.9-0.5-6.5c1.6-0.7,2.3-1.1,3.9-1.8C482.1,363.2,482.3,366.2,482.8,372.4z M478.2,366.6
			c-0.2-0.3-0.6-0.8-1.4-0.6c-2.4,0.7-2.6,5.9-1.9,8.5c0.6,2.1,1.5,1.8,2,1.7c0.8-0.2,1.8-1.2,1.7-2.6
			C478.5,370.8,478.4,369.4,478.2,366.6z"/>
		<path class="st9" d="M275.8,208.9c-1.1-1.8-1.7-2.6-2.8-4.4c2.3-1.4,3.4-2.2,5.7-3.5c1.1,1.8,1.6,2.7,2.7,4.5
			c2.1,3.4,6.2,5.5,10.5,3.1c4-2.2,4.5-6.7,2.6-10.3c-7.3-14.3-14.6-28.6-21.9-42.9c2.7-1.4,4.1-2.1,6.8-3.4
			c6.9,14.5,13.8,29,20.7,43.4c2.9,6.1,1.9,13.5-5.7,17.7C287.2,217,279.6,214.9,275.8,208.9z"/>
		<path class="st9" d="M320.2,200.3c-7.3-18.8-14.7-37.6-22-56.5c2.9-1.1,4.3-1.6,7.2-2.7c6.8,19,13.6,38,20.4,57
			C323.5,199,322.4,199.4,320.2,200.3z"/>
		<path class="st9" d="M360.7,141.8c-0.3,7.6-0.4,11.4-0.4,18.9c-0.5,10.8-0.6,16.2-0.6,26.9c-2.3,0.4-3.4,0.6-5.7,1.1
			c-4.1-9.8-6.2-14.7-10.8-24.4c-2.9-7.2-4.4-10.9-7.5-18c-0.1,0-0.2,0-0.3,0.1c1.8,7.6,2.7,11.4,4.5,19c2.2,10.7,3.3,16.1,5.5,26.8
			c-2.2,0.6-3.2,0.8-5.4,1.5c-4.7-19.7-9.2-39.4-13.6-59.2c3.3-0.9,5-1.3,8.3-2.1c5.9,11.6,11.4,23.4,16.6,35.4
			c1.6,4.8,2.4,7.3,3.9,12.1c-0.4-5.1-0.5-7.6-0.8-12.6c0-13,0.3-26,1-39c3.5-0.6,5.3-0.8,8.8-1.3c3.5,19.9,6.9,39.9,10,59.9
			c-2.3,0.3-3.4,0.4-5.7,0.7c-2.1-10.8-3.1-16.2-5.3-26.9c-0.9-7.6-1.3-11.4-2.1-19C360.8,141.7,360.8,141.7,360.7,141.8z"/>
		<path class="st9" d="M419.8,139.7c-2,7.3-2.9,11-4.6,18.4c-2.9,10.4-4.2,15.6-6.6,26.1c-2.3-0.1-3.5-0.1-5.8-0.2
			c-1.8-10.5-2.8-15.7-5.1-26.1c-1.2-7.7-1.9-11.6-3.3-19.3c-0.1,0-0.2,0-0.3,0c0,7.8,0.1,11.7,0.1,19.5
			c-0.3,10.9-0.4,16.4-0.6,27.3c-2.2,0.1-3.3,0.1-5.5,0.2c-0.2-20.3-0.2-40.5-0.1-60.8c3.4-0.1,5.1-0.2,8.5-0.2
			c3.2,12.6,5.9,25.4,8.2,38.2c0.5,5.1,0.7,7.6,1.1,12.7c0.8-5,1.2-7.5,2-12.5c2.8-12.7,6.1-25.3,9.6-37.8c3.5,0.2,5.3,0.4,8.8,0.7
			c-1,20.2-2.2,40.4-3.5,60.7c-2.3-0.2-3.5-0.4-5.8-0.5c0.4-11,0.6-16.5,0.8-27.4c0.8-7.6,1.3-11.4,2.1-19
			C420,139.7,419.9,139.7,419.8,139.7z"/>
		<path class="st9" d="M437.8,188.9c3.6-19.9,7.1-39.8,10.7-59.6c3,0.5,4.5,0.8,7.4,1.4c-4.1,19.8-8.2,39.6-12.3,59.3
			C441.3,189.5,440.1,189.3,437.8,188.9z"/>
		<path class="st9" d="M481.4,142.4c-3.5,11-6.9,22.1-10.4,33.1c5.7,1.8,8.5,2.8,14.1,4.9c-0.7,1.9-1.1,2.9-1.8,4.8
			c-5.5-2.1-8.3-3.1-13.8-4.8c-1.3,4.1-1.9,6.1-3.2,10.1c6.7,2.1,10,3.3,16.5,5.9c-0.8,1.9-1.2,2.9-1.9,4.8c-8.6-3.5-13-5-21.9-7.5
			c5.5-19.4,11-38.9,16.6-58.3c9.4,2.6,18.9,5.9,28,9.6c-0.7,1.9-1.1,2.8-1.9,4.6C493.6,146.5,489.6,145,481.4,142.4z"/>
		<path class="st9" d="M498.4,195.3c1.1-2.3,1.6-3.4,2.7-5.7c2.4,1.1,3.6,1.7,6,3c-1.1,2.2-1.7,3.4-2.9,5.6
			c-2.1,3.7-1.6,8.1,2.8,10.6c4.3,2.4,8.1,0.7,10.4-3.2c0.9-1.6,1.4-2.3,2.3-3.9c1.5-2.5-0.5-5.6-3.5-10c-5.2-7.5-9.7-13-7.2-18.4
			c1.9-4.1,2.9-6.1,4.8-10.2c3.1-6.6,10.2-9.5,19.8-4.2c8.6,4.7,10.5,12.3,6.7,18.5c-1.8,2.8-2.6,4.2-4.4,7.1
			c-2.4-1.5-3.6-2.2-6-3.6c1.7-2.8,2.5-4.3,4.2-7.1c2.1-3.6,1.9-7.6-3-10.3c-4-2.2-8.1-1.6-10.4,3c-2,3.9-3,5.9-5,9.8
			c-1.2,2.9,1.1,6.4,4.9,11.9c4,5.8,8,11.9,4.9,16.7c-1,1.6-1.6,2.5-2.6,4.1c-3.8,5.9-10.5,8.6-18.2,4.3
			C497.8,209.5,494.8,202.4,498.4,195.3z"/>
		<path class="st9" d="M275.5,208.6c-1.1-1.8-1.7-2.6-2.8-4.4c2.3-1.4,3.4-2.2,5.7-3.5c1.1,1.8,1.6,2.7,2.7,4.5
			c2.1,3.4,6.2,5.5,10.5,3.1c4-2.2,4.5-6.7,2.6-10.3c-7.3-14.3-14.6-28.6-21.9-42.9c2.7-1.4,4.1-2.1,6.8-3.4
			c6.9,14.5,13.8,29,20.7,43.4c2.9,6.1,1.9,13.5-5.7,17.7C286.9,216.7,279.3,214.6,275.5,208.6z"/>
		<path class="st9" d="M319.9,200c-7.3-18.8-14.7-37.6-22-56.5c2.9-1.1,4.3-1.6,7.2-2.7c6.8,19,13.6,38,20.4,57
			C323.2,198.7,322.1,199.1,319.9,200z"/>
		<path class="st9" d="M360.4,141.5c-0.3,7.6-0.4,11.4-0.4,18.9c-0.5,10.8-0.6,16.2-0.6,26.9c-2.3,0.4-3.4,0.6-5.7,1.1
			c-4.1-9.8-6.2-14.7-10.8-24.4c-2.9-7.2-4.4-10.9-7.5-18c-0.1,0-0.2,0-0.3,0.1c1.8,7.6,2.7,11.4,4.5,19c2.2,10.7,3.3,16.1,5.5,26.8
			c-2.2,0.6-3.2,0.8-5.4,1.5c-4.7-19.7-9.2-39.4-13.6-59.2c3.3-0.9,5-1.3,8.3-2.1c5.9,11.6,11.4,23.4,16.6,35.4
			c1.6,4.8,2.4,7.3,3.9,12.1c-0.4-5.1-0.5-7.6-0.8-12.6c0-13,0.3-26,1-39c3.5-0.6,5.3-0.8,8.8-1.3c3.5,19.9,6.9,39.9,10,59.9
			c-2.3,0.3-3.4,0.4-5.7,0.7c-2.1-10.8-3.1-16.2-5.3-26.9c-0.9-7.6-1.3-11.4-2.1-19C360.5,141.4,360.5,141.4,360.4,141.5z"/>
		<path class="st9" d="M419.5,139.4c-2,7.3-2.9,11-4.6,18.4c-2.9,10.4-4.2,15.6-6.6,26.1c-2.3-0.1-3.5-0.1-5.8-0.2
			c-1.8-10.5-2.8-15.7-5.1-26.1c-1.2-7.7-1.9-11.6-3.3-19.3c-0.1,0-0.2,0-0.3,0c0,7.8,0.1,11.7,0.1,19.5
			c-0.3,10.9-0.4,16.4-0.6,27.3c-2.2,0.1-3.3,0.1-5.5,0.2c-0.2-20.3-0.2-40.5-0.1-60.8c3.4-0.1,5.1-0.2,8.5-0.2
			c3.2,12.6,5.9,25.4,8.2,38.2c0.5,5.1,0.7,7.6,1.1,12.7c0.8-5,1.2-7.5,2-12.5c2.8-12.7,6.1-25.3,9.6-37.8c3.5,0.2,5.3,0.4,8.8,0.7
			c-1,20.2-2.2,40.4-3.5,60.7c-2.3-0.2-3.5-0.4-5.8-0.5c0.4-11,0.6-16.5,0.8-27.4c0.8-7.6,1.3-11.4,2.1-19
			C419.7,139.4,419.6,139.4,419.5,139.4z"/>
		<path class="st9" d="M437.5,188.6c3.6-19.9,7.1-39.8,10.7-59.6c3,0.5,4.5,0.8,7.4,1.4c-4.1,19.8-8.2,39.6-12.3,59.3
			C441,189.2,439.8,189,437.5,188.6z"/>
		<path class="st9" d="M481.1,142.1c-3.5,11-6.9,22.1-10.4,33.1c5.7,1.8,8.5,2.8,14.1,4.9c-0.7,1.9-1.1,2.9-1.8,4.8
			c-5.5-2.1-8.3-3.1-13.8-4.8c-1.3,4.1-1.9,6.1-3.2,10.1c6.7,2.1,10,3.3,16.5,5.9c-0.8,1.9-1.2,2.9-1.9,4.8c-8.6-3.5-13-5-21.9-7.5
			c5.5-19.4,11-38.9,16.6-58.3c9.4,2.6,18.9,5.9,28,9.6c-0.7,1.9-1.1,2.8-1.9,4.6C493.3,146.2,489.3,144.7,481.1,142.1z"/>
		<path class="st9" d="M498.1,195c1.1-2.3,1.6-3.4,2.7-5.7c2.4,1.1,3.6,1.7,6,3c-1.1,2.2-1.7,3.4-2.9,5.6c-2.1,3.7-1.6,8.1,2.8,10.6
			c4.3,2.4,8.1,0.7,10.4-3.2c0.9-1.6,1.4-2.3,2.3-3.9c1.5-2.5-0.5-5.6-3.5-10c-5.2-7.5-9.7-13-7.2-18.4c1.9-4.1,2.9-6.1,4.8-10.2
			c3.1-6.6,10.2-9.5,19.8-4.2c8.6,4.7,10.5,12.3,6.7,18.5c-1.8,2.8-2.6,4.2-4.4,7.1c-2.4-1.5-3.6-2.2-6-3.6c1.7-2.8,2.5-4.3,4.2-7.1
			c2.1-3.6,1.9-7.6-3-10.3c-4-2.2-8.1-1.6-10.4,3c-2,3.9-3,5.9-5,9.8c-1.2,2.9,1.1,6.4,4.9,11.9c4,5.8,8,11.9,4.9,16.7
			c-1,1.6-1.6,2.5-2.6,4.1c-3.8,5.9-10.5,8.6-18.2,4.3C497.5,209.2,494.5,202.1,498.1,195z"/>
	</g>
	<g>
		<g>
			<path class="st21" d="M740.9,452.7H86.1C71.7,452.7,60,441,60,426.7V51.2c0-14.3,11.7-26.1,26.1-26.1h654.9
				c14.3,0,26.1,11.7,26.1,26.1v375.4C767,441,755.3,452.7,740.9,452.7z"/>
			<g id="llamita_11_">
				<g class="st7">
					<path class="st9" d="M401.4,81.6c-1,1.9-2,3.8-2.9,5.5c-0.7,1.4-1.3,2.7-1.8,4c0,1.4,0.2,2.7,0.5,4c0.8,3.3,2.1,6.2,3.7,8.3
						c0.3,0.6,0.8,1,1.2,1.5c0.4,0.4,0.7,0.9,1.1,1.3c0.1,0.1,0.2,0.2,0.3,0.3c-0.9-1.1-1.9-2.7-2.2-4.9c-0.4-3,0.5-6.3,1.8-9.7
						c1.3-3.4,3.4-6.9,4.3-10.4c0.9-3.6,0.2-7.2-0.9-10.5c-0.9-2.4-1.9-4.6-2.9-6.5c0.3,1,0.6,2.1,0.7,3.2c0.4,2.3,0.4,4.9-0.3,7.3
						C403.5,77.5,402.4,79.6,401.4,81.6z"/>
					<path class="st9" d="M393.2,98.8c0.4,0.6,0.9,1.1,1.3,1.7c0.4,0.5,0.8,1,1.3,1.4c0.1,0.1,0.2,0.2,0.3,0.3c-1-1.2-2.2-3-2.5-5.5
						c-0.4-3.3,0.5-7,2-10.9c1.5-3.8,3.8-7.7,4.9-11.6c1-4,0.2-8.1-1-11.7c-1.3-3.6-2.9-6.8-4.5-9.3c-1.1-1.8-2.3-3.2-3.3-4.3
						c1,1.2,2.1,2.9,3.1,5.2c0.6,1.6,0.9,3.4,0.9,5.3c0,1.9-0.3,4-0.9,6.1c-1.2,4.1-3.3,8.1-4.8,12.3c-0.7,2.1-1.3,4.1-1.5,6.1
						c-0.2,1.9,0.1,3.9,0.5,5.8C389.9,93.2,391.4,96.4,393.2,98.8z"/>
				</g>
				<g>
					<g>
						<path class="st22" d="M401.2,81.4c-1,1.9-2,3.8-2.9,5.5c-0.7,1.4-1.3,2.7-1.8,4c0,1.4,0.2,2.7,0.5,4c0.8,3.3,2.1,6.2,3.7,8.3
							c0.3,0.6,0.8,1,1.2,1.5c0.4,0.4,0.7,0.9,1.1,1.3c0.1,0.1,0.2,0.2,0.3,0.3c-0.9-1.1-1.9-2.7-2.2-4.9c-0.4-3,0.5-6.3,1.8-9.7
							c1.3-3.4,3.4-6.9,4.3-10.4c0.9-3.6,0.2-7.2-0.9-10.5c-0.9-2.4-1.9-4.6-2.9-6.5c0.3,1,0.6,2.1,0.7,3.2c0.4,2.3,0.4,4.9-0.3,7.3
							C403.3,77.3,402.2,79.4,401.2,81.4z"/>
						<path class="st22" d="M393,98.6c0.4,0.6,0.9,1.1,1.3,1.7c0.4,0.5,0.8,1,1.3,1.4c0.1,0.1,0.2,0.2,0.3,0.3c-1-1.2-2.2-3-2.5-5.5
							c-0.4-3.3,0.5-7,2-10.9c1.5-3.8,3.8-7.7,4.9-11.6c1-4,0.2-8.1-1-11.7c-1.3-3.6-2.9-6.8-4.5-9.3c-1.1-1.8-2.3-3.2-3.3-4.3
							c1,1.2,2.1,2.9,3.1,5.2c0.6,1.6,0.9,3.4,0.9,5.3c0,1.9-0.3,4-0.9,6.1c-1.2,4.1-3.3,8.1-4.8,12.3c-0.7,2.1-1.3,4.1-1.5,6.1
							c-0.2,1.9,0.1,3.9,0.5,5.8C389.7,93,391.2,96.2,393,98.6z"/>
					</g>
				</g>
			</g>
			<g>
				<text transform="matrix(1 0 0 1 308.1899 302.2188)" class="st22 st10 st11 st12">Cafe</text>
				<text transform="matrix(0.885 0 0 1 496.6973 289.877)"><tspan x="0" y="0" class="st22 st13 st14 st15">  </tspan><tspan x="26.1" y="0" class="st22 st13 st16 st17">sandwiches </tspan></text>
				<text transform="matrix(0.885 0 0 1 100.9595 292.0449)" class="st22 st13 st16 st17">ice cream</text>
			</g>
			<g id="rayitas_10_" class="st23">
				<linearGradient id="SVGID_4_" gradientUnits="userSpaceOnUse" x1="1.3262" y1="-64.3223" x2="0.7515" y2="-13.7431">
					<stop  offset="0" style="stop-color:#E53B94"/>
					<stop  offset="1" style="stop-color:#ED4497"/>
				</linearGradient>
				<path class="st24" d="M64-13.5C35.4-40.4-9.9-59.4-62.3-64.3"/>
				<linearGradient id="SVGID_5_" gradientUnits="userSpaceOnUse" x1="-179.9678" y1="-65.0295" x2="-180.5044" y2="-17.8041">
					<stop  offset="0" style="stop-color:#E53B94"/>
					<stop  offset="1" style="stop-color:#ED4497"/>
				</linearGradient>
				<path class="st25" d="M-237-19c27.5-23,67.7-39.3,113.9-44.7"/>
				<linearGradient id="SVGID_6_" gradientUnits="userSpaceOnUse" x1="8.722185e-02" y1="-60.0494" x2="-0.4563" y2="-12.2197">
					<stop  offset="0" style="stop-color:#E53B94"/>
					<stop  offset="1" style="stop-color:#ED4497"/>
				</linearGradient>
				<path class="st26" d="M-62.3-60.6C-10.4-56,33.3-38.5,61.8-11.6"/>
				<linearGradient id="SVGID_7_" gradientUnits="userSpaceOnUse" x1="-178.7818" y1="-60.7734" x2="-179.2896" y2="-16.0921">
					<stop  offset="0" style="stop-color:#E53B94"/>
					<stop  offset="1" style="stop-color:#ED4497"/>
				</linearGradient>
				<path class="st27" d="M-234.9-16.9C-207.4-39.8-168.7-55-123.1-60"/>
			</g>
			<g>
				<g class="st7">
					<path class="st28" d="M559.3,150c-28.7-27.6-74.5-47.4-127.7-53.1"/>
					<path class="st29" d="M253.6,140.9c28.2-23,69.2-39.1,116.2-44.1"/>
					<path class="st30" d="M431.5,102.4c53.4,6.5,94.5,24.2,123.6,51.8"/>
					<path class="st30" d="M256.4,144.7c35.5-25.6,65.7-36.6,113.2-42.6"/>
				</g>
				<g>
					<g>
						<g id="fuscia_11_">
							<path class="st31" d="M559.1,149.8c-28.7-27.6-74.5-47.4-127.7-53.1"/>
							<path class="st32" d="M253.4,140.7c28.2-23,69.2-39.1,116.2-44.1"/>
							<path class="st33" d="M431.3,102.2c53.4,6.5,94.5,24.2,123.6,51.8"/>
							<path class="st33" d="M256.2,144.5c35.5-25.6,65.7-36.6,113.2-42.6"/>
						</g>
					</g>
				</g>
			</g>
			<g id="cafegrano_10_">
				<path class="st22" d="M489.3,282.1c2.8,1.6,6.8-0.2,8.9-4c2-3.7,1.4-8-1.4-9.6c0,0-3.5,1.7-3.7,6.8
					C492.8,280.4,489.3,282.1,489.3,282.1z"/>
				<path class="st22" d="M495.7,268.6c-2.5-1.4-6.3,0.5-8.3,4.3c-2,3.7-1.6,7.9,0.9,9.3c0,0,3.3-1.8,3.7-6.8
					S495.7,268.6,495.7,268.6z"/>
			</g>
			<g>
				<path class="st22" d="M290.9,282.6c-2.5,1.4-6.3-0.5-8.3-4.3c-2-3.7-1.6-7.9,0.9-9.3c0,0,3.3,1.8,3.7,6.8
					C287.6,280.9,290.9,282.6,290.9,282.6z"/>
				<path class="st22" d="M284.5,268.5c2.5-1.4,6.3,0.5,8.3,4.3c2,3.7,1.6,7.9-0.9,9.3c0,0-3.3-1.8-3.7-6.8
					C287.8,270.3,284.5,268.5,284.5,268.5z"/>
			</g>
			<g>
				<g>
					<path class="st22" d="M315.8,376.8c2.9,1.5,5.2,5.2,9,6.2c0.8,0.2,1.7,0.3,2.6,0.2c-0.9,2.5-2.6,3.8-4.2,3.4
						c-4.3-1.1-6.4-8.2-11.5-9.9c-0.2-0.1-0.4-0.1-0.7-0.2c4.1-6.8,6-10.2,9.9-17.1c-2.7,0.2-4.8,1.8-5.6,4.6
						c-0.4,1.3-0.1,1.7-0.2,1.9c-1.9-0.6-2.8-1.6-2.2-3.5c1.1-3.5,7.2-5.2,11.8-4c0.4,0.1,0.7,0.2,1.1,0.4
						C321.8,366.1,319.8,369.7,315.8,376.8z"/>
					<path class="st22" d="M334,372.2c0,0.1,0.2,0.1,0.3,0.1c1.3,0.3,3.4-0.1,4.8-0.6c0,0.3,0.1,0.5,0.1,0.8
						c-1.3,0.9-3.4,1.3-5.6,1.1c-1.6,4.9-5.4,7.3-9,6.4c-2.7-0.7-4.4-2.5-3.5-5.5c0.9-3.1,4.6-8.9,10.3-7.4
						C333.8,367.6,333.6,371,334,372.2z M331.2,373.1c-0.6-0.3-0.6-0.8-0.5-1.3c0.2-0.8,0.7-1.1,1.2-1.2c0.2-1.1,0-1.6-0.7-1.8
						c-2-0.5-5.1,3.9-5.7,6.6c-0.5,1.8-0.2,2.3,0.9,2.6C327.8,378.2,329.9,376.1,331.2,373.1z"/>
					<path class="st22" d="M344.9,372.6c0.1-0.7,0-1.2-0.6-1.3c-1.8-0.4-4.7,4.2-5.3,7.2c-0.4,1.8,0.2,2.4,1.6,2.7
						c2.3,0.5,4-0.5,5.8-1.7c0.4,0.1,0.6,0.1,1,0.2c-2.1,2.2-5.2,4.3-9.1,3.4c-2.8-0.6-4.4-2.3-3.7-5.3c0.7-3.1,4.1-9.1,9.8-8
						c2.5,0.5,2.9,1.9,2.7,3.1c-0.2,1.3-1.1,1.9-1.9,1.7c-0.3-0.1-0.6-0.2-0.9-0.5C344.6,373.6,344.8,373.1,344.9,372.6z"/>
					<path class="st22" d="M362.4,373.1c-1.3,3.6-2,5.4-3.3,9.1c-0.1,0.3-0.2,0.6-0.2,0.9c-0.1,0.8,0.2,1.2,1.1,1.3
						c1.2,0.2,2.1-1,2.7-2.3c0.5,0.1,0.7,0.1,1.2,0.2c-2.2,4.3-5,4.5-6.7,4.3c-1.7-0.2-2.6-1.3-2.6-3c-1.1,1.1-2.7,2.2-4.9,1.8
						c-2-0.3-3.8-1.8-3.2-5.1c0.7-3.7,4.1-9.1,9.1-8.3c1.6,0.3,2.2,1,2.1,1.7c0,0.1,0,0.1,0,0.2c0.2-0.6,0.3-0.8,0.5-1.4
						C359.9,372.8,360.8,372.9,362.4,373.1z M351,380.7c-0.4,2.1,0.6,2.3,1.1,2.4c0.9,0.1,2.2-0.5,2.8-2c0.9-2.4,1.4-3.6,2.3-6
						c0-0.3-0.1-1.1-1-1.2C353.9,373.5,351.5,378.1,351,380.7z"/>
					<path class="st22" d="M372.3,368.6c-1.9,5.8-2.8,8.8-4.8,14.6c-0.1,0.3-0.2,0.6-0.2,0.9c-0.1,0.8,0.3,1.1,1.1,1.1
						c1.2,0.1,2.3-0.8,2.9-2.2c0.5,0,0.7,0.1,1.2,0.1c-2.1,4.4-5.2,4.7-6.8,4.5c-1.8-0.2-3.1-1.4-2.8-3.7c0.1-0.5,0.2-1.1,0.5-1.8
						c1.9-5.4,2.9-8,4.7-13.4C369.8,368.7,370.6,368.7,372.3,368.6z"/>
					<path class="st22" d="M380.5,369.3c-1.7,5.9-2.6,8.8-4.4,14.7c-0.1,0.4-0.2,0.6-0.2,0.9c-0.1,0.8,0.3,1.1,1.1,1.1
						c1.2,0.1,2.3-0.9,2.8-2.3c0.5,0,0.7,0,1.2,0.1c-2,4.4-5,4.8-6.6,4.7c-1.8-0.1-3.1-1.3-2.9-3.6c0-0.5,0.2-1.1,0.4-1.8
						c1.8-5.4,2.6-8.1,4.3-13.6C378,369.5,378.8,369.4,380.5,369.3z"/>
					<path class="st22" d="M387.3,375.2c-1,3.7-1.5,5.6-2.5,9.3c-0.1,0.2-0.1,0.5-0.1,0.7c0,0.6,0.2,1.2,0.8,1.3
						c1.2,0.1,2-1,2.5-2.3c0.9-3.5,1.4-5.3,2.3-8.8c1.7,0,2.5,0.1,4.2,0.1c-1.5,6.4-2.3,9.6-3.9,16c-1,3.9-3.7,4.6-5.8,4.5
						c-1.9-0.1-3.6-1.4-3.5-3.2c0.1-2.6,2.6-3.2,5.5-3.9c0.1-0.5,0.2-0.7,0.3-1.2c-1.3,1.3-2.7,1.5-3.8,1.4c-1.8-0.1-3.2-1.2-3-3.5
						c0-0.5,0.2-1.1,0.3-1.8c1-3.5,1.5-5.3,2.5-8.8C384.8,375.1,385.7,375.1,387.3,375.2z M384.2,393.4c0.6,0,1.4-0.5,1.9-2.1
						c0.2-0.6,0.3-1,0.4-1.6c-1.9,0.5-3.4,1.2-3.5,2.7C383,392.8,383.5,393.4,384.2,393.4z"/>
					<path class="st22" d="M409.9,383.7c0.1,1.9,0.6,3.2,1.9,3.1c3-0.1,5.8-7.3,5.4-12.9c-0.2-3.2-1-4.8-3.9-4.6
						c-4.3,0.2-8,3.1-7.9,7.5c0,1.1,0.3,1.3,0.3,1.5c-1.8,0.1-3-0.6-3-2.3c-0.1-3.9,5.3-7.7,11.2-8c4.9-0.3,6.9,2.5,7.2,6.6
						c0.5,5.3-2.1,14.2-10,14.5c-3.2,0.1-5.5-1.3-5.6-5.4c-0.1-4.5,2.2-13,7.3-13.3c0.5,0,1,0,1.5,0.1
						C411.8,372.2,409.7,379.4,409.9,383.7z"/>
					<path class="st22" d="M428.1,373.7c-0.4,3.8-0.6,5.8-1.1,9.6c0,0.2,0,0.5,0,0.7c0.1,0.6,0.3,1.2,1,1.1c1.2-0.1,1.8-1.3,2.1-2.7
						c0.4-3.6,0.6-5.4,0.9-9.1c1.7-0.2,2.5-0.3,4.1-0.5c-0.3,3.8-0.5,5.8-0.9,9.6c0,0.4-0.1,0.8,0,1c0.1,0.6,0.4,0.9,1.1,0.8
						c2.9-0.4,4.2-6.9,3.8-9.9c-0.1,0.2-0.7,0.4-0.9,0.4c-0.7,0.1-1.2-0.6-1.2-1.2c-0.1-0.9,0.4-1.6,1.6-1.7c1.4-0.2,2,0.9,2.2,2.1
						c0.7,4.4-0.5,12.5-6.7,13.2c-2,0.2-3.3-0.4-3.9-1.9c-1.2,2.2-2.8,2.6-4,2.8c-1.8,0.2-3.3-0.7-3.5-3c0-0.5,0-1.1,0.1-1.8
						c0.5-3.6,0.7-5.4,1.2-9C425.6,374,426.4,373.9,428.1,373.7z"/>
					<path class="st22" d="M449.3,373c-1,0.2-1.6,1.5-1.8,2.9c-0.2,3.6-0.2,5.5-0.5,9.1c-1.7,0.3-2.6,0.4-4.3,0.7
						c0.4-5.7,0.6-8.5,0.9-14.2c1.6-0.3,2.5-0.4,4.1-0.7c0,0.6,0,0.9-0.1,1.5c1-1.5,2.2-2,3-2.2c1.8-0.4,3.3,0.3,3.8,2.4
						c0.5,2.2-0.3,5.8,0,7.3c0.1,0.7,0.5,1.1,1.4,0.9c1.3-0.3,1.6-1.4,2-2.9c0.5-0.1,0.7-0.2,1.2-0.3c-0.7,4.8-2.9,5.9-4.4,6.2
						c-2.6,0.5-3.8-0.8-4.1-2.4c-0.3-1.9,0.3-5.5,0-7.2C450.4,373.3,449.9,372.9,449.3,373z"/>
					<path class="st22" d="M465.3,379.1c2.3-0.6,3.4-2.1,4.5-4c0.4-0.1,0.6-0.2,1-0.3c-1,2.9-2.9,6.1-6.8,7
						c-2.8,0.7-4.9-0.2-5.6-3.3c-0.7-3.1-0.3-10,5.5-11.4c2.5-0.6,3.4,0.4,3.8,1.8c0.8,3.1-1.8,6.3-5.2,7.3c0.1,0.4,0.1,0.8,0.2,1.1
						C463.1,379.1,463.9,379.4,465.3,379.1z M464.5,368.5c-1.4,0.4-2.1,3.6-2.1,6.4c2.2-0.7,3.6-3.2,3.1-5.5
						C465.3,368.7,465,368.3,464.5,368.5z"/>
					<path class="st22" d="M482.4,372c0,0.3,0,0.6,0.1,0.8c0.2,0.6,0.6,1,1.5,0.7c0.5-0.2,0.7-0.3,0.9-0.5c0.5,1.9-0.8,3.2-2.3,3.7
						c-1.5,0.5-2.9,0.1-3.7-1.3c-0.5,1.4-1.6,2.9-3.5,3.4c-2,0.6-4.2-0.1-5.1-3.3c-1-3.6-0.1-10,4.7-11.4c1.6-0.5,2.4-0.1,2.7,0.7
						c0,0,0,0.1,0,0.1c-0.2-2.6-0.3-3.9-0.5-6.5c1.6-0.7,2.3-1.1,3.9-1.8C481.7,362.8,481.9,365.8,482.4,372z M477.8,366.2
						c-0.2-0.3-0.6-0.8-1.4-0.6c-2.4,0.7-2.6,5.9-1.9,8.5c0.6,2.1,1.5,1.8,2,1.7c0.8-0.2,1.8-1.2,1.7-2.6
						C478.1,370.4,478,369,477.8,366.2z"/>
				</g>
			</g>
			<g class="st23">
				<g class="st34">
					<path class="st35" d="M277.1,210.6c-1.1-1.8-1.7-2.6-2.8-4.4c2.3-1.4,3.4-2.2,5.7-3.5c1.1,1.8,1.6,2.7,2.7,4.5
						c2.1,3.4,6.2,5.5,10.5,3.1c4-2.2,4.5-6.7,2.6-10.3c-7.3-14.3-14.6-28.6-21.9-42.9c2.7-1.4,4.1-2.1,6.8-3.4
						c6.9,14.5,13.8,29,20.7,43.4c2.9,6.1,1.9,13.5-5.7,17.7C288.5,218.8,280.9,216.7,277.1,210.6z"/>
					<path class="st35" d="M321.5,202.1c-7.3-18.8-14.7-37.6-22-56.5c2.9-1.1,4.3-1.6,7.2-2.7c6.8,19,13.6,38,20.4,57
						C324.8,200.8,323.7,201.2,321.5,202.1z"/>
					<path class="st35" d="M362,143.6c-0.3,7.6-0.4,11.4-0.4,18.9c-0.5,10.8-0.6,16.2-0.6,26.9c-2.3,0.4-3.4,0.6-5.7,1.1
						c-4.1-9.8-6.2-14.7-10.8-24.4c-2.9-7.2-4.4-10.9-7.5-18c-0.1,0-0.2,0-0.3,0.1c1.8,7.6,2.7,11.4,4.5,19
						c2.2,10.7,3.3,16.1,5.5,26.8c-2.2,0.6-3.2,0.8-5.4,1.5c-4.7-19.7-9.2-39.4-13.6-59.2c3.3-0.9,5-1.3,8.3-2.1
						c5.9,11.6,11.4,23.4,16.6,35.4c1.6,4.8,2.4,7.3,3.9,12.1c-0.4-5.1-0.5-7.6-0.8-12.6c0-13,0.3-26,1-39c3.5-0.6,5.3-0.8,8.8-1.3
						c3.5,19.9,6.9,39.9,10,59.9c-2.3,0.3-3.4,0.4-5.7,0.7c-2.1-10.8-3.1-16.2-5.3-26.9c-0.9-7.6-1.3-11.4-2.1-19
						C362.1,143.5,362.1,143.5,362,143.6z"/>
					<path class="st35" d="M421.1,141.5c-2,7.3-2.9,11-4.6,18.4c-2.9,10.4-4.2,15.6-6.6,26.1c-2.3-0.1-3.5-0.1-5.8-0.2
						c-1.8-10.5-2.8-15.7-5.1-26.1c-1.2-7.7-1.9-11.6-3.3-19.3c-0.1,0-0.2,0-0.3,0c0,7.8,0.1,11.7,0.1,19.5
						c-0.3,10.9-0.4,16.4-0.6,27.3c-2.2,0.1-3.3,0.1-5.5,0.2c-0.2-20.3-0.2-40.5-0.1-60.8c3.4-0.1,5.1-0.2,8.5-0.2
						c3.2,12.6,5.9,25.4,8.2,38.2c0.5,5.1,0.7,7.6,1.1,12.7c0.8-5,1.2-7.5,2-12.5c2.8-12.7,6.1-25.3,9.6-37.8
						c3.5,0.2,5.3,0.4,8.8,0.7c-1,20.2-2.2,40.4-3.5,60.7c-2.3-0.2-3.5-0.4-5.8-0.5c0.4-11,0.6-16.5,0.8-27.4
						c0.8-7.6,1.3-11.4,2.1-19C421.3,141.5,421.2,141.5,421.1,141.5z"/>
					<path class="st35" d="M439.1,190.7c3.6-19.9,7.1-39.8,10.7-59.6c3,0.5,4.5,0.8,7.4,1.4c-4.1,19.8-8.2,39.6-12.3,59.3
						C442.6,191.3,441.4,191.1,439.1,190.7z"/>
					<path class="st35" d="M482.7,144.2c-3.5,11-6.9,22.1-10.4,33.1c5.7,1.8,8.5,2.8,14.1,4.9c-0.7,1.9-1.1,2.9-1.8,4.8
						c-5.5-2.1-8.3-3.1-13.8-4.8c-1.3,4.1-1.9,6.1-3.2,10.1c6.7,2.1,10,3.3,16.5,5.9c-0.8,1.9-1.2,2.9-1.9,4.8
						c-8.6-3.5-13-5-21.9-7.5c5.5-19.4,11-38.9,16.6-58.3c9.4,2.6,18.9,5.9,28,9.6c-0.7,1.9-1.1,2.8-1.9,4.6
						C494.9,148.2,490.9,146.8,482.7,144.2z"/>
					<path class="st35" d="M499.6,197.1c1.1-2.3,1.6-3.4,2.7-5.7c2.4,1.1,3.6,1.7,6,3c-1.1,2.2-1.7,3.4-2.9,5.6
						c-2.1,3.7-1.6,8.1,2.8,10.6c4.3,2.4,8.1,0.7,10.4-3.2c0.9-1.6,1.4-2.3,2.3-3.9c1.5-2.5-0.5-5.6-3.5-10
						c-5.2-7.5-9.7-13-7.2-18.4c1.9-4.1,2.9-6.1,4.8-10.2c3.1-6.6,10.2-9.5,19.8-4.2c8.6,4.7,10.5,12.3,6.7,18.5
						c-1.8,2.8-2.6,4.2-4.4,7.1c-2.4-1.5-3.6-2.2-6-3.6c1.7-2.8,2.5-4.3,4.2-7.1c2.1-3.6,1.9-7.6-3-10.3c-4-2.2-8.1-1.6-10.4,3
						c-2,3.9-3,5.9-5,9.8c-1.2,2.9,1.1,6.4,4.9,11.9c4,5.8,8,11.9,4.9,16.7c-1,1.6-1.6,2.5-2.6,4.1c-3.8,5.9-10.5,8.6-18.2,4.3
						C499,211.3,496.1,204.2,499.6,197.1z"/>
				</g>
			</g>
			<g>
				<g class="st7">
					<path class="st9" d="M275.4,208.5c-1.1-1.8-1.7-2.6-2.8-4.4c2.3-1.4,3.4-2.2,5.7-3.5c1.1,1.8,1.6,2.7,2.7,4.5
						c2.1,3.4,6.2,5.5,10.5,3.1c4-2.2,4.5-6.7,2.6-10.3c-7.3-14.3-14.6-28.6-21.9-42.9c2.7-1.4,4.1-2.1,6.8-3.4
						c6.9,14.5,13.8,29,20.7,43.4c2.9,6.1,1.9,13.5-5.7,17.7C286.8,216.6,279.2,214.5,275.4,208.5z"/>
					<path class="st9" d="M319.8,199.9c-7.3-18.8-14.7-37.6-22-56.5c2.9-1.1,4.3-1.6,7.2-2.7c6.8,19,13.6,38,20.4,57
						C323.1,198.6,322,199,319.8,199.9z"/>
					<path class="st9" d="M360.3,141.4c-0.3,7.6-0.4,11.4-0.4,18.9c-0.5,10.8-0.6,16.2-0.6,26.9c-2.3,0.4-3.4,0.6-5.7,1.1
						c-4.1-9.8-6.2-14.7-10.8-24.4c-2.9-7.2-4.4-10.9-7.5-18c-0.1,0-0.2,0-0.3,0.1c1.8,7.6,2.7,11.4,4.5,19
						c2.2,10.7,3.3,16.1,5.5,26.8c-2.2,0.6-3.2,0.8-5.4,1.5c-4.7-19.7-9.2-39.4-13.6-59.2c3.3-0.9,5-1.3,8.3-2.1
						c5.9,11.6,11.4,23.4,16.6,35.4c1.6,4.8,2.4,7.3,3.9,12.1c-0.4-5.1-0.5-7.6-0.8-12.6c0-13,0.3-26,1-39c3.5-0.6,5.3-0.8,8.8-1.3
						c3.5,19.9,6.9,39.9,10,59.9c-2.3,0.3-3.4,0.4-5.7,0.7c-2.1-10.8-3.1-16.2-5.3-26.9c-0.9-7.6-1.3-11.4-2.1-19
						C360.4,141.3,360.4,141.3,360.3,141.4z"/>
					<path class="st9" d="M419.4,139.3c-2,7.3-2.9,11-4.6,18.4c-2.9,10.4-4.2,15.6-6.6,26.1c-2.3-0.1-3.5-0.1-5.8-0.2
						c-1.8-10.5-2.8-15.7-5.1-26.1c-1.2-7.7-1.9-11.6-3.3-19.3c-0.1,0-0.2,0-0.3,0c0,7.8,0.1,11.7,0.1,19.5
						c-0.3,10.9-0.4,16.4-0.6,27.3c-2.2,0.1-3.3,0.1-5.5,0.2c-0.2-20.3-0.2-40.5-0.1-60.8c3.4-0.1,5.1-0.2,8.5-0.2
						c3.2,12.6,5.9,25.4,8.2,38.2c0.5,5.1,0.7,7.6,1.1,12.7c0.8-5,1.2-7.5,2-12.5c2.8-12.7,6.1-25.3,9.6-37.8
						c3.5,0.2,5.3,0.4,8.8,0.7c-1,20.2-2.2,40.4-3.5,60.7c-2.3-0.2-3.5-0.4-5.8-0.5c0.4-11,0.6-16.5,0.8-27.4
						c0.8-7.6,1.3-11.4,2.1-19C419.6,139.3,419.5,139.3,419.4,139.3z"/>
					<path class="st9" d="M437.4,188.5c3.6-19.9,7.1-39.8,10.7-59.6c3,0.5,4.5,0.8,7.4,1.4c-4.1,19.8-8.2,39.6-12.3,59.3
						C440.9,189.1,439.7,188.9,437.4,188.5z"/>
					<path class="st9" d="M481,142c-3.5,11-6.9,22.1-10.4,33.1c5.7,1.8,8.5,2.8,14.1,4.9c-0.7,1.9-1.1,2.9-1.8,4.8
						c-5.5-2.1-8.3-3.1-13.8-4.8c-1.3,4.1-1.9,6.1-3.2,10.1c6.7,2.1,10,3.3,16.5,5.9c-0.8,1.9-1.2,2.9-1.9,4.8
						c-8.6-3.5-13-5-21.9-7.5c5.5-19.4,11-38.9,16.6-58.3c9.4,2.6,18.9,5.9,28,9.6c-0.7,1.9-1.1,2.8-1.9,4.6
						C493.2,146.1,489.2,144.6,481,142z"/>
					<path class="st9" d="M498,194.9c1.1-2.3,1.6-3.4,2.7-5.7c2.4,1.1,3.6,1.7,6,3c-1.1,2.2-1.7,3.4-2.9,5.6
						c-2.1,3.7-1.6,8.1,2.8,10.6c4.3,2.4,8.1,0.7,10.4-3.2c0.9-1.6,1.4-2.3,2.3-3.9c1.5-2.5-0.5-5.6-3.5-10
						c-5.2-7.5-9.7-13-7.2-18.4c1.9-4.1,2.9-6.1,4.8-10.2c3.1-6.6,10.2-9.5,19.8-4.2c8.6,4.7,10.5,12.3,6.7,18.5
						c-1.8,2.8-2.6,4.2-4.4,7.1c-2.4-1.5-3.6-2.2-6-3.6c1.7-2.8,2.5-4.3,4.2-7.1c2.1-3.6,1.9-7.6-3-10.3c-4-2.2-8.1-1.6-10.4,3
						c-2,3.9-3,5.9-5,9.8c-1.2,2.9,1.1,6.4,4.9,11.9c4,5.8,8,11.9,4.9,16.7c-1,1.6-1.6,2.5-2.6,4.1c-3.8,5.9-10.5,8.6-18.2,4.3
						C497.4,209.1,494.4,202,498,194.9z"/>
				</g>
				<g>
					<g>
						<g>
							<path class="st22" d="M275.1,208.2c-1.1-1.8-1.7-2.6-2.8-4.4c2.3-1.4,3.4-2.2,5.7-3.5c1.1,1.8,1.6,2.7,2.7,4.5
								c2.1,3.4,6.2,5.5,10.5,3.1c4-2.2,4.5-6.7,2.6-10.3c-7.3-14.3-14.6-28.6-21.9-42.9c2.7-1.4,4.1-2.1,6.8-3.4
								c6.9,14.5,13.8,29,20.7,43.4c2.9,6.1,1.9,13.5-5.7,17.7C286.5,216.3,278.9,214.2,275.1,208.2z"/>
							<path class="st22" d="M319.5,199.6c-7.3-18.8-14.7-37.6-22-56.5c2.9-1.1,4.3-1.6,7.2-2.7c6.8,19,13.6,38,20.4,57
								C322.8,198.3,321.7,198.7,319.5,199.6z"/>
							<path class="st22" d="M360,141.1c-0.3,7.6-0.4,11.4-0.4,18.9c-0.5,10.8-0.6,16.2-0.6,26.9c-2.3,0.4-3.4,0.6-5.7,1.1
								c-4.1-9.8-6.2-14.7-10.8-24.4c-2.9-7.2-4.4-10.9-7.5-18c-0.1,0-0.2,0-0.3,0.1c1.8,7.6,2.7,11.4,4.5,19
								c2.2,10.7,3.3,16.1,5.5,26.8c-2.2,0.6-3.2,0.8-5.4,1.5c-4.7-19.7-9.2-39.4-13.6-59.2c3.3-0.9,5-1.3,8.3-2.1
								c5.9,11.6,11.4,23.4,16.6,35.4c1.6,4.8,2.4,7.3,3.9,12.1c-0.4-5.1-0.5-7.6-0.8-12.6c0-13,0.3-26,1-39
								c3.5-0.6,5.3-0.8,8.8-1.3c3.5,19.9,6.9,39.9,10,59.9c-2.3,0.3-3.4,0.4-5.7,0.7c-2.1-10.8-3.1-16.2-5.3-26.9
								c-0.9-7.6-1.3-11.4-2.1-19C360.1,141,360.1,141,360,141.1z"/>
							<path class="st22" d="M419.1,139c-2,7.3-2.9,11-4.6,18.4c-2.9,10.4-4.2,15.6-6.6,26.1c-2.3-0.1-3.5-0.1-5.8-0.2
								c-1.8-10.5-2.8-15.7-5.1-26.1c-1.2-7.7-1.9-11.6-3.3-19.3c-0.1,0-0.2,0-0.3,0c0,7.8,0.1,11.7,0.1,19.5
								c-0.3,10.9-0.4,16.4-0.6,27.3c-2.2,0.1-3.3,0.1-5.5,0.2c-0.2-20.3-0.2-40.5-0.1-60.8c3.4-0.1,5.1-0.2,8.5-0.2
								c3.2,12.6,5.9,25.4,8.2,38.2c0.5,5.1,0.7,7.6,1.1,12.7c0.8-5,1.2-7.5,2-12.5c2.8-12.7,6.1-25.3,9.6-37.8
								c3.5,0.2,5.3,0.4,8.8,0.7c-1,20.2-2.2,40.4-3.5,60.7c-2.3-0.2-3.5-0.4-5.8-0.5c0.4-11,0.6-16.5,0.8-27.4
								c0.8-7.6,1.3-11.4,2.1-19C419.3,139,419.2,139,419.1,139z"/>
							<path class="st22" d="M437.1,188.2c3.6-19.9,7.1-39.8,10.7-59.6c3,0.5,4.5,0.8,7.4,1.4c-4.1,19.8-8.2,39.6-12.3,59.3
								C440.6,188.8,439.4,188.6,437.1,188.2z"/>
							<path class="st22" d="M480.7,141.7c-3.5,11-6.9,22.1-10.4,33.1c5.7,1.8,8.5,2.8,14.1,4.9c-0.7,1.9-1.1,2.9-1.8,4.8
								c-5.5-2.1-8.3-3.1-13.8-4.8c-1.3,4.1-1.9,6.1-3.2,10.1c6.7,2.1,10,3.3,16.5,5.9c-0.8,1.9-1.2,2.9-1.9,4.8
								c-8.6-3.5-13-5-21.9-7.5c5.5-19.4,11-38.9,16.6-58.3c9.4,2.6,18.9,5.9,28,9.6c-0.7,1.9-1.1,2.8-1.9,4.6
								C492.9,145.8,488.9,144.3,480.7,141.7z"/>
							<path class="st22" d="M497.7,194.6c1.1-2.3,1.6-3.4,2.7-5.7c2.4,1.1,3.6,1.7,6,3c-1.1,2.2-1.7,3.4-2.9,5.6
								c-2.1,3.7-1.6,8.1,2.8,10.6c4.3,2.4,8.1,0.7,10.4-3.2c0.9-1.6,1.4-2.3,2.3-3.9c1.5-2.5-0.5-5.6-3.5-10
								c-5.2-7.5-9.7-13-7.2-18.4c1.9-4.1,2.9-6.1,4.8-10.2c3.1-6.6,10.2-9.5,19.8-4.2c8.6,4.7,10.5,12.3,6.7,18.5
								c-1.8,2.8-2.6,4.2-4.4,7.1c-2.4-1.5-3.6-2.2-6-3.6c1.7-2.8,2.5-4.3,4.2-7.1c2.1-3.6,1.9-7.6-3-10.3c-4-2.2-8.1-1.6-10.4,3
								c-2,3.9-3,5.9-5,9.8c-1.2,2.9,1.1,6.4,4.9,11.9c4,5.8,8,11.9,4.9,16.7c-1,1.6-1.6,2.5-2.6,4.1c-3.8,5.9-10.5,8.6-18.2,4.3
								C497.1,208.8,494.1,201.7,497.7,194.6z"/>
						</g>
					</g>
				</g>
			</g>
		</g>
	</g>
</g>
<g>
	<g class="st7">
		<polygon class="st9" points="470.1,250.6 480.5,224.8 482.6,236.7 492.4,237.6 		"/>
	</g>
	<g>
		<polygon class="st36" points="469.8,250.4 480.2,224.6 482.3,236.5 492.1,237.4 		"/>
	</g>
</g>
</svg>
