<?xml version="1.0" encoding="utf-8"?>
<!-- Generator: Adobe Illustrator 24.2.1, SVG Export Plug-In . SVG Version: 6.00 Build 0)  -->
<svg version="1.1" xmlns="http://www.w3.org/2000/svg" xmlns:xlink="http://www.w3.org/1999/xlink" x="0px" y="0px"
	 viewBox="0 0 616 832" style="enable-background:new 0 0 616 832;" xml:space="preserve">
<style type="text/css">
	.st0{fill:none;}
	.st1{fill:none;stroke:#231F20;stroke-width:0.5;}
	.st2{fill:#FFFFFF;}
	.st3{fill:none;stroke:#000000;stroke-width:0.3;stroke-linecap:square;}
	.st4{fill:url(#background_1_);}
	.st5{fill:url(#SVGID_1_);}
	.st6{fill:url(#SVGID_2_);}
	.st7{fill:#FCFDFF;}
	.st8{opacity:0.7;fill:url(#SVGID_3_);}
	.st9{opacity:0.7;}
	.st10{fill:url(#SVGID_4_);}
	.st11{fill:url(#SVGID_5_);}
	.st12{fill:url(#SVGID_6_);}
	.st13{fill:url(#SVGID_7_);}
	.st14{fill:url(#SVGID_8_);}
	.st15{fill:url(#SVGID_9_);}
	.st16{fill:url(#SVGID_10_);}
	.st17{fill:url(#SVGID_11_);}
	.st18{fill:url(#SVGID_12_);}
	.st19{opacity:0.4;fill:url(#SVGID_13_);}
	.st20{fill:url(#SVGID_14_);}
	.st21{fill:url(#SVGID_15_);}
	.st22{fill:url(#SVGID_16_);}
	.st23{fill:url(#SVGID_17_);enable-background:new    ;}
	.st24{fill:url(#SVGID_18_);}
	.st25{filter:url(#Adobe_OpacityMaskFilter);}
	.st26{opacity:0.8;mask:url(#SVGID_19_);}
	.st27{fill:#F6A2A2;}
	.st28{fill:url(#SVGID_20_);}
	.st29{fill:url(#SVGID_21_);}
	.st30{filter:url(#Adobe_OpacityMaskFilter_1_);}
	.st31{opacity:0.22;mask:url(#SVGID_22_);fill:#AF1F24;}
	.st32{fill:url(#SVGID_23_);}
	.st33{fill:url(#SVGID_24_);}
	.st34{fill:url(#SVGID_25_);}
	.st35{fill:url(#SVGID_26_);}
	.st36{fill:url(#SVGID_27_);}
	.st37{opacity:0.6;fill:url(#SVGID_28_);}
	.st38{fill:url(#SVGID_29_);}
	.st39{fill:url(#SVGID_30_);}
	.st40{fill:url(#SVGID_31_);}
	.st41{fill:url(#SVGID_32_);}
	.st42{fill:#F9EC31;}
	.st43{fill:#FAAF40;}
	.st44{fill:url(#SVGID_33_);}
	.st45{fill:url(#SVGID_34_);}
	.st46{fill:url(#SVGID_35_);}
	.st47{fill:url(#SVGID_36_);}
	.st48{fill:url(#SVGID_37_);}
	.st49{fill:url(#SVGID_38_);}
	.st50{fill:#D71921;}
	.st51{fill:#EC1C24;}
</style>
<pattern  width="72" height="72" patternUnits="userSpaceOnUse" id="Burlap" viewBox="11.7 -83 72 72" style="overflow:visible;">
	<g>
		<rect x="11.7" y="-83" class="st0" width="72" height="72"/>
		<line class="st1" x1="21.3" y1="-77.3" x2="21.3" y2="-62.7"/>
		<line class="st1" x1="23.8" y1="-74.3" x2="23.8" y2="-59.7"/>
		<line class="st1" x1="20.2" y1="-64.7" x2="20.2" y2="-50"/>
		<line class="st1" x1="27.5" y1="-64.3" x2="27.5" y2="-49.7"/>
		<line class="st1" x1="17.8" y1="-71.3" x2="17.8" y2="-56.7"/>
		<line class="st1" x1="29.8" y1="-74.3" x2="29.8" y2="-59.7"/>
		<line class="st1" x1="35.3" y1="-74.3" x2="35.3" y2="-59.7"/>
		<line class="st1" x1="36.7" y1="-70.7" x2="36.7" y2="-56"/>
		<line class="st1" x1="32.8" y1="-79.8" x2="32.8" y2="-65.2"/>
		<line class="st1" x1="26.3" y1="-77.8" x2="26.3" y2="-63.2"/>
		<line class="st1" x1="24.7" y1="-90.2" x2="24.7" y2="-75.5"/>
		<line class="st1" x1="22" y1="-92.5" x2="22" y2="-77.8"/>
		<line class="st1" x1="12.8" y1="-72" x2="27.5" y2="-72"/>
		<line class="st1" x1="8.2" y1="-76" x2="22.8" y2="-76"/>
		<line class="st1" x1="6.5" y1="-69.3" x2="21.2" y2="-69.3"/>
		<line class="st1" x1="24.8" y1="-75.7" x2="39.5" y2="-75.7"/>
		<line class="st1" x1="19.7" y1="-73.8" x2="34.3" y2="-73.8"/>
		<line class="st1" x1="23.3" y1="-65.7" x2="38" y2="-65.7"/>
		<line class="st1" x1="16.7" y1="-68.2" x2="31.3" y2="-68.2"/>
		<line class="st1" x1="50.2" y1="-73" x2="50.2" y2="-58.3"/>
		<line class="st1" x1="47.7" y1="-70" x2="47.7" y2="-55.3"/>
		<line class="st1" x1="53.7" y1="-67" x2="53.7" y2="-52.3"/>
		<line class="st1" x1="55" y1="-59.7" x2="55" y2="-45"/>
		<line class="st1" x1="56.3" y1="-67" x2="56.3" y2="-52.3"/>
		<line class="st1" x1="41.7" y1="-70" x2="41.7" y2="-55.3"/>
		<line class="st1" x1="31.5" y1="-66.7" x2="31.5" y2="-52"/>
		<line class="st1" x1="40" y1="-76.5" x2="40" y2="-61.8"/>
		<line class="st1" x1="38.3" y1="-79.8" x2="38.3" y2="-65.2"/>
		<line class="st1" x1="45.2" y1="-74.8" x2="45.2" y2="-60.2"/>
		<line class="st1" x1="53.7" y1="-68.3" x2="39" y2="-68.3"/>
		<line class="st1" x1="45.3" y1="-70.3" x2="30.7" y2="-70.3"/>
		<line class="st1" x1="54.2" y1="-64.8" x2="39.5" y2="-64.8"/>
		<line class="st1" x1="48.5" y1="-61" x2="33.8" y2="-61"/>
		<line class="st1" x1="57.2" y1="-62.8" x2="42.5" y2="-62.8"/>
		<line class="st1" x1="75" y1="-86.7" x2="75" y2="-72"/>
		<line class="st1" x1="82.5" y1="-81.8" x2="82.5" y2="-67.2"/>
		<line class="st1" x1="77.8" y1="-81.8" x2="77.8" y2="-67.2"/>
		<line class="st1" x1="70" y1="-81.8" x2="70" y2="-67.2"/>
		<line class="st1" x1="72.5" y1="-87.3" x2="72.5" y2="-72.7"/>
		<line class="st1" x1="49.2" y1="-86.7" x2="49.2" y2="-72"/>
		<line class="st1" x1="80.3" y1="-86.7" x2="80.3" y2="-72"/>
		<line class="st1" x1="87.5" y1="-80.2" x2="72.8" y2="-80.2"/>
		<line class="st1" x1="86" y1="-77.7" x2="71.3" y2="-77.7"/>
		<line class="st1" x1="82" y1="-73.2" x2="67.3" y2="-73.2"/>
		<line class="st1" x1="74" y1="-74.5" x2="59.3" y2="-74.5"/>
		<line class="st1" x1="91" y1="-74.7" x2="76.3" y2="-74.7"/>
		<line class="st1" x1="53.2" y1="-80.5" x2="53.2" y2="-65.8"/>
		<line class="st1" x1="54.8" y1="-88.5" x2="54.8" y2="-73.8"/>
		<line class="st1" x1="57.7" y1="-77.5" x2="57.7" y2="-62.8"/>
		<line class="st1" x1="51.7" y1="-74.5" x2="51.7" y2="-59.8"/>
		<line class="st1" x1="64.3" y1="-78.2" x2="64.3" y2="-63.5"/>
		<line class="st1" x1="73.8" y1="-74.2" x2="73.8" y2="-59.5"/>
		<line class="st1" x1="66.7" y1="-83" x2="66.7" y2="-68.3"/>
		<line class="st1" x1="61.8" y1="-82" x2="61.8" y2="-67.3"/>
		<line class="st1" x1="51.5" y1="-80.7" x2="66.2" y2="-80.7"/>
		<line class="st1" x1="58.7" y1="-78.8" x2="73.3" y2="-78.8"/>
		<line class="st1" x1="50.3" y1="-77.2" x2="65" y2="-77.2"/>
		<line class="st1" x1="51.2" y1="-72.3" x2="65.8" y2="-72.3"/>
		<line class="st1" x1="56.8" y1="-67.5" x2="71.5" y2="-67.5"/>
		<line class="st1" x1="60.5" y1="-69.5" x2="75.2" y2="-69.5"/>
		<line class="st1" x1="48.2" y1="-70.3" x2="62.8" y2="-70.3"/>
		<line class="st1" x1="43.2" y1="-81.3" x2="43.2" y2="-66.7"/>
		<line class="st1" x1="41.5" y1="-82" x2="41.5" y2="-67.3"/>
		<line class="st1" x1="35.5" y1="-81.3" x2="35.5" y2="-66.7"/>
		<line class="st1" x1="28.5" y1="-87.3" x2="28.5" y2="-72.7"/>
		<line class="st1" x1="13.7" y1="-44.7" x2="13.7" y2="-30"/>
		<line class="st1" x1="13.2" y1="-61.2" x2="13.2" y2="-46.5"/>
		<line class="st1" x1="13.5" y1="-87.5" x2="13.5" y2="-72.8"/>
		<line class="st1" x1="18.5" y1="-89.5" x2="18.5" y2="-74.8"/>
		<line class="st1" x1="16" y1="-84.5" x2="16" y2="-69.8"/>
		<line class="st1" x1="14.3" y1="-73.2" x2="14.3" y2="-58.5"/>
		<line class="st1" x1="12.3" y1="-75.7" x2="12.3" y2="-61"/>
		<line class="st1" x1="10" y1="-82.8" x2="24.7" y2="-82.8"/>
		<line class="st1" x1="18.3" y1="-81.2" x2="33" y2="-81.2"/>
		<line class="st1" x1="12.8" y1="-78.7" x2="27.5" y2="-78.7"/>
		<line class="st1" x1="34.8" y1="-78" x2="49.5" y2="-78"/>
		<line class="st1" x1="29.8" y1="-79.3" x2="44.5" y2="-79.3"/>
		<line class="st1" x1="31.8" y1="-82" x2="46.5" y2="-82"/>
		<line class="st1" x1="37.2" y1="-73.7" x2="51.8" y2="-73.7"/>
		<line class="st1" x1="53.3" y1="-58.8" x2="38.7" y2="-58.8"/>
		<line class="st1" x1="57.3" y1="-56.8" x2="42.7" y2="-56.8"/>
		<line class="st1" x1="51.7" y1="-54.5" x2="37" y2="-54.5"/>
		<line class="st1" x1="29.8" y1="-48.7" x2="29.8" y2="-34"/>
		<line class="st1" x1="33.3" y1="-42.7" x2="33.3" y2="-28"/>
		<line class="st1" x1="27.7" y1="-46.3" x2="13" y2="-46.3"/>
		<line class="st1" x1="38.7" y1="-42.3" x2="24" y2="-42.3"/>
		<line class="st1" x1="33.8" y1="-40.5" x2="19.2" y2="-40.5"/>
		<line class="st1" x1="36.8" y1="-38.5" x2="22.2" y2="-38.5"/>
		<line class="st1" x1="49.7" y1="-57.5" x2="49.7" y2="-42.8"/>
		<line class="st1" x1="51" y1="-51.7" x2="51" y2="-37"/>
		<line class="st1" x1="34.8" y1="-56.2" x2="34.8" y2="-41.5"/>
		<line class="st1" x1="38" y1="-61.5" x2="38" y2="-46.8"/>
		<line class="st1" x1="43.3" y1="-53.2" x2="43.3" y2="-38.5"/>
		<line class="st1" x1="46.3" y1="-58.7" x2="46.3" y2="-44"/>
		<line class="st1" x1="44.7" y1="-59" x2="44.7" y2="-44.3"/>
		<line class="st1" x1="39.8" y1="-56.7" x2="39.8" y2="-42"/>
		<line class="st1" x1="36.5" y1="-43.2" x2="51.2" y2="-43.2"/>
		<line class="st1" x1="39.2" y1="-41.8" x2="53.8" y2="-41.8"/>
		<line class="st1" x1="41.8" y1="-44.5" x2="56.5" y2="-44.5"/>
		<line class="st1" x1="41.8" y1="-49.8" x2="56.5" y2="-49.8"/>
		<line class="st1" x1="44.5" y1="-47.2" x2="59.2" y2="-47.2"/>
		<line class="st1" x1="57.8" y1="-49.8" x2="72.5" y2="-49.8"/>
		<line class="st1" x1="46.5" y1="-52.2" x2="61.2" y2="-52.2"/>
		<line class="st1" x1="73.2" y1="-66.5" x2="87.8" y2="-66.5"/>
		<line class="st1" x1="57.2" y1="-59.5" x2="71.8" y2="-59.5"/>
		<line class="st1" x1="55.2" y1="-61.8" x2="69.8" y2="-61.8"/>
		<line class="st1" x1="27.8" y1="-46" x2="42.5" y2="-46"/>
		<line class="st1" x1="28.2" y1="-48" x2="42.8" y2="-48"/>
		<line class="st1" x1="42" y1="-37.2" x2="27.3" y2="-37.2"/>
		<line class="st1" x1="33.7" y1="-62.2" x2="33.7" y2="-47.5"/>
		<line class="st1" x1="31.5" y1="-65.7" x2="31.5" y2="-51"/>
		<line class="st1" x1="22.5" y1="-57" x2="37.2" y2="-57"/>
		<line class="st1" x1="15.5" y1="-58.3" x2="30.2" y2="-58.3"/>
		<line class="st1" x1="17.2" y1="-60.3" x2="31.8" y2="-60.3"/>
		<line class="st1" x1="15.8" y1="-63" x2="30.5" y2="-63"/>
		<line class="st1" x1="25.2" y1="-63" x2="39.8" y2="-63"/>
		<line class="st1" x1="18.7" y1="-39.3" x2="18.7" y2="-24.7"/>
		<line class="st1" x1="21.2" y1="-36.3" x2="21.2" y2="-21.7"/>
		<line class="st1" x1="17.5" y1="-26.7" x2="17.5" y2="-12"/>
		<line class="st1" x1="14.5" y1="-29" x2="14.5" y2="-14.3"/>
		<line class="st1" x1="24.8" y1="-26.3" x2="24.8" y2="-11.7"/>
		<line class="st1" x1="27.2" y1="-36.3" x2="27.2" y2="-21.7"/>
		<line class="st1" x1="36.7" y1="-44.7" x2="36.7" y2="-30"/>
		<line class="st1" x1="70.2" y1="-23" x2="70.2" y2="-8.3"/>
		<line class="st1" x1="73" y1="-35.7" x2="73" y2="-21"/>
		<line class="st1" x1="69.7" y1="-19" x2="55" y2="-19"/>
		<line class="st1" x1="74.2" y1="-14.8" x2="59.5" y2="-14.8"/>
		<line class="st1" x1="71.5" y1="-12.8" x2="56.8" y2="-12.8"/>
		<line class="st1" x1="75.5" y1="-16.5" x2="60.8" y2="-16.5"/>
		<line class="st1" x1="75.2" y1="-30.5" x2="75.2" y2="-15.8"/>
		<line class="st1" x1="71.7" y1="-24.5" x2="71.7" y2="-9.8"/>
		<line class="st1" x1="60.3" y1="-35.2" x2="60.3" y2="-20.5"/>
		<line class="st1" x1="58.7" y1="-32.5" x2="58.7" y2="-17.8"/>
		<line class="st1" x1="56.7" y1="-26.7" x2="56.7" y2="-12"/>
		<line class="st1" x1="78.8" y1="-28.7" x2="78.8" y2="-14"/>
		<line class="st1" x1="80.5" y1="-34.7" x2="80.5" y2="-20"/>
		<line class="st1" x1="82.8" y1="-37" x2="82.8" y2="-22.3"/>
		<line class="st1" x1="76.8" y1="-17.5" x2="91.5" y2="-17.5"/>
		<line class="st1" x1="73.2" y1="-12.8" x2="87.8" y2="-12.8"/>
		<line class="st1" x1="78.5" y1="-14.8" x2="93.2" y2="-14.8"/>
		<line class="st1" x1="73.8" y1="-19.8" x2="88.5" y2="-19.8"/>
		<line class="st1" x1="70.8" y1="-26.5" x2="85.5" y2="-26.5"/>
		<line class="st1" x1="78.5" y1="-28.5" x2="93.2" y2="-28.5"/>
		<line class="st1" x1="75.2" y1="-24.2" x2="89.8" y2="-24.2"/>
		<line class="st1" x1="77" y1="-19" x2="77" y2="-4.3"/>
		<line class="st1" x1="81.3" y1="-21.7" x2="81.3" y2="-7"/>
		<line class="st1" x1="15.2" y1="-34.7" x2="29.8" y2="-34.7"/>
		<line class="st1" x1="19.8" y1="-15.3" x2="34.5" y2="-15.3"/>
		<line class="st1" x1="16.7" y1="-32.2" x2="31.3" y2="-32.2"/>
		<line class="st1" x1="20.7" y1="-27.7" x2="35.3" y2="-27.7"/>
		<line class="st1" x1="31.7" y1="-30.7" x2="46.3" y2="-30.7"/>
		<line class="st1" x1="12.5" y1="-30.5" x2="27.2" y2="-30.5"/>
		<line class="st1" x1="29.3" y1="-31" x2="29.3" y2="-16.3"/>
		<line class="st1" x1="44" y1="-33.3" x2="29.3" y2="-33.3"/>
		<line class="st1" x1="45.8" y1="-23" x2="31.2" y2="-23"/>
		<line class="st1" x1="47.5" y1="-21.3" x2="32.8" y2="-21.3"/>
		<line class="st1" x1="46" y1="-26.3" x2="31.3" y2="-26.3"/>
		<line class="st1" x1="50.7" y1="-29" x2="36" y2="-29"/>
		<line class="st1" x1="31" y1="-24.2" x2="31" y2="-9.5"/>
		<line class="st1" x1="24.2" y1="-45" x2="24.2" y2="-30.3"/>
		<line class="st1" x1="22.5" y1="-50.3" x2="22.5" y2="-35.7"/>
		<line class="st1" x1="25.5" y1="-53.3" x2="25.5" y2="-38.7"/>
		<line class="st1" x1="20.2" y1="-51.7" x2="20.2" y2="-37"/>
		<line class="st1" x1="16.5" y1="-50.7" x2="16.5" y2="-36"/>
		<line class="st1" x1="18.5" y1="-55.3" x2="18.5" y2="-40.7"/>
		<line class="st1" x1="19.8" y1="-19" x2="34.5" y2="-19"/>
		<line class="st1" x1="12.7" y1="-20.7" x2="27.3" y2="-20.7"/>
		<line class="st1" x1="14.5" y1="-22.3" x2="29.2" y2="-22.3"/>
		<line class="st1" x1="41.2" y1="-33" x2="41.2" y2="-18.3"/>
		<line class="st1" x1="38.2" y1="-40" x2="38.2" y2="-25.3"/>
		<line class="st1" x1="37.5" y1="-23.3" x2="37.5" y2="-8.7"/>
		<line class="st1" x1="44.8" y1="-23" x2="44.8" y2="-8.3"/>
		<line class="st1" x1="35.2" y1="-30" x2="35.2" y2="-15.3"/>
		<line class="st1" x1="47.2" y1="-33" x2="47.2" y2="-18.3"/>
		<line class="st1" x1="42.7" y1="-24.2" x2="42.7" y2="-9.5"/>
		<line class="st1" x1="39.7" y1="-28.2" x2="39.7" y2="-13.5"/>
		<line class="st1" x1="39.8" y1="-12" x2="54.5" y2="-12"/>
		<line class="st1" x1="41.8" y1="-14.3" x2="56.5" y2="-14.3"/>
		<line class="st1" x1="48.8" y1="-25.3" x2="48.8" y2="-10.7"/>
		<line class="st1" x1="44.2" y1="-37.7" x2="44.2" y2="-23"/>
		<line class="st1" x1="66.7" y1="-25.3" x2="66.7" y2="-10.7"/>
		<line class="st1" x1="59.7" y1="-17.3" x2="59.7" y2="-2.7"/>
		<line class="st1" x1="45.8" y1="-42.3" x2="45.8" y2="-27.7"/>
		<line class="st1" x1="39.8" y1="-15.7" x2="54.5" y2="-15.7"/>
		<line class="st1" x1="32.8" y1="-17" x2="47.5" y2="-17"/>
		<line class="st1" x1="24.8" y1="-13.7" x2="39.5" y2="-13.7"/>
		<line class="st1" x1="19.5" y1="-12.3" x2="34.2" y2="-12.3"/>
		<line class="st1" x1="34.5" y1="-19" x2="49.2" y2="-19"/>
		<line class="st1" x1="13.2" y1="-25" x2="27.8" y2="-25"/>
		<line class="st1" x1="22.5" y1="-25" x2="37.2" y2="-25"/>
		<line class="st1" x1="28.2" y1="-52.2" x2="42.8" y2="-52.2"/>
		<line class="st1" x1="19.5" y1="-55" x2="34.2" y2="-55"/>
		<line class="st1" x1="18.3" y1="-49.7" x2="33" y2="-49.7"/>
		<line class="st1" x1="11" y1="-52" x2="25.7" y2="-52"/>
		<line class="st1" x1="58.8" y1="-65.7" x2="58.8" y2="-51"/>
		<line class="st1" x1="62.5" y1="-55.7" x2="62.5" y2="-41"/>
		<line class="st1" x1="64.5" y1="-63" x2="64.5" y2="-48.3"/>
		<line class="st1" x1="70.3" y1="-65.7" x2="70.3" y2="-51"/>
		<line class="st1" x1="71.7" y1="-62" x2="71.7" y2="-47.3"/>
		<line class="st1" x1="67.8" y1="-71.2" x2="67.8" y2="-56.5"/>
		<line class="st1" x1="60.3" y1="-69.2" x2="60.3" y2="-54.5"/>
		<line class="st1" x1="58.3" y1="-57" x2="73" y2="-57"/>
		<line class="st1" x1="46.5" y1="-86.7" x2="46.5" y2="-72"/>
		<line class="st1" x1="52" y1="-34.7" x2="52" y2="-20"/>
		<line class="st1" x1="53.3" y1="-27.3" x2="53.3" y2="-12.7"/>
		<line class="st1" x1="50" y1="-37.7" x2="50" y2="-23"/>
		<line class="st1" x1="54.7" y1="-34.7" x2="54.7" y2="-20"/>
		<line class="st1" x1="76.7" y1="-61.3" x2="76.7" y2="-46.7"/>
		<line class="st1" x1="66.5" y1="-58" x2="66.5" y2="-43.3"/>
		<line class="st1" x1="75" y1="-67.8" x2="75" y2="-53.2"/>
		<line class="st1" x1="78.7" y1="-72.5" x2="78.7" y2="-57.8"/>
		<line class="st1" x1="80.2" y1="-70.3" x2="80.2" y2="-55.7"/>
		<line class="st1" x1="82.2" y1="-65.5" x2="82.2" y2="-50.8"/>
		<line class="st1" x1="88.7" y1="-59.7" x2="74" y2="-59.7"/>
		<line class="st1" x1="81.7" y1="-62.7" x2="67" y2="-62.7"/>
		<line class="st1" x1="76" y1="-65" x2="61.3" y2="-65"/>
		<line class="st1" x1="80.3" y1="-71.3" x2="65.7" y2="-71.3"/>
		<line class="st1" x1="89.2" y1="-56.2" x2="74.5" y2="-56.2"/>
		<line class="st1" x1="83.5" y1="-52.3" x2="68.8" y2="-52.3"/>
		<line class="st1" x1="92.2" y1="-54.2" x2="77.5" y2="-54.2"/>
		<line class="st1" x1="53.5" y1="-48.2" x2="53.5" y2="-33.5"/>
		<line class="st1" x1="56" y1="-45.2" x2="56" y2="-30.5"/>
		<line class="st1" x1="71.3" y1="-42.2" x2="71.3" y2="-27.5"/>
		<line class="st1" x1="58.5" y1="-48.7" x2="58.5" y2="-34"/>
		<line class="st1" x1="49.5" y1="-40" x2="64.2" y2="-40"/>
		<line class="st1" x1="55.2" y1="-35.2" x2="69.8" y2="-35.2"/>
		<line class="st1" x1="77.8" y1="-64.3" x2="92.5" y2="-64.3"/>
		<line class="st1" x1="88.3" y1="-50.2" x2="73.7" y2="-50.2"/>
		<line class="st1" x1="92.3" y1="-48.2" x2="77.7" y2="-48.2"/>
		<line class="st1" x1="86.7" y1="-45.8" x2="72" y2="-45.8"/>
		<line class="st1" x1="64.8" y1="-40" x2="64.8" y2="-25.3"/>
		<line class="st1" x1="68.3" y1="-34" x2="68.3" y2="-19.3"/>
		<line class="st1" x1="64.3" y1="-26.3" x2="64.3" y2="-11.7"/>
		<line class="st1" x1="62" y1="-28.7" x2="62" y2="-14"/>
		<line class="st1" x1="71.8" y1="-29.8" x2="57.2" y2="-29.8"/>
		<line class="st1" x1="63.8" y1="-32.5" x2="49.2" y2="-32.5"/>
		<line class="st1" x1="53.5" y1="-35.5" x2="38.8" y2="-35.5"/>
		<line class="st1" x1="63.7" y1="-51.2" x2="63.7" y2="-36.5"/>
		<line class="st1" x1="50.7" y1="-19.3" x2="50.7" y2="-4.7"/>
		<line class="st1" x1="76.7" y1="-36.2" x2="76.7" y2="-21.5"/>
		<line class="st1" x1="69.8" y1="-47.5" x2="69.8" y2="-32.8"/>
		<line class="st1" x1="73" y1="-52.8" x2="73" y2="-38.2"/>
		<line class="st1" x1="66.3" y1="-41.5" x2="66.3" y2="-26.8"/>
		<line class="st1" x1="78.3" y1="-44.5" x2="78.3" y2="-29.8"/>
		<line class="st1" x1="81.3" y1="-50" x2="81.3" y2="-35.3"/>
		<line class="st1" x1="79.7" y1="-50.3" x2="79.7" y2="-35.7"/>
		<line class="st1" x1="74.8" y1="-48" x2="74.8" y2="-33.3"/>
		<line class="st1" x1="71.5" y1="-34.5" x2="86.2" y2="-34.5"/>
		<line class="st1" x1="74.8" y1="-31.5" x2="89.5" y2="-31.5"/>
		<line class="st1" x1="76.8" y1="-35.8" x2="91.5" y2="-35.8"/>
		<line class="st1" x1="76.8" y1="-41.2" x2="91.5" y2="-41.2"/>
		<line class="st1" x1="79.5" y1="-38.5" x2="94.2" y2="-38.5"/>
		<line class="st1" x1="81.5" y1="-43.5" x2="96.2" y2="-43.5"/>
		<line class="st1" x1="49.8" y1="-21.2" x2="64.5" y2="-21.2"/>
		<line class="st1" x1="54.2" y1="-23.8" x2="68.8" y2="-23.8"/>
		<line class="st1" x1="53.5" y1="-28.5" x2="68.2" y2="-28.5"/>
		<line class="st1" x1="37.8" y1="-38.5" x2="52.5" y2="-38.5"/>
		<line class="st1" x1="62.8" y1="-37.3" x2="77.5" y2="-37.3"/>
		<line class="st1" x1="63.2" y1="-39.3" x2="77.8" y2="-39.3"/>
		<line class="st1" x1="68.7" y1="-53.5" x2="68.7" y2="-38.8"/>
		<line class="st1" x1="66.5" y1="-57" x2="66.5" y2="-42.3"/>
		<line class="st1" x1="60.2" y1="-51.3" x2="60.2" y2="-36.7"/>
		<line class="st1" x1="57.5" y1="-45.7" x2="72.2" y2="-45.7"/>
		<line class="st1" x1="60.2" y1="-54.3" x2="74.8" y2="-54.3"/>
		<line class="st1" x1="63.2" y1="-43.5" x2="77.8" y2="-43.5"/>
		<line class="st1" x1="80.2" y1="-76" x2="94.8" y2="-76"/>
		<line class="st1" x1="78.5" y1="-69.3" x2="93.2" y2="-69.3"/>
		<line class="st1" x1="15.5" y1="-80.2" x2="0.8" y2="-80.2"/>
		<line class="st1" x1="19" y1="-74.7" x2="4.3" y2="-74.7"/>
		<line class="st1" x1="1.2" y1="-66.5" x2="15.8" y2="-66.5"/>
		<line class="st1" x1="4.8" y1="-17.5" x2="19.5" y2="-17.5"/>
		<line class="st1" x1="1.2" y1="-12.8" x2="15.8" y2="-12.8"/>
		<line class="st1" x1="6.5" y1="-14.8" x2="21.2" y2="-14.8"/>
		<line class="st1" x1="1.8" y1="-19.8" x2="16.5" y2="-19.8"/>
		<line class="st1" x1="6.5" y1="-28.5" x2="21.2" y2="-28.5"/>
		<line class="st1" x1="3.2" y1="-24.2" x2="17.8" y2="-24.2"/>
		<line class="st1" x1="16.7" y1="-59.7" x2="2" y2="-59.7"/>
		<line class="st1" x1="17.2" y1="-56.2" x2="2.5" y2="-56.2"/>
		<line class="st1" x1="20.2" y1="-54.2" x2="5.5" y2="-54.2"/>
		<line class="st1" x1="5.8" y1="-64.3" x2="20.5" y2="-64.3"/>
		<line class="st1" x1="16.3" y1="-50.2" x2="1.7" y2="-50.2"/>
		<line class="st1" x1="20.3" y1="-48.2" x2="5.7" y2="-48.2"/>
		<line class="st1" x1="14.7" y1="-45.8" x2="0" y2="-45.8"/>
		<line class="st1" x1="2.8" y1="-31.5" x2="17.5" y2="-31.5"/>
		<line class="st1" x1="4.8" y1="-35.8" x2="19.5" y2="-35.8"/>
		<line class="st1" x1="4.8" y1="-41.2" x2="19.5" y2="-41.2"/>
		<line class="st1" x1="7.5" y1="-38.5" x2="22.2" y2="-38.5"/>
		<line class="st1" x1="9.5" y1="-43.5" x2="24.2" y2="-43.5"/>
		<line class="st1" x1="70.2" y1="-95" x2="70.2" y2="-80.3"/>
		<line class="st1" x1="77" y1="-91" x2="77" y2="-76.3"/>
		<line class="st1" x1="81.3" y1="-93.7" x2="81.3" y2="-79"/>
		<line class="st1" x1="31" y1="-96.2" x2="31" y2="-81.5"/>
		<line class="st1" x1="37.5" y1="-95.3" x2="37.5" y2="-80.7"/>
		<line class="st1" x1="44.8" y1="-95" x2="44.8" y2="-80.3"/>
		<line class="st1" x1="42.7" y1="-96.2" x2="42.7" y2="-81.5"/>
		<line class="st1" x1="59.7" y1="-89.3" x2="59.7" y2="-74.7"/>
		<line class="st1" x1="50.7" y1="-91.3" x2="50.7" y2="-76.7"/>
		<line class="st1" x1="24.7" y1="-18.2" x2="24.7" y2="-3.5"/>
		<line class="st1" x1="22" y1="-20.5" x2="22" y2="-5.8"/>
		<line class="st1" x1="75" y1="-14.7" x2="75" y2="0"/>
		<line class="st1" x1="72.5" y1="-15.3" x2="72.5" y2="-0.7"/>
		<line class="st1" x1="49.2" y1="-14.7" x2="49.2" y2="0"/>
		<line class="st1" x1="80.3" y1="-14.7" x2="80.3" y2="0"/>
		<line class="st1" x1="54.8" y1="-16.5" x2="54.8" y2="-1.8"/>
		<line class="st1" x1="28.5" y1="-15.3" x2="28.5" y2="-0.7"/>
		<line class="st1" x1="13.5" y1="-15.5" x2="13.5" y2="-0.8"/>
		<line class="st1" x1="18.5" y1="-17.5" x2="18.5" y2="-2.8"/>
		<line class="st1" x1="46.5" y1="-14.7" x2="46.5" y2="0"/>
		<line class="st1" x1="70.2" y1="-23" x2="70.2" y2="-8.3"/>
		<line class="st1" x1="44.8" y1="-23" x2="44.8" y2="-8.3"/>
	</g>
</pattern>
<pattern  width="72" height="72" patternUnits="userSpaceOnUse" id="Lines" viewBox="16.8 -73.8 72 72" style="overflow:visible;">
	<g>
		<rect x="16.8" y="-73.8" class="st0" width="72" height="72"/>
		<line class="st2" x1="0.8" y1="-7.8" x2="6.8" y2="-1.8"/>
		<line class="st2" x1="0.8" y1="-1.8" x2="6.8" y2="-7.8"/>
		<line class="st3" x1="15.8" y1="-64.2" x2="38.5" y2="-64.2"/>
		<line class="st3" x1="28.7" y1="-69.9" x2="72.5" y2="-69.9"/>
		<line class="st3" x1="33" y1="-64.2" x2="33" y2="-69.9"/>
		<line class="st3" x1="51.2" y1="-68.2" x2="82.7" y2="-68.2"/>
		<line class="st3" x1="37.2" y1="-66.4" x2="76.7" y2="-66.4"/>
		<line class="st3" x1="65.7" y1="-56.9" x2="86" y2="-56.9"/>
		<line class="st3" x1="79" y1="-56.9" x2="79" y2="-60.4"/>
		<line class="st3" x1="87.5" y1="-59.9" x2="81.2" y2="-59.9"/>
		<line class="st3" x1="23" y1="-59.9" x2="15.8" y2="-59.9"/>
		<line class="st3" x1="21.7" y1="-56.9" x2="46" y2="-56.9"/>
		<line class="st3" x1="55" y1="-64.2" x2="88" y2="-64.2"/>
		<line class="st3" x1="35.7" y1="-59.9" x2="60" y2="-59.9"/>
		<line class="st3" x1="68.2" y1="-51.7" x2="89.8" y2="-51.7"/>
		<line class="st3" x1="68" y1="-50.4" x2="89.8" y2="-50.4"/>
		<line class="st3" x1="24" y1="-51.7" x2="42.7" y2="-51.7"/>
		<line class="st3" x1="23.7" y1="-50.4" x2="36.2" y2="-50.4"/>
		<line class="st3" x1="38.5" y1="-54.7" x2="62.7" y2="-54.7"/>
		<line class="st3" x1="50.2" y1="-48.4" x2="70.5" y2="-48.4"/>
		<line class="st3" x1="63.5" y1="-48.4" x2="63.5" y2="-51.9"/>
		<line class="st3" x1="15.8" y1="-48.4" x2="39.7" y2="-48.4"/>
		<line class="st3" x1="20.7" y1="-48.4" x2="20.7" y2="-51.9"/>
		<line class="st3" x1="74.7" y1="-48.4" x2="87.2" y2="-48.4"/>
		<line class="st3" x1="46.5" y1="-51.7" x2="50.2" y2="-51.7"/>
		<line class="st3" x1="15.8" y1="-39.2" x2="46.5" y2="-39.2"/>
		<line class="st3" x1="36.7" y1="-44.9" x2="80.5" y2="-44.9"/>
		<line class="st3" x1="41" y1="-39.2" x2="41" y2="-44.9"/>
		<line class="st3" x1="59.2" y1="-43.2" x2="89.8" y2="-43.2"/>
		<line class="st3" x1="45.2" y1="-41.4" x2="84.7" y2="-41.4"/>
		<line class="st3" x1="73.7" y1="-31.9" x2="89.8" y2="-31.9"/>
		<line class="st3" x1="87" y1="-31.9" x2="87" y2="-35.4"/>
		<line class="st3" x1="72.7" y1="-34.9" x2="70.7" y2="-34.9"/>
		<line class="st3" x1="31" y1="-34.9" x2="24.7" y2="-34.9"/>
		<line class="st3" x1="29.7" y1="-31.9" x2="54" y2="-31.9"/>
		<line class="st3" x1="63.5" y1="-39.2" x2="89.8" y2="-39.2"/>
		<line class="st3" x1="43.7" y1="-34.9" x2="68" y2="-34.9"/>
		<line class="st3" x1="76.2" y1="-26.7" x2="89.8" y2="-26.7"/>
		<line class="st3" x1="76" y1="-25.4" x2="89.8" y2="-25.4"/>
		<line class="st3" x1="32" y1="-26.7" x2="50.7" y2="-26.7"/>
		<line class="st3" x1="31.7" y1="-25.4" x2="44.2" y2="-25.4"/>
		<line class="st3" x1="46.5" y1="-29.7" x2="70.7" y2="-29.7"/>
		<line class="st3" x1="58.2" y1="-23.4" x2="78.5" y2="-23.4"/>
		<line class="st3" x1="71.5" y1="-23.4" x2="71.5" y2="-26.9"/>
		<line class="st3" x1="15.8" y1="-23.4" x2="47.7" y2="-23.4"/>
		<line class="st3" x1="28.7" y1="-23.4" x2="28.7" y2="-26.9"/>
		<line class="st3" x1="82.7" y1="-23.4" x2="89.8" y2="-23.4"/>
		<line class="st3" x1="54.5" y1="-26.7" x2="58.2" y2="-26.7"/>
		<line class="st3" x1="15.8" y1="-14.7" x2="18.5" y2="-14.7"/>
		<line class="st3" x1="15.8" y1="-20.4" x2="52.5" y2="-20.4"/>
		<line class="st3" x1="31.2" y1="-18.7" x2="62.7" y2="-18.7"/>
		<line class="st3" x1="18.5" y1="-16.9" x2="56.7" y2="-16.9"/>
		<line class="st3" x1="45.7" y1="-7.4" x2="66" y2="-7.4"/>
		<line class="st3" x1="59" y1="-7.4" x2="59" y2="-10.9"/>
		<line class="st3" x1="68.5" y1="-10.4" x2="62.2" y2="-10.4"/>
		<line class="st3" x1="26" y1="-31.9" x2="15.8" y2="-31.9"/>
		<line class="st3" x1="15.8" y1="-7.4" x2="26" y2="-7.4"/>
		<line class="st3" x1="35.5" y1="-14.7" x2="68.5" y2="-14.7"/>
		<line class="st3" x1="15.8" y1="-10.4" x2="40" y2="-10.4"/>
		<line class="st3" x1="75.7" y1="-14.7" x2="89.8" y2="-14.7"/>
		<line class="st3" x1="54.2" y1="-5.2" x2="78.2" y2="-5.2"/>
		<line class="st3" x1="79.2" y1="-10.4" x2="89.8" y2="-10.4"/>
		<line class="st3" x1="18.5" y1="-5.2" x2="42.7" y2="-5.2"/>
		<line class="st3" x1="46.2" y1="-0.2" x2="46.2" y2="-3.7"/>
		<line class="st3" x1="79.2" y1="-18.9" x2="89.8" y2="-18.9"/>
		<line class="st3" x1="82" y1="-5.2" x2="85.7" y2="-5.2"/>
		<line class="st3" x1="33" y1="-72.2" x2="53.2" y2="-72.2"/>
		<line class="st3" x1="46.2" y1="-72.2" x2="46.2" y2="-75.7"/>
		<line class="st3" x1="19.5" y1="-69.7" x2="23.2" y2="-69.7"/>
		<line class="st3" x1="7.3" y1="-59.9" x2="0.1" y2="-59.9"/>
	</g>
</pattern>
<g id="Layer_1">
	
		<radialGradient id="background_1_" cx="305.7933" cy="411.6194" r="353.6722" gradientTransform="matrix(1.0072 0 0 1.051 -7.969858e-03 -16.6189)" gradientUnits="userSpaceOnUse">
		<stop  offset="0" style="stop-color:#404041"/>
		<stop  offset="1" style="stop-color:#130C0E"/>
	</radialGradient>
	<rect id="background" x="0" class="st4" width="616" height="832"/>
	<g>
		<pattern  id="SVGID_1_" xlink:href="#Lines" patternTransform="matrix(1.0072 0 0 1.051 -0.5538 339.6838)">
		</pattern>
		<rect x="0" class="st5" width="616" height="832"/>
		<pattern  id="SVGID_2_" xlink:href="#Burlap" patternTransform="matrix(1.0072 0 0 1.051 -0.5168 340.1571)">
		</pattern>
		<rect x="0" class="st6" width="616" height="832"/>
	</g>
</g>
<g id="Layer_2">
	<g id="bottle">
		<path class="st7" d="M420.8,623.4c-0.1-45.3-0.8-90.6-1.1-135.9l-0.9-135.9l-0.3-33.9l-0.1-8.5l0-4.2c0-0.7-0.1-1.4-0.1-2.1
			c-0.1-0.7-0.1-1.3-0.2-2c-0.5-5.5-1.4-10.9-3.2-16c-1.8-5-4.4-9.8-7.6-14.2c-0.8-1.1-1.6-2.2-2.5-3.3c-0.9-1.1-1.7-2.1-2.6-3.1
			c-1.8-2-3.7-3.9-5.8-5.8c-4.1-3.7-8.5-7.2-12.9-11c-2.2-1.9-4.3-4-6.3-6.3c-2-2.3-3.8-5-4.9-8.1c-0.6-1.6-0.9-3.2-1-4.9
			c-0.1-0.9,0-1.5-0.1-2.3l0-2.1l0-8.5l0.2-17l0.6-34l0.3-17l0.2-8.5l0.1-4.2l0-2.1l0-1.1l0-0.3l0-0.1l0-0.3c0-0.3,0.1-0.7,0.3-0.9
			c0.5-1,1.1-1.5,1.7-2c0.6-0.5,1.1-0.9,1.6-1.4c0.5-0.4,0.8-0.9,0.8-1l0-2l0.1-4.2l0-2.1c0-0.6,0.1-1.7,0-1.5
			c-0.2-0.3-0.7-0.8-1.2-1.2c-0.5-0.4-1.1-0.9-1.7-1.4c-0.3-0.3-0.6-0.6-0.9-1c-0.1-0.2-0.3-0.5-0.4-0.9c0-0.1,0-0.2,0-0.3l0-0.2
			l0-0.3l0-2.1l0-8.5l0.9,1c-4.5-0.7-9-1.3-13.5-1.8c-4.5-0.5-9-0.9-13.5-0.9c-4.5,0.1-9.1,0.2-13.6,0.4c-4.5,0.3-9,0.8-13.4,1.6
			l0.7-0.9l0.1,8.2l0,2l0,1c0,0.1,0,0.5-0.1,0.7c-0.1,0.2-0.1,0.5-0.2,0.7c-0.4,0.8-0.9,1.3-1.3,1.8c-0.4,0.5-0.9,1-1.1,1.5
			c-0.1,0.2-0.2,0.4-0.2,0.6l0,1l0,2l-0.1,4.1l0,2l0,0.3l0,0.1c0,0.1,0,0.2,0.1,0.3c0.1,0.2,0.2,0.5,0.4,0.8
			c0.3,0.5,0.7,1.1,1.1,1.7c0.4,0.6,0.8,1.2,1,2.1c0.1,0.2,0.1,0.4,0.1,0.7c0,0.2,0,0.4,0,0.5l0,1l-0.1,2l-0.1,4.1l-0.2,8.1
			c-0.1,5.4-0.1,10.9-0.2,16.3c-0.1,10.9,0.1,21.7,0,32.6c-0.1,10.9-0.7,21.8-2.8,32.6l0,0.1l-0.1,0.1c-2.3,2.8-4.8,5.6-7.3,8.3
			c-2.5,2.7-5.1,5.3-7.7,7.8c-5.3,5.1-10.3,10.4-14.9,16.1c-4.6,5.6-8.9,11.6-12.1,18.2c-1.6,3.3-2.9,6.7-3.7,10.3
			c-0.9,3.5-1.4,7.2-1.6,10.8l-0.6,0c0.2-3.7,0.6-7.4,1.5-10.9c0.9-3.6,2.2-7.1,3.7-10.4c3.1-6.7,7.4-12.8,12-18.5
			c4.6-5.7,9.7-11.1,14.9-16.2c2.6-2.6,5.2-5.2,7.7-7.9c2.5-2.7,4.9-5.5,7.2-8.3l-0.1,0.2c2-10.6,2.5-21.5,2.6-32.4
			c0.1-10.9-0.1-21.7-0.1-32.6c0-5.4,0-10.9,0.1-16.3l0.1-8.2l0.1-4.1l0-2l0-1c0-0.2,0-0.4,0-0.5c0-0.1,0-0.2,0-0.3
			c-0.1-0.5-0.4-1-0.8-1.5c-0.4-0.5-0.8-1.1-1.2-1.7c-0.2-0.3-0.4-0.7-0.5-1.1c-0.1-0.2-0.1-0.4-0.2-0.7l0-0.4l0-0.3l0-2l0.1-4.1
			l0-2l0-1c0-0.5,0.2-1,0.4-1.4c0.4-0.7,0.9-1.2,1.3-1.8c0.4-0.5,0.8-1,1.1-1.5c0-0.1,0.1-0.2,0.1-0.3c0-0.1,0-0.1,0-0.3l0-1l0-2
			l-0.1-8.1l0-0.8l0.7-0.1c4.5-0.9,9.1-1.4,13.6-1.7c4.6-0.3,9.1-0.4,13.7-0.5c4.6,0,9.2,0.4,13.7,0.8c4.5,0.5,9.1,1.1,13.6,1.8
			l0.9,0.1l0,0.9l0,8.5l0,2.1c0,0.5,0,0.2,0.1,0.4c0.1,0.1,0.3,0.4,0.5,0.6c0.5,0.4,1,0.8,1.6,1.3c0.6,0.5,1.2,0.9,1.8,1.8
			c0.1,0.2,0.3,0.5,0.3,0.9l0,0.3l0,0.1l0,0.3l0,1.1l0,2.1l0.1,4.2l0,1.1l0,0.5c0,0.2,0,0.3,0,0.7c-0.1,0.7-0.4,1.2-0.7,1.5
			c-0.3,0.4-0.6,0.7-0.8,1c-0.6,0.5-1.1,1-1.6,1.5c-0.5,0.4-0.9,0.9-1,1.2c-0.1-0.1,0,0.9,0,1.6l0,2.1l0.1,4.2l0.2,8.5l0.3,17
			c0.3,11.3,0.3,22.7,0.4,34l0.2,17l0.1,8.5l0,2.1c0,0.7,0,1.5,0.1,2c0.1,1.1,0.3,2.3,0.8,3.3c0.8,2.2,2.2,4.3,3.9,6.3
			c1.7,2,3.7,3.8,5.8,5.6c4.2,3.6,8.7,7.1,13,11c2.2,1.9,4.2,4,6.2,6.3c1,1.1,1.9,2.3,2.8,3.5c0.9,1.1,1.7,2.3,2.6,3.5
			c3.3,4.8,6.2,10.1,8.2,15.7c1.9,5.7,2.8,11.6,3.2,17.3c0.1,0.7,0.1,1.5,0.2,2.2c0.1,0.7,0.1,1.5,0.1,2.2l0,4.3l-0.1,8.5l-0.3,34
			l-0.9,135.9c-0.4,45.3-0.5,90.6-1.1,135.9L420.8,623.4z"/>
	</g>
	<g>
		
			<image style="overflow:visible;opacity:0.4;" width="471" height="559" xlink:href="171C912989F04E74.png"  transform="matrix(0.48 0 0 0.48 229.24 397.96)">
		</image>
		<g>
			<path class="st7" d="M409.6,531c-0.3-13-1.6-24.8-3.9-35.4c-2.3-10.6-5.9-19.9-10.9-27.9c-5-8.1-11.7-14.2-20-18.5
				c-8.4-4.3-18.6-6.3-30.6-6c-10.5,0.3-20.2,2.8-28.9,7.6c-8.8,4.8-16.2,11.4-22.4,19.8c-6.2,8.4-10.9,18.1-14,29.1
				c-3.1,11-4.6,22.6-4.3,34.7c0.3,12.9,1.7,24.6,4.1,35.1c2.4,10.5,6.2,19.6,11.5,27.5c5.2,7.8,12,13.8,20.5,18
				c8.4,4.2,18.6,6.1,30.5,5.8c11.3-0.3,21.3-2.7,30-7.4c8.8-4.7,16.1-11.1,21.9-19.3c5.8-8.2,10.1-17.6,12.9-28.4
				C408.7,554.9,409.9,543.4,409.6,531z M342.7,609.2c-28,0-50.7-34.8-50.7-77.7c0-42.9,22.7-77.7,50.7-77.7
				c28,0,50.7,34.8,50.7,77.7C393.4,574.4,370.7,609.2,342.7,609.2z"/>
		</g>
	</g>
	<linearGradient id="SVGID_3_" gradientUnits="userSpaceOnUse" x1="310.6516" y1="769.0905" x2="305.5749" y2="623.7133">
		<stop  offset="0" style="stop-color:#000000;stop-opacity:0.6"/>
		<stop  offset="0.1434" style="stop-color:#040404;stop-opacity:0.5283"/>
		<stop  offset="0.2713" style="stop-color:#0E0E0E;stop-opacity:0.4643"/>
		<stop  offset="0.3934" style="stop-color:#212121;stop-opacity:0.4033"/>
		<stop  offset="0.5119" style="stop-color:#3A3A3A;stop-opacity:0.344"/>
		<stop  offset="0.6279" style="stop-color:#5B5B5B;stop-opacity:0.2861"/>
		<stop  offset="0.7419" style="stop-color:#848484;stop-opacity:0.2291"/>
		<stop  offset="0.8544" style="stop-color:#B4B4B4;stop-opacity:0.1728"/>
		<stop  offset="0.9629" style="stop-color:#EBEBEB;stop-opacity:0.1186"/>
		<stop  offset="1" style="stop-color:#FFFFFF;stop-opacity:0.1"/>
	</linearGradient>
	<path class="st8" d="M388.3,645c-3.5-6.8-9.4-12.2-17.6-16c-8.2-3.9-18.6-6-31.2-6.2c-13.3-0.3-25.6,1.3-36.7,4.7
		c-11.1,3.4-21.1,8.4-29.9,14.9c-8.8,6.5-16.6,14.1-23.2,22.7c-6.7,8.7-12.6,18.4-17.7,29.1c-4.9,10.1-7.6,19.7-8.2,28.8
		c-0.6,9.1,1.1,17.2,5,24.2c3.9,7,9.9,12.5,18,16.5c8.1,4,18.1,6.1,29.9,6.4c13.5,0.3,25.8-1.3,36.9-4.9c11.1-3.5,21-8.7,29.6-15.3
		c8.7-6.7,16.3-14.4,22.8-23.1c6.5-8.8,12.4-18.5,17.6-29.4c4.9-10.2,7.8-19.8,8.7-28.7C393.1,659.7,391.8,651.8,388.3,645z
		 M365.2,696.9c-16.1,35.6-54.8,64.4-86.5,64.3c-31.7-0.1-44.4-29-28.3-64.7c16.1-35.6,54.8-64.4,86.5-64.3
		C368.6,632.4,381.3,661.3,365.2,696.9z"/>
	<g id="_x31__1_" class="st9">
		
			<linearGradient id="SVGID_4_" gradientUnits="userSpaceOnUse" x1="138.3781" y1="695.167" x2="293.0208" y2="695.167" gradientTransform="matrix(1 0 -7.020000e-02 1 41.176 0)">
			<stop  offset="0" style="stop-color:#000000;stop-opacity:0.6"/>
			<stop  offset="0.1162" style="stop-color:#040404;stop-opacity:0.5419"/>
			<stop  offset="0.2406" style="stop-color:#111111;stop-opacity:0.4797"/>
			<stop  offset="0.3689" style="stop-color:#272727;stop-opacity:0.4155"/>
			<stop  offset="0.4999" style="stop-color:#454545;stop-opacity:0.35"/>
			<stop  offset="0.633" style="stop-color:#6B6B6B;stop-opacity:0.2835"/>
			<stop  offset="0.7679" style="stop-color:#9B9B9B;stop-opacity:0.216"/>
			<stop  offset="0.9016" style="stop-color:#D2D2D2;stop-opacity:0.1492"/>
			<stop  offset="1" style="stop-color:#FFFFFF;stop-opacity:0.1"/>
		</linearGradient>
		<path class="st10" d="M290.5,622.5c-9.8,2.7-43.4,8.1-45.5,9.1c-2.5,1.9-80,122.1-88.4,136.1c-3.9-12.2-7.6-16.6-29.3-21.6
			l1.5-2.3c0.5-0.8,16.1,3.7,25.5,5.8c7.4-10.9,74.7-117.3,74.4-118.6c-2.1-1.6-17.3-2.5-30.9-8.2L290.5,622.5z"/>
	</g>
	<g>
		
			<radialGradient id="SVGID_5_" cx="228.0445" cy="-457.6073" r="18.3246" gradientTransform="matrix(0.9669 0.2806 -0.2553 1.0628 -68.3286 732.2153)" gradientUnits="userSpaceOnUse">
			<stop  offset="0" style="stop-color:#CB3527"/>
			<stop  offset="0.7106" style="stop-color:#E2342C"/>
			<stop  offset="1" style="stop-color:#ED342F"/>
		</radialGradient>
		<path class="st11" d="M281.8,329c-1.9-1.1-1.6-2.2-0.1-6.4c1.5-4.2,5.6-8.7,1.5-16.9c-1.7-4.1-3-7.4-5.3-8.7
			c-2.2-2.9-3.3-1.3-5.1-0.5c-2.6-0.5-2-7.6-10.9-8.5c-2.2-0.2-10.5-0.3-8,9c0.7,2.6,3,3.7,5.1,4.3c0.7,0.2,1.4,0.2,2.1,0.1
			c19.1,1.8,18.8,16,16.8,27.6c-0.6,3.4,1.6,4.9,4,4.2C284,332.4,283.8,330.1,281.8,329z"/>
		<g>
			
				<radialGradient id="SVGID_6_" cx="233.2514" cy="-372.8417" r="79.3883" gradientTransform="matrix(0.9669 0.2806 -0.2553 1.0628 -68.3286 732.2153)" gradientUnits="userSpaceOnUse">
				<stop  offset="0" style="stop-color:#EC1C24"/>
				<stop  offset="0.2917" style="stop-color:#E41C26"/>
				<stop  offset="0.7512" style="stop-color:#CD1D2A"/>
				<stop  offset="1" style="stop-color:#BE1E2D"/>
			</radialGradient>
			<path class="st12" d="M295.2,390.7c9.8-7.1-11-18.2-7.8,6.4c1.7,13.2-27.8,19.6-43.6,8.4c-14.6-10.4-13.1-29.6-2.9-39.2
				c10.7-10.1,39-25.2,30.1-43.8c-10-20.9-34.6-18.2-39.8-18.9c-2.1-0.3-1.3-3.5,0.4-3.9c1.9-0.4,5.2,0.7,7.1-1.5
				c3.2-3.6-0.3-9.8-7.6-6.2c-5.7,2.8-10.8,14.3-2.2,20.9c35.5,27.1-26.3,47.1-39.8,86.2c-9.1,23.4-9.7,40.5-4.8,56.4
				c6.4,20.9,26.5,33.7,47.3,40.4c2.3,0.7,6.9,3.6,7.5,5.8c1,3.5,9,3.7,9.9,0.4c3-4.8,4.6-4.3,8-6.1c31.8-12.1,44.2-23.9,48.7-46.3
				C312.9,409.4,288.3,395.7,295.2,390.7z"/>
			
				<radialGradient id="SVGID_7_" cx="235.4057" cy="-436.0215" r="0" gradientTransform="matrix(0.9669 0.2806 -0.2553 1.0628 -68.3286 732.2153)" gradientUnits="userSpaceOnUse">
				<stop  offset="0" style="stop-color:#EC1C24"/>
				<stop  offset="0.2917" style="stop-color:#E41C26"/>
				<stop  offset="0.7512" style="stop-color:#CD1D2A"/>
				<stop  offset="1" style="stop-color:#BE1E2D"/>
			</radialGradient>
			<path class="st13" d="M270.6,334.9"/>
			
				<radialGradient id="SVGID_8_" cx="234.8948" cy="-371.2482" r="33.9373" gradientTransform="matrix(0.9669 0.2806 -0.2553 1.0628 -68.3286 732.2153)" gradientUnits="userSpaceOnUse">
				<stop  offset="0" style="stop-color:#EC1C24"/>
				<stop  offset="0.2917" style="stop-color:#E41C26"/>
				<stop  offset="0.7512" style="stop-color:#CD1D2A"/>
				<stop  offset="1" style="stop-color:#BE1E2D"/>
			</radialGradient>
			<path class="st14" d="M242.6,364.2c-31.5,19.5-37.1,62.5,1.3,72.6c31.1,8.2,53.5-25.3,44.4-44.1
				C271.7,429.6,215.7,396.8,242.6,364.2z"/>
			
				<linearGradient id="SVGID_9_" gradientUnits="userSpaceOnUse" x1="208.8329" y1="-343.015" x2="211.5605" y2="-421.1246" gradientTransform="matrix(0.9669 0.2553 -0.2553 0.9669 -67.4356 657.705)">
				<stop  offset="0" style="stop-color:#B32126;stop-opacity:5.000000e-02"/>
				<stop  offset="0.6112" style="stop-color:#B72029;stop-opacity:0.6307"/>
				<stop  offset="1" style="stop-color:#BE1E2D"/>
			</linearGradient>
			<path class="st15" d="M226.1,303c0.1-1.2,1-2.6,2.7-3.2c-0.3,5.7,6.6,4.6,13,8c6.8,3.7,16.2,12,13.8,23.6
				c-3.6,17-26.6,42.1-49.9,43c4-4.7,12.9-12.7,21.1-21.8c6.7-7.4,27.6-21.9-0.7-42.4C224.6,307.4,225.9,305.2,226.1,303z"/>
		</g>
		
			<linearGradient id="SVGID_10_" gradientUnits="userSpaceOnUse" x1="197.3862" y1="-392.492" x2="246.7761" y2="-392.492" gradientTransform="matrix(0.9669 0.2553 -0.2553 0.9669 -67.4356 657.705)">
			<stop  offset="0.2638" style="stop-color:#FFFFFF"/>
			<stop  offset="0.264" style="stop-color:#FDE2E3;stop-opacity:0.9728"/>
			<stop  offset="0.2642" style="stop-color:#F9B9BB;stop-opacity:0.9284"/>
			<stop  offset="0.2646" style="stop-color:#F69397;stop-opacity:0.8784"/>
			<stop  offset="0.2649" style="stop-color:#F37378;stop-opacity:0.824"/>
			<stop  offset="0.2653" style="stop-color:#F1575D;stop-opacity:0.7639"/>
			<stop  offset="0.2657" style="stop-color:#EF4148;stop-opacity:0.6961"/>
			<stop  offset="0.2662" style="stop-color:#EE3038;stop-opacity:0.6169"/>
			<stop  offset="0.2668" style="stop-color:#ED252C;stop-opacity:0.5189"/>
			<stop  offset="0.2676" style="stop-color:#EC1E26;stop-opacity:0.3814"/>
			<stop  offset="0.27" style="stop-color:#EC1C24;stop-opacity:0"/>
			<stop  offset="0.4934" style="stop-color:#E81C25;stop-opacity:0.306"/>
			<stop  offset="0.7002" style="stop-color:#DD1D27;stop-opacity:0.5892"/>
			<stop  offset="0.8998" style="stop-color:#CA1D2B;stop-opacity:0.8627"/>
			<stop  offset="1" style="stop-color:#BE1E2D"/>
		</linearGradient>
		<path class="st16" d="M273.1,322.5c5.3,15.1-9.8,27.3-32.5,42.4c-2.8-6.1-9.4-12.4-2.8-25.3c10.5-20.3,9.5-34.2-7.5-36.6
			c2.7-0.4,4.8-0.4,7.3-0.5C259,302.1,269.7,312.9,273.1,322.5z"/>
		
			<linearGradient id="SVGID_11_" gradientUnits="userSpaceOnUse" x1="-209.7087" y1="-1727.1967" x2="-213.0319" y2="-1712.7159" gradientTransform="matrix(0.7895 0.6137 -0.6137 0.7895 -628.3197 1803.9592)">
			<stop  offset="0" style="stop-color:#F8B8B7"/>
			<stop  offset="0.2615" style="stop-color:#D87C7E;stop-opacity:0.6821"/>
			<stop  offset="0.576" style="stop-color:#B5393F;stop-opacity:0.2998"/>
			<stop  offset="0.7239" style="stop-color:#A71F26;stop-opacity:0.12"/>
		</linearGradient>
		<path class="st17" d="M269.2,336.7c4.9-10.7-1.1-17.6-3.4-20c-3.7-2.5-4.3,1.8-6.4,0.6c-14.6-8.5-19-12.4-18.3-13.8
			c1-2,14,0.6,19.4,4.4C274.4,315.3,278.8,334.8,269.2,336.7z"/>
		
			<linearGradient id="SVGID_12_" gradientUnits="userSpaceOnUse" x1="194.981" y1="-422.2784" x2="210.1455" y2="-422.2784" gradientTransform="matrix(0.9669 0.2553 -0.2553 0.9669 -67.4356 657.705)">
			<stop  offset="3.680980e-02" style="stop-color:#9A2020"/>
			<stop  offset="0.1781" style="stop-color:#A82223;stop-opacity:0.8533"/>
			<stop  offset="0.7283" style="stop-color:#DA282D;stop-opacity:0.282"/>
			<stop  offset="1" style="stop-color:#ED2B31;stop-opacity:0"/>
		</linearGradient>
		<path class="st18" d="M237.4,298.2c-2.2,0.2-4.9,0.5-4.3-1.9c-2.9,0.4-3.8,1-4.3,3.4c-0.4,2.1,0.6,3.2,1.9,3.8
			c0.1,0,0.2,0.1,0.3,0.1c1.4,0.5,4,0.7,6.4,0.8c1.7,0.1,4.2-0.4,6.2-1.4c-4.6-0.7-9.7-0.3-11.8-1.7c-0.8-0.5-0.7-0.8-0.6-1.2
			C232.1,297.5,234.6,298.6,237.4,298.2z"/>
		
			<radialGradient id="SVGID_13_" cx="-655.3698" cy="-749.2112" r="3.5678" gradientTransform="matrix(1.1127 0.6416 -0.7533 1.5786 399.2503 1899.0143)" gradientUnits="userSpaceOnUse">
			<stop  offset="6.134970e-03" style="stop-color:#FFFFFF"/>
			<stop  offset="0.1278" style="stop-color:#FEFBFB"/>
			<stop  offset="0.2601" style="stop-color:#FCEDEE"/>
			<stop  offset="0.3975" style="stop-color:#F9D8D9"/>
			<stop  offset="0.5384" style="stop-color:#F4B9BC"/>
			<stop  offset="0.6821" style="stop-color:#EE9296"/>
			<stop  offset="0.828" style="stop-color:#E76268"/>
			<stop  offset="0.9731" style="stop-color:#DF2A32"/>
			<stop  offset="1" style="stop-color:#DD1F27"/>
		</radialGradient>
		<path class="st19" d="M236.5,298c-2.2-1.3-3.9-3.5-7.9,0.5c-1.2-5.2,5.7-9.2,9.5-6.6C242,294.6,239.2,299.6,236.5,298z"/>
		
			<radialGradient id="SVGID_14_" cx="190.7186" cy="-450.6138" r="0" gradientTransform="matrix(0.9669 0.2806 -0.2553 1.0628 -68.3286 732.2153)" gradientUnits="userSpaceOnUse">
			<stop  offset="0" style="stop-color:#B32126"/>
			<stop  offset="1" style="stop-color:#BE1E2D"/>
		</radialGradient>
		<path class="st20" d="M231.1,306.8"/>
		
			<linearGradient id="SVGID_15_" gradientUnits="userSpaceOnUse" x1="278.4513" y1="-400.2307" x2="278.4513" y2="-400.2307" gradientTransform="matrix(0.9669 0.2553 -0.2553 0.9669 -67.4356 657.705)">
			<stop  offset="0" style="stop-color:#EC1C24"/>
			<stop  offset="0.5416" style="stop-color:#ED222C"/>
			<stop  offset="0.62" style="stop-color:#ED232E"/>
			<stop  offset="1" style="stop-color:#BE1E2D"/>
		</linearGradient>
		<path class="st21" d="M304,341.8"/>
		
			<linearGradient id="SVGID_16_" gradientUnits="userSpaceOnUse" x1="280.5134" y1="-342.7064" x2="293.6138" y2="-342.7064" gradientTransform="matrix(0.9669 0.2553 -0.2553 0.9669 -67.4356 657.705)">
			<stop  offset="0" style="stop-color:#BE1E2D"/>
			<stop  offset="0.3208" style="stop-color:#C9212D;stop-opacity:0.7915"/>
			<stop  offset="0.8821" style="stop-color:#E62A2B;stop-opacity:0.4267"/>
			<stop  offset="1" style="stop-color:#ED2C2B;stop-opacity:0.35"/>
		</linearGradient>
		<path class="st22" d="M296.6,389.2c-2.4-0.6-4.9,2.4-3.1,4.5c2.7,5.1,5.5,11.3,7.9,17.1C299.6,397.6,292.3,392.6,296.6,389.2z"/>
		
			<radialGradient id="SVGID_17_" cx="95.3786" cy="1229.4706" r="5.1804" gradientTransform="matrix(0.9747 -0.2457 0.2235 1.0715 -74.285 -905.9183)" gradientUnits="userSpaceOnUse">
			<stop  offset="0" style="stop-color:#ED2C2B"/>
			<stop  offset="0" style="stop-color:#F05851"/>
			<stop  offset="0" style="stop-color:#F5998B"/>
			<stop  offset="1" style="stop-color:#BE1E2D"/>
		</radialGradient>
		<path class="st23" d="M295.5,390.3c-1.1-0.2-5.3,0.7-3.9,4.5c-0.5-0.1-1.4-3.4-2.4-5.5c-1.5-3-0.6-6.3,2.3-7.2
			C297.8,380.6,299.9,388.1,295.5,390.3z"/>
		<g>
			<g>
				
					<radialGradient id="SVGID_18_" cx="232.0896" cy="-376.5103" r="65.822" gradientTransform="matrix(0.9669 0.2806 -0.2553 1.0628 -68.3286 732.2153)" gradientUnits="userSpaceOnUse">
					<stop  offset="0" style="stop-color:#F48675"/>
					<stop  offset="0.2747" style="stop-color:#F16058;stop-opacity:0.8269"/>
					<stop  offset="0.5869" style="stop-color:#EE3B3C;stop-opacity:0.6303"/>
					<stop  offset="0.8399" style="stop-color:#ED242A;stop-opacity:0.4709"/>
					<stop  offset="1" style="stop-color:#EC1C24;stop-opacity:0.37"/>
				</radialGradient>
				<path class="st24" d="M268.4,320.3c-3.5-5.5-14.8-9.7-18.4-7c3.1,4.5,8.2,12.1,4.8,20.5c-7.1,18.3-20.7,16.5-41.9,35.5
					c-27.5,24.6-27.8,79.7,2.2,99.8c30.4,20.3,64.4,4.3,78.2-18.1c16.7-27,2.7-53.7-1.2-59.3c-5.3,67-60.2,49.6-73.5,24.9
					c-5.4-24.5,4.1-35.4,20.1-49.8C251.7,355.1,278.4,337.2,268.4,320.3z"/>
			</g>
			<defs>
				<filter id="Adobe_OpacityMaskFilter" filterUnits="userSpaceOnUse" x="192.3" y="312.5" width="108.9" height="165.9">
					<feFlood  style="flood-color:white;flood-opacity:1" result="back"/>
					<feBlend  in="SourceGraphic" in2="back" mode="normal"/>
				</filter>
			</defs>
			<mask maskUnits="userSpaceOnUse" x="192.3" y="312.5" width="108.9" height="165.9" id="SVGID_19_">
				<g class="st25">
					
						<image style="overflow:visible;" width="236" height="355" xlink:href="171C912989F04E74.jpg"  transform="matrix(0.48 0 0 0.48 190.24 310.48)">
					</image>
				</g>
			</mask>
			<g class="st26">
				<path class="st27" d="M268.4,320.3c-3.5-5.5-14.8-9.7-18.4-7c3.1,4.5,8.2,12.1,4.8,20.5c-7.1,18.3-20.7,16.5-41.9,35.5
					c-27.5,24.6-27.8,79.7,2.2,99.8c30.4,20.3,64.4,4.3,78.2-18.1c16.7-27,2.7-53.7-1.2-59.3c-5.3,67-60.2,49.6-73.5,24.9
					c-5.4-24.5,4.1-35.4,20.1-49.8C251.7,355.1,278.4,337.2,268.4,320.3z"/>
			</g>
		</g>
		<g>
			
				<image style="overflow:visible;opacity:0.5;" width="38" height="42" xlink:href="171C912989F04E73.png"  transform="matrix(0.48 0 0 0.48 256.7203 312.6403)">
			</image>
			<g>
				
					<radialGradient id="SVGID_20_" cx="-1073.5244" cy="-1948.6498" r="4.8986" gradientTransform="matrix(0.7728 1.0412 -0.8001 0.7176 -464.6819 2837.8281)" gradientUnits="userSpaceOnUse">
					<stop  offset="0" style="stop-color:#F48675"/>
					<stop  offset="0.2747" style="stop-color:#F16058"/>
					<stop  offset="0.5869" style="stop-color:#EE3B3C"/>
					<stop  offset="0.8399" style="stop-color:#ED242A"/>
					<stop  offset="1" style="stop-color:#EC1C24"/>
				</radialGradient>
				<path class="st28" d="M269,327.3c-2.2,1.9-5.8,1-8.1-2.1c-2.3-3.1-2.4-7.2-0.3-9.1c2.2-1.9,5.8-1,8.1,2.1
					C271,321.2,271.1,325.3,269,327.3z"/>
				<g>
					
						<radialGradient id="SVGID_21_" cx="-1073.5244" cy="-1948.6498" r="4.8986" gradientTransform="matrix(0.7728 1.0412 -0.8001 0.7176 -464.6819 2837.8281)" gradientUnits="userSpaceOnUse">
						<stop  offset="0" style="stop-color:#F48675"/>
						<stop  offset="0.2747" style="stop-color:#F16058"/>
						<stop  offset="0.5869" style="stop-color:#EE3B3C"/>
						<stop  offset="0.8399" style="stop-color:#ED242A"/>
						<stop  offset="1" style="stop-color:#EC1C24"/>
					</radialGradient>
					<path class="st29" d="M269,327.3c-2.2,1.9-5.8,1-8.1-2.1c-2.3-3.1-2.4-7.2-0.3-9.1c2.2-1.9,5.8-1,8.1,2.1
						C271,321.2,271.1,325.3,269,327.3z"/>
					<defs>
						<filter id="Adobe_OpacityMaskFilter_1_" filterUnits="userSpaceOnUse" x="259.1" y="315" width="11.4" height="13.2">
							
								<feColorMatrix  type="matrix" values="-1 0 0 0 1  0 -1 0 0 1  0 0 -1 0 1  0 0 0 1 0" color-interpolation-filters="sRGB" result="source"/>
						</filter>
					</defs>
					<mask maskUnits="userSpaceOnUse" x="259.1" y="315" width="11.4" height="13.2" id="SVGID_22_">
						<g class="st30">
							
								<image style="overflow:visible;" width="33" height="37" xlink:href="171C912989F04E7C.jpg"  transform="matrix(0.48 0 0 0.48 256.96 312.88)">
							</image>
						</g>
					</mask>
					<path class="st31" d="M269,327.3c-2.2,1.9-5.8,1-8.1-2.1c-2.3-3.1-2.4-7.2-0.3-9.1c2.2-1.9,5.8-1,8.1,2.1
						C271,321.2,271.1,325.3,269,327.3z"/>
				</g>
			</g>
		</g>
		
			<radialGradient id="SVGID_23_" cx="35.2173" cy="-1268.3953" r="4.721" gradientTransform="matrix(0.8603 0.5604 -0.5098 0.9457 -372.1371 1562.0579)" gradientUnits="userSpaceOnUse">
			<stop  offset="0" style="stop-color:#F48675"/>
			<stop  offset="0.1592" style="stop-color:#F37F70"/>
			<stop  offset="0.3913" style="stop-color:#F26C61"/>
			<stop  offset="0.6681" style="stop-color:#F04C48"/>
			<stop  offset="0.977" style="stop-color:#EC2027"/>
			<stop  offset="1" style="stop-color:#EC1C24"/>
		</radialGradient>
		<path class="st32" d="M303.6,385.8c-0.9-2.2,1.5-2.5,1.9-3.7c0.9-2.6-2.4-4.1-4.3-4.5c1.4-1,3.4-1.2,6.7,1.5
			c2.6,2.1,2.9,5.4,0,7.8C305.1,389.2,303.9,386.6,303.6,385.8z"/>
		
			<radialGradient id="SVGID_24_" cx="-99.8782" cy="1598.0836" r="3.8087" gradientTransform="matrix(0.9293 -0.4061 0.3694 1.0215 -202.7736 -1296.3907)" gradientUnits="userSpaceOnUse">
			<stop  offset="0" style="stop-color:#F48675"/>
			<stop  offset="0.1592" style="stop-color:#F37F70"/>
			<stop  offset="0.3913" style="stop-color:#F26C61"/>
			<stop  offset="0.6681" style="stop-color:#F04C48"/>
			<stop  offset="0.977" style="stop-color:#EC2027"/>
			<stop  offset="1" style="stop-color:#EC1C24"/>
		</radialGradient>
		<path class="st33" d="M299.6,376.3c0.9,1-1.4,1.8-2.2,2.2c-0.8,0.3-1.7,0-1.9-0.7c-0.3-0.7-6.8-1.6-6-2
			C290.3,375.5,298.9,375.5,299.6,376.3z"/>
		
			<radialGradient id="SVGID_25_" cx="-368.8356" cy="1893.9431" r="4.0019" gradientTransform="matrix(0.8687 -0.5445 0.4953 0.955 -385.1204 -1726.1641)" gradientUnits="userSpaceOnUse">
			<stop  offset="0" style="stop-color:#F48675"/>
			<stop  offset="0.1592" style="stop-color:#F37F70"/>
			<stop  offset="0.3913" style="stop-color:#F26C61"/>
			<stop  offset="0.6681" style="stop-color:#F04C48"/>
			<stop  offset="0.977" style="stop-color:#EC2027"/>
			<stop  offset="1" style="stop-color:#EC1C24"/>
		</radialGradient>
		<path class="st34" d="M237.7,282.9c1.8,1.4-3.4,1.2-5.8,3.8c-1.1,1.2-2.9,0.5-3.6-0.7c-0.6-1.2-0.5-2.7,0.5-3.9
			C230.6,279.9,236.2,281.7,237.7,282.9z"/>
		
			<radialGradient id="SVGID_26_" cx="-5937.2295" cy="1634.3398" r="4.4121" gradientTransform="matrix(-0.9569 0.3194 0.229 0.8291 -5792.769 823.6815)" gradientUnits="userSpaceOnUse">
			<stop  offset="0" style="stop-color:#F48675"/>
			<stop  offset="0.1592" style="stop-color:#F37F70"/>
			<stop  offset="0.3913" style="stop-color:#F26C61"/>
			<stop  offset="0.6681" style="stop-color:#F04C48"/>
			<stop  offset="0.977" style="stop-color:#EC2027"/>
			<stop  offset="1" style="stop-color:#EC1C24"/>
		</radialGradient>
		<path class="st35" d="M258.3,284c-0.6,2.5,5.6,1.5,7.4,0.9c1.8-0.6,2.5-2.5,1.6-4.5C264.8,275,258.8,281.9,258.3,284z"/>
		
			<radialGradient id="SVGID_27_" cx="152.8755" cy="-890.2803" r="2.0339" gradientTransform="matrix(0.9217 0.4264 -0.3879 1.0132 -204.9707 1167.6429)" gradientUnits="userSpaceOnUse">
			<stop  offset="0" style="stop-color:#A42128"/>
			<stop  offset="1.227638e-02" style="stop-color:#A5232A"/>
			<stop  offset="1.669804e-02" style="stop-color:#A92A30"/>
			<stop  offset="1.985037e-02" style="stop-color:#AF353A"/>
			<stop  offset="2.239919e-02" style="stop-color:#B8464A"/>
			<stop  offset="2.458276e-02" style="stop-color:#C45C5D"/>
			<stop  offset="2.651451e-02" style="stop-color:#D27876"/>
			<stop  offset="2.825545e-02" style="stop-color:#E39893"/>
			<stop  offset="2.981069e-02" style="stop-color:#F6BCB4"/>
			<stop  offset="3.000000e-02" style="stop-color:#F9C1B8"/>
			<stop  offset="1" style="stop-color:#BA2227"/>
		</radialGradient>
		<path class="st36" d="M283.4,331.8c-0.2,0.7-1.4,1.5-2.4,1c-1.7-0.9-2.1-2.4-1.8-3c0.6-1.3,1.8-1.3,3-0.5
			C283.1,329.8,283.6,331,283.4,331.8z"/>
		
			<radialGradient id="SVGID_28_" cx="121.9953" cy="-915.4207" r="5.5984" gradientTransform="matrix(0.9217 0.4264 -0.3879 1.0132 -204.9707 1167.6429)" gradientUnits="userSpaceOnUse">
			<stop  offset="0" style="stop-color:#F9C1B8"/>
			<stop  offset="0.2976" style="stop-color:#E38985"/>
			<stop  offset="0.6244" style="stop-color:#CD5252"/>
			<stop  offset="0.8684" style="stop-color:#BF2F33"/>
			<stop  offset="1" style="stop-color:#BA2227"/>
		</radialGradient>
		<path class="st37" d="M269.6,292.6c0.6,1.4-1.9,1.9-2.5,2c-2.9,2.8-7.6,1-8.4,0.4c-2.6-1.8,3.1-3.7-2.8-4.7
			c0.9-1.7,1.5-1.7,2.8-2.2C263.1,287.2,268.6,289.4,269.6,292.6z"/>
		
			<radialGradient id="SVGID_29_" cx="229.594" cy="-455.7545" r="16.4995" gradientTransform="matrix(0.9669 0.2806 -0.2553 1.0628 -68.3286 732.2153)" gradientUnits="userSpaceOnUse">
			<stop  offset="0" style="stop-color:#9A1C1F"/>
			<stop  offset="1.188073e-02" style="stop-color:#9C1D20"/>
			<stop  offset="0.3736" style="stop-color:#D8483A"/>
			<stop  offset="0.546" style="stop-color:#F05844"/>
			<stop  offset="1" style="stop-color:#9D1F25;stop-opacity:0"/>
		</radialGradient>
		<path class="st38" d="M278.8,327.7c3.5-9.3,3.3-17.5,0.5-22.8c-1.7-2.3-2.9-2.9-4.1-4c-0.9-0.8-2.6-1.6-3.7-1.7
			c-3.6-0.6-2.4-5.9-8.8-7.1c-6.8-1.2-6.5,4.2-6.2,5.8c1.1,3.1,2.9,3.6,4.9,3.4c3,0.3,11.5,1.4,15.2,8c2.8,5.2,2.6,13.1,1.8,16.1
			c-1.4,4.8-0.3,6.6,1.3,7.4c1.7,0.9,3.5-0.2,3.5-0.7C279.9,334.3,278,329.8,278.8,327.7z"/>
		
			<linearGradient id="SVGID_30_" gradientUnits="userSpaceOnUse" x1="239.5794" y1="-437.9716" x2="239.5244" y2="-434.8186" gradientTransform="matrix(0.9669 0.2553 -0.2553 0.9669 -67.4356 657.705)">
			<stop  offset="0" style="stop-color:#F38695"/>
			<stop  offset="0.199" style="stop-color:#F16971;stop-opacity:0.801"/>
			<stop  offset="0.4037" style="stop-color:#EF5254;stop-opacity:0.5963"/>
			<stop  offset="0.6073" style="stop-color:#EE4140;stop-opacity:0.3927"/>
			<stop  offset="0.8074" style="stop-color:#ED3733;stop-opacity:0.1926"/>
			<stop  offset="1" style="stop-color:#ED342F;stop-opacity:0"/>
		</linearGradient>
		<path class="st39" d="M270,296.6c0.7-0.8,2,0.4,2.8,0c1.1-0.7,2.1-1.3,3-1.2c0.8,0.1,1.4,0.7,1.9,1.6c1.1,0.5,2.4,2.4,2.6,3"/>
		
			<radialGradient id="SVGID_31_" cx="193.7618" cy="-470.5718" r="1.3551" gradientTransform="matrix(0.9669 0.2806 -0.2553 1.0628 -68.3286 732.2153)" gradientUnits="userSpaceOnUse">
			<stop  offset="0" style="stop-color:#F48675"/>
			<stop  offset="0.1592" style="stop-color:#F37F70"/>
			<stop  offset="0.3913" style="stop-color:#F26C61"/>
			<stop  offset="0.6681" style="stop-color:#F04C48"/>
			<stop  offset="0.977" style="stop-color:#EC2027"/>
			<stop  offset="1" style="stop-color:#EC1C24"/>
		</radialGradient>
		<path class="st40" d="M240.5,286.8c-0.2,0.8-0.9,1.3-1.7,1.1c-0.7-0.2-1.2-1-1-1.8c0.2-0.8,0.9-1.3,1.7-1.1
			C240.2,285.2,240.7,286,240.5,286.8z"/>
		
			<radialGradient id="SVGID_32_" cx="228.478" cy="-474.9356" r="1.3546" gradientTransform="matrix(0.9669 0.2806 -0.2553 1.0628 -68.3286 732.2153)" gradientUnits="userSpaceOnUse">
			<stop  offset="0" style="stop-color:#F48675"/>
			<stop  offset="0.1592" style="stop-color:#F37F70"/>
			<stop  offset="0.3913" style="stop-color:#F26C61"/>
			<stop  offset="0.6681" style="stop-color:#F04C48"/>
			<stop  offset="0.977" style="stop-color:#EC2027"/>
			<stop  offset="1" style="stop-color:#EC1C24"/>
		</radialGradient>
		<path class="st41" d="M275.1,291.9c-0.2,0.8-0.9,1.3-1.7,1.1c-0.7-0.2-1.2-1-1-1.8c0.2-0.8,0.9-1.3,1.7-1.1
			C274.9,290.3,275.3,291.1,275.1,291.9z"/>
	</g>
	<g id="_x31_">
		<path class="st7" d="M197.8,621c16.1-6.3,35.5-10.4,38.5-12.2c1.1-1.5,1.8-130.3,1.4-143.6c-10,2.2-27.4,7-27.4,6.1v-2.8
			c23.4-5.3,29.4-10.4,40.4-24.8c-0.5,17,0.1,162.6,1.2,164.9c1.4,1.2,29.6,8.8,37.1,12.4L197.8,621z"/>
	</g>
	<g id="glass">
		<g>
			<path class="st7" d="M200.9,365.5c-2.6,6.6-5.3,13.2-7.5,19.9c-1.1,3.3-2.2,6.7-3.2,10.1l-3.2,10.2c-2.1,6.7-4,13.6-4.8,20.5
				c-0.4,3.5-0.6,7-0.6,10.5l0,1.3l0.1,1.3c0,0.9,0.1,1.7,0.1,2.6c0.2,1.7,0.4,3.4,0.7,5.1c1.2,6.8,4.1,13.2,8.2,18.7
				c2,2.8,4.3,5.3,6.8,7.7c2.5,2.4,5.2,4.6,8,6.6c5.6,4.1,11.8,7.4,18.1,10.5l4.8,2.3c0.8,0.4,1.6,0.8,2.5,1.4l2.2,1.5
				c1.4,1,3,2.1,4.1,3.7c0.6,0.8,1,1.6,1.2,2.5c0.2,0.9,0.2,1.8,0.2,2.7h-0.4c-0.1-1.7-0.7-3.4-1.9-4.6c-1.1-1.2-2.7-2.1-4.2-2.9
				l-2.3-1.3c-0.7-0.4-1.5-0.7-2.3-1l-5-1.9c-6.7-2.6-13.2-5.8-19.2-9.8c-6-4.1-11.5-9.2-15.6-15.2c-4.1-6.1-7-13.1-8.1-20.3
				c-0.3-1.8-0.5-3.6-0.6-5.4c0-0.9,0-1.8-0.1-2.7l0-1.4l0-1.3c0.1-3.6,0.4-7.2,0.9-10.8c1-7.1,3.1-14,5.5-20.8l3.6-10
				c1.2-3.3,2.3-6.7,3.6-10.1c2.5-6.7,5.4-13.2,8.3-19.7L200.9,365.5z"/>
		</g>
		<g>
			<path class="st7" d="M300.6,405.3c1.9,5.1,3.6,10.2,4.9,15.5c1.3,5.3,2.1,10.7,2.3,16.2c0.2,5.4-0.1,11-1.4,16.4
				c-1.3,5.4-3.6,10.5-6.7,15.2c-1.5,2.3-3.2,4.5-5.1,6.6c-1.8,2.1-3.8,4-5.9,5.8c-4.2,3.6-8.9,6.7-13.7,9.2
				c-2.5,1.2-4.9,2.4-7.5,3.5c-2.5,1-5.1,2-7.6,2.9c-0.6,0.2-1.2,0.5-1.8,0.7c-0.3,0.1-0.5,0.2-0.8,0.4l-0.9,0.5
				c-1.2,0.7-2.4,1.3-3.5,2c-1.1,0.7-2.1,1.5-2.8,2.5c-0.7,1-1.1,2.3-1.2,3.6h-0.4c-0.1-1.4,0-2.8,0.6-4.2c0.6-1.3,1.7-2.4,2.7-3.3
				c1.1-0.9,2.2-1.7,3.3-2.5l0.8-0.6c0.3-0.2,0.6-0.4,1-0.6c0.6-0.4,1.2-0.7,1.9-1c4.9-2.4,9.7-4.6,14.3-7.3
				c4.6-2.6,9.1-5.5,13.2-8.8c4.1-3.2,7.8-7,10.9-11.3c3-4.3,5.4-9,6.8-14.1c0.3-1.3,0.7-2.5,0.9-3.8l0.4-1.9l0.2-2
				c0.2-1.3,0.2-2.6,0.3-4c0.1-1.3,0.1-2.7,0.1-4c0-5.3-0.5-10.7-1.6-16c-1-5.3-2.5-10.5-4.1-15.6L300.6,405.3z"/>
		</g>
		<g>
			<path class="st7" d="M203,365.2c13.7,2.4,27.5,4.3,41.4,4.5c6.9,0.1,13.9-0.3,20.8-1.1c6.9-0.7,13.8-1.9,20.6-3.3l0,0.1
				c-6.7,1.8-13.6,3.1-20.5,4c-1.7,0.2-3.5,0.3-5.2,0.5l-5.2,0.3l-5.2,0.1l-5.2,0C230.5,370,216.7,367.9,203,365.2L203,365.2z"/>
		</g>
	</g>
	<g>
		
			<image style="overflow:visible;opacity:0.75;" width="983" height="356" xlink:href="171C912989F04E7C.png"  transform="matrix(0.48 0 0 0.48 69.76 593.68)">
		</image>
		<g>
			<g>
				<path class="st42" d="M135,693.6h-5.1v-39.9h5.1V693.6z"/>
				<path class="st42" d="M190.8,694.1c-4.6,0-8.6-1.6-12-4.7c-3.4-3.1-5-7-5-11.5c0-4.5,1.7-8.4,5-11.5c3.4-3.2,7.4-4.7,12-4.7
					c4.7,0,8.7,1.6,12.1,4.7c3.4,3.2,5.1,7,5.1,11.5c0,4.5-1.7,8.4-5.1,11.5C199.5,692.5,195.4,694.1,190.8,694.1z M190.8,666.3
					c-3.3,0-6.2,1.1-8.6,3.4c-2.4,2.2-3.6,5-3.6,8.2c0,3.2,1.2,5.9,3.6,8.1c2.4,2.2,5.2,3.3,8.5,3.3c3.3,0,6.2-1.1,8.6-3.3
					c2.4-2.2,3.6-4.9,3.7-8.1c0-3.2-1.2-6-3.6-8.2C197,667.5,194.1,666.3,190.8,666.3z"/>
				<path class="st42" d="M246.4,680.2v-18.1h5V680c0,2.6,0.8,4.8,2.5,6.7c1.7,1.8,3.8,2.7,6.4,2.7c2.6,0,4.8-0.9,6.5-2.7
					c1.7-1.8,2.5-4,2.5-6.6v-17.9h5.1v31.5h-5.1v-3.3c-1.7,1.3-3.1,2.2-4.4,2.7c-1.5,0.7-3.2,1-5,1c-3.8,0-7-1.4-9.6-4.1
					C247.7,687.3,246.4,684,246.4,680.2z"/>
				<path class="st42" d="M341.6,675.5v18.2h-5v-17.9c0-2.6-0.8-4.8-2.5-6.7c-1.7-1.8-3.8-2.7-6.5-2.7c-2.6,0-4.8,0.9-6.5,2.7
					c-1.7,1.8-2.5,4-2.5,6.7v17.9h-5.1v-31.5h5.1v3.3c1.7-1.3,3.1-2.2,4.4-2.7c1.5-0.7,3.2-1,5-1c3.8,0,7,1.4,9.6,4.1
					C340.3,668.4,341.6,671.7,341.6,675.5z"/>
				<path class="st42" d="M396.3,693.6c-3.1,0-5.9-0.7-8.5-2.2c-2.6-1.5-4.5-3.6-5.9-6.3c-1.2-2.3-1.8-4.7-1.8-7.3
					c0-4.5,1.6-8.3,4.8-11.4c3.2-3.1,7-4.6,11.6-4.6c0.2,0,1,0,2.4-0.1c1.2,0,2.1,0,2.8,0c1,0,1.8,0.2,2.3,0.4h4.9v32.2
					c0,2.2-0.6,4.2-1.8,6c-1.3,1.9-3,3-5,3.3c-2.1,0.3-5.4,0.5-9.9,0.5v-4.5c0.4,0,1.1,0,1.9,0.1c0.8,0,1.5,0,1.9,0
					c3.3,0,5.6-0.9,7-2.7c0.8-1.2,1.2-2.3,1.2-3.3H396.3z M403.9,667.1c-0.5-0.3-1.2-0.4-2.2-0.5c-0.7-0.1-1.5-0.1-2.6-0.1l-2.3,0.1
					c-3.2,0-5.9,1.1-8.1,3.2c-2.2,2.1-3.3,4.8-3.3,8c0,3.2,1.1,5.9,3.4,8c2.2,2.1,5,3.2,8.2,3.2h7V667.1z"/>
				<path class="st42" d="M475.6,675.5c-0.9-6.1-4.7-9.1-11.4-9.1c-3.3,0-6.2,1.1-8.6,3.4c-2.4,2.2-3.6,5-3.6,8.2
					c0,3.2,1.2,5.8,3.4,8.1c2.2,2.2,4.9,3.3,8.1,3.3c2.7,0,5.2-0.5,7.7-1.5c2.8-1.2,4.6-2.8,5.4-4.9l3.4,3.3
					c-1.4,2.6-3.6,4.6-6.6,5.9c-2.8,1.3-5.8,2-9.2,2c-4.7,0-8.7-1.6-12.1-4.7c-3.3-3.1-5-6.9-5-11.5c0-4.5,1.7-8.4,5-11.5
					c3.4-3.2,7.4-4.7,12-4.7c5,0,9,1.2,11.8,3.4c3.4,2.7,5.1,6.8,5.1,12.3c0,0.7,0,1.4-0.1,2.1h-24.2v-4L475.6,675.5L475.6,675.5z"
					/>
			</g>
			<g>
				<path class="st43" d="M135,693.6h-5.1v-39.9h5.1V693.6z"/>
				<path class="st43" d="M190.8,694.1c-4.6,0-8.6-1.6-12-4.7c-3.4-3.1-5-7-5-11.5c0-4.5,1.7-8.4,5-11.5c3.4-3.2,7.4-4.7,12-4.7
					c4.7,0,8.7,1.6,12.1,4.7c3.4,3.2,5.1,7,5.1,11.5c0,4.5-1.7,8.4-5.1,11.5C199.5,692.5,195.4,694.1,190.8,694.1z M190.8,666.3
					c-3.3,0-6.2,1.1-8.6,3.4c-2.4,2.2-3.6,5-3.6,8.2c0,3.2,1.2,5.9,3.6,8.1c2.4,2.2,5.2,3.3,8.5,3.3c3.3,0,6.2-1.1,8.6-3.3
					c2.4-2.2,3.6-4.9,3.7-8.1c0-3.2-1.2-6-3.6-8.2C197,667.5,194.1,666.3,190.8,666.3z"/>
				<path class="st43" d="M246.4,680.2v-18.1h5V680c0,2.6,0.8,4.8,2.5,6.7c1.7,1.8,3.8,2.7,6.4,2.7c2.6,0,4.8-0.9,6.5-2.7
					c1.7-1.8,2.5-4,2.5-6.6v-17.9h5.1v31.5h-5.1v-3.3c-1.7,1.3-3.1,2.2-4.4,2.7c-1.5,0.7-3.2,1-5,1c-3.8,0-7-1.4-9.6-4.1
					C247.7,687.3,246.4,684,246.4,680.2z"/>
				<path class="st43" d="M341.6,675.5v18.2h-5v-17.9c0-2.6-0.8-4.8-2.5-6.7c-1.7-1.8-3.8-2.7-6.5-2.7c-2.6,0-4.8,0.9-6.5,2.7
					c-1.7,1.8-2.5,4-2.5,6.7v17.9h-5.1v-31.5h5.1v3.3c1.7-1.3,3.1-2.2,4.4-2.7c1.5-0.7,3.2-1,5-1c3.8,0,7,1.4,9.6,4.1
					C340.3,668.4,341.6,671.7,341.6,675.5z"/>
				<path class="st43" d="M396.3,693.6c-3.1,0-5.9-0.7-8.5-2.2c-2.6-1.5-4.5-3.6-5.9-6.3c-1.2-2.3-1.8-4.7-1.8-7.3
					c0-4.5,1.6-8.3,4.8-11.4c3.2-3.1,7-4.6,11.6-4.6c0.2,0,1,0,2.4-0.1c1.2,0,2.1,0,2.8,0c1,0,1.8,0.2,2.3,0.4h4.9v32.2
					c0,2.2-0.6,4.2-1.8,6c-1.3,1.9-3,3-5,3.3c-2.1,0.3-5.4,0.5-9.9,0.5v-4.5c0.4,0,1.1,0,1.9,0.1c0.8,0,1.5,0,1.9,0
					c3.3,0,5.6-0.9,7-2.7c0.8-1.2,1.2-2.3,1.2-3.3H396.3z M403.9,667.1c-0.5-0.3-1.2-0.4-2.2-0.5c-0.7-0.1-1.5-0.1-2.6-0.1l-2.3,0.1
					c-3.2,0-5.9,1.1-8.1,3.2c-2.2,2.1-3.3,4.8-3.3,8c0,3.2,1.1,5.9,3.4,8c2.2,2.1,5,3.2,8.2,3.2h7V667.1z"/>
				<path class="st43" d="M475.6,675.5c-0.9-6.1-4.7-9.1-11.4-9.1c-3.3,0-6.2,1.1-8.6,3.4c-2.4,2.2-3.6,5-3.6,8.2
					c0,3.2,1.2,5.8,3.4,8.1c2.2,2.2,4.9,3.3,8.1,3.3c2.7,0,5.2-0.5,7.7-1.5c2.8-1.2,4.6-2.8,5.4-4.9l3.4,3.3
					c-1.4,2.6-3.6,4.6-6.6,5.9c-2.8,1.3-5.8,2-9.2,2c-4.7,0-8.7-1.6-12.1-4.7c-3.3-3.1-5-6.9-5-11.5c0-4.5,1.7-8.4,5-11.5
					c3.4-3.2,7.4-4.7,12-4.7c5,0,9,1.2,11.8,3.4c3.4,2.7,5.1,6.8,5.1,12.3c0,0.7,0,1.4-0.1,2.1h-24.2v-4L475.6,675.5L475.6,675.5z"
					/>
			</g>
			<g>
				
					<linearGradient id="SVGID_33_" gradientUnits="userSpaceOnUse" x1="300.2772" y1="703.0575" x2="301.8469" y2="658.1059" gradientTransform="matrix(1 0 0 1 4 -2)">
					<stop  offset="0" style="stop-color:#FFDD15"/>
					<stop  offset="1" style="stop-color:#F6921E"/>
				</linearGradient>
				<path class="st44" d="M135,693.6h-5.1v-39.9h5.1V693.6z"/>
				
					<linearGradient id="SVGID_34_" gradientUnits="userSpaceOnUse" x1="300.2772" y1="703.0575" x2="301.8469" y2="658.1059" gradientTransform="matrix(1 0 0 1 4 -2)">
					<stop  offset="0" style="stop-color:#FFDD15"/>
					<stop  offset="1" style="stop-color:#F6921E"/>
				</linearGradient>
				<path class="st45" d="M190.8,694.1c-4.6,0-8.6-1.6-12-4.7c-3.4-3.1-5-7-5-11.5c0-4.5,1.7-8.4,5-11.5c3.4-3.2,7.4-4.7,12-4.7
					c4.7,0,8.7,1.6,12.1,4.7c3.4,3.2,5.1,7,5.1,11.5c0,4.5-1.7,8.4-5.1,11.5C199.5,692.5,195.4,694.1,190.8,694.1z M190.8,666.3
					c-3.3,0-6.2,1.1-8.6,3.4c-2.4,2.2-3.6,5-3.6,8.2c0,3.2,1.2,5.9,3.6,8.1c2.4,2.2,5.2,3.3,8.5,3.3c3.3,0,6.2-1.1,8.6-3.3
					c2.4-2.2,3.6-4.9,3.7-8.1c0-3.2-1.2-6-3.6-8.2C197,667.5,194.1,666.3,190.8,666.3z"/>
				
					<linearGradient id="SVGID_35_" gradientUnits="userSpaceOnUse" x1="300.2772" y1="703.0575" x2="301.8469" y2="658.1059" gradientTransform="matrix(1 0 0 1 4 -2)">
					<stop  offset="0" style="stop-color:#FFDD15"/>
					<stop  offset="1" style="stop-color:#F6921E"/>
				</linearGradient>
				<path class="st46" d="M246.4,680.2v-18.1h5V680c0,2.6,0.8,4.8,2.5,6.7c1.7,1.8,3.8,2.7,6.4,2.7c2.6,0,4.8-0.9,6.5-2.7
					c1.7-1.8,2.5-4,2.5-6.6v-17.9h5.1v31.5h-5.1v-3.3c-1.7,1.3-3.1,2.2-4.4,2.7c-1.5,0.7-3.2,1-5,1c-3.8,0-7-1.4-9.6-4.1
					C247.7,687.3,246.4,684,246.4,680.2z"/>
				
					<linearGradient id="SVGID_36_" gradientUnits="userSpaceOnUse" x1="300.2772" y1="703.0575" x2="301.8469" y2="658.1059" gradientTransform="matrix(1 0 0 1 4 -2)">
					<stop  offset="0" style="stop-color:#FFDD15"/>
					<stop  offset="1" style="stop-color:#F6921E"/>
				</linearGradient>
				<path class="st47" d="M341.6,675.5v18.2h-5v-17.9c0-2.6-0.8-4.8-2.5-6.7c-1.7-1.8-3.8-2.7-6.5-2.7c-2.6,0-4.8,0.9-6.5,2.7
					c-1.7,1.8-2.5,4-2.5,6.7v17.9h-5.1v-31.5h5.1v3.3c1.7-1.3,3.1-2.2,4.4-2.7c1.5-0.7,3.2-1,5-1c3.8,0,7,1.4,9.6,4.1
					C340.3,668.4,341.6,671.7,341.6,675.5z"/>
				
					<linearGradient id="SVGID_37_" gradientUnits="userSpaceOnUse" x1="300.2772" y1="703.0575" x2="301.8469" y2="658.1059" gradientTransform="matrix(1 0 0 1 4 -2)">
					<stop  offset="0" style="stop-color:#FFDD15"/>
					<stop  offset="1" style="stop-color:#F6921E"/>
				</linearGradient>
				<path class="st48" d="M396.3,693.6c-3.1,0-5.9-0.7-8.5-2.2c-2.6-1.5-4.5-3.6-5.9-6.3c-1.2-2.3-1.8-4.7-1.8-7.3
					c0-4.5,1.6-8.3,4.8-11.4c3.2-3.1,7-4.6,11.6-4.6c0.2,0,1,0,2.4-0.1c1.2,0,2.1,0,2.8,0c1,0,1.8,0.2,2.3,0.4h4.9v32.2
					c0,2.2-0.6,4.2-1.8,6c-1.3,1.9-3,3-5,3.3c-2.1,0.3-5.4,0.5-9.9,0.5v-4.5c0.4,0,1.1,0,1.9,0.1c0.8,0,1.5,0,1.9,0
					c3.3,0,5.6-0.9,7-2.7c0.8-1.2,1.2-2.3,1.2-3.3H396.3z M403.9,667.1c-0.5-0.3-1.2-0.4-2.2-0.5c-0.7-0.1-1.5-0.1-2.6-0.1l-2.3,0.1
					c-3.2,0-5.9,1.1-8.1,3.2c-2.2,2.1-3.3,4.8-3.3,8c0,3.2,1.1,5.9,3.4,8c2.2,2.1,5,3.2,8.2,3.2h7V667.1z"/>
				
					<linearGradient id="SVGID_38_" gradientUnits="userSpaceOnUse" x1="300.2772" y1="703.0575" x2="301.8469" y2="658.1059" gradientTransform="matrix(1 0 0 1 4 -2)">
					<stop  offset="0" style="stop-color:#FFDD15"/>
					<stop  offset="1" style="stop-color:#F6921E"/>
				</linearGradient>
				<path class="st49" d="M475.6,675.5c-0.9-6.1-4.7-9.1-11.4-9.1c-3.3,0-6.2,1.1-8.6,3.4c-2.4,2.2-3.6,5-3.6,8.2
					c0,3.2,1.2,5.8,3.4,8.1c2.2,2.2,4.9,3.3,8.1,3.3c2.7,0,5.2-0.5,7.7-1.5c2.8-1.2,4.6-2.8,5.4-4.9l3.4,3.3
					c-1.4,2.6-3.6,4.6-6.6,5.9c-2.8,1.3-5.8,2-9.2,2c-4.7,0-8.7-1.6-12.1-4.7c-3.3-3.1-5-6.9-5-11.5c0-4.5,1.7-8.4,5-11.5
					c3.4-3.2,7.4-4.7,12-4.7c5,0,9,1.2,11.8,3.4c3.4,2.7,5.1,6.8,5.1,12.3c0,0.7,0,1.4-0.1,2.1h-24.2v-4L475.6,675.5L475.6,675.5z"
					/>
			</g>
		</g>
	</g>
	<g id="bar1">
		<g>
			<path class="st7" d="M322.1,437.1l-12.5-65.6l7.9-1.5c3.3-0.6,6.9,0.3,10.6,2.8c4,2.8,6.4,6.2,7.2,10.4c0.9,4.9,0.1,9.3-2.7,13.2
				c5.2,3.3,8.5,8.4,9.8,15.3c1.1,5.7,0.4,10.8-2,15.5c-2.4,4.6-5.8,7.4-10.3,8.4L322.1,437.1z M322.1,393.7
				c3.3-2.6,4.7-5.3,4.1-8.3c-0.6-3-2.9-5.2-6.9-6.5L322.1,393.7z M323.5,401.1l5,26.4c3.9-4.4,5.3-9.4,4.3-14.8
				C331.9,407.4,328.7,403.5,323.5,401.1z"/>
			<path class="st7" d="M366.5,435l0.3-1.9c-2.5,0.9-5,1.2-7.5,0.8c-4.2-0.6-7.5-2.7-10-6.1c-2.5-3.4-3.5-7.2-2.8-11.4
				c0.6-4.2,2.7-7.5,6.1-10c3.4-2.5,7.2-3.5,11.4-2.8c2.6,0.4,4.9,1.4,7,3l0.4-2.5l7.9,1.2l-4.7,30.9L366.5,435z M355.8,423
				c1.2,1.6,2.7,2.6,4.7,2.9c2,0.3,3.8-0.1,5.4-1.3c1.6-1.2,2.6-2.8,2.9-4.8c0.3-1.9-0.2-3.7-1.3-5.3c-1.2-1.6-2.8-2.6-4.8-2.9
				c-2-0.3-3.8,0.1-5.4,1.3c-1.6,1.2-2.5,2.8-2.8,4.7C354.2,419.6,354.6,421.4,355.8,423z"/>
			<path class="st7" d="M384.3,441.3l-7-4.3l16.1-26.3l7,4.3l-2.2,3.6L384.3,441.3z M394.2,425c1-1.6,2.4-2.6,4.2-3.1
				c1.8-0.4,3.6-0.2,5.2,0.9c1.6,1,2.6,2.4,3,4.1c0.4,1.8,0.1,3.5-0.9,5.1l7,4.3c1.4-2.8,1.6-5.8,0.7-9.1c-0.9-3.3-2.6-5.8-5.2-7.3
				c-3.1-1.9-6.5-2.3-10.1-1.3L394.2,425z"/>
		</g>
		<g>
			<path class="st2" d="M322.1,437.1l-12.5-65.6l7.9-1.5c3.3-0.6,6.9,0.3,10.6,2.8c4,2.8,6.4,6.2,7.2,10.4c0.9,4.9,0.1,9.3-2.7,13.2
				c5.2,3.3,8.5,8.4,9.8,15.3c1.1,5.7,0.4,10.8-2,15.5c-2.4,4.6-5.8,7.4-10.3,8.4L322.1,437.1z M322.1,393.7
				c3.3-2.6,4.7-5.3,4.1-8.3c-0.6-3-2.9-5.2-6.9-6.5L322.1,393.7z M323.5,401.1l5,26.4c3.9-4.4,5.3-9.4,4.3-14.8
				C331.9,407.4,328.7,403.5,323.5,401.1z"/>
			<path class="st2" d="M366.5,435l0.3-1.9c-2.5,0.9-5,1.2-7.5,0.8c-4.2-0.6-7.5-2.7-10-6.1c-2.5-3.4-3.5-7.2-2.8-11.4
				c0.6-4.2,2.7-7.5,6.1-10c3.4-2.5,7.2-3.5,11.4-2.8c2.6,0.4,4.9,1.4,7,3l0.4-2.5l7.9,1.2l-4.7,30.9L366.5,435z M355.8,423
				c1.2,1.6,2.7,2.6,4.7,2.9c2,0.3,3.8-0.1,5.4-1.3c1.6-1.2,2.6-2.8,2.9-4.8c0.3-1.9-0.2-3.7-1.3-5.3c-1.2-1.6-2.8-2.6-4.8-2.9
				c-2-0.3-3.8,0.1-5.4,1.3c-1.6,1.2-2.5,2.8-2.8,4.7C354.2,419.6,354.6,421.4,355.8,423z"/>
			<path class="st2" d="M384.3,441.3l-7-4.3l16.1-26.3l7,4.3l-2.2,3.6L384.3,441.3z M394.2,425c1-1.6,2.4-2.6,4.2-3.1
				c1.8-0.4,3.6-0.2,5.2,0.9c1.6,1,2.6,2.4,3,4.1c0.4,1.8,0.1,3.5-0.9,5.1l7,4.3c1.4-2.8,1.6-5.8,0.7-9.1c-0.9-3.3-2.6-5.8-5.2-7.3
				c-3.1-1.9-6.5-2.3-10.1-1.3L394.2,425z"/>
		</g>
		<g>
			<path class="st50" d="M322.1,439.1c-0.9,0-1.8-0.7-2-1.6L307.6,372c-0.1-0.5,0-1.1,0.3-1.5c0.3-0.4,0.8-0.7,1.3-0.8l7.9-1.5
				c0.8-0.2,1.6-0.2,2.4-0.2c3.1,0,6.4,1.1,9.6,3.4c4.4,3.1,7.1,7,8,11.7c0.9,4.7,0.3,9.1-1.9,13c4.7,3.6,7.8,8.8,9.1,15.5
				c1.2,6.1,0.4,11.7-2.2,16.8c-2.7,5.2-6.6,8.3-11.6,9.4l-8.1,1.5C322.3,439.1,322.2,439.1,322.1,439.1z M329.6,422.5
				c1.5-2.9,1.9-6,1.3-9.4c-0.6-3.3-2.1-5.9-4.6-7.9L329.6,422.5z M323.4,389.6c1.3-1.8,1-3.2,0.9-3.8c-0.3-1.3-1-2.4-2.3-3.4
				L323.4,389.6z"/>
			<path class="st50" d="M374.4,438.2c-0.1,0-0.2,0-0.3,0l-7.9-1.2c-0.7-0.1-1.3-0.6-1.5-1.2c-1.1,0.2-2.1,0.3-3.2,0.3
				c-0.8,0-1.7-0.1-2.6-0.2c-4.7-0.7-8.5-3-11.4-6.9c-2.8-3.8-3.9-8.2-3.2-12.9s3-8.5,6.9-11.4c3.1-2.3,6.5-3.4,10.1-3.4
				c0.9,0,1.8,0.1,2.8,0.2c1.8,0.3,3.6,0.8,5.2,1.7c0.3-0.7,1-1.2,1.8-1.2c0.1,0,0.2,0,0.3,0l7.9,1.2c1.1,0.2,1.8,1.2,1.7,2.3
				l-4.7,30.9C376.2,437.5,375.4,438.2,374.4,438.2z M361.5,413.5c-1.1,0-2.1,0.3-3,1c-1.2,0.9-1.8,2-2,3.4
				c-0.2,1.5,0.1,2.7,0.9,3.9c0.8,1.2,1.9,1.8,3.4,2.1c0.3,0,0.6,0.1,0.9,0.1c1.1,0,2.1-0.3,3-1c1.2-0.9,1.9-2,2.1-3.4
				c0.2-1.4-0.1-2.6-1-3.8c-0.9-1.2-2-1.9-3.4-2.1C362.1,413.5,361.8,413.5,361.5,413.5z"/>
			<path class="st50" d="M384.3,443.3c-0.4,0-0.7-0.1-1-0.3l-7-4.3c-0.9-0.6-1.2-1.8-0.7-2.8l16.1-26.3c0.4-0.6,1-1,1.7-1
				c0.4,0,0.7,0.1,1,0.3l7,4.3c0.5,0.3,0.8,0.7,0.9,1.2c0.1,0.5,0,1-0.2,1.5c2.6,0,5,0.7,7.3,2.1c3,1.8,5.1,4.7,6.1,8.5
				c1,3.8,0.7,7.3-0.9,10.5c-0.2,0.5-0.7,0.9-1.2,1c-0.2,0.1-0.4,0.1-0.6,0.1c-0.4,0-0.7-0.1-1-0.3l-7-4.3c-0.9-0.6-1.2-1.8-0.7-2.7
				c0.7-1.2,0.9-2.3,0.7-3.6c-0.3-1.2-0.9-2.1-2.1-2.8c-0.8-0.5-1.7-0.8-2.5-0.8c-0.4,0-0.8,0-1.2,0.1c-1.3,0.3-2.3,1-3,2.2
				c0,0-10,16.3-10,16.3c-0.3,0.5-0.7,0.8-1.2,0.9C384.6,443.2,384.4,443.3,384.3,443.3z"/>
		</g>
	</g>
	<g id="bar1_1_">
		<g>
			<path class="st7" d="M322.1,437.1l-12.5-65.6l7.9-1.5c3.3-0.6,6.9,0.3,10.6,2.8c4,2.8,6.4,6.2,7.2,10.4c0.9,4.9,0.1,9.3-2.7,13.2
				c5.2,3.3,8.5,8.4,9.8,15.3c1.1,5.7,0.4,10.8-2,15.5c-2.4,4.6-5.8,7.4-10.3,8.4L322.1,437.1z M322.1,393.7
				c3.3-2.6,4.7-5.3,4.1-8.3c-0.6-3-2.9-5.2-6.9-6.5L322.1,393.7z M323.5,401.1l5,26.4c3.9-4.4,5.3-9.4,4.3-14.8
				C331.9,407.4,328.7,403.5,323.5,401.1z"/>
			<path class="st7" d="M366.5,435l0.3-1.9c-2.5,0.9-5,1.2-7.5,0.8c-4.2-0.6-7.5-2.7-10-6.1c-2.5-3.4-3.5-7.2-2.8-11.4
				c0.6-4.2,2.7-7.5,6.1-10c3.4-2.5,7.2-3.5,11.4-2.8c2.6,0.4,4.9,1.4,7,3l0.4-2.5l7.9,1.2l-4.7,30.9L366.5,435z M355.8,423
				c1.2,1.6,2.7,2.6,4.7,2.9c2,0.3,3.8-0.1,5.4-1.3c1.6-1.2,2.6-2.8,2.9-4.8c0.3-1.9-0.2-3.7-1.3-5.3c-1.2-1.6-2.8-2.6-4.8-2.9
				c-2-0.3-3.8,0.1-5.4,1.3c-1.6,1.2-2.5,2.8-2.8,4.7C354.2,419.6,354.6,421.4,355.8,423z"/>
			<path class="st7" d="M384.3,441.3l-7-4.3l16.1-26.3l7,4.3l-2.2,3.6L384.3,441.3z M394.2,425c1-1.6,2.4-2.6,4.2-3.1
				c1.8-0.4,3.6-0.2,5.2,0.9c1.6,1,2.6,2.4,3,4.1c0.4,1.8,0.1,3.5-0.9,5.1l7,4.3c1.4-2.8,1.6-5.8,0.7-9.1c-0.9-3.3-2.6-5.8-5.2-7.3
				c-3.1-1.9-6.5-2.3-10.1-1.3L394.2,425z"/>
		</g>
		<g>
			<path class="st51" d="M322.1,437.1l-12.5-65.6l7.9-1.5c3.3-0.6,6.9,0.3,10.6,2.8c4,2.8,6.4,6.2,7.2,10.4
				c0.9,4.9,0.1,9.3-2.7,13.2c5.2,3.3,8.5,8.4,9.8,15.3c1.1,5.7,0.4,10.8-2,15.5c-2.4,4.6-5.8,7.4-10.3,8.4L322.1,437.1z
				 M322.1,393.7c3.3-2.6,4.7-5.3,4.1-8.3c-0.6-3-2.9-5.2-6.9-6.5L322.1,393.7z M323.5,401.1l5,26.4c3.9-4.4,5.3-9.4,4.3-14.8
				C331.9,407.4,328.7,403.5,323.5,401.1z"/>
			<path class="st51" d="M366.5,435l0.3-1.9c-2.5,0.9-5,1.2-7.5,0.8c-4.2-0.6-7.5-2.7-10-6.1c-2.5-3.4-3.5-7.2-2.8-11.4
				c0.6-4.2,2.7-7.5,6.1-10c3.4-2.5,7.2-3.5,11.4-2.8c2.6,0.4,4.9,1.4,7,3l0.4-2.5l7.9,1.2l-4.7,30.9L366.5,435z M355.8,423
				c1.2,1.6,2.7,2.6,4.7,2.9c2,0.3,3.8-0.1,5.4-1.3c1.6-1.2,2.6-2.8,2.9-4.8c0.3-1.9-0.2-3.7-1.3-5.3c-1.2-1.6-2.8-2.6-4.8-2.9
				c-2-0.3-3.8,0.1-5.4,1.3c-1.6,1.2-2.5,2.8-2.8,4.7C354.2,419.6,354.6,421.4,355.8,423z"/>
			<path class="st51" d="M384.3,441.3l-7-4.3l16.1-26.3l7,4.3l-2.2,3.6L384.3,441.3z M394.2,425c1-1.6,2.4-2.6,4.2-3.1
				c1.8-0.4,3.6-0.2,5.2,0.9c1.6,1,2.6,2.4,3,4.1c0.4,1.8,0.1,3.5-0.9,5.1l7,4.3c1.4-2.8,1.6-5.8,0.7-9.1c-0.9-3.3-2.6-5.8-5.2-7.3
				c-3.1-1.9-6.5-2.3-10.1-1.3L394.2,425z"/>
		</g>
	</g>
	<g id="bottle_2_">
		<path class="st7" d="M421.9,622.4c-0.1-45.3-0.8-90.6-1.1-135.9l-0.9-135.9l-0.3-33.9l-0.1-8.5l0-4.2c0-0.7-0.1-1.4-0.1-2.1
			c-0.1-0.7-0.1-1.3-0.2-2c-0.5-5.5-1.4-10.9-3.2-16c-1.8-5-4.4-9.8-7.6-14.2c-0.8-1.1-1.6-2.2-2.5-3.3c-0.9-1.1-1.7-2.1-2.6-3.1
			c-1.8-2-3.7-3.9-5.8-5.8c-4.1-3.7-8.5-7.2-12.9-11c-2.2-1.9-4.3-4-6.3-6.3c-2-2.3-3.8-5-4.9-8.1c-0.6-1.6-0.9-3.2-1-4.9
			c-0.1-0.9,0-1.5-0.1-2.3l0-2.1l0-8.5l0.2-17l0.6-34l0.3-17l0.2-8.5l0.1-4.2l0-2.1l0-1.1l0-0.3l0-0.1l0-0.3c0-0.3,0.1-0.7,0.3-0.9
			c0.5-1,1.1-1.5,1.7-2c0.6-0.5,1.1-0.9,1.6-1.4c0.5-0.4,0.8-0.9,0.8-1l0-2l0.1-4.2l0-2.1c0-0.6,0.1-1.7,0-1.5
			c-0.2-0.3-0.7-0.8-1.2-1.2c-0.5-0.4-1.1-0.9-1.7-1.4c-0.3-0.3-0.6-0.6-0.9-1c-0.1-0.2-0.3-0.5-0.4-0.9c0-0.1,0-0.2,0-0.3l0-0.2
			l0-0.3l0-2.1l0-8.5l0.9,1c-4.5-0.7-9-1.3-13.5-1.8c-4.5-0.5-9-0.9-13.5-0.9c-4.5,0.1-9.1,0.2-13.6,0.4c-4.5,0.3-9,0.8-13.4,1.6
			l0.7-0.9l0.1,8.2l0,2l0,1c0,0.1,0,0.5-0.1,0.7c-0.1,0.2-0.1,0.5-0.2,0.7c-0.4,0.8-0.9,1.3-1.3,1.8c-0.4,0.5-0.9,1-1.1,1.5
			c-0.1,0.2-0.2,0.4-0.2,0.6l0,1l0,2l-0.1,4.1l0,2l0,0.3l0,0.1c0,0.1,0,0.2,0.1,0.3c0.1,0.2,0.2,0.5,0.4,0.8
			c0.3,0.5,0.7,1.1,1.1,1.7c0.4,0.6,0.8,1.2,1,2.1c0.1,0.2,0.1,0.4,0.1,0.7c0,0.2,0,0.4,0,0.5l0,1l-0.1,2l-0.1,4.1l-0.2,8.1
			c-0.1,5.4-0.1,10.9-0.2,16.3c-0.1,10.9,0.1,21.7,0,32.6c-0.1,10.9-0.7,21.8-2.8,32.6l0,0.1l-0.1,0.1c-2.3,2.8-4.8,5.6-7.3,8.3
			c-2.5,2.7-5.1,5.3-7.7,7.8c-5.3,5.1-10.3,10.4-14.9,16.1c-4.6,5.6-8.9,11.6-12.1,18.2c-1.6,3.3-2.9,6.7-3.7,10.3
			c-0.9,3.5-1.4,7.2-1.6,10.8l-0.6,0c0.2-3.7,0.6-7.4,1.5-10.9c0.9-3.6,2.2-7.1,3.7-10.4c3.1-6.7,7.4-12.8,12-18.5
			c4.6-5.7,9.7-11.1,14.9-16.2c2.6-2.6,5.2-5.2,7.7-7.9c2.5-2.7,4.9-5.5,7.2-8.3l-0.1,0.2c2-10.6,2.5-21.5,2.6-32.4
			c0.1-10.9-0.1-21.7-0.1-32.6c0-5.4,0-10.9,0.1-16.3l0.1-8.2l0.1-4.1l0-2l0-1c0-0.2,0-0.4,0-0.5c0-0.1,0-0.2,0-0.3
			c-0.1-0.5-0.4-1-0.8-1.5c-0.4-0.5-0.8-1.1-1.2-1.7c-0.2-0.3-0.4-0.7-0.5-1.1c-0.1-0.2-0.1-0.4-0.2-0.7l0-0.4l0-0.3l0-2l0.1-4.1
			l0-2l0-1c0-0.5,0.2-1,0.4-1.4c0.4-0.7,0.9-1.2,1.3-1.8c0.4-0.5,0.8-1,1.1-1.5c0-0.1,0.1-0.2,0.1-0.3c0-0.1,0-0.1,0-0.3l0-1l0-2
			l-0.1-8.1l0-0.8l0.7-0.1c4.5-0.9,9.1-1.4,13.6-1.7c4.6-0.3,9.1-0.4,13.7-0.5c4.6,0,9.2,0.4,13.7,0.8c4.5,0.5,9.1,1.1,13.6,1.8
			l0.9,0.1l0,0.9l0,8.5l0,2.1c0,0.5,0,0.2,0.1,0.4c0.1,0.1,0.3,0.4,0.5,0.6c0.5,0.4,1,0.8,1.6,1.3c0.6,0.5,1.2,0.9,1.8,1.8
			c0.1,0.2,0.3,0.5,0.3,0.9l0,0.3l0,0.1l0,0.3l0,1.1l0,2.1l0.1,4.2l0,1.1l0,0.5c0,0.2,0,0.3,0,0.7c-0.1,0.7-0.4,1.2-0.7,1.5
			c-0.3,0.4-0.6,0.7-0.8,1c-0.6,0.5-1.1,1-1.6,1.5c-0.5,0.4-0.9,0.9-1,1.2c-0.1-0.1,0,0.9,0,1.6l0,2.1l0.1,4.2l0.2,8.5l0.3,17
			c0.3,11.3,0.3,22.7,0.4,34l0.2,17l0.1,8.5l0,2.1c0,0.7,0,1.5,0.1,2c0.1,1.1,0.3,2.3,0.8,3.3c0.8,2.2,2.2,4.3,3.9,6.3
			c1.7,2,3.7,3.8,5.8,5.6c4.2,3.6,8.7,7.1,13,11c2.2,1.9,4.2,4,6.2,6.3c1,1.1,1.9,2.3,2.8,3.5c0.9,1.1,1.7,2.3,2.6,3.5
			c3.3,4.8,6.2,10.1,8.2,15.7c1.9,5.7,2.8,11.6,3.2,17.3c0.1,0.7,0.1,1.5,0.2,2.2c0.1,0.7,0.1,1.5,0.1,2.2l0,4.3l-0.1,8.5l-0.3,34
			l-0.9,135.9c-0.4,45.3-0.5,90.6-1.1,135.9L421.9,622.4z"/>
	</g>
	<g id="independent_glass_2_">
		<path class="st7" d="M284.8,365.4c2.4,5.4,4.8,10.9,7,16.5c1.1,2.8,2.2,5.6,3.1,8.4c0.8,2.9,1.7,5.7,2.4,8.6l-0.1,0
			c-1.2-2.7-2.2-5.5-3.2-8.3c-1-2.8-1.9-5.6-2.9-8.4c-1-2.8-2.1-5.6-3.1-8.4L284.8,365.4L284.8,365.4z"/>
	</g>
</g>
</svg>
