<?xml version="1.0" encoding="utf-8"?>
<!-- Generator: Adobe Illustrator 24.2.1, SVG Export Plug-In . SVG Version: 6.00 Build 0)  -->
<svg version="1.1" xmlns="http://www.w3.org/2000/svg" xmlns:xlink="http://www.w3.org/1999/xlink" x="0px" y="0px"
	 viewBox="0 0 1232 821" style="enable-background:new 0 0 1232 821;" xml:space="preserve">
<style type="text/css">
	.st0{fill:url(#SVGID_1_);}
	.st1{fill:none;stroke:#37B34A;stroke-width:1.2;stroke-linecap:round;stroke-linejoin:round;}
	.st2{fill:none;stroke:#48C7F4;stroke-width:1.3;stroke-linecap:round;stroke-linejoin:round;}
	.st3{fill:none;stroke:#60CBF5;stroke-width:1.3;stroke-linecap:round;stroke-linejoin:round;}
	.st4{fill:#FFFFFF;}
	.st5{fill:#C4C6C6;stroke:#C4C6C6;stroke-miterlimit:10;}
</style>
<g id="Layer_2">
	<radialGradient id="SVGID_1_" cx="616" cy="410.5" r="523.434" gradientUnits="userSpaceOnUse">
		<stop  offset="1.694775e-03" style="stop-color:#B3B3B3"/>
		<stop  offset="1.474039e-02" style="stop-color:#9E9E9E"/>
		<stop  offset="3.470935e-02" style="stop-color:#868686"/>
		<stop  offset="5.561239e-02" style="stop-color:#747474"/>
		<stop  offset="7.785758e-02" style="stop-color:#696969"/>
		<stop  offset="0.1037" style="stop-color:#666666"/>
		<stop  offset="0.1565" style="stop-color:#4E4E4E"/>
		<stop  offset="0.2197" style="stop-color:#383838"/>
		<stop  offset="0.2896" style="stop-color:#292929"/>
		<stop  offset="0.3707" style="stop-color:#202020"/>
		<stop  offset="0.4891" style="stop-color:#1D1D1D"/>
		<stop  offset="0.7596" style="stop-color:#000000"/>
		<stop  offset="1" style="stop-color:#000000"/>
	</radialGradient>
	<rect class="st0" width="1232" height="821"/>
</g>
<g id="Layer_1">
	<g id="art">
		<g>
			<g>
				<g>
					<path class="st1" d="M680.7,175.2c0.8,1.5,4.9-4.6,5.7-3.3c1.1,2-9.8,4.5-8.7,6.4c1.7,2.9,11-10.2,12.7-7.3
						c1.7,2.9-15.3,4.4-13.2,8c1.5,2.6,12.4-10.9,14-8.1c2.1,3.6-16.8,6.5-15.1,9.5c2,3.5,14.3-13.5,16.6-9.6
						c2.9,5-20.9,10.9-19.5,13.4c2.3,3.9,21.3-15.9,22.9-13.2c2.7,4.8-31.7,12.9-27.8,19.7c4.9,8.4,28.4-24.4,31.9-18.4
						c4.8,8.3-35.8,13.1-32.4,19.1c3.1,5.4,30.5-22.5,32.7-18.9c4.4,7.6-38.9,11.1-33.7,20.1c2.5,4.4,31.8-23.7,34.1-19.7
						c4.1,7.2-44.3,14.1-38.2,24.7c3.9,6.7,33.1-32.5,38.8-22.4c7.3,12.6-48.7,21.3-44.3,28.9c5,8.6,39.3-30.9,42.9-24.8
						c5.6,9.7-48.3,20.5-44.7,26.8c3.9,6.7,38.5-34.8,44-25.4c5.5,9.4-50.2,20-45.9,27.5c6.5,11.2,41.6-32.1,45.1-26"/>
					<path class="st1" d="M644.1,92.2c0.6,1,3-2.9,3.5-2c0.7,1.2-4.9,2-4.3,3.1c0.9,1.6,5.3-4.1,5.7-3.3c0.7,1.2-6.3,2.7-5.9,3.5
						c0.7,1.3,5.6-4.4,6.1-3.5c0.7,1.2-7.1,2-6.1,3.6c0.5,0.9,5.7-4.4,6.2-3.6c1.2,2.2-8.4,6.4-7.7,7.7c1.1,1.9,11-8.7,12.1-7
						c1.1,2-14.3,5.8-12.5,8.9c2.1,3.6,12.7-10.2,14-8.1c1.3,2.2-16.7,8.4-14.6,11.9c1.1,2,14.7-12.4,16.4-9.5
						c2.8,4.8-18.7,10.3-17,13.3c2.2,3.8,14.8-14.7,17.5-10.1c1.5,2.7-20.7,6.9-17.7,12.1c1.9,3.4,16.3-13,17.8-10.3
						c1.4,2.5-20.4,7.9-18.1,12c2.1,3.6,16.4-13.5,18.1-10.5c1.6,2.8-21.3,6.7-18.3,11.8c2.6,4.6,16.5-13.7,18.3-10.6
						c3,5.1-20.3,11.8-18.8,14.3c1.9,3.3,16.5-15,18.9-10.9c3,5.2-22.1,6.9-19,12.2c1.7,3,16.5-15.2,19-11
						c2.2,3.8-21.1,11.4-19.4,14.2c1.3,2.3,17.3-14.4,19.2-11.1c2.6,4.5-21.5,8.9-19.4,12.5c1.8,3,16.4-16,19.3-11.1
						c2.3,4-21.9,9-19.5,13.1c1.8,3.1,17.2-14.6,19.2-11.1c2.6,4.4-21.1,10-19.5,12.8c1.7,2.9,16.5-15.8,19.2-11.1
						c1.9,3.3-21.9,11.1-19.7,14.9c2.2,3.8,16.1-16.2,19.1-11c3.5,6-22,11-19.6,15c2.1,3.6,17.3-13.9,19-11
						c3.1,5.3-22.1,8.5-19.3,13.3c2.8,4.9,16.5-15.1,18.9-10.9c2.9,5-22.3,7.9-19.3,13.2c1.3,2.2,16.9-14.4,18.9-10.9
						c2,3.4-20.7,11.1-19.3,13.7c2.4,4.2,16-15.8,18.8-10.9c1.7,2.9-22.5,8.7-19.4,14.2c1.9,3.3,16-15.8,18.8-10.9
						c2.3,4-21.4,8.1-19,12.2c1.2,2.2,17.3-13.5,18.8-10.9c1.7,2.9-20.7,9.6-19.1,12.4c1.4,2.5,17.2-13.7,18.8-10.9
						c2.8,4.9-21.5,6.3-18.8,11c2.1,3.6,16.2-15.4,18.8-10.9c2.6,4.5-21,10.9-19.4,13.8c1.7,2.9,17-14.2,18.9-10.9
						c2.9,4.9-22,10.3-19.6,14.5c2.6,4.4,17.6-13.3,19-11c3,5.2-22.1,9.6-19.6,13.9c2,3.5,16.2-16,19.1-11
						c1.5,2.6-23.4,8.9-19.9,14.9c1.4,2.4,17.6-14.2,19.3-11.2c1.4,2.4-21.5,8.5-19.5,12c2.6,4.6,18-13.5,19.4-11.2
						c3.6,6.3-23.5,12.1-21.4,15.7c2.1,3.6,17.5-17.7,20.8-12c2,3.5-22.7,9.3-21,12.3c2.9,5,17.7-17.8,20.9-12.1"/>
					<path class="st1" d="M612,79.3c0.3,0.5,3.2-2.4,3.4-2c0.7,1.2-6.6,4.8-5.6,6.7c1,1.8,10.1-8.9,11.4-6.6
						c1.5,2.5-13.4,8.1-12,10.5c2,3.5,12.6-12.6,14.9-8.6c1.4,2.5-16.5,9.1-15,11.7c2.4,4.1,14.4-12.8,16.3-9.4
						c2.1,3.6-17.8,7.7-16.3,10.1c1.4,2.4,14.8-12.5,16.5-9.5c1.4,2.5-19.2,8.7-16.7,13.1c2.6,4.4,16-12.1,17.2-9.9
						c2,3.5-19.9,8.3-17.3,12.9c2.5,4.3,15-14.3,17.4-10.1c1.3,2.3-19.9,8.6-17.5,12.8c1.4,2.4,15.2-14.4,17.6-10.2
						c2.9,5-18.9,9.1-17.6,11.3c2.1,3.6,15.5-13.9,17.6-10.2c1.8,3.1-20.7,8.5-17.7,13.7c2.1,3.6,15.9-13.7,17.8-10.3
						c2.7,4.7-20.3,7.4-17.9,11.7c1.8,3.1,16.6-12.6,17.9-10.3c1.4,2.5-20.8,9-18,14c2.9,4.9,16.7-12.9,18.1-10.4
						c1.8,3.1-19.7,11.3-18.2,13.9c1.6,2.7,17-12.7,18.2-10.5c1.5,2.6-19.7,8.5-18.3,11c2.7,4.7,16.1-14.3,18.3-10.5
						c2.7,4.7-20.3,8.5-18.3,11.9c2.6,4.5,15.9-14.9,18.3-10.6c2,3.4-20.7,6.6-18.3,10.7c2.5,4.3,15.5-15.5,18.3-10.6
						c2.9,5-20.8,10.3-18.4,14.3c2.4,4.2,16.9-13.5,18.5-10.7c2.3,3.9-20.5,9.7-18.6,13c2,3.5,16-15.3,18.6-10.8
						c2.1,3.7-21,7.6-18.7,11.6c2.7,4.6,16.8-14.1,18.7-10.8c2.1,3.7-21,9-18.8,13c1.5,2.6,17.5-13.2,18.8-10.9
						c2.6,4.5-21.4,9.7-18.9,13.9c1.5,2.6,17.3-13.9,19-10.9c2.2,3.9-20.3,9.8-19,12c2.6,4.5,16.3-15.7,19-11
						c1.4,2.5-22.4,8.8-19.1,14.4c1.9,3.4,17.5-13.9,19.2-11.1c3.2,5.6-20.8,10.8-19.3,13.4c2.6,4.6,16.4-16.1,19.3-11.1
						c2.7,4.6-21.9,9.9-19.4,14.3c2.1,3.7,16.8-15.8,19.4-11.2c2.2,3.8-21.6,8.7-19.5,12.4c2.6,4.6,18-13.7,19.5-11.2
						c3.1,5.3-21.4,9.7-19.5,13c1.7,3,17.8-14.4,19.5-11.3c2.6,4.4-22.5,8.1-19.6,13.1c2.4,4.2,17.6-14.9,19.6-11.3
						c1.5,2.5-21.8,7.6-19.6,11.4c1.6,2.7,18.3-13.6,19.6-11.3c1.7,3-22,8.2-19.7,12.2c1.7,3,18-14.1,19.6-11.3
						c2.4,4.1-22.8,8.6-19.7,13.9c2.5,4.2,17.3-15.5,19.7-11.4c2.4,4.2-22.3,7.8-19.8,12.3c3,5.1,18-14.3,19.7-11.4
						c2.5,4.4-22.6,10.1-19.9,14.8c1.6,2.8,17.5-15.4,19.8-11.4c2.6,4.5-22.2,9.6-19.9,13.7c1.4,2.5,18.4-13.8,19.8-11.4
						c2.3,3.9-22.7,8.3-19.9,13.2c1.9,3.3,17.4-15.6,19.8-11.4c2.4,4.1-22.9,9.5-20,14.6c2.1,3.6,16.7-16.8,19.8-11.4
						c3.2,5.5-21.7,10.8-19.9,13.8c1.3,2.2,16.8-16.7,19.8-11.5c1.8,3.1-22.6,12-21,14.9c3.3,5.7,18.9-15.4,20.9-12
						c3.3,5.7-23.7,8.4-21.2,12.8c2.9,5,19-16,21.2-12.2"/>
					<path class="st1" d="M544.8,120.7c0.3,0.5,2.9-2.2,3.1-1.8c0.8,1.4-5.8,3.8-4.8,5.5c1,1.8,7.1-7.3,8.5-4.9
						c1,1.7-9.9,6.1-8.6,8.3c1.6,2.8,9.4-8.5,10.7-6.2c1.8,3.1-11.6,5.6-10.1,8.1c1.3,2.2,9.5-9.7,11.3-6.5
						c1.4,2.4-11.9,6.2-10.8,8.1c0.9,1.5,10.3-9.2,11.7-6.8c0.9,1.5-13.1,5.1-11.3,8.2c1.8,3.1,10.2-10.2,12.1-7
						c1.7,3-13.4,5.5-11.4,8.9c1.5,2.5,11.4-8.9,12.4-7.2c1.1,2-12.8,7.2-11.9,8.7c1.6,2.8,11.1-10,12.6-7.3c1.7,3-13.5,6-12.6,7.6
						c1.6,2.8,10.7-10.8,12.7-7.3c1.4,2.4-13.3,6.8-12.2,8.7c1.5,2.5,11.2-10.1,12.8-7.4c1.5,2.5-13.8,6.2-12.4,8.7
						c2,3.5,11-10.7,12.9-7.4c1.3,2.2-14.4,4.8-12.9,7.5c1.5,2.6,11.2-10.3,12.9-7.4c1.7,3-13.5,7-12.3,9.1c1.1,1.9,11.6-9.9,13-7.5
						c2.1,3.6-13.6,7-12.5,8.9c1.7,2.9,11.3-10.7,13.1-7.5c2.1,3.6-14.1,6.2-12.7,8.6c1.2,2.1,11.5-10.4,13.1-7.6
						c1.4,2.3-14.5,6-12.5,9.4c1.1,1.8,11.8-10.2,13.3-7.7c2.1,3.7-14.7,5.9-12.7,9.4c1,1.8,11.6-10.8,13.4-7.7
						c1.9,3.3-14.3,6.4-13.1,8.6c1.4,2.4,11.8-10.6,13.5-7.8c2.2,3.8-14.8,6-13,9.2c1.1,1.8,12-10.5,13.6-7.8
						c0.9,1.5-14.3,7.3-13,9.6c1.5,2.5,12.2-10.6,13.7-7.9c1.6,2.8-14.9,6-13.7,8.1c1.3,2.2,12.8-9.7,13.8-7.9
						c1.9,3.4-15.1,6.7-12.8,10.7c2,3.4,12.1-11.4,14-8.1c2.2,3.8-16.3,4.3-14,8.1c1.4,2.5,12.4-11,14-8.1c1.5,2.6-14.9,7.6-13,10.9
						c1.6,2.7,12.7-11.2,14.3-8.3c1.1,1.8-16.3,5.2-14,9.3c2,3.5,13.2-10.5,14.5-8.3c1,1.8-14.8,8.4-13.8,10.3
						c2.4,4.1,13.1-11.2,14.7-8.5c1.1,2-16,6.5-14.5,9.1c1.3,2.3,13.6-10.6,14.8-8.5c1.7,3-15.7,7-14.7,8.8
						c1.6,2.8,12.8-12.1,14.8-8.6c1.5,2.7-15.9,7-14.4,9.5c2.3,3.9,13.7-10.8,14.9-8.6c1.6,2.8-15.4,8.4-14.3,10.3
						c1.6,2.8,14.1-10.7,15.2-8.8c2.4,4.1-16.4,6.8-15,9.2c1.7,3,14.1-10.7,15.2-8.8c1.3,2.2-15.7,8.7-14.6,10.5
						c1.6,2.7,13.8-12,15.5-9c2.2,3.8-16.2,8.5-14.9,10.6c1.9,3.4,14.6-11.2,15.8-9.1c2.4,4.1-16.7,8.1-15.2,10.8
						c2.1,3.7,13.6-13.7,16.1-9.3c2.5,4.4-16.9,8.9-15.3,11.7c1.7,2.9,14.5-13.1,16.6-9.6c2.6,4.5-17.8,8.1-16,11.4
						c2.6,4.6,14.6-13.8,17-9.8c1.1,1.9-19.3,6-16.9,10.1c2,3.4,15.3-12.9,17-9.8c1.4,2.5-19.2,6.2-16.9,10.2
						c1.4,2.5,14.6-14.3,17.1-9.9c2.8,4.8-18.9,7-17.1,10.1c2.5,4.4,14.9-13.9,17.2-9.9c2.3,4-18.4,8.1-16.9,10.6
						c1.8,3.1,15.8-12.6,17.3-10c1.2,2.1-17.7,10.6-16.4,12.8c2.8,4.8,15.9-14.2,18-10.4c1.2,2.1-19.4,8.7-17.5,12
						c2.8,4.8,16.3-14.8,18.7-10.8c2.6,4.5-19.8,10.2-17.8,13.7c1.6,2.8,18.9-14.6,20.5-11.8c1.7,2.9-22.9,8.2-20.1,12.9
						c1.9,3.3,18.1-17.7,21.2-12.2c2.1,3.7-22.5,10.2-21.1,12.7c3.6,6.3,35.7-32.1,40.7-23.5c3.3,5.7-43.3,20.5-39.9,26.4
						c4,6.9,37.5-28.6,40.5-23.4c4,7-44.4,16.8-40.4,23.9c4.4,7.7,34.7-33.6,40.6-23.4c5.4,9.3-43.1,20-40.1,25.2
						c3.3,5.7,35.5-32.9,40.9-23.6c2.8,4.8-46.1,15-40.7,24.4c3.8,6.6,38.7-29.4,41.8-24.1c2.9,5-45.7,19-41,27.1
						c9.2,16,53.5-51.4,62.4-36c6.4,11-66.9,30.1-61.6,39.3c8.7,15,51.9-52.4,61.6-35.6c6.1,10.6-70.4,22.5-60.9,38.8
						c4.3,7.4,57.4-42.5,61.5-35.5c9.8,17-69.9,22.4-61,37.9c9,15.6,51.7-52.5,61.5-35.5c5.8,10.1-67.7,25.6-61.3,36.7
						c9.1,15.7,54-49.2,61.8-35.7c8.4,14.6-67.3,27.2-61.5,37.3c10.8,18.6,71-70.6,83.8-48.4c6.2,10.8-90.3,38.8-83.5,50.5
						c12.2,21.1,70.6-69.8,83.1-48c6.7,11.6-95.9,26.8-83,49.2c10.6,18.4,77-57.7,82.7-47.8c11.8,20.4-88.6,39.7-82.4,50.4
						c6.4,11,71.6-65.4,82-47.3c10.7,18.6-94.8,25.9-81.9,48.4c5.9,10.1,74-60.5,81.7-47.2c6.2,10.7-94.2,25.8-81.6,47.5
						c12.6,21.9,72.8-62.2,81.6-47.1c6.3,10.9-94,28.1-81.2,50.2c5.6,9.7,74.4-57.5,80.7-46.6c13.1,22.7-88.9,33.4-80.6,47.7
						c7.8,13.5,75.3-55.3,80.4-46.4c8.2,14.1-91.7,29.7-80.1,49.8c11.7,20.3,69.4-63.4,79.5-45.9c10.5,18.2-85.8,35.7-79.5,46.6
						c9.6,16.7,70.5-61.2,79.4-45.8c8.4,14.6-88.6,30.7-79.2,46.9c5.1,8.9,72.5-57,79.1-45.7c9.1,15.8-84.6,38-78.8,48
						c6.6,11.4,70.8-58.7,78.5-45.3c5.4,9.4-83.5,38.8-78.1,48.1c5.5,9.6,68.9-60.1,77.7-44.9c9.1,15.8-86.1,30.5-77.7,45.1
						c6.9,12,66.3-64.6,77.7-44.8c6.7,11.6-89.6,26.3-77.2,47.7c8.5,14.8,64.7-65.4,76.9-44.4c10.8,18.6-87.4,27.6-76.5,46.4
						c5,8.6,65.1-63.5,76.3-44.1c5.9,10.2-87.3,26.5-75.8,46.3c11.1,19.2,64.3-63.4,75.7-43.7c5.3,9.1-83.7,31.2-74.9,46.5
						c9.5,16.5,65.6-59.1,74.8-43.2c8.2,14.2-85.3,25-74.7,43.3c6.7,11.6,63.8-62.2,74.7-43.2c8.4,14.5-85.3,25.6-74.3,44.5
						c7.1,12.3,64.6-60,74.4-43c11.6,20.2-82.8,28.9-74.1,44c11.4,19.8,63.5-61.3,74.2-42.8c6.6,11.5-82.6,29-73.5,44.6
						c10.9,18.9,69.1-50.7,73.8-42.6c9.2,16-83.9,25.6-72.9,44.8c9.2,15.9,66.8-53.5,73.3-42.3c8.1,14.1-82.8,26.2-72.1,44.8
						c7,12.2,62.7-59.3,72.7-42c7.1,12.3-82.9,24.4-71.6,43.8c7.4,12.9,64.2-55.5,72.2-41.7c11.5,20-77.6,32.2-72.1,41.7
						c7.7,13.3,67.1-50.3,72.2-41.7c8.6,15-82.6,23.5-71.4,42.8c8.9,15.4,65.8-51.7,71.8-41.4c9.9,17.2-74.6,35.8-70,43.7
						c6.2,10.7,59.7-60.9,71.1-41.1c5.6,9.7-77.7,28.3-69,43.4c9.5,16.5,105.9-85.9,116.7-67.4c8.5,14.7-131.3,41.8-116.4,67.6
						c12.4,21.5,101.5-92.3,116.1-67c14.8,25.6-127.1,46-113.8,69.1c12.4,21.4,97.9-84.9,110.2-63.6c16.5,28.6-123.8,38.1-108,65.4
						c13.2,22.9,95-77.4,104.8-60.5c12.2,21.1-117.3,38.7-104.4,61c9.2,15.9,97-71.5,103.7-59.9c9.2,16-112.5,45.4-103,61.8
						c11.3,19.6,94.1-69.2,100.6-58.1c11.4,19.8-113.5,37.9-100.5,60.5c8.6,14.9,88.8-72.2,97.8-56.5
						c10.6,18.3-109.4,36.7-97.8,56.6c12.5,21.7,87.3-74.4,97.7-56.4c7.1,12.2-111.2,37-97.9,60c11,19.1,84.5-71,94.1-54.3
						c6.2,10.8-105,36.1-94.2,54.8c6,10.5,80.9-76.3,93.7-54.1c9.7,16.9-109.1,30-93.8,56.4c9.7,16.8,83.3-67,91.5-52.8
						c10.9,18.9-103.7,32.4-91.6,53.4c10.9,18.9,79.4-72.7,91-52.5c6.6,11.5-101,36.4-91.1,53.6c9.9,17.2,80.7-68,90-52
						c12.9,22.4-98.1,38.9-90,52.8c8.4,14.5,75.6-75,89.2-51.5c7.5,13.1-98.3,35.9-89.2,51.6c9.4,16.4,82.8-62.2,89-51.4
						c8.7,15.1-96.6,41.6-89.2,54.3c11.5,19.9,73.8-71.1,86.2-49.8c11.1,19.3-98.8,31.8-86.3,53.4c12,20.9,72.8-64.5,82.6-47.7
						c9.4,16.2-89.9,36.7-82.6,49.3c6,10.4,73.4-59.6,80.9-46.7c7.5,13.1-92.1,29.6-81,48.9c8.2,14.3,68.4-63.3,78.7-45.5
						c6.4,11-86,33.3-78.8,45.9c8.6,15,70-59.5,78.3-45.2c10.7,18.6-87.2,32-78.3,47.2c6.4,11,68.5-57.3,76.2-44
						c6.5,11.3-81.8,35.6-76.2,45.3c11.7,20.3,63.6-62.9,74.9-43.2c8.2,14.3-82.7,29.7-74.9,43.3c11.8,20.5,69.6-52.3,74.8-43.2
						c11.2,19.4-80.8,35.7-74.9,45.8c6,10.3,63.6-56.6,72.2-41.7c7.5,12.9-78.7,33-72.3,44.1c7.7,13.3,61.5-54.7,69.8-40.3
						c5.4,9.3-74.8,32.2-69.8,41c10.9,18.9,63.2-49.9,69-39.9c9.4,16.3-79.2,25.5-69.2,42.9c8.5,14.7,55.9-50.7,63.8-36.9
						c5.4,9.3-72.7,23.4-63.9,38.6c7.7,13.3,52.6-53.1,62.4-36c9.8,17-70.4,24.6-62.5,38.4c8.6,14.8,53.3-51.3,62.2-35.9
						c7.7,13.3-71.1,20.9-62.2,36.2c8.3,14.5,55.1-48.3,62.2-35.9c6.1,10.5-72.3,22-62.3,39.2c10.1,17.5,57.3-45,62.5-36.1
						c6.8,11.8-68.8,27.7-62.6,38.6c8.7,15,57-46,62.7-36.2c5.4,9.3-71.8,23.1-62.8,38.6c5.4,9.4,53.5-52.5,62.9-36.3
						c9.2,15.9-72.7,22.2-63,39.1c6.9,12,53.7-52.7,63.1-36.4c6.4,11.1-71.7,21.8-63.1,36.6c9.3,16.1,53.9-52.4,63.1-36.4
						c10,17.4-69.6,28.2-63.2,39.2c5.2,9.1,53.4-53.8,63.4-36.6c4.9,8.4-67.7,32-63.5,39.3c4.8,8.3,53.7-53.8,63.6-36.7
						c10,17.3-73.9,21.2-63.7,38.8c7.4,12.8,54.4-53.1,63.8-36.8c6.7,11.6-74.1,20.8-63.9,38.6c5.7,9.9,58.3-46.7,63.9-36.9
						c6.2,10.7-68.4,30.3-64,38c10,17.3,57-49.1,64-37c4.6,8-69.9,30.8-64.2,40.7c7,12.1,55.7-52.2,64.4-37.2
						c5.1,8.7-74.3,22.3-64.4,39.3c4.7,8.2,55-53.9,64.6-37.3c8.3,14.4-71.5,28.5-64.7,40.3c4.7,8.2,54.3-55.6,64.8-37.4
						c10.5,18.2-75.1,22.9-64.9,40.5c7.2,12.5,57.7-50.3,65.1-37.6c9.9,17.1-71.6,30.4-65.6,40.8c9.4,16.4,58.5-50.6,65.8-38
						c8.2,14.2-75.4,27.1-66.7,42.1c6,10.4,56.2-57.2,66.9-38.6c5.9,10.2-72.8,32-67.4,41.2c8.6,14.9,60.5-51.3,67.6-39
						c8.2,14.3-76.2,25.2-67.7,39.9c4.7,8.1,57.8-56.3,67.8-39.1c8.2,14.2-73.9,33-68.4,42.5c8.4,14.6,62.5-50,68.5-39.6
						c6.4,11-79.2,26.3-69.2,43.6c8.5,14.7,63.8-49.8,69.4-40.1c8.8,15.2-80.1,26.7-70.1,44.1c5.4,9.3,62.1-54.6,70.2-40.6
						c11,19.1-76.4,31.1-70.4,41.5c8,13.8,62.6-54.3,70.4-40.7c10.3,17.8-78.5,31-71,44.1c5.5,9.5,62.2-56.2,71-41
						c7.8,13.5-81.8,27-71.5,44.7c11,19,60.7-59.8,71.4-41.2c6.3,10.9-79.1,31.5-71.9,44c5.4,9.4,63.5-55.7,71.8-41.4
						c9.2,16-83.5,23.5-72.1,43.4c11.6,20.1,61.5-59.7,72-41.6c6.8,11.7-79,31.7-72.3,43.3c5.6,9.8,65.5-53.4,72.3-41.7
						c5.4,9.4-79.7,31.6-72.6,43.9c9.5,16.5,62.7-59.2,72.6-41.9c6.2,10.7-81.6,29.8-73,44.5c6.5,11.2,65.7-55.2,73.2-42.3
						c9.9,17.2-78.6,33.7-73.3,42.9c10.9,18.8,66.3-54.6,73.4-42.4c9.4,16.2-85.8,25-73.8,45.8c10.4,18,63.9-61,74.4-42.9
						c6.9,12-85.7,25.1-74.6,44.4c10,17.3,65.6-59.3,74.9-43.2c10.5,18.1-82.3,33.3-75.2,45.6c5.8,10.1,69.1-55.2,75.7-43.7
						c6.1,10.6-81.6,35.9-76,45.7c11.5,20,67.1-60,76.3-44.1c7.8,13.5-81.9,38.8-76.8,47.6c11.8,20.4,70.3-57.1,77.4-44.7
						c12,20.8-84.7,35.6-77.8,47.4c8.9,15.4,70.3-59,78.3-45.2c5.9,10.2-86.5,31.5-78.3,45.7c11.9,20.6,67.9-63.4,78.4-45.3
						c5.2,8.9-89.7,29-78.8,47.9c7.3,12.6,72.8-56.7,79.2-45.7c10.9,18.9-90.1,30.7-79.6,49c11.2,19.3,71.4-61.2,80.1-46.2
						c9.4,16.3-85.6,38.8-80.3,48c5.2,9.1,75.4-55.4,80.6-46.5c12.5,21.6-92.8,26.4-80.7,47.5c7.1,12.3,74.1-58.4,80.8-46.7
						c7.3,12.6-88.5,33.4-80.8,46.8c10.2,17.7,73.6-59.3,80.9-46.7c8.3,14.4-91.1,32.9-81.3,49.8C583,420,642,333.5,654,354.2
						c7,12.1-90.3,36.7-82.2,50.7c5.6,9.6,76.7-58.1,82.7-47.7c9.6,16.6-94.4,31-83,50.7c9.3,16.1,75.9-61.2,83.4-48.2
						c6.9,12-93.5,32.7-83.6,49.8c6.4,11.1,75.8-62.4,83.9-48.4c12.9,22.4-91.3,37.6-84.1,50.1c13,22.5,73-68.2,84.3-48.7
						c8.5,14.7-93.6,33.7-84.4,49.5c6.6,11.4,74.4-66.3,84.5-48.8c8,13.9-94.2,33.3-84.7,49.9c7.7,13.4,72-71.1,84.8-49
						c6.5,11.3-94.6,32.4-84.8,49.4c8.1,14.1,72.8-70,84.9-49c10.5,18.1-91.8,39.7-85.2,51.1c8.8,15.2,77.5-63.1,85.4-49.3
						c7.1,12.4-94.5,38.3-85.9,53.1c8.2,14.2,75-69.7,86.4-49.9c11.9,20.7-96.4,35.9-86.7,52.6c12,20.8,73.9-73.2,87.1-50.3
						c11.5,19.8-93.8,41.6-87.4,52.7c11.8,20.4,79.7-64.4,87.7-50.6c12.9,22.3-100.5,32.6-88.1,54.1c9.8,17,76.6-71.8,88.5-51.1
						c8.4,14.6-97.2,38.2-88.7,52.8c6.6,11.4,75.3-75.1,89-51.4c11.2,19.3-96.7,39-89.1,52.2c11.9,20.7,79.5-68.3,89.2-51.5
						c6,10.3-95.8,43.2-89.5,54.2c10,17.4,75.9-76.1,89.8-51.9c13.6,23.5-104.6,30.7-90.3,55.5c9.1,15.8,83.5-64.9,90.7-52.4
						c8.9,15.4-104.1,29.6-90.7,52.7c11.2,19.4,76.5-77.1,90.8-52.4c13.5,23.4-101,36.6-91,54c9.1,15.7,79-73.6,91.2-52.6
						c11.1,19.3-103.7,33.8-91.4,55c10.7,18.6,78.4-76,91.7-53c9.4,16.4-101.9,36.8-91.9,54.1c8.7,15.1,85.3-64.7,92-53.1
						c6.6,11.5-106.4,32.3-92.4,56.6c6.7,11.6,82.5-71.4,92.8-53.6c6.5,11.3-106.1,30.7-92.8,53.6c11.1,19.2,82.7-71.1,92.8-53.6
						c11.5,19.9-107.2,30.2-93,54.9c8.7,15.1,80.9-74.9,93.1-53.8c10,17.3-99.7,43.4-93.2,54.5c8.5,14.8,83.9-70.2,93.3-53.9
						c11.8,20.5-105.5,36.1-93.6,56.6c9.4,16.3,79.4-79.4,93.9-54.2c6.4,11.1-103,39.6-94,55c14.5,25.1,85.9-68.6,94.1-54.3
						c13.2,22.9-103.4,40.3-94.3,56c9.7,16.8,80.5-78.7,94.5-54.6c6.8,11.7-107,34.3-94.6,55.7c9.2,16,88.2-66.2,94.8-54.7
						c14.1,24.4-102.4,45.5-95.1,58c15.2,26.4,83.7-75.6,95.5-55.1c13.7,23.8-107.8,37.9-95.9,58.5c11.7,20.2,86.6-72.4,96.3-55.6
						c13,22.5-104.4,44.1-96.5,57.7c12,20.7,88.8-69.6,96.8-55.9c12.7,21.9-104.7,43.7-96.9,57.2c8.4,14.6,86.4-74.6,97.1-56
						c14,24.3-108.7,37.9-97.3,57.7c7.6,13.2,83.4-80.7,97.5-56.3c14.7,25.5-106.4,43-97.7,58.1c9.8,16.9,87.1-75.2,97.9-56.5
						c8.8,15.2-110.9,34.6-97.9,57c9.3,16.2,89.3-71.6,98-56.6c15.4,26.6-106.9,41.6-98,57c10.5,18.1,85.6-78.2,98.1-56.6
						C677.5,438.6,551,447.4,564,470c12.2,21.1,91.2-69,98.3-56.8c6.6,11.5-108.3,42.2-98.6,59.1c14.1,24.4,91.9-69.1,98.8-57.1
						c10.9,18.8-106.3,45.3-98.9,58c14.1,24.4,84.1-83.1,99-57.2c12.1,20.9-108.1,45.6-99.4,60.6c9.7,16.9,87.5-79,99.8-57.6
						c10.6,18.3-112.3,39-100.1,60.1c9.7,16.8,92.5-71.5,100.3-57.9c11.3,19.6-115.5,31.8-100.4,58.1c14.1,24.4,87.3-80.6,100.4-58
						c7.2,12.4-107.3,47-100.5,58.8c11,19.1,90.5-75.4,100.6-58.1c13.9,24-113.7,39.9-101,61.9c12.9,22.4,89.2-79.6,101.4-58.5
						c14.1,24.5-110.8,43-101.5,59.1c6.8,11.8,85.4-86.5,101.5-58.6c9.2,16-116.5,33.4-101.6,59.3c11.8,20.5,94.2-71.7,101.7-58.7
						c14.1,24.4-111.9,45.4-102.1,62.4c13,22.4,94.3-73.2,102.5-59.2c9.1,15.8-119,34.6-102.8,62.6c13.5,23.4,91.6-79.6,103.2-59.6
						c15.3,26.6-114.3,41-103.3,60.1c14.6,25.3,94-75.7,103.3-59.6c13.2,22.8-117.7,34.8-103.3,59.7c11.5,19.9,94.8-74.5,103.3-59.7
						c10.3,17.9-120.5,33-103.6,62.3c14.8,25.7,89.8-84.5,103.9-60c13.9,24-116.3,42.8-104.3,63.7c15,26,96.5-74.6,104.7-60.4
						c10.3,17.8-114,45-104.7,60.9c11.7,20.3,89.4-87.1,104.8-60.5c8.8,15.2-116.8,43.7-105.1,63.9c14,24.2,89.1-89.3,105.5-60.9
						c7.1,12.3-118.1,43-105.8,64.2c16.2,28,97.3-76.7,106.2-61.3c9.1,15.7-114.6,49.6-106.4,63.7c12.5,21.7,98.3-76,106.7-61.6
						c7.5,13-117.7,44.8-106.9,63.6c10.6,18.3,96.9-79.5,107.1-61.8c13,22.5-123.2,34.2-107.1,62.1c12.9,22.4,99.8-74.5,107.2-61.9
						c16.9,29.3-114.1,50.1-107.2,62.2c14.6,25.2,97.5-78.7,107.2-61.9c10.5,18.2-114.8,49-107.2,62.2
						c12.6,21.7,90.2-91.5,107.3-61.9c17.1,29.6-122.5,38.9-107.6,64.8c11.4,19.8,96.4-82,107.8-62.3
						c12.2,21.1-121.2,41.7-108.1,64.4c12.2,21.1,91-92.4,108.3-62.5c14.7,25.4-121.1,44.1-108.6,65.6
						C575.6,549,656.2,437,667.7,457c13.5,23.4-116.3,51.2-109,63.8c8.5,14.8,95.9-85.8,109.1-63c11.2,19.4-121.9,43.3-109.3,65
						c9.3,16.1,96.7-85.4,109.5-63.2c16.2,28.1-127.7,35.9-109.8,66.7c16.3,28.2,98.3-84.3,110.2-63.6
						c10.9,18.9-118.2,52-110.4,65.5c13.1,22.7,95.5-90,110.6-63.8c8.9,15.4-122.2,48-110.9,67.5c13.7,23.8,98.2-86.9,111.3-64.3
						c10.5,18.2-121.1,51.4-111.6,67.8c10.3,17.9,98.6-87.8,112-64.7c14.4,24.9-128.5,38.2-112.2,66.5c13,22.6,99.3-87.4,112.3-64.9
						c14.2,24.6-126.8,40.6-112.4,65.5c18.1,31.3,103.7-80.1,112.5-64.9c10,17.4-124,45.9-112.5,65.6c14.6,25.2,101.7-83.8,112.6-65
						c18.1,31.4-124.9,44.7-112.7,65.8c9.1,15.7,95.5-94.9,112.8-65.1c17.4,30.1-129.4,37.6-112.9,66.2
						c7.5,12.9,103.4-81.8,113-65.2c17.8,30.8-129,38.2-113,65.9c16.2,28.1,98.2-91.1,113.1-65.3c18.1,31.3-120.6,55-113.3,67.7
						c14.5,25,98.3-92,113.6-65.6c8.3,14.3-122.4,53.8-113.8,68.6c9.5,16.4,100.3-89.8,114.1-65.9c13.1,22.7-124.8,49.3-114.3,67.5
						c10.1,17.4,100-91.1,114.4-66.1c8.7,15.1-129.6,42.4-114.6,68.3c14.4,25,100.5-91.2,114.9-66.3c14,24.2-127.7,47.1-115.1,68.9
						c15.1,26.1,98.2-96.3,115.3-66.6c13.1,22.7-126.3,47.9-115.4,66.8c15.8,27.4,105.6-83.6,115.4-66.6
						c16.4,28.4-126.2,49.5-115.5,68.1c11.8,20.5,97.6-98,115.6-66.8c16,27.8-134.1,36.6-115.8,68.4
						c13.2,22.9,100.6-93.4,115.9-66.9c12.3,21.2-130.1,46.4-116.2,70.5c10.8,18.8,108.3-81.7,116.6-67.3
						c17.3,30-126.9,49.9-116.6,67.7c13.5,23.3,108.8-80.9,116.7-67.4c16,27.8-130.2,45-116.7,68.4c16.1,27.9,101.2-94.5,116.8-67.5
						c11,19-133.6,40.3-117,69.2c16.6,28.8,102.8-92.5,117.1-67.6c12.6,21.8-135.6,39-117.3,70.5c18.4,31.9,100.3-97.9,117.6-67.9
						c9.5,16.5-127,55.3-117.9,71.1c10.2,17.6,104.9-91.3,118.2-68.2c11.8,20.5-129.1,51.1-118.3,69.8
						c17.8,30.9,108.5-85.6,118.4-68.4c12.6,21.9-130.3,51.7-118.7,71.8c10.2,17.7,111.3-82.1,119-68.7
						c9.9,17.1-137.2,37.8-119,69.3c15.5,26.9,110.1-84.4,119.1-68.8c11.4,19.7-130.1,52.3-119.2,71.1
						c11.8,20.4,102.4-98.6,119.4-69c10.2,17.7-133,49-119.6,72.2c8.4,14.5,110.3-85.9,119.9-69.2c18.4,31.8-131.6,51.1-120,71.2
						c18,31.2,111.9-83.7,120.2-69.4c17,29.5-132.5,45.8-118.2,70.6c14.5,25.1,106.8-88.4,118.4-68.4c9.8,17-130.2,43.8-115.8,68.8
						c13,22.6,99.3-95.9,116-67c15,26-126.4,42.9-112.1,67.6c11.7,20.2,99.2-87.7,112.4-64.9c14.7,25.5-129.2,34.7-111.7,65
						c7.9,13.7,98-88.3,111.7-64.5c9,15.7-122.9,44.7-111.4,64.5c9.9,17.2,100-84.2,111.4-64.3c16.9,29.2-124.2,40-110,64.6
						c15.3,26.5,96.3-87.5,110.1-63.5c8.8,15.2-119,46.8-109.2,63.7c13.7,23.6,93.5-90.4,109.2-63.1
						c10.2,17.7-121.6,40.4-108.5,63.2c13.4,23.2,96.9-82.9,108.5-62.7c10.8,18.8-113.6,50.5-106.4,63
						c13.9,24.1,91.2-88.2,106.6-61.5c14.3,24.7-111.6,46-102.2,62.2c14.8,25.6,91.5-78.3,102.5-59.2c8.5,14.8-114.6,34.1-99.9,59.6
						c12.8,22.2,90.5-74.3,100.1-57.8c7.8,13.5-106.8,36.6-94.5,57.9c11.1,19.2,83.9-73.7,94.9-54.8c9.5,16.5-107.3,29.3-92.6,54.8
						c6.7,11.6,82.6-71.2,92.8-53.6c13.5,23.5-95.3,42.7-89,53.6c6.2,10.7,75.7-75,89.2-51.5c8.9,15.5-100.7,29.6-88.1,51.5
						c8.5,14.7,80.7-63.9,88.2-50.9c6.3,10.9-90.9,39-84,50.9c12.5,21.7,76.3-62.4,84.2-48.6c13.1,22.7-89.1,36.8-82.3,48.6
						c5.9,10.3,76.7-57.5,82.4-47.6c13.1,22.6-94.9,24.8-81.7,47.6c9,15.5,73.1-62.2,81.7-47.2c10.7,18.6-91,29.7-80.9,47.2
						c7,12.1,71.8-62.7,81-46.7c9.5,16.4-86.3,35.6-79.8,46.7c7.1,12.2,69.4-64.3,79.9-46.1c12.2,21.1-89.6,24.6-77.2,46.1
						c8,13.9,66.9-62.7,77.3-44.6c10,17.4-87.7,23.6-75.6,44.6c10.6,18.3,63.7-64.5,75.7-43.7c5.3,9.1-79.3,30.5-71.6,43.7
						c10.4,17.9,61.4-59.5,71.9-41.5c10.6,18.4-79.6,25.5-70.4,41.5c6.7,11.7,64.7-50.6,70.5-40.7c9.5,16.5-72.7,26.8-64.7,40.7
						c9.6,16.6,54.7-55.2,65-37.5c8.5,14.7-72.5,21.1-63,37.5c5.3,9.2,56.1-48.6,63.1-36.4c5.2,9-64.6,25.9-58.5,36.4
						c4.7,8.2,53.5-43.2,58.8-33.9c4.2,7.3-62.5,23.7-56.6,33.9c6.4,11.2,52.9-39.2,56.7-32.7c7.3,12.7-56.9,25.3-52.7,32.7
						c6.8,11.7,48.7-37.8,52.9-30.5c6.9,12-57.8,17.4-50.2,30.5c6.6,11.5,43.8-40.5,50.4-29.1c7,12.1-50.1,22.4-46.2,29.1
						c3.8,6.6,43-32.8,46.5-26.8c5.2,9-52.2,16-46,26.8c7.4,12.8,38.9-39,46-26.6c6.5,11.3-50,16.3-44.1,26.6
						c6.5,11.2,40.6-31.6,44.2-25.5c4.2,7.3-44.7,17.3-39.9,25.5c5.3,9.3,36.3-29.9,40.2-23.2c5.9,10.3-40.3,15.1-35.6,23.2
						c5.2,9,31.7-27.9,35.8-20.7c4.4,7.7-38.6,15.4-35.5,20.7c5.1,8.8,29.8-30.4,35.5-20.5c2.4,4.2-33.8,15.7-31,20.5
						c4.5,7.8,26.4-26.3,31.2-18c3.5,6-34,11.6-30.3,18c3.8,6.5,27-23.4,30.4-17.5c2.7,4.6-30.7,13.2-28.2,17.5
						c2,3.5,25.3-21.6,28.3-16.3c3.8,6.5-30.2,11.5-27.4,16.3c3.4,5.9,24.3-21.3,27.4-15.8c3.4,5.9-28.4,12.5-26.5,15.8
						c3.7,6.5,23.2-21.2,26.5-15.3c2.4,4.2-24.7,10-21.7,15.3c3,5.2,19.7-16.3,21.9-12.6c2.8,4.8-18.9,10.1-17.4,12.6
						c1.5,2.5,16-13,17.6-10.2c1.8,3.1-12.6,7.3-11.1,9.9c0.9,1.5,9.9-8.5,11.1-6.4c0.7,1.2-6.3,4.1-5.6,5.4
						c0.3,0.6,3.5-3.4,4.1-2.4"/>
					<path class="st1" d="M583,89.1c0.4,0.6,3-2.5,3.4-1.9c0.9,1.6-5.4,4-4.9,4.8c1.3,2.2,7.6-6.5,8.5-4.9c0.9,1.6-11,5.7-9.4,8.4
						c0.8,1.4,10.9-8.9,12-6.9c1.8,3-13,6.9-12.1,8.5c1,1.7,11.6-9.7,12.9-7.4c1.6,2.7-14.2,7.8-12.8,10.3c0.9,1.6,11.9-11.3,13.8-8
						c2.5,4.3-16,7.4-13.7,11.3c2.1,3.7,12.6-11.8,14.6-8.4c1.1,1.8-15.7,8-14.5,10.1c1.4,2.4,13-11.6,14.8-8.5
						c1.6,2.8-16.3,6.8-14.7,9.5c1.2,2.1,13.2-11.4,14.8-8.6c1.8,3.2-15.9,9.5-14.7,11.7c2,3.5,13.5-11.1,15-8.6
						c2,3.5-16.7,8.8-14.8,12.1c1.7,3,13-12.3,15.1-8.7c1.2,2-16.4,8-15,10.4c1.7,3,13.3-12,15.2-8.8c1.9,3.4-16.6,6.4-15.1,9
						c1.1,2,14-10.8,15.2-8.8c1,1.8-16.8,6.4-15.1,9.2c1.2,2,13-12.5,15.2-8.8c2.2,3.8-16.4,9.2-15,11.5c1.7,2.9,12.9-13,15.3-8.8
						c1.1,2-16.9,7.2-15.2,10.1c2.2,3.7,13.7-11.7,15.3-8.8c1.4,2.5-17.8,5-15.3,9.3c1.9,3.3,12.9-13.1,15.3-8.9
						c1.1,2-16.6,7-15.3,9.3c1.9,3.2,14.1-11,15.4-8.9c1.2,2.1-16.6,9.7-15.1,12.2c1.5,2.5,13.8-11.8,15.4-8.9
						c1.8,3.1-17.8,7.1-15.3,11.4c1.7,3,13.6-12.3,15.5-9c1.9,3.3-16.6,8.8-15.4,11c2.1,3.6,13.2-13.1,15.6-9
						c1.7,2.9-18,5.7-15.5,10.1c1.6,2.8,13.2-13.1,15.6-9c2.5,4.3-17.9,6.4-15.4,10.7c2.3,3.9,13.6-12.5,15.6-9
						c2.2,3.9-16.6,7.6-15.6,9.4c1.6,2.8,13.2-13.1,15.6-9c2.2,3.9-16.8,7.4-15.5,9.7c1.3,2.2,14.3-11.3,15.6-9
						c1.9,3.4-17.1,8.8-15.4,11.8c1.2,2.1,13.5-12.7,15.6-9c2.2,3.7-17.6,8.3-15.3,12.3c1.3,2.3,13.5-12.8,15.7-9
						c1.8,3-17.3,9-15.3,12.4c1.4,2.5,14.5-11,15.7-9c1.8,3.1-17.1,8.7-15.4,11.5c1.5,2.7,14.5-11,15.7-9.1
						c2.2,3.7-16.9,8.7-15.5,11.3c2,3.5,14.1-11.7,15.7-9.1c2.1,3.6-17.5,8.4-15.4,12.1c1.9,3.3,14.7-10.9,15.7-9.1
						c1.6,2.8-17.7,7.4-15.5,11.2c1.6,2.8,13.8-12.4,15.7-9.1c2.4,4.2-17.2,9.1-15.4,12.2c2.4,4.1,13.5-12.8,15.7-9.1
						c2.5,4.4-17.6,6.2-15.6,9.6c1.1,1.8,13.6-12.7,15.7-9.1c1.1,2-16.8,8.6-15.5,10.8c1.5,2.6,13.3-13.1,15.7-9.1
						c1.5,2.7-18.1,5.1-15.7,9.3c1.7,2.9,13.7-12.5,15.7-9.1c1.6,2.8-16.9,7.9-15.6,10.2c1.7,2.9,13.9-12.3,15.7-9.1
						c1.3,2.2-17.2,8.3-15.6,11.2c1.1,1.8,13.4-13.3,15.8-9.1c1.4,2.5-17.4,8-15.7,10.9c1.7,3,14.3-12.1,15.9-9.2
						c1.2,2-17.4,8.1-15.9,10.7c2.5,4.4,15-11.2,16.1-9.3c1.6,2.8-17.2,7.7-16.1,9.6c1,1.8,14.2-12.6,16.1-9.3
						c1.6,2.8-18.4,6.2-16.1,10.2c1.8,3.1,14.1-13.1,16.3-9.4c2.2,3.8-18.9,7.4-16.6,11.3c2.3,4,14.2-14.3,16.9-9.7
						c2.5,4.4-21.1,7.6-18.1,12.8c2.6,4.5,16.4-14.3,18.5-10.7c2.6,4.6-21.9,6.5-18.9,11.7c1.4,2.4,17.8-13.1,19-11"/>
				</g>
			</g>
		</g>
		<g>
			<g>
				<g>
					<path class="st2" d="M611.1,343.8c0.1,0.2,3.5-2.3,3.6-2.1c0.1,0.2-3.8,4.9-3.8,4.9c0.5,0.9,10.1-5.8,10.1-5.8s-9.5,6.8-9,7.7
						c0.6,1,12.3-7.1,12.3-7.1c0.3,0.5-11,9-11,9s13.6-8,13.6-7.9c0.2,0.3-12.3,9.6-12.3,9.6l14.4-8.3c0.4,0.6-13.3,9.6-13.3,9.6
						c0.5,0.8,14.7-8.5,14.7-8.5l-13.1,10.3c0.1,0.1,14.8-8.9,14.9-8.6c0,0.1-14.1,9.5-13.9,9.8l15.1-8.7c0,0.1-13.6,10.4-13.6,10.4
						l15.3-8.8c0.2,0.4-13.9,10.4-13.9,10.4c0.1,0.2,15.4-8.9,15.4-8.9c0.7,1.1-14.7,9.3-14.1,10.4c0,0,15.5-9,15.6-9
						c0.4,0.6-14.7,10-14.6,10.1l15.7-9.1c0,0-14.5,10.2-14.1,10.9c0.6,1.1,15.9-9.2,15.9-9.2c0.2,0.3-14.3,11-14.3,11
						c0.4,0.7,15.7-10,16.1-9.3c0.2,0.3-16,8.9-15.3,10.2c0.6,1,16.1-9.5,16.2-9.4c0.3,0.6-14.9,10.9-14.9,10.9S645,359,645,359
						c0.7,1.2-14.9,11.3-14.9,11.3c0.3,0.5,16.5-9.5,16.5-9.5l-15.3,11c0.8,1.4,16.5-10.1,16.7-9.7c0,0-16.2,10-15.8,10.8l17.1-9.9
						c0.1,0.2-16.2,10.9-16.2,10.9c0,0,16.7-11.7,17.6-10.2c0.2,0.3-16.9,10.9-16.7,11.2c3.2,5.5,92.4-62.5,96.4-55.6
						c0,0-98,52-94.9,57.4c3.7,6.4,94.1-54.3,94.1-54.3c0.5,0.9-94.2,53.5-92.8,55.9c0,0,88.2-59.9,92.1-53.2l-91,54.5
						c1.9,3.3,90.5-52.2,90.5-52.2c1.1,1.8-93.9,45.8-89.6,53.3l89.2-51.5l-88.2,52.6c0,0,85-55.6,87.8-50.7
						c1.9,3.3-86.9,51.8-86.9,51.8c0.3,0.5,85.5-51.7,86.5-50c0,0-87.5,47.6-85.2,51.5c4.3,7.4,84.7-48.9,84.7-48.9
						c3,5.2-83.9,49.8-83.9,49.8c1.4,2.5,81.3-52.1,83.6-48.3c0,0-85.8,44-82.7,49.3c0,0,81.1-49.8,82.4-47.6
						c0,0-85.4,41.7-81.3,48.9c1.3,2.2,80.9-46.7,80.9-46.7c0.5,0.8-79.5,48.4-79.5,48.4l79.1-45.6c0,0-78.8,45.4-77.8,47.1
						c0.1,0.1,74.4-50.1,77.5-44.7c2.6,4.6-76.1,46.3-76.1,46.3c2.7,4.7,76.1-43.9,76.1-43.9c0.6,1.1-77.3,41-74.5,45.7
						c3.6,6.2,74.9-43.3,74.9-43.3s-77.8,37.9-74.2,44.1c1.9,3.2,74.3-42.9,74.3-42.9c1.7,3-73.5,43.9-73.5,43.9
						s70.1-48.8,73.7-42.5c2.3,4-72.7,43.5-72.3,44.1c0,0.1,72.6-41.9,72.6-41.9c3.4,5.9-73.5,39.3-71.2,43.4
						c0.8,1.4,70.3-43.2,71.4-41.2c0.4,0.7-70.3,42.4-70.3,42.4l70.4-40.6c0,0-69,41.4-68.7,41.9l68.9-39.8
						c0.1,0.3-67.7,40.4-67.7,40.4c1.5,2.6,67.1-40.3,67.8-39.1l-66.3,40.5c0,0,65.1-40.5,66.3-38.3c0,0-66.8,38-65.4,40.4
						c0.8,1.3,64.3-39.9,65.5-37.8l-65.2,39.7l65.2-37.7l-65.1,39.4c2.1,3.7,61.9-43,65-37.5c0,0-65.3,38.4-64.9,39.2
						c3,5.3,61.5-43.1,64.8-37.4L662.1,413c0,0,63.3-39.3,64.5-37.2c0.6,1.1-66.4,35.5-64.2,39.3l64-37l-63.8,39.4
						c0.7,1.2,63.5-36.6,63.5-36.6c3.3,5.7-63.3,38.4-63.3,38.4c2.8,4.8,59.8-41.8,63-36.4c1,1.7-62.8,38-62.8,38
						c1.7,2.9,59.7-40.9,62.5-36.1l-62.1,38.7l61.5-35.5l-61.3,36.9l60.9-35.2c0.8,1.4-61.3,36.2-60.6,37.4l59.9-34.6
						c2.8,4.8-59.7,35.9-59.7,35.9c0.1,0.2,58.4-35.6,59.2-34.2c0,0-59.7,35.1-58.9,36.5l57.8-33.4c2.5,4.3-59.7,31.9-57.4,35.7
						c0.8,1.4,54.2-35.7,56.1-32.4c1,1.7-57.4,31.8-55.8,34.6c0,0,52.3-34.8,54.3-31.4c0.2,0.4-56.9,28-54.1,32.8
						c0,0,53.5-32.4,54.2-31.3c0,0-55.7,29.6-54,32.7c0,0,53.7-31.7,54-31.2c2.2,3.8-54.6,31.5-53.7,33c1.4,2.5,52.4-33.4,53.8-31.1
						c2.2,3.8-53.5,33.4-53.5,33.4l53.5-30.9l-53.2,33.3c0.1,0.2,53.3-30.7,53.3-30.7l-52.9,33.3l53-30.6c0.9,1.6-52.6,33-52.6,33
						c0.1,0.2,52.7-30.4,52.7-30.4s-54,29.7-52.4,32.5c0,0,51.2-32.4,52.4-30.3c0.7,1.2-52.8,30.8-52.2,31.9
						c0.1,0.2,52.3-30.2,52.3-30.2s-53.9,29.2-51.9,32.7l52-30c0.7,1.2-51.7,32-51.7,32s50.7-31.8,51.8-29.9
						c1.6,2.8-51.4,32.2-51.4,32.2c1.3,2.2,51.5-29.7,51.5-29.7s-52.7,29-51.3,31.4c0,0,50.4-31.2,51.3-29.6
						c1.2,2.2-52.8,28.2-51.1,31c0,0,49.9-31.7,51.2-29.5c0.1,0.2-53,27.9-50.9,31.5c0.7,1.3,50.9-29.4,50.9-29.4l-50.6,31.6
						l50.7-29.3c0,0-52,28.4-50.5,31.1l50.5-29.2c2.5,4.3-52.7,27.3-50.2,31.5c0.9,1.5,48.8-32.1,50.5-29.2
						c1.6,2.8-52.4,27.5-50.2,31.4c1.3,2.2,49.1-31.7,50.6-29.2c0,0-52.8,26.2-50.4,30.4c0,0,49.4-31.2,50.6-29.2l-50.4,30.8
						c0,0,49.8-30.6,50.6-29.2l-50.3,31.6c0.5,0.8,50.7-29.3,50.7-29.3c2.3,4-50.5,31.4-50.5,31.4s50.2-30.3,50.8-29.3
						c0.7,1.3-50.5,31.8-50.5,31.8s50.7-29.7,50.9-29.4c2.1,3.6-50.6,32-50.6,32l51-29.4L672,487.7c0,0,50.5-30.4,51.1-29.5
						c0.5,0.8-53.1,27.9-50.8,31.8c1.2,2,51.2-29.6,51.2-29.6l-51,31.5c0,0,49.7-32.3,51.3-29.6c0,0-51.8,30.6-51.1,31.8
						c1.2,2.1,51.4-29.7,51.4-29.7s-52.4,29.9-51.2,31.9c2.5,4.4,51.5-29.8,51.5-29.8s-52.9,28.9-51.4,31.6
						c0.4,0.6,49.7-33.1,51.7-29.8c0,0-53.7,28-51.5,31.8l51.8-29.9l-51.6,31.2l51.8-29.9c0,0-54.1,27.8-51.6,32.1
						c1.2,2.1,52-30,52-30s-53.2,29.5-51.8,31.8c0.6,1.1,52.1-30.1,52.1-30.1c2.1,3.6-53.5,29.2-51.9,31.9c0,0,51.4-31.5,52.2-30.1
						c0,0-54.5,27.5-52,31.8c2.2,3.9,52.3-30.2,52.3-30.2c1.6,2.9-53.6,29.2-52.1,31.8c0,0.1,52.4-30.2,52.4-30.2l-52.2,32.1
						c0,0,51.6-31.8,52.5-30.3c2.8,4.8-53.9,29.8-52.3,32.6c0.2,0.4,52.6-30.4,52.6-30.4c0.2,0.4-52.4,32.8-52.4,32.8
						c1.8,3.2,52.7-30.5,52.7-30.5l-52.6,32.1c0,0,51.3-33.1,52.8-30.5L675,521c1.7,2.9,51.7-32.7,53-30.6
						c1.9,3.2-53.6,31.2-52.8,32.7c1.8,3.2,52.9-30.9,53.1-30.6c1.6,2.8-52.9,32.7-52.9,32.7c1.3,2.2,53.2-30.7,53.2-30.7
						c0.4,0.7-53,32.9-53,32.9c1.4,2.5,53.3-30.8,53.3-30.8c0.8,1.4-53.7,31.2-53.2,32.1l53.4-30.8c0.2,0.4-53.2,32.7-53.2,32.7
						s51.2-34.9,53.5-30.9c2.1,3.7-53.9,31.6-53.3,32.5c0.8,1.5,53.6-30.9,53.6-30.9c2.5,4.3-53.4,33.5-53.3,33.6
						c0,0,53.5-31.5,53.7-31l-53.5,33.1l53.8-31.1c0.9,1.5-53.7,33.2-53.7,33.2c0.9,1.5,53.4-32.1,54-31.2c0,0-54.3,32.2-53.8,33.1
						c2.7,4.7,53.4-32.3,54.1-31.2c0.9,1.6-54.1,33.1-53.9,33.6c0.2,0.4,54.2-31.3,54.2-31.3l-54,33.7c0,0,52.9-34,54.3-31.4
						c0,0-54.9,31.7-54.2,32.8c0,0,52.6-34.5,54.4-31.4c1.7,3-55.2,31.4-54.3,32.9l54.5-31.5c0,0-56.7,29.7-54.3,34
						c0,0,54-32.7,54.7-31.6c2.5,4.3-57,29.4-54.5,33.8l54.8-31.6c0.9,1.5-55.3,32.9-54.5,34.2c0,0,54.4-32.6,54.9-31.7
						c1.1,1.9-54.7,33.6-54.7,33.6l55-31.8L678.5,559c0.4,0.6,52.4-36.4,55.1-31.8l-54.9,33.7c0,0,53.8-34.3,55.2-31.9
						c0,0-55.3,33.9-55,34.4c2.5,4.4,55.1-32.4,55.4-32c0,0-57.6,30.3-55.1,34.6c0,0,54.3-34.1,55.5-32c0,0-55.9,33.4-55.3,34.4
						c2.1,3.6,55.6-32.1,55.6-32.1c0.3,0.5-57.4,30.6-55.5,33.9l55.7-32.2c2.2,3.8-55.5,34.8-55.5,34.8l55.9-32.3
						c0.9,1.6-55.7,33.9-55.7,33.9c1.5,2.6,56-32.3,56-32.3s-56.3,32.9-55.8,33.7c1.8,3.1,56-32.4,56-32.4
						c1.9,3.3-55.9,34.1-55.9,34.1c2,3.4,53.5-37,56.1-32.4c0,0-57.4,32.5-55.9,35.1c0,0,55.1-34.6,56.3-32.5
						c2,3.4-56.1,34.1-56.1,34.1l56.4-32.5c0.7,1.2-55.3,33.7-55.3,33.7c0,0,53-36.6,55.6-32.1c0.3,0.5-54.7,27.7-52.4,31.6
						c0,0,51.7-32,52.6-30.4c0,0-48,27.4-46.7,29.5c1.9,3.3,44.8-31.2,47.1-27.2c0.6,1-44.5,24.4-43.3,26.5
						c1.9,3.3,42.5-26.8,43.5-25.1c1.6,2.8-38.9,24.3-38.9,24.3l39.1-22.6c1.6,2.8-33.9,21.5-33.9,21.5c0.3,0.6,33.1-21.5,34.1-19.7
						c1.4,2.4-30.7,16.6-29.5,18.6l29.7-17.2c0.8,1.3-24.9,14.7-24.3,15.6l24.5-14.2c0,0.1-15.9,10.4-15.6,11
						c0.8,1.4,15.9-9.2,15.9-9.2"/>
					<path class="st2" d="M727.6,284.9c0.1,0.2,2.7-1.9,2.8-1.6c0,0-5.1,5.1-5,5.3l8.2-4.7l-9.5,7.9l11.3-6.5c0,0-12.6,8.9-12.3,9.4
						c0.4,0.7,12.7-8.7,13.3-7.7c0.1,0.2-13.8,9.4-13.8,9.4l14.1-8.1c0.3,0.5-15.1,11.4-15.1,11.4c0.5,0.8,15.3-8.8,15.3-8.8
						c0.2,0.4-16.5,11.7-16.3,12c0,0,15.4-10.7,16.1-9.3c0.4,0.6-17.5,9.6-16.7,11c0.1,0.1,16.5-9.5,16.5-9.5l-17.3,12.2
						c0,0,16.5-10.2,16.8-9.7c0.6,1-17.5,11.6-17.5,11.7c0.1,0.2,17-9.8,17-9.8c0.1,0.2-18.5,12.1-18.1,12.8
						c0.2,0.4,17.4-10,17.4-10c1,1.7-18.2,12.2-18.2,12.2c0.7,1.2,17.5-10.7,17.7-10.2c0.7,1.2-19.8,11.6-18.9,13
						c0.6,1.1,17.7-11.7,18.3-10.6l-19.5,13c0.1,0.2,18.2-12.4,19-11c0.5,0.8-20.9,11.3-20,12.9l19.6-11.3
						c0.3,0.6-20.8,13.6-20.8,13.6c0,0.1,19.3-13.5,20.3-11.7c0,0-22.1,14.3-21.9,14.7l21.3-12.3"/>
					<path class="st2" d="M691.7,264.3l2.9-1.7c0,0-4.1,4.2-4,4.4c0.1,0.1,7.2-4.9,7.5-4.4l-7.8,6.8c0,0,9.5-6.4,9.9-5.7l-10.1,7.8
						l11.2-6.5l-11.3,8.4c0,0,11.8-7.1,11.9-6.9c0.1,0.2-11.9,8.8-11.9,8.8c0.4,0.6,11.7-7.9,12.2-7.1c0.6,1-12.6,8.7-12.2,9.4
						l12.5-7.2c0.6,1-12.4,9.7-12.4,9.7L703,273l-12.7,9.2c0,0,12.2-8.6,12.9-7.4c0.7,1.1-13.3,9-12.9,9.8
						c0.1,0.1,13.1-7.6,13.1-7.6l-13,10c0,0,12.6-8.8,13.2-7.6l-13.2,9.4l13.3-7.7l-13.3,9.2c0.4,0.7,13.4-7.7,13.4-7.7l-13.3,9.9
						l13.4-7.8c0.5,0.9-14.1,8-13.4,9.1c0.5,0.9,13.5-7.8,13.5-7.8c0.1,0.2-13.4,10.2-13.4,10.2c0.6,1.1,13.5-7.9,13.5-7.8
						c0,0-14.1,8.1-13.5,9.2c0.1,0.2,13-8.9,13.6-7.8c0.6,1-14.2,9.2-13.5,10.4c0.5,0.8,13.6-7.9,13.6-7.9l-13.6,10.3
						c0.7,1.2,13.7-7.9,13.7-7.9c0.2,0.4-13.6,9.5-13.6,9.5c0.7,1.2,13.3-8.7,13.7-7.9c0,0-14.4,8.9-13.7,10.2
						c0,0,13.7-8.1,13.8-7.9c0.2,0.3-14.1,8.8-13.7,9.4c0.7,1.2,13.2-8.9,13.8-8c0,0-14.1,10-13.8,10.6c0,0,13.7-8.2,13.9-8
						l-13.9,10.8c0,0,13.6-8.7,14-8.1c0,0-14.4,8.8-14,9.6c0.7,1.2,14-8.1,14-8.1s-14.4,10.1-14.1,10.7c0,0.1,14.2-8.2,14.2-8.2
						s-14.3,10.5-14.2,10.6c0.1,0.2,14.3-8.2,14.3-8.2c0.8,1.4-14.3,11-14.3,11c0.4,0.7,14.1-9,14.4-8.3c0,0-15.4,9.6-14.7,10.8
						l14.8-8.5"/>
					<path class="st2" d="M665.3,260l3.5-2c0.1,0.2-5,4.1-4.8,4.6c0.3,0.5,8.2-4.7,8.2-4.7c0.5,0.8-8.6,6.7-8.4,7
						c0,0,10.5-6.3,10.6-6.1c0.6,1-10.6,7.7-10.5,7.8c0,0,11.4-7.3,11.8-6.8c0,0-11.6,8.9-11.6,9c0,0,12.4-7.9,12.8-7.4
						c0,0-12.6,9.8-12.5,9.8c0.4,0.6,13-8.2,13.3-7.7c0,0-13.8,8.6-13.1,9.7c0.4,0.6,13.1-8.4,13.5-7.8c0,0-13.6,9.3-13.2,9.8
						c0.1,0.2,13-8.8,13.6-7.8c0.5,0.8-13.4,9.3-13.4,9.3c0.1,0.2,13.7-7.9,13.7-7.9l-13.5,9.5c0.1,0.1,13.6-8.3,13.7-7.9
						c0.4,0.8-13.5,10.3-13.5,10.3c0.3,0.6,13.5-8.6,13.9-8c0.1,0.2-14.1,9-13.7,9.7c0,0,13.7-8.4,13.9-8.1
						c0.2,0.3-13.7,10.3-13.7,10.3c0.4,0.6,13.9-8.4,14.1-8.1c0.6,1-13.8,10.7-13.8,10.7l14.2-8.2c0.7,1.2-14.7,8.3-14,9.5l14.2-8.2
						c0,0-14.2,9.6-14,9.8l14.3-8.2l-14,10.4l14.4-8.3c0,0-14.8,9.1-14.1,10.3c0.4,0.7,14.4-8.3,14.4-8.3c0.7,1.2-14.1,11-14.1,11
						s14.5-8.4,14.5-8.4c0,0-15,8.8-14.3,9.9l14.6-8.4c0,0-14.6,10.4-14.3,10.9l14.6-8.5c0.5,0.9-14.6,10.2-14.4,10.6
						c0,0,14.2-9.3,14.7-8.5c0,0-14.7,10.4-14.3,11.1c0,0,14.1-9.6,14.7-8.5c0.1,0.2-15.1,9-14.5,10.1c0.5,0.9,14.8-8.5,14.8-8.5
						c0.6,1.1-14.5,10.6-14.5,10.6s14.1-9.7,14.8-8.5l-14.6,10c0.4,0.7,14.4-9.3,14.8-8.6c0,0-14.8,10-14.5,10.4
						c0.1,0.2,14.8-8.6,14.8-8.6c0.6,1.1-14.7,10.2-14.6,10.5c0.2,0.4,14.9-8.6,14.9-8.6c0.3,0.6-15,10.3-14.5,11.2
						c0.6,1,14.9-8.6,14.9-8.6c0.6,1.1-14.7,9.9-14.7,9.9c0.2,0.4,14.9-8.6,14.9-8.6c0.1,0.2-14.6,11-14.6,11s14.5-9.5,15-8.6
						L670.7,323c0.2,0.4,14.5-9.6,15-8.7c0.4,0.6-14.8,10.5-14.8,10.5c0.4,0.8,14.8-9.2,15.1-8.7c0,0-15.6,9.7-15,10.8
						c0.3,0.6,15.3-8.8,15.3-8.8c0.7,1.2-15.9,11.3-15.7,11.6l16.1-9.3"/>
					<path class="st2" d="M640.5,274.1l3.8-2.2l-5,4.4c0,0,7.6-4.9,7.8-4.5c0.4,0.6-8.5,6.1-8.1,6.8c0.1,0.1,10.2-5.9,10.2-5.9
						c0.3,0.5-10.7,6.5-10.3,7.3c0.2,0.4,11.2-6.5,11.2-6.5s-11.3,7.5-11.1,7.8c0.6,1,11.3-7.7,11.8-6.8c0,0-11.6,8.4-11.6,8.5
						c0.3,0.5,12.4-7.3,12.4-7.2c0,0.1-12.1,8.8-12.1,8.8c0,0.1,12.9-7.4,12.9-7.4l-12.5,9.1c0,0,12.9-8.3,13.3-7.7
						c0.2,0.3-12.7,10.1-12.7,10.1c0.2,0.4,13.3-8.5,13.7-7.9l-13.2,10c0.1,0.1,13.4-8.6,13.8-8c0,0-14,9-13.3,10.3
						c0,0,13.9-8.1,13.9-8c0.5,0.8-13.6,9.5-13.5,9.7c0.2,0.3,13.9-8,13.9-8c0.7,1.2-13.5,9.6-13.5,9.6c0.3,0.5,13.3-9.2,14-8.1
						c0.2,0.4-13.6,9.5-13.6,9.5c0.6,1.1,13.9-8.1,14-8.1c0,0-14.3,8.1-13.6,9.3c0.5,0.9,14-8.1,14-8.1s-13.7,9.6-13.3,10.2
						c0.5,0.8,13.8-8.3,13.9-8.1c0.1,0.1-13.8,9.1-13.6,9.4c0,0,13.5-8.9,14-8.1c0,0-14.2,8.5-13.6,9.5c0.3,0.5,13.3-9.2,14-8.1
						l-13.6,9.5c0.2,0.4,13.8-8.5,14-8.1c0.4,0.7-14,9-13.7,9.5c0.1,0.2,13.9-8.5,14.1-8.1l-13.8,9.5l14.2-8.2c0,0-14,9.4-13.8,9.7
						c0,0,13.9-8.9,14.2-8.2c0,0-14.4,8.8-14,9.5l14.3-8.3c0.7,1.2-13.9,10.2-13.9,10.2c0.1,0.2,14.4-8.3,14.4-8.3
						s-14.3,9.3-14.2,9.6c0.2,0.4,14.5-8.4,14.5-8.4c0.2,0.3-14.9,8.9-14.2,10.2c0.8,1.3,14.6-8.4,14.6-8.4
						c0.4,0.7-14.7,9.2-14.3,9.9c0.1,0.2,14.7-8.5,14.7-8.5c0.5,0.8-15,8.9-14.5,9.9c0,0,14.8-8.6,14.8-8.6
						c0.7,1.3-14.8,9.6-14.5,10.1c0.2,0.4,14.9-8.6,14.9-8.6l-14.6,10.3c0.5,0.8,15-8.7,15-8.7c0.7,1.3-15.1,9.5-14.7,10.3l15.1-8.7
						c0,0-15.3,9.2-14.8,10l15.2-8.8c0.7,1.2-15,9.8-14.9,10l15.2-8.8c0.3,0.6-15.2,10-14.8,10.6c0,0,14.6-10.1,15.3-8.8l-14.9,10.2
						l15.3-8.8c0,0-15.3,10.2-14.7,11.3c0.4,0.7,15.3-8.9,15.3-8.9s-15.5,9.2-15,10c0,0,14.6-10.2,15.3-8.9c0.7,1.2-15,10.2-15,10.2
						l15.3-8.9l-15,10.1c0.8,1.4,14.8-10.1,15.5-8.9c0,0-15.4,10.3-15,11.1c0.5,0.8,15.9-9.4,16-9.2c0.2,0.3-15.8,10.4-15.8,10.4
						c0,0,16.1-10,16.4-9.5l-15.9,11.8c0,0,32.9-22,34.2-19.8c1.6,2.8-33.9,21.5-33.9,21.5c0.9,1.5,34.4-19.9,34.4-19.9
						c0.5,0.9-34.7,20.4-34.1,21.4c1.6,2.7,34.7-20,34.7-20c0.2,0.4-34.4,21.7-34.4,21.7c0.9,1.5,35-20.2,35-20.2
						c0.7,1.2-35.2,21.1-34.8,21.8l51.5-29.7L654,349c1.5,2.6,49.7-32.6,51.4-29.7c0.3,0.6-51,31.7-51,31.7l51.1-29.5
						c0,0-53.2,27.3-50.8,31.4c1.1,1.9,51-29.4,51-29.4c1.2,2-50.6,31.7-50.6,31.7c1.3,2.2,51-29.4,51-29.4
						c1.6,2.8-51.4,30.1-50.8,31.2c0.6,1,51.4-29.7,51.4-29.7l-51.3,31c1.7,3,52.2-30.1,52.2-30.1l-52.2,31.6l76.3-44l-77,46.7
						c0.7,1.2,73.6-48.7,76.3-44"/>
				</g>
				<g>
					<path class="st3" d="M611.1,343.8c0.1,0.2,3.5-2.3,3.6-2.1c0.1,0.2-3.8,4.9-3.8,4.9c0.5,0.9,10.1-5.8,10.1-5.8s-9.5,6.8-9,7.7
						c0.6,1,12.3-7.1,12.3-7.1c0.3,0.5-11,9-11,9s13.6-8,13.6-7.9c0.2,0.3-12.3,9.6-12.3,9.6l14.4-8.3c0.4,0.6-13.3,9.6-13.3,9.6
						c0.5,0.8,14.7-8.5,14.7-8.5l-13.1,10.3c0.1,0.1,14.8-8.9,14.9-8.6c0,0.1-14.1,9.5-13.9,9.8l15.1-8.7c0,0.1-13.6,10.4-13.6,10.4
						l15.3-8.8c0.2,0.4-13.9,10.4-13.9,10.4c0.1,0.2,15.4-8.9,15.4-8.9c0.7,1.1-14.7,9.3-14.1,10.4c0,0,15.5-9,15.6-9
						c0.4,0.6-14.7,10-14.6,10.1l15.7-9.1c0,0-14.5,10.2-14.1,10.9c0.6,1.1,15.9-9.2,15.9-9.2c0.2,0.3-14.3,11-14.3,11
						c0.4,0.7,15.7-10,16.1-9.3c0.2,0.3-16,8.9-15.3,10.2c0.6,1,16.1-9.5,16.2-9.4c0.3,0.6-14.9,10.9-14.9,10.9S645,359,645,359
						c0.7,1.2-14.9,11.3-14.9,11.3c0.3,0.5,16.5-9.5,16.5-9.5l-15.3,11c0.8,1.4,16.5-10.1,16.7-9.7c0,0-16.2,10-15.8,10.8l17.1-9.9
						c0.1,0.2-16.2,10.9-16.2,10.9c0,0,16.7-11.7,17.6-10.2c0.2,0.3-16.9,10.9-16.7,11.2c3.2,5.5,92.4-62.5,96.4-55.6
						c0,0-98,52-94.9,57.4c3.7,6.4,94.1-54.3,94.1-54.3c0.5,0.9-94.2,53.5-92.8,55.9c0,0,88.2-59.9,92.1-53.2l-91,54.5
						c1.9,3.3,90.5-52.2,90.5-52.2c1.1,1.8-93.9,45.8-89.6,53.3l89.2-51.5l-88.2,52.6c0,0,85-55.6,87.8-50.7
						c1.9,3.3-86.9,51.8-86.9,51.8c0.3,0.5,85.5-51.7,86.5-50c0,0-87.5,47.6-85.2,51.5c4.3,7.4,84.7-48.9,84.7-48.9
						c3,5.2-83.9,49.8-83.9,49.8c1.4,2.5,81.3-52.1,83.6-48.3c0,0-85.8,44-82.7,49.3c0,0,81.1-49.8,82.4-47.6
						c0,0-85.4,41.7-81.3,48.9c1.3,2.2,80.9-46.7,80.9-46.7c0.5,0.8-79.5,48.4-79.5,48.4l79.1-45.6c0,0-78.8,45.4-77.8,47.1
						c0.1,0.1,74.4-50.1,77.5-44.7c2.6,4.6-76.1,46.3-76.1,46.3c2.7,4.7,76.1-43.9,76.1-43.9c0.6,1.1-77.3,41-74.5,45.7
						c3.6,6.2,74.9-43.3,74.9-43.3s-77.8,37.9-74.2,44.1c1.9,3.2,74.3-42.9,74.3-42.9c1.7,3-73.5,43.9-73.5,43.9
						s70.1-48.8,73.7-42.5c2.3,4-72.7,43.5-72.3,44.1c0,0.1,72.6-41.9,72.6-41.9c3.4,5.9-73.5,39.3-71.2,43.4
						c0.8,1.4,70.3-43.2,71.4-41.2c0.4,0.7-70.3,42.4-70.3,42.4l70.4-40.6c0,0-69,41.4-68.7,41.9l68.9-39.8
						c0.1,0.3-67.7,40.4-67.7,40.4c1.5,2.6,67.1-40.3,67.8-39.1l-66.3,40.5c0,0,65.1-40.5,66.3-38.3c0,0-66.8,38-65.4,40.4
						c0.8,1.3,64.3-39.9,65.5-37.8l-65.2,39.7l65.2-37.7l-65.1,39.4c2.1,3.7,61.9-43,65-37.5c0,0-65.3,38.4-64.9,39.2
						c3,5.3,61.5-43.1,64.8-37.4L662.1,413c0,0,63.3-39.3,64.5-37.2c0.6,1.1-66.4,35.5-64.2,39.3l64-37l-63.8,39.4
						c0.7,1.2,63.5-36.6,63.5-36.6c3.3,5.7-63.3,38.4-63.3,38.4c2.8,4.8,59.8-41.8,63-36.4c1,1.7-62.8,38-62.8,38
						c1.7,2.9,59.7-40.9,62.5-36.1l-62.1,38.7l61.5-35.5l-61.3,36.9l60.9-35.2c0.8,1.4-61.3,36.2-60.6,37.4l59.9-34.6
						c2.8,4.8-59.7,35.9-59.7,35.9c0.1,0.2,58.4-35.6,59.2-34.2c0,0-59.7,35.1-58.9,36.5l57.8-33.4c2.5,4.3-59.7,31.9-57.4,35.7
						c0.8,1.4,54.2-35.7,56.1-32.4c1,1.7-57.4,31.8-55.8,34.6c0,0,52.3-34.8,54.3-31.4c0.2,0.4-56.9,28-54.1,32.8
						c0,0,53.5-32.4,54.2-31.3c0,0-55.7,29.6-54,32.7c0,0,53.7-31.7,54-31.2c2.2,3.8-54.6,31.5-53.7,33c1.4,2.5,52.4-33.4,53.8-31.1
						c2.2,3.8-53.5,33.4-53.5,33.4l53.5-30.9l-53.2,33.3c0.1,0.2,53.3-30.7,53.3-30.7l-52.9,33.3l53-30.6c0.9,1.6-52.6,33-52.6,33
						c0.1,0.2,52.7-30.4,52.7-30.4s-54,29.7-52.4,32.5c0,0,51.2-32.4,52.4-30.3c0.7,1.2-52.8,30.8-52.2,31.9
						c0.1,0.2,52.3-30.2,52.3-30.2s-53.9,29.2-51.9,32.7l52-30c0.7,1.2-51.7,32-51.7,32s50.7-31.8,51.8-29.9
						c1.6,2.8-51.4,32.2-51.4,32.2c1.3,2.2,51.5-29.7,51.5-29.7s-52.7,29-51.3,31.4c0,0,50.4-31.2,51.3-29.6
						c1.2,2.2-52.8,28.2-51.1,31c0,0,49.9-31.7,51.2-29.5c0.1,0.2-53,27.9-50.9,31.5c0.7,1.3,50.9-29.4,50.9-29.4l-50.6,31.6
						l50.7-29.3c0,0-52,28.4-50.5,31.1l50.5-29.2c2.5,4.3-52.7,27.3-50.2,31.5c0.9,1.5,48.8-32.1,50.5-29.2
						c1.6,2.8-52.4,27.5-50.2,31.4c1.3,2.2,49.1-31.7,50.6-29.2c0,0-52.8,26.2-50.4,30.4c0,0,49.4-31.2,50.6-29.2l-50.4,30.8
						c0,0,49.8-30.6,50.6-29.2l-50.3,31.6c0.5,0.8,50.7-29.3,50.7-29.3c2.3,4-50.5,31.4-50.5,31.4s50.2-30.3,50.8-29.3
						c0.7,1.3-50.5,31.8-50.5,31.8s50.7-29.7,50.9-29.4c2.1,3.6-50.6,32-50.6,32l51-29.4L672,487.7c0,0,50.5-30.4,51.1-29.5
						c0.5,0.8-53.1,27.9-50.8,31.8c1.2,2,51.2-29.6,51.2-29.6l-51,31.5c0,0,49.7-32.3,51.3-29.6c0,0-51.8,30.6-51.1,31.8
						c1.2,2.1,51.4-29.7,51.4-29.7s-52.4,29.9-51.2,31.9c2.5,4.4,51.5-29.8,51.5-29.8s-52.9,28.9-51.4,31.6
						c0.4,0.6,49.7-33.1,51.7-29.8c0,0-53.7,28-51.5,31.8l51.8-29.9l-51.6,31.2l51.8-29.9c0,0-54.1,27.8-51.6,32.1
						c1.2,2.1,52-30,52-30s-53.2,29.5-51.8,31.8c0.6,1.1,52.1-30.1,52.1-30.1c2.1,3.6-53.5,29.2-51.9,31.9c0,0,51.4-31.5,52.2-30.1
						c0,0-54.5,27.5-52,31.8c2.2,3.9,52.3-30.2,52.3-30.2c1.6,2.9-53.6,29.2-52.1,31.8c0,0.1,52.4-30.2,52.4-30.2l-52.2,32.1
						c0,0,51.6-31.8,52.5-30.3c2.8,4.8-53.9,29.8-52.3,32.6c0.2,0.4,52.6-30.4,52.6-30.4c0.2,0.4-52.4,32.8-52.4,32.8
						c1.8,3.2,52.7-30.5,52.7-30.5l-52.6,32.1c0,0,51.3-33.1,52.8-30.5L675,521c1.7,2.9,51.7-32.7,53-30.6
						c1.9,3.2-53.6,31.2-52.8,32.7c1.8,3.2,52.9-30.9,53.1-30.6c1.6,2.8-52.9,32.7-52.9,32.7c1.3,2.2,53.2-30.7,53.2-30.7
						c0.4,0.7-53,32.9-53,32.9c1.4,2.5,53.3-30.8,53.3-30.8c0.8,1.4-53.7,31.2-53.2,32.1l53.4-30.8c0.2,0.4-53.2,32.7-53.2,32.7
						s51.2-34.9,53.5-30.9c2.1,3.7-53.9,31.6-53.3,32.5c0.8,1.5,53.6-30.9,53.6-30.9c2.5,4.3-53.4,33.5-53.3,33.6
						c0,0,53.5-31.5,53.7-31l-53.5,33.1l53.8-31.1c0.9,1.5-53.7,33.2-53.7,33.2c0.9,1.5,53.4-32.1,54-31.2c0,0-54.3,32.2-53.8,33.1
						c2.7,4.7,53.4-32.3,54.1-31.2c0.9,1.6-54.1,33.1-53.9,33.6c0.2,0.4,54.2-31.3,54.2-31.3l-54,33.7c0,0,52.9-34,54.3-31.4
						c0,0-54.9,31.7-54.2,32.8c0,0,52.6-34.5,54.4-31.4c1.7,3-55.2,31.4-54.3,32.9l54.5-31.5c0,0-56.7,29.7-54.3,34
						c0,0,54-32.7,54.7-31.6c2.5,4.3-57,29.4-54.5,33.8l54.8-31.6c0.9,1.5-55.3,32.9-54.5,34.2c0,0,54.4-32.6,54.9-31.7
						c1.1,1.9-54.7,33.6-54.7,33.6l55-31.8L678.5,559c0.4,0.6,52.4-36.4,55.1-31.8l-54.9,33.7c0,0,53.8-34.3,55.2-31.9
						c0,0-55.3,33.9-55,34.4c2.5,4.4,55.1-32.4,55.4-32c0,0-57.6,30.3-55.1,34.6c0,0,54.3-34.1,55.5-32c0,0-55.9,33.4-55.3,34.4
						c2.1,3.6,55.6-32.1,55.6-32.1c0.3,0.5-57.4,30.6-55.5,33.9l55.7-32.2c2.2,3.8-55.5,34.8-55.5,34.8l55.9-32.3
						c0.9,1.6-55.7,33.9-55.7,33.9c1.5,2.6,56-32.3,56-32.3s-56.3,32.9-55.8,33.7c1.8,3.1,56-32.4,56-32.4
						c1.9,3.3-55.9,34.1-55.9,34.1c2,3.4,53.5-37,56.1-32.4c0,0-57.4,32.5-55.9,35.1c0,0,55.1-34.6,56.3-32.5
						c2,3.4-56.1,34.1-56.1,34.1l56.4-32.5c0.7,1.2-55.3,33.7-55.3,33.7c0,0,53-36.6,55.6-32.1c0.3,0.5-54.7,27.7-52.4,31.6
						c0,0,51.7-32,52.6-30.4c0,0-48,27.4-46.7,29.5c1.9,3.3,44.8-31.2,47.1-27.2c0.6,1-44.5,24.4-43.3,26.5
						c1.9,3.3,42.5-26.8,43.5-25.1c1.6,2.8-38.9,24.3-38.9,24.3l39.1-22.6c1.6,2.8-33.9,21.5-33.9,21.5c0.3,0.6,33.1-21.5,34.1-19.7
						c1.4,2.4-30.7,16.6-29.5,18.6l29.7-17.2c0.8,1.3-24.9,14.7-24.3,15.6l24.5-14.2c0,0.1-15.9,10.4-15.6,11
						c0.8,1.4,15.9-9.2,15.9-9.2"/>
					<path class="st3" d="M727.6,284.9c0.1,0.2,2.7-1.9,2.8-1.6c0,0-5.1,5.1-5,5.3l8.2-4.7l-9.5,7.9l11.3-6.5c0,0-12.6,8.9-12.3,9.4
						c0.4,0.7,12.7-8.7,13.3-7.7c0.1,0.2-13.8,9.4-13.8,9.4l14.1-8.1c0.3,0.5-15.1,11.4-15.1,11.4c0.5,0.8,15.3-8.8,15.3-8.8
						c0.2,0.4-16.5,11.7-16.3,12c0,0,15.4-10.7,16.1-9.3c0.4,0.6-17.5,9.6-16.7,11c0.1,0.1,16.5-9.5,16.5-9.5l-17.3,12.2
						c0,0,16.5-10.2,16.8-9.7c0.6,1-17.5,11.6-17.5,11.7c0.1,0.2,17-9.8,17-9.8c0.1,0.2-18.5,12.1-18.1,12.8
						c0.2,0.4,17.4-10,17.4-10c1,1.7-18.2,12.2-18.2,12.2c0.7,1.2,17.5-10.7,17.7-10.2c0.7,1.2-19.8,11.6-18.9,13
						c0.6,1.1,17.7-11.7,18.3-10.6l-19.5,13c0.1,0.2,18.2-12.4,19-11c0.5,0.8-20.9,11.3-20,12.9l19.6-11.3
						c0.3,0.6-20.8,13.6-20.8,13.6c0,0.1,19.3-13.5,20.3-11.7c0,0-22.1,14.3-21.9,14.7l21.3-12.3"/>
					<path class="st3" d="M691.7,264.3l2.9-1.7c0,0-4.1,4.2-4,4.4c0.1,0.1,7.2-4.9,7.5-4.4l-7.8,6.8c0,0,9.5-6.4,9.9-5.7l-10.1,7.8
						l11.2-6.5l-11.3,8.4c0,0,11.8-7.1,11.9-6.9c0.1,0.2-11.9,8.8-11.9,8.8c0.4,0.6,11.7-7.9,12.2-7.1c0.6,1-12.6,8.7-12.2,9.4
						l12.5-7.2c0.6,1-12.4,9.7-12.4,9.7L703,273l-12.7,9.2c0,0,12.2-8.6,12.9-7.4c0.7,1.1-13.3,9-12.9,9.8
						c0.1,0.1,13.1-7.6,13.1-7.6l-13,10c0,0,12.6-8.8,13.2-7.6l-13.2,9.4l13.3-7.7l-13.3,9.2c0.4,0.7,13.4-7.7,13.4-7.7l-13.3,9.9
						l13.4-7.8c0.5,0.9-14.1,8-13.4,9.1c0.5,0.9,13.5-7.8,13.5-7.8c0.1,0.2-13.4,10.2-13.4,10.2c0.6,1.1,13.5-7.9,13.5-7.8
						c0,0-14.1,8.1-13.5,9.2c0.1,0.2,13-8.9,13.6-7.8c0.6,1-14.2,9.2-13.5,10.4c0.5,0.8,13.6-7.9,13.6-7.9l-13.6,10.3
						c0.7,1.2,13.7-7.9,13.7-7.9c0.2,0.4-13.6,9.5-13.6,9.5c0.7,1.2,13.3-8.7,13.7-7.9c0,0-14.4,8.9-13.7,10.2
						c0,0,13.7-8.1,13.8-7.9c0.2,0.3-14.1,8.8-13.7,9.4c0.7,1.2,13.2-8.9,13.8-8c0,0-14.1,10-13.8,10.6c0,0,13.7-8.2,13.9-8
						l-13.9,10.8c0,0,13.6-8.7,14-8.1c0,0-14.4,8.8-14,9.6c0.7,1.2,14-8.1,14-8.1s-14.4,10.1-14.1,10.7c0,0.1,14.2-8.2,14.2-8.2
						s-14.3,10.5-14.2,10.6c0.1,0.2,14.3-8.2,14.3-8.2c0.8,1.4-14.3,11-14.3,11c0.4,0.7,14.1-9,14.4-8.3c0,0-15.4,9.6-14.7,10.8
						l14.8-8.5"/>
					<path class="st3" d="M665.3,260l3.5-2c0.1,0.2-5,4.1-4.8,4.6c0.3,0.5,8.2-4.7,8.2-4.7c0.5,0.8-8.6,6.7-8.4,7
						c0,0,10.5-6.3,10.6-6.1c0.6,1-10.6,7.7-10.5,7.8c0,0,11.4-7.3,11.8-6.8c0,0-11.6,8.9-11.6,9c0,0,12.4-7.9,12.8-7.4
						c0,0-12.6,9.8-12.5,9.8c0.4,0.6,13-8.2,13.3-7.7c0,0-13.8,8.6-13.1,9.7c0.4,0.6,13.1-8.4,13.5-7.8c0,0-13.6,9.3-13.2,9.8
						c0.1,0.2,13-8.8,13.6-7.8c0.5,0.8-13.4,9.3-13.4,9.3c0.1,0.2,13.7-7.9,13.7-7.9l-13.5,9.5c0.1,0.1,13.6-8.3,13.7-7.9
						c0.4,0.8-13.5,10.3-13.5,10.3c0.3,0.6,13.5-8.6,13.9-8c0.1,0.2-14.1,9-13.7,9.7c0,0,13.7-8.4,13.9-8.1
						c0.2,0.3-13.7,10.3-13.7,10.3c0.4,0.6,13.9-8.4,14.1-8.1c0.6,1-13.8,10.7-13.8,10.7l14.2-8.2c0.7,1.2-14.7,8.3-14,9.5l14.2-8.2
						c0,0-14.2,9.6-14,9.8l14.3-8.2l-14,10.4l14.4-8.3c0,0-14.8,9.1-14.1,10.3c0.4,0.7,14.4-8.3,14.4-8.3c0.7,1.2-14.1,11-14.1,11
						s14.5-8.4,14.5-8.4c0,0-15,8.8-14.3,9.9l14.6-8.4c0,0-14.6,10.4-14.3,10.9l14.6-8.5c0.5,0.9-14.6,10.2-14.4,10.6
						c0,0,14.2-9.3,14.7-8.5c0,0-14.7,10.4-14.3,11.1c0,0,14.1-9.6,14.7-8.5c0.1,0.2-15.1,9-14.5,10.1c0.5,0.9,14.8-8.5,14.8-8.5
						c0.6,1.1-14.5,10.6-14.5,10.6s14.1-9.7,14.8-8.5l-14.6,10c0.4,0.7,14.4-9.3,14.8-8.6c0,0-14.8,10-14.5,10.4
						c0.1,0.2,14.8-8.6,14.8-8.6c0.6,1.1-14.7,10.2-14.6,10.5c0.2,0.4,14.9-8.6,14.9-8.6c0.3,0.6-15,10.3-14.5,11.2
						c0.6,1,14.9-8.6,14.9-8.6c0.6,1.1-14.7,9.9-14.7,9.9c0.2,0.4,14.9-8.6,14.9-8.6c0.1,0.2-14.6,11-14.6,11s14.5-9.5,15-8.6
						L670.7,323c0.2,0.4,14.5-9.6,15-8.7c0.4,0.6-14.8,10.5-14.8,10.5c0.4,0.8,14.8-9.2,15.1-8.7c0,0-15.6,9.7-15,10.8
						c0.3,0.6,15.3-8.8,15.3-8.8c0.7,1.2-15.9,11.3-15.7,11.6l16.1-9.3"/>
					<path class="st3" d="M640.5,274.1l3.8-2.2l-5,4.4c0,0,7.6-4.9,7.8-4.5c0.4,0.6-8.5,6.1-8.1,6.8c0.1,0.1,10.2-5.9,10.2-5.9
						c0.3,0.5-10.7,6.5-10.3,7.3c0.2,0.4,11.2-6.5,11.2-6.5s-11.3,7.5-11.1,7.8c0.6,1,11.3-7.7,11.8-6.8c0,0-11.6,8.4-11.6,8.5
						c0.3,0.5,12.4-7.3,12.4-7.2c0,0.1-12.1,8.8-12.1,8.8c0,0.1,12.9-7.4,12.9-7.4l-12.5,9.1c0,0,12.9-8.3,13.3-7.7
						c0.2,0.3-12.7,10.1-12.7,10.1c0.2,0.4,13.3-8.5,13.7-7.9l-13.2,10c0.1,0.1,13.4-8.6,13.8-8c0,0-14,9-13.3,10.3
						c0,0,13.9-8.1,13.9-8c0.5,0.8-13.6,9.5-13.5,9.7c0.2,0.3,13.9-8,13.9-8c0.7,1.2-13.5,9.6-13.5,9.6c0.3,0.5,13.3-9.2,14-8.1
						c0.2,0.4-13.6,9.5-13.6,9.5c0.6,1.1,13.9-8.1,14-8.1c0,0-14.3,8.1-13.6,9.3c0.5,0.9,14-8.1,14-8.1s-13.7,9.6-13.3,10.2
						c0.5,0.8,13.8-8.3,13.9-8.1c0.1,0.1-13.8,9.1-13.6,9.4c0,0,13.5-8.9,14-8.1c0,0-14.2,8.5-13.6,9.5c0.3,0.5,13.3-9.2,14-8.1
						l-13.6,9.5c0.2,0.4,13.8-8.5,14-8.1c0.4,0.7-14,9-13.7,9.5c0.1,0.2,13.9-8.5,14.1-8.1l-13.8,9.5l14.2-8.2c0,0-14,9.4-13.8,9.7
						c0,0,13.9-8.9,14.2-8.2c0,0-14.4,8.8-14,9.5l14.3-8.3c0.7,1.2-13.9,10.2-13.9,10.2c0.1,0.2,14.4-8.3,14.4-8.3
						s-14.3,9.3-14.2,9.6c0.2,0.4,14.5-8.4,14.5-8.4c0.2,0.3-14.9,8.9-14.2,10.2c0.8,1.3,14.6-8.4,14.6-8.4
						c0.4,0.7-14.7,9.2-14.3,9.9c0.1,0.2,14.7-8.5,14.7-8.5c0.5,0.8-15,8.9-14.5,9.9c0,0,14.8-8.6,14.8-8.6
						c0.7,1.3-14.8,9.6-14.5,10.1c0.2,0.4,14.9-8.6,14.9-8.6l-14.6,10.3c0.5,0.8,15-8.7,15-8.7c0.7,1.3-15.1,9.5-14.7,10.3l15.1-8.7
						c0,0-15.3,9.2-14.8,10l15.2-8.8c0.7,1.2-15,9.8-14.9,10l15.2-8.8c0.3,0.6-15.2,10-14.8,10.6c0,0,14.6-10.1,15.3-8.8l-14.9,10.2
						l15.3-8.8c0,0-15.3,10.2-14.7,11.3c0.4,0.7,15.3-8.9,15.3-8.9s-15.5,9.2-15,10c0,0,14.6-10.2,15.3-8.9c0.7,1.2-15,10.2-15,10.2
						l15.3-8.9l-15,10.1c0.8,1.4,14.8-10.1,15.5-8.9c0,0-15.4,10.3-15,11.1c0.5,0.8,15.9-9.4,16-9.2c0.2,0.3-15.8,10.4-15.8,10.4
						c0,0,16.1-10,16.4-9.5l-15.9,11.8c0,0,32.9-22,34.2-19.8c1.6,2.8-33.9,21.5-33.9,21.5c0.9,1.5,34.4-19.9,34.4-19.9
						c0.5,0.9-34.7,20.4-34.1,21.4c1.6,2.7,34.7-20,34.7-20c0.2,0.4-34.4,21.7-34.4,21.7c0.9,1.5,35-20.2,35-20.2
						c0.7,1.2-35.2,21.1-34.8,21.8l51.5-29.7L654,349c1.5,2.6,49.7-32.6,51.4-29.7c0.3,0.6-51,31.7-51,31.7l51.1-29.5
						c0,0-53.2,27.3-50.8,31.4c1.1,1.9,51-29.4,51-29.4c1.2,2-50.6,31.7-50.6,31.7c1.3,2.2,51-29.4,51-29.4
						c1.6,2.8-51.4,30.1-50.8,31.2c0.6,1,51.4-29.7,51.4-29.7l-51.3,31c1.7,3,52.2-30.1,52.2-30.1l-52.2,31.6l76.3-44l-77,46.7
						c0.7,1.2,73.6-48.7,76.3-44"/>
				</g>
			</g>
		</g>
		<g>
			<g>
				<g>
					<path class="st2" d="M601.6,347.2c0.1,0.3,5.4-3.6,5.6-3.2c0.3,0.5-13.3,10.2-13.2,10.4c1,1.7,19.1-11,19.1-11
						s-26.8,14.8-25.4,17.2c1.3,2.3,28.7-16.6,28.7-16.6c0.8,1.4-32.3,20.2-32.3,20.2s33.9-19.8,34-19.6"/>
					<path class="st2" d="M581.6,275.9c0.1,0.2,2.9-2,3.1-1.8c0,0-5.7,5.4-5.6,5.7l9.2-5.3l-10.6,8.5l12.8-7.4c0,0-14,9.6-13.6,10.2
						c0.4,0.8,14.4-9.8,15-8.7c0.1,0.2-15.5,10.4-15.5,10.4l16-9.3c0.3,0.5-16.9,12.4-16.9,12.4c0.5,0.9,17.3-10,17.3-10
						c0.2,0.4-18.4,12.7-18.2,13.1c0,0,17.4-12,18.2-10.5c0.4,0.7-19.6,10.6-18.7,12.2c0.1,0.2,18.5-10.7,18.5-10.7l-19.2,13.3
						c0,0,18.4-11.3,18.7-10.8c0.6,1.1-19.3,12.6-19.2,12.7c0.1,0.2,18.8-10.9,18.8-10.9c0.1,0.2-20,13-19.6,13.7
						c0.2,0.4,19-11,19-11c1,1.8-19.6,13-19.6,13c0.7,1.3,18.8-11.5,19.1-11c0.7,1.3-20.7,12-19.8,13.5c0.7,1.2,18.5-12.2,19.2-11.1
						l-19.8,13.2c0.1,0.2,18.4-12.6,19.2-11.1c0.5,0.8-20.6,11.1-19.7,12.7L589,300c0.3,0.5-19.7,13-19.7,13
						c0,0.1,18.2-12.8,19.2-11.1c0,0-20.1,13.1-19.8,13.5l19.2-11.1c0.2,0.4-19.7,13-19.7,13c0.8,1.4,19.2-11.1,19.2-11.1
						c1,1.7-20.8,12.1-19.9,13.6c0.3,0.6,19.3-11.2,19.3-11.2l-19.9,13.1c0.4,0.7,19.4-11.2,19.4-11.2L566.3,324
						c0.9,1.6,19.2-12.1,19.6-11.3c0,0-20.9,12.7-20.3,13.7c0.9,1.5,18.9-13.1,19.8-11.4c0,0-21.4,13.9-21,14.6l20.4-11.8
						c0.6,1-22.9,13.2-22.1,14.6l21.7-12.5"/>
					<path class="st2" d="M555.9,262.3l3.5-2c0,0-5.4,4.8-5.2,5.1c0.1,0.1,8.4-5.7,8.7-5l-9.2,7.6c0,0,11.1-7.4,11.5-6.6l-11.9,8.9
						l13.2-7.6l-13.6,9.7c0,0,14.3-8.5,14.4-8.3c0.1,0.3-14.7,10.4-14.7,10.4c0.4,0.8,14.5-9.8,15.1-8.7c0.7,1.2-16,10.5-15.5,11.3
						l15.6-9c0.7,1.2-16,11.8-16,11.8l15.8-9.1l-16.1,11.2c0,0,15.1-10.6,15.9-9.2c0.8,1.4-16.9,10.8-16.3,11.8
						c0.1,0.2,16.1-9.3,16.1-9.3l-16.5,12c0,0,15.4-10.8,16.3-9.4L550.4,289l16.4-9.5l-16.6,11.1c0.5,0.9,16.5-9.5,16.5-9.5
						l-16.9,12l16.6-9.6c0.6,1.1-17.7,9.7-16.9,11.1c0.6,1.1,16.7-9.6,16.7-9.6c0.2,0.3-17.1,12.3-17.1,12.3
						c0.8,1.3,16.8-9.9,16.9-9.7c0,0-17.9,9.9-17.1,11.3c0.1,0.2,16.2-11.1,16.9-9.8c0.7,1.2-18.3,11.1-17.4,12.6
						c0.6,1,17.1-9.9,17.1-9.9L548,304.4c0.9,1.5,17.2-9.9,17.2-9.9c0.3,0.5-17.5,11.7-17.5,11.7c0.9,1.5,16.7-11,17.3-10
						c0,0-18.6,10.9-17.7,12.5c0,0,17.3-10.2,17.4-10c0.3,0.4-18.1,10.9-17.6,11.6c0.9,1.5,16.8-11.3,17.5-10.1
						c0,0-18.4,12.3-17.9,13c0,0,17.4-10.5,17.6-10.2l-18.1,13.2c0,0,17.2-11,17.7-10.2c0,0-18.5,10.9-18,11.9
						c0.9,1.5,17.7-10.2,17.7-10.2s-18.7,12.4-18.2,13.1c0.1,0.1,17.8-10.3,17.8-10.3s-18.4,12.8-18.3,13
						c0.1,0.2,17.9-10.3,17.9-10.3c1,1.8-19,13.7-19,13.7c0.5,0.8,18.1-11.5,18.6-10.7"/>
					<path class="st2" d="M496.2,287.7l3.4-2c0.1,0.2-4.7,4-4.4,4.4c0.3,0.5,7.2-4.2,7.2-4.2c0.4,0.7-7.6,6.2-7.5,6.5
						c0,0,9-5.4,9.1-5.3c0.5,0.9-9.1,6.9-9.1,7c0,0,9.7-6.2,9.9-5.7c0,0-9.8,7.8-9.7,8c0,0,10.4-6.6,10.7-6.2c0,0-10.3,8.5-10.3,8.5
						c0.3,0.5,11-6.9,11.3-6.5c0,0-11.4,7.4-10.8,8.3c0.3,0.5,11.2-7.2,11.5-6.6c0,0-11.3,8.1-11,8.6c0.1,0.2,11.2-7.5,11.7-6.7
						c0.4,0.7-11.3,8.1-11.3,8.1c0.1,0.2,11.8-6.8,11.8-6.8l-11.4,8.2c0.1,0.1,11.7-7.1,11.9-6.8c0.4,0.7-11.3,9.1-11.3,9.1
						c0.3,0.5,11.7-7.5,12-6.9c0.1,0.1-12,7.9-11.6,8.6c0,0,11.9-7.3,12.1-7c0.1,0.3-11.6,9.1-11.6,9.1c0.3,0.6,12.1-7.3,12.3-7.1
						c0.5,0.9-11.7,9.5-11.7,9.5l12.4-7.2c0.6,1.1-12.7,7.3-12.1,8.4l12.5-7.2c0,0-12.2,8.5-12.1,8.7l12.6-7.3l-12.1,9.2l12.7-7.4
						c0,0-12.9,8.2-12.3,9.2c0.4,0.6,12.9-7.4,12.9-7.4c0.6,1.1-12.3,9.9-12.3,9.9s13.1-7.6,13.1-7.6c0,0-13.3,8-12.8,9l13.3-7.7
						c0,0-12.9,9.5-12.7,10l13.6-7.8c0.5,0.8-13.3,9.4-13.1,9.9c0,0,13.4-8.8,13.9-8c0,0-13.7,9.8-13.3,10.5c0,0,13.7-9.4,14.4-8.3
						c0.1,0.2-14.7,8.8-14,9.8c0.5,0.9,14.7-8.5,14.7-8.5c0.6,1.1-14.3,10.5-14.3,10.5s14.5-10,15.2-8.8l-14.9,10.2
						c0.4,0.7,15.1-9.8,15.6-9c0,0-15.5,10.4-15.2,10.8c0.1,0.2,16-9.3,16-9.3c0.7,1.2-15.8,10.9-15.7,11.2
						c0.2,0.4,16.6-9.6,16.6-9.6c0.4,0.6-16.7,11.1-16.1,12.1c1.4,2.4,35.3-20.4,35.3-20.4c1.5,2.6-35.1,21.7-35.1,21.7
						c0.5,0.9,35.1-20.3,35.1-20.3c0.2,0.4-34.7,22.6-34.7,22.6s33.6-22.2,34.8-20.1l-34.5,22.4c0.5,0.8,33.7-22.4,34.9-20.2
						c0.8,1.5-34.7,22-34.7,22c1.6,2.8,54.4-33.7,55.4-32c0,0-58,30.2-55.6,34.3c1.2,2.1,55.3-31.9,55.3-31.9
						c2.2,3.9-56.4,33.6-55.7,34.7l55.3-31.9c1.6,2.7-55.6,33.8-55.6,33.8s55.1-32.3,55.3-31.9L505.5,359c2,3.4,55.2-32,55.3-31.9
						c2.3,4.1-55.5,34.6-55.5,34.6s53.7-35,55.4-32l-55.6,34.5c2.3,4,55.3-33.4,55.9-32.3c0.5,0.9-58.4,31-56.1,35l79.3-45.8
						c0,0-80.2,46.6-79.3,48.1c3.5,6.1,78.3-46.3,78.8-45.5c0,0-81.7,43.3-78.8,48.2c0,0,77.7-45.9,78.2-45.1
						c3.9,6.8-81,42.6-78.1,47.5c0,0,75.1-49,77.5-44.8L505,376.8l76.6-44.2l-76.5,45.7c3.2,5.6,74.4-46.9,76.1-43.9l-75.9,45.9
						c2.4,4.2,73.6-46.1,75.2-43.4l-74.9,45.8l74.2-42.8c0,0-75.1,43.1-73.9,45.2c3.2,5.6,73.3-42.3,73.3-42.3L506.2,387
						c0,0,70.9-44.6,72.5-41.9l-72.2,43.8c1.6,2.7,69.2-45.8,71.8-41.4l-71.4,43.1c0,0,68.3-45.8,71.1-41c3.7,6.4-71.8,41-70.5,43.3
						c2.2,3.8,66.8-46.1,70.1-40.5c0,0-73,36-69.8,41.7c1.5,2.5,69.5-40.1,69.5-40.1s-69.8,40.7-68.9,42.2c0,0,67.2-41.9,68.5-39.5
						c2.4,4.1-68,41-68,41l67.7-39.1c0.1,0.2-69.2,37.5-67,41.3c0.8,1.3,66.8-38.6,66.8-38.6c2.3,3.9-67.5,37.9-66.4,39.8
						c2.2,3.7,66.1-39,66.5-38.4c1.9,3.4-66.5,38.7-66,39.5l66.3-38.3l-65.8,39.4c1.2,2,66.2-38.2,66.2-38.2
						c0.2,0.4-65.5,39.8-65.5,39.8c1.3,2.3,65-41.2,66.6-38.5c0,0-67.8,36.9-66,40.1l106.4-61.5c0,0-110.2,57.5-106.5,63.9
						l108.3-62.5c1.4,2.4-108.3,64-108.3,64l108.7-62.8c0,0-109,65.1-108.8,65.4l107.5-62.1c0,0-112.6,54.7-107.5,63.6L618,353.4
						L512.2,416l103.6-59.8c1.9,3.3-105.3,59.2-103.7,62.1c5.2,8.9,99.7-57.6,99.7-57.6c2.2,3.7-102.6,55.3-99.8,60.2
						c0,0,91.9-61,95.3-55c0,0-97.6,53.9-95.4,57.7c2.9,5,91.1-52.6,91.1-52.6c0.3,0.5-92.8,51.1-91.1,54l89-51.4
						c0.3,0.4-89.7,53.1-89.1,54.2c3.9,6.8,84.6-48.8,84.6-48.8c3.7,6.4-88.5,43.8-84.6,50.6l81.8-47.2c4,6.9-84.3,45-81.9,49.2
						c3.7,6.4,78.7-45.5,78.7-45.5c3.5,6-78.8,48-78.8,48c1,1.8,73.8-44.5,74.6-43.1c3.5,6-77.7,39.9-74.7,45
						c0,0,68.6-46.1,71.4-41.2c0,0-71.5,43-71.5,43c3.1,5.4,68.3-39.4,68.3-39.4l-68.4,41.5l64-36.9c0.6,1.1-66.6,34.2-64,38.7
						c2.4,4.2,59.2-34.2,59.2-34.2c2.6,4.5-60.7,33.1-59.2,35.6l58.9-34L511,445.3l59-34c2.9,5.1-59.3,36-59.3,36
						c2,3.5,59.1-34.1,59.1-34.1c1.9,3.3-59.6,37.1-59.6,37.1s56.4-39.1,59.3-34.2c0.4,0.7-62,32.5-59.6,36.6
						c1.1,1.9,59.4-34.3,59.4-34.3s-61.5,33-59.7,36.2c1.4,2.5,58.8-35.5,59.5-34.3c2.4,4.2-62.5,31.4-59.7,36.1
						c1.1,1.8,59-35.3,59.5-34.4c0,0-61.5,33.7-59.9,36.6c0.8,1.3,59.6-34.4,59.6-34.4l-59.9,36.2c0,0,58.3-36.8,59.7-34.5
						c1.8,3.1-62.6,32.1-60,36.7c0,0,58.4-36.8,59.7-34.5L508,465c0,0,59.3-35.3,59.8-34.5c0,0-61.3,35.7-60.2,37.5
						c0,0,59.2-35.8,59.9-34.6c0,0-61.6,33.4-60.1,36.1l59.9-34.6c0,0-63,32.5-60.3,37.1c0,0,59.9-34.6,59.9-34.6
						s-63,32.2-60.3,36.9c0.3,0.5,57-39.8,59.9-34.6c0.2,0.3-60.3,36.9-60.3,36.9c0.3,0.5,58.4-37.3,60-34.6
						c2.3,4-61.1,36-60.4,37.3c0,0,57.4-39.1,60-34.6l-60.4,37.2l60-34.6c0.2,0.3-60.4,35.9-60.2,36.1c1.9,3.2,60-34.6,60-34.6
						s-60.6,36.2-60.3,36.6c1.4,2.4,60-34.7,60-34.7c1.7,2.9-60.3,36.6-60.3,36.6c0.2,0.4,60-34.7,60-34.7L504.1,490
						c0,0,58.4-37.6,60-34.7c1.1,1.9-60.4,37.2-60.4,37.2l60.1-34.7c0,0-62.9,31.8-60.3,36.3l60.1-34.7c0,0-61.4,34.9-60.4,36.7
						c2.2,3.8,57.2-39.7,60.1-34.7c0,0-62.3,34-60.5,37.2l60.1-34.7c0.3,0.5-62.5,34.5-60.6,37.7c3,5.2,60.2-34.7,60.2-34.7
						c2,3.5-61.3,34.9-60.4,36.4c0,0,58.1-38.4,60.2-34.7c0,0-61.5,34.3-60.4,36.2c2,3.4,60.2-34.8,60.2-34.8l-60.5,36.6
						c0.3,0.5,58.7-37.4,60.3-34.8c2,3.5-61.3,35-60.5,36.4c1.9,3.3,60.3-34.8,60.3-34.8c0.4,0.8-61.8,34.6-60.6,36.7
						c0.6,1,60.3-34.8,60.3-34.8l-60.7,37.4c0.2,0.4,60.4-34.9,60.4-34.9l-60.8,37.7l60.5-34.9c0,0-63.5,31.6-60.7,36.4
						c1.2,2.1,60.6-35,60.6-35c2.8,4.9-60.8,36.5-60.8,36.5c1.7,3,60.6-35,60.6-35c1.6,2.8-63.2,34.2-61.1,38l60.8-35.1
						c0,0-63.3,33.8-61.1,37.4c1.3,2.2,60.9-35.2,60.9-35.2c2.4,4.1-62.5,36.2-61.4,38.2c1.6,2.7,61.1-35.3,61.1-35.3l-61.5,38
						c0.1,0.2,61.3-35.4,61.3-35.4c1.2,2.1-63.9,34.6-61.7,38.4c3,5.2,60.2-37.6,61.5-35.5c2.7,4.7-61.8,37.8-61.8,37.8
						c0.9,1.5,61.6-35.6,61.6-35.6l-61.9,37.7c0,0,60.2-38.4,61.8-35.7c0,0.1-62.2,38.4-62.2,38.4s61.9-35.8,61.9-35.8
						c0,0-64.3,33.5-62.2,37.2c2.1,3.7,62-35.8,62-35.8s-63.2,37.4-62.5,38.7c0.5,0.8,62.2-35.9,62.2-35.9
						c1.8,3.2-62.5,37.7-62.5,37.7l62.3-36c0,0-64.2,35.6-62.7,38.2c1,1.7,61.2-38.3,62.5-36.1c2.7,4.8-62.8,38.1-62.8,38.1
						l62.6-36.2l-63,38.9c0.3,0.5,62.2-37.2,62.8-36.3c0,0-64.7,35.3-63.1,38.1c0,0,61.5-38.8,62.9-36.3
						c0.8,1.4-63.3,39.1-63.3,39.1s62.8-36.9,63.1-36.4c0,0-65.5,34.1-63.3,37.9l63.2-36.5c1.1,1.8-65.5,35.3-63.5,38.7
						c0,0,63.3-36.7,63.3-36.6c0,0-66.4,33.3-63.6,38.3c0,0,61.2-40.6,63.5-36.6c0,0-64.4,38.1-63.8,39.1c0,0,63.1-37.6,63.6-36.7
						c2.4,4.1-63.5,38.1-63.5,38.1l63.4-36.6c2.6,4.4-61.3,38.1-61.3,38.1c2.7,4.7,61.1-35.3,61.1-35.3c2.8,4.9-59.5,36.3-59.5,36.3
						s58.4-35.9,59.4-34.3c0,0-59.2,32.7-57.6,35.4c0.6,1,57.4-33.1,57.4-33.1c1,1.7-56.2,33-55.5,34.2c0.1,0.2,52.7-36.4,55.3-31.9
						c0,0-55.1,30.6-53.9,32.6c2.4,4.2,51.2-35.6,53.8-31.1c1,1.8-53.2,30.5-52.4,31.7c1.6,2.8,50.1-33.9,52.3-30.2
						c0.5,0.9-50.1,31.2-50.1,31.2l49.8-28.8c2,3.5-47.4,29.6-47.2,29.9l46.9-27.1c0,0-47.4,23.9-45.2,27.8c0,0,43.2-29.1,45-26
						l-42.3,27l42-24.3c0,0-39.5,24.8-39.2,25.2c1.9,3.2,39-22.5,39-22.5c1.1,2-36.8,23.2-36.8,23.2c1,1.7,35.9-22.2,36.6-21.1
						c0,0-35.8,19.6-34.6,21.7l34.5-19.9c0,0-31.5,20.7-31.5,20.7l31.2-18c1,1.7-28.5,18.5-28.4,18.7c0.4,0.7,28.1-16.4,28.2-16.3
						l-24.8,17.1l24.5-14.1c1,1.7-22,14.7-22,14.7c0.8,1.4,21.7-12.7,21.8-12.6c1,1.8-19.9,12.3-19.4,13.1
						c0.3,0.5,19.2-11.1,19.2-11.1s-16.5,10.4-15.8,11.8c0.7,1.3,15.1-9.6,15.5-9l-13.2,9.3l13.1-7.5c0,0.1-11.1,7.9-11.1,7.9
						c0.1,0.1,11-6.3,11-6.3l-7.7,6.8c0,0,7.3-4.5,7.4-4.3l-4.2,4.8c0.2,0.3,3.8-2.6,4-2.3c0,0-1,2.7-1,2.7l0.6-0.4"/>
					<path class="st2" d="M530.7,266.9l3.3-1.9l-4.4,4c0,0,6.9-4.4,7-4.1c0.3,0.6-7.8,5.8-7.4,6.4c0.1,0.1,9.7-5.6,9.7-5.6
						c0.3,0.5-10.3,6.3-9.9,7.1c0.2,0.4,10.9-6.3,10.9-6.3s-11.2,7.4-11,7.7c0.6,1,11.1-7.6,11.6-6.7c0,0-11.9,8.6-11.9,8.7
						c0.3,0.5,12.3-7.3,12.4-7.1c0,0.1-12.6,9.1-12.6,9.1c0,0.1,12.8-7.4,12.8-7.4l-13,9.4c0,0,12.8-8.2,13.2-7.6
						c0.2,0.3-13.4,10.5-13.4,10.5c0.2,0.4,13.2-8.4,13.5-7.8l-13.7,10.3c0.1,0.1,13.3-8.6,13.7-7.9c0,0-14.6,9.3-13.9,10.6
						c0,0,13.8-8,13.8-8c0.5,0.9-14,9.8-13.9,9.9c0.2,0.3,13.9-8,13.9-8c0.7,1.2-14,9.9-14,9.9c0.3,0.5,13.3-9.2,13.9-8
						c0.2,0.4-14,9.8-14,9.8c0.6,1.1,13.9-8.1,14-8.1c0,0-14.7,8.3-14,9.5c0.5,0.9,14-8.1,14-8.1s-14.5,10-14.1,10.7
						c0.5,0.8,13.9-8.3,14.1-8.1c0.1,0.1-14.3,9.4-14.1,9.7c0,0,13.6-9,14.1-8.1c0,0-14.7,8.8-14.1,9.8c0.3,0.5,13.5-9.3,14.1-8.1
						l-14.2,9.9c0.2,0.4,13.9-8.5,14.1-8.2c0.4,0.7-14.5,9.2-14.2,9.8c0.1,0.2,13.9-8.6,14.2-8.2l-14.2,9.8l14.2-8.2
						c0,0-14.4,9.6-14.3,10c0,0,13.8-8.8,14.2-8.2c0,0-14.7,8.9-14.3,9.7l14.2-8.2c0.7,1.3-14.3,10.4-14.3,10.4
						c0.1,0.2,14.3-8.2,14.3-8.2s-14.5,9.4-14.3,9.7c0.2,0.4,14.3-8.3,14.3-8.3c0.2,0.3-15.1,9-14.4,10.3c0.7,1.3,14.3-8.3,14.3-8.3
						c0.4,0.7-14.8,9.3-14.4,10c0.1,0.2,14.4-8.3,14.4-8.3c0.5,0.8-15,8.9-14.4,9.9c0,0,14.4-8.3,14.4-8.3
						c0.7,1.3-14.8,9.5-14.5,10.1c0.2,0.4,14.4-8.3,14.4-8.3L526.4,322c0.4,0.8,14.5-8.4,14.5-8.4c0.7,1.3-15,9.5-14.6,10.2
						l14.6-8.4c0,0-15.1,9.1-14.7,9.9l14.7-8.5c0.7,1.2-14.9,9.8-14.8,10l14.9-8.6c0.3,0.6-15.9,10.3-15.5,11c0,0,14.8-10.3,15.5-9"
						/>
				</g>
				<g>
					<path class="st3" d="M601.6,347.2c0.1,0.3,5.4-3.6,5.6-3.2c0.3,0.5-13.3,10.2-13.2,10.4c1,1.7,19.1-11,19.1-11
						s-26.8,14.8-25.4,17.2c1.3,2.3,28.7-16.6,28.7-16.6c0.8,1.4-32.3,20.2-32.3,20.2s33.9-19.8,34-19.6"/>
					<path class="st3" d="M581.6,275.9c0.1,0.2,2.9-2,3.1-1.8c0,0-5.7,5.4-5.6,5.7l9.2-5.3l-10.6,8.5l12.8-7.4c0,0-14,9.6-13.6,10.2
						c0.4,0.8,14.4-9.8,15-8.7c0.1,0.2-15.5,10.4-15.5,10.4l16-9.3c0.3,0.5-16.9,12.4-16.9,12.4c0.5,0.9,17.3-10,17.3-10
						c0.2,0.4-18.4,12.7-18.2,13.1c0,0,17.4-12,18.2-10.5c0.4,0.7-19.6,10.6-18.7,12.2c0.1,0.2,18.5-10.7,18.5-10.7l-19.2,13.3
						c0,0,18.4-11.3,18.7-10.8c0.6,1.1-19.3,12.6-19.2,12.7c0.1,0.2,18.8-10.9,18.8-10.9c0.1,0.2-20,13-19.6,13.7
						c0.2,0.4,19-11,19-11c1,1.8-19.6,13-19.6,13c0.7,1.3,18.8-11.5,19.1-11c0.7,1.3-20.7,12-19.8,13.5c0.7,1.2,18.5-12.2,19.2-11.1
						l-19.8,13.2c0.1,0.2,18.4-12.6,19.2-11.1c0.5,0.8-20.6,11.1-19.7,12.7L589,300c0.3,0.5-19.7,13-19.7,13
						c0,0.1,18.2-12.8,19.2-11.1c0,0-20.1,13.1-19.8,13.5l19.2-11.1c0.2,0.4-19.7,13-19.7,13c0.8,1.4,19.2-11.1,19.2-11.1
						c1,1.7-20.8,12.1-19.9,13.6c0.3,0.6,19.3-11.2,19.3-11.2l-19.9,13.1c0.4,0.7,19.4-11.2,19.4-11.2L566.3,324
						c0.9,1.6,19.2-12.1,19.6-11.3c0,0-20.9,12.7-20.3,13.7c0.9,1.5,18.9-13.1,19.8-11.4c0,0-21.4,13.9-21,14.6l20.4-11.8
						c0.6,1-22.9,13.2-22.1,14.6l21.7-12.5"/>
					<path class="st3" d="M555.9,262.3l3.5-2c0,0-5.4,4.8-5.2,5.1c0.1,0.1,8.4-5.7,8.7-5l-9.2,7.6c0,0,11.1-7.4,11.5-6.6l-11.9,8.9
						l13.2-7.6l-13.6,9.7c0,0,14.3-8.5,14.4-8.3c0.1,0.3-14.7,10.4-14.7,10.4c0.4,0.8,14.5-9.8,15.1-8.7c0.7,1.2-16,10.5-15.5,11.3
						l15.6-9c0.7,1.2-16,11.8-16,11.8l15.8-9.1l-16.1,11.2c0,0,15.1-10.6,15.9-9.2c0.8,1.4-16.9,10.8-16.3,11.8
						c0.1,0.2,16.1-9.3,16.1-9.3l-16.5,12c0,0,15.4-10.8,16.3-9.4L550.4,289l16.4-9.5l-16.6,11.1c0.5,0.9,16.5-9.5,16.5-9.5
						l-16.9,12l16.6-9.6c0.6,1.1-17.7,9.7-16.9,11.1c0.6,1.1,16.7-9.6,16.7-9.6c0.2,0.3-17.1,12.3-17.1,12.3
						c0.8,1.3,16.8-9.9,16.9-9.7c0,0-17.9,9.9-17.1,11.3c0.1,0.2,16.2-11.1,16.9-9.8c0.7,1.2-18.3,11.1-17.4,12.6
						c0.6,1,17.1-9.9,17.1-9.9L548,304.4c0.9,1.5,17.2-9.9,17.2-9.9c0.3,0.5-17.5,11.7-17.5,11.7c0.9,1.5,16.7-11,17.3-10
						c0,0-18.6,10.9-17.7,12.5c0,0,17.3-10.2,17.4-10c0.3,0.4-18.1,10.9-17.6,11.6c0.9,1.5,16.8-11.3,17.5-10.1
						c0,0-18.4,12.3-17.9,13c0,0,17.4-10.5,17.6-10.2l-18.1,13.2c0,0,17.2-11,17.7-10.2c0,0-18.5,10.9-18,11.9
						c0.9,1.5,17.7-10.2,17.7-10.2s-18.7,12.4-18.2,13.1c0.1,0.1,17.8-10.3,17.8-10.3s-18.4,12.8-18.3,13
						c0.1,0.2,17.9-10.3,17.9-10.3c1,1.8-19,13.7-19,13.7c0.5,0.8,18.1-11.5,18.6-10.7"/>
					<path class="st3" d="M496.2,287.7l3.4-2c0.1,0.2-4.7,4-4.4,4.4c0.3,0.5,7.2-4.2,7.2-4.2c0.4,0.7-7.6,6.2-7.5,6.5
						c0,0,9-5.4,9.1-5.3c0.5,0.9-9.1,6.9-9.1,7c0,0,9.7-6.2,9.9-5.7c0,0-9.8,7.8-9.7,8c0,0,10.4-6.6,10.7-6.2c0,0-10.3,8.5-10.3,8.5
						c0.3,0.5,11-6.9,11.3-6.5c0,0-11.4,7.4-10.8,8.3c0.3,0.5,11.2-7.2,11.5-6.6c0,0-11.3,8.1-11,8.6c0.1,0.2,11.2-7.5,11.7-6.7
						c0.4,0.7-11.3,8.1-11.3,8.1c0.1,0.2,11.8-6.8,11.8-6.8l-11.4,8.2c0.1,0.1,11.7-7.1,11.9-6.8c0.4,0.7-11.3,9.1-11.3,9.1
						c0.3,0.5,11.7-7.5,12-6.9c0.1,0.1-12,7.9-11.6,8.6c0,0,11.9-7.3,12.1-7c0.1,0.3-11.6,9.1-11.6,9.1c0.3,0.6,12.1-7.3,12.3-7.1
						c0.5,0.9-11.7,9.5-11.7,9.5l12.4-7.2c0.6,1.1-12.7,7.3-12.1,8.4l12.5-7.2c0,0-12.2,8.5-12.1,8.7l12.6-7.3l-12.1,9.2l12.7-7.4
						c0,0-12.9,8.2-12.3,9.2c0.4,0.6,12.9-7.4,12.9-7.4c0.6,1.1-12.3,9.9-12.3,9.9s13.1-7.6,13.1-7.6c0,0-13.3,8-12.8,9l13.3-7.7
						c0,0-12.9,9.5-12.7,10l13.6-7.8c0.5,0.8-13.3,9.4-13.1,9.9c0,0,13.4-8.8,13.9-8c0,0-13.7,9.8-13.3,10.5c0,0,13.7-9.4,14.4-8.3
						c0.1,0.2-14.7,8.8-14,9.8c0.5,0.9,14.7-8.5,14.7-8.5c0.6,1.1-14.3,10.5-14.3,10.5s14.5-10,15.2-8.8l-14.9,10.2
						c0.4,0.7,15.1-9.8,15.6-9c0,0-15.5,10.4-15.2,10.8c0.1,0.2,16-9.3,16-9.3c0.7,1.2-15.8,10.9-15.7,11.2
						c0.2,0.4,16.6-9.6,16.6-9.6c0.4,0.6-16.7,11.1-16.1,12.1c1.4,2.4,35.3-20.4,35.3-20.4c1.5,2.6-35.1,21.7-35.1,21.7
						c0.5,0.9,35.1-20.3,35.1-20.3c0.2,0.4-34.7,22.6-34.7,22.6s33.6-22.2,34.8-20.1l-34.5,22.4c0.5,0.8,33.7-22.4,34.9-20.2
						c0.8,1.5-34.7,22-34.7,22c1.6,2.8,54.4-33.7,55.4-32c0,0-58,30.2-55.6,34.3c1.2,2.1,55.3-31.9,55.3-31.9
						c2.2,3.9-56.4,33.6-55.7,34.7l55.3-31.9c1.6,2.7-55.6,33.8-55.6,33.8s55.1-32.3,55.3-31.9L505.5,359c2,3.4,55.2-32,55.3-31.9
						c2.3,4.1-55.5,34.6-55.5,34.6s53.7-35,55.4-32l-55.6,34.5c2.3,4,55.3-33.4,55.9-32.3c0.5,0.9-58.4,31-56.1,35l79.3-45.8
						c0,0-80.2,46.6-79.3,48.1c3.5,6.1,78.3-46.3,78.8-45.5c0,0-81.7,43.3-78.8,48.2c0,0,77.7-45.9,78.2-45.1
						c3.9,6.8-81,42.6-78.1,47.5c0,0,75.1-49,77.5-44.8L505,376.8l76.6-44.2l-76.5,45.7c3.2,5.6,74.4-46.9,76.1-43.9l-75.9,45.9
						c2.4,4.2,73.6-46.1,75.2-43.4l-74.9,45.8l74.2-42.8c0,0-75.1,43.1-73.9,45.2c3.2,5.6,73.3-42.3,73.3-42.3L506.2,387
						c0,0,70.9-44.6,72.5-41.9l-72.2,43.8c1.6,2.7,69.2-45.8,71.8-41.4l-71.4,43.1c0,0,68.3-45.8,71.1-41c3.7,6.4-71.8,41-70.5,43.3
						c2.2,3.8,66.8-46.1,70.1-40.5c0,0-73,36-69.8,41.7c1.5,2.5,69.5-40.1,69.5-40.1s-69.8,40.7-68.9,42.2c0,0,67.2-41.9,68.5-39.5
						c2.4,4.1-68,41-68,41l67.7-39.1c0.1,0.2-69.2,37.5-67,41.3c0.8,1.3,66.8-38.6,66.8-38.6c2.3,3.9-67.5,37.9-66.4,39.8
						c2.2,3.7,66.1-39,66.5-38.4c1.9,3.4-66.5,38.7-66,39.5l66.3-38.3l-65.8,39.4c1.2,2,66.2-38.2,66.2-38.2
						c0.2,0.4-65.5,39.8-65.5,39.8c1.3,2.3,65-41.2,66.6-38.5c0,0-67.8,36.9-66,40.1l106.4-61.5c0,0-110.2,57.5-106.5,63.9
						l108.3-62.5c1.4,2.4-108.3,64-108.3,64l108.7-62.8c0,0-109,65.1-108.8,65.4l107.5-62.1c0,0-112.6,54.7-107.5,63.6L618,353.4
						L512.2,416l103.6-59.8c1.9,3.3-105.3,59.2-103.7,62.1c5.2,8.9,99.7-57.6,99.7-57.6c2.2,3.7-102.6,55.3-99.8,60.2
						c0,0,91.9-61,95.3-55c0,0-97.6,53.9-95.4,57.7c2.9,5,91.1-52.6,91.1-52.6c0.3,0.5-92.8,51.1-91.1,54l89-51.4
						c0.3,0.4-89.7,53.1-89.1,54.2c3.9,6.8,84.6-48.8,84.6-48.8c3.7,6.4-88.5,43.8-84.6,50.6l81.8-47.2c4,6.9-84.3,45-81.9,49.2
						c3.7,6.4,78.7-45.5,78.7-45.5c3.5,6-78.8,48-78.8,48c1,1.8,73.8-44.5,74.6-43.1c3.5,6-77.7,39.9-74.7,45
						c0,0,68.6-46.1,71.4-41.2c0,0-71.5,43-71.5,43c3.1,5.4,68.3-39.4,68.3-39.4l-68.4,41.5l64-36.9c0.6,1.1-66.6,34.2-64,38.7
						c2.4,4.2,59.2-34.2,59.2-34.2c2.6,4.5-60.7,33.1-59.2,35.6l58.9-34L511,445.3l59-34c2.9,5.1-59.3,36-59.3,36
						c2,3.5,59.1-34.1,59.1-34.1c1.9,3.3-59.6,37.1-59.6,37.1s56.4-39.1,59.3-34.2c0.4,0.7-62,32.5-59.6,36.6
						c1.1,1.9,59.4-34.3,59.4-34.3s-61.5,33-59.7,36.2c1.4,2.5,58.8-35.5,59.5-34.3c2.4,4.2-62.5,31.4-59.7,36.1
						c1.1,1.8,59-35.3,59.5-34.4c0,0-61.5,33.7-59.9,36.6c0.8,1.3,59.6-34.4,59.6-34.4l-59.9,36.2c0,0,58.3-36.8,59.7-34.5
						c1.8,3.1-62.6,32.1-60,36.7c0,0,58.4-36.8,59.7-34.5L508,465c0,0,59.3-35.3,59.8-34.5c0,0-61.3,35.7-60.2,37.5
						c0,0,59.2-35.8,59.9-34.6c0,0-61.6,33.4-60.1,36.1l59.9-34.6c0,0-63,32.5-60.3,37.1c0,0,59.9-34.6,59.9-34.6
						s-63,32.2-60.3,36.9c0.3,0.5,57-39.8,59.9-34.6c0.2,0.3-60.3,36.9-60.3,36.9c0.3,0.5,58.4-37.3,60-34.6
						c2.3,4-61.1,36-60.4,37.3c0,0,57.4-39.1,60-34.6l-60.4,37.2l60-34.6c0.2,0.3-60.4,35.9-60.2,36.1c1.9,3.2,60-34.6,60-34.6
						s-60.6,36.2-60.3,36.6c1.4,2.4,60-34.7,60-34.7c1.7,2.9-60.3,36.6-60.3,36.6c0.2,0.4,60-34.7,60-34.7L504.1,490
						c0,0,58.4-37.6,60-34.7c1.1,1.9-60.4,37.2-60.4,37.2l60.1-34.7c0,0-62.9,31.8-60.3,36.3l60.1-34.7c0,0-61.4,34.9-60.4,36.7
						c2.2,3.8,57.2-39.7,60.1-34.7c0,0-62.3,34-60.5,37.2l60.1-34.7c0.3,0.5-62.5,34.5-60.6,37.7c3,5.2,60.2-34.7,60.2-34.7
						c2,3.5-61.3,34.9-60.4,36.4c0,0,58.1-38.4,60.2-34.7c0,0-61.5,34.3-60.4,36.2c2,3.4,60.2-34.8,60.2-34.8l-60.5,36.6
						c0.3,0.5,58.7-37.4,60.3-34.8c2,3.5-61.3,35-60.5,36.4c1.9,3.3,60.3-34.8,60.3-34.8c0.4,0.8-61.8,34.6-60.6,36.7
						c0.6,1,60.3-34.8,60.3-34.8l-60.7,37.4c0.2,0.4,60.4-34.9,60.4-34.9l-60.8,37.7l60.5-34.9c0,0-63.5,31.6-60.7,36.4
						c1.2,2.1,60.6-35,60.6-35c2.8,4.9-60.8,36.5-60.8,36.5c1.7,3,60.6-35,60.6-35c1.6,2.8-63.2,34.2-61.1,38l60.8-35.1
						c0,0-63.3,33.8-61.1,37.4c1.3,2.2,60.9-35.2,60.9-35.2c2.4,4.1-62.5,36.2-61.4,38.2c1.6,2.7,61.1-35.3,61.1-35.3l-61.5,38
						c0.1,0.2,61.3-35.4,61.3-35.4c1.2,2.1-63.9,34.6-61.7,38.4c3,5.2,60.2-37.6,61.5-35.5c2.7,4.7-61.8,37.8-61.8,37.8
						c0.9,1.5,61.6-35.6,61.6-35.6l-61.9,37.7c0,0,60.2-38.4,61.8-35.7c0,0.1-62.2,38.4-62.2,38.4s61.9-35.8,61.9-35.8
						c0,0-64.3,33.5-62.2,37.2c2.1,3.7,62-35.8,62-35.8s-63.2,37.4-62.5,38.7c0.5,0.8,62.2-35.9,62.2-35.9
						c1.8,3.2-62.5,37.7-62.5,37.7l62.3-36c0,0-64.2,35.6-62.7,38.2c1,1.7,61.2-38.3,62.5-36.1c2.7,4.8-62.8,38.1-62.8,38.1
						l62.6-36.2l-63,38.9c0.3,0.5,62.2-37.2,62.8-36.3c0,0-64.7,35.3-63.1,38.1c0,0,61.5-38.8,62.9-36.3
						c0.8,1.4-63.3,39.1-63.3,39.1s62.8-36.9,63.1-36.4c0,0-65.5,34.1-63.3,37.9l63.2-36.5c1.1,1.8-65.5,35.3-63.5,38.7
						c0,0,63.3-36.7,63.3-36.6c0,0-66.4,33.3-63.6,38.3c0,0,61.2-40.6,63.5-36.6c0,0-64.4,38.1-63.8,39.1c0,0,63.1-37.6,63.6-36.7
						c2.4,4.1-63.5,38.1-63.5,38.1l63.4-36.6c2.6,4.4-61.3,38.1-61.3,38.1c2.7,4.7,61.1-35.3,61.1-35.3c2.8,4.9-59.5,36.3-59.5,36.3
						s58.4-35.9,59.4-34.3c0,0-59.2,32.7-57.6,35.4c0.6,1,57.4-33.1,57.4-33.1c1,1.7-56.2,33-55.5,34.2c0.1,0.2,52.7-36.4,55.3-31.9
						c0,0-55.1,30.6-53.9,32.6c2.4,4.2,51.2-35.6,53.8-31.1c1,1.8-53.2,30.5-52.4,31.7c1.6,2.8,50.1-33.9,52.3-30.2
						c0.5,0.9-50.1,31.2-50.1,31.2l49.8-28.8c2,3.5-47.4,29.6-47.2,29.9l46.9-27.1c0,0-47.4,23.9-45.2,27.8c0,0,43.2-29.1,45-26
						l-42.3,27l42-24.3c0,0-39.5,24.8-39.2,25.2c1.9,3.2,39-22.5,39-22.5c1.1,2-36.8,23.2-36.8,23.2c1,1.7,35.9-22.2,36.6-21.1
						c0,0-35.8,19.6-34.6,21.7l34.5-19.9c0,0-31.5,20.7-31.5,20.7l31.2-18c1,1.7-28.5,18.5-28.4,18.7c0.4,0.7,28.1-16.4,28.2-16.3
						l-24.8,17.1l24.5-14.1c1,1.7-22,14.7-22,14.7c0.8,1.4,21.7-12.7,21.8-12.6c1,1.8-19.9,12.3-19.4,13.1
						c0.3,0.5,19.2-11.1,19.2-11.1s-16.5,10.4-15.8,11.8c0.7,1.3,15.1-9.6,15.5-9l-13.2,9.3l13.1-7.5c0,0.1-11.1,7.9-11.1,7.9
						c0.1,0.1,11-6.3,11-6.3l-7.7,6.8c0,0,7.3-4.5,7.4-4.3l-4.2,4.8c0.2,0.3,3.8-2.6,4-2.3c0,0-1,2.7-1,2.7l0.6-0.4"/>
					<path class="st3" d="M530.7,266.9l3.3-1.9l-4.4,4c0,0,6.9-4.4,7-4.1c0.3,0.6-7.8,5.8-7.4,6.4c0.1,0.1,9.7-5.6,9.7-5.6
						c0.3,0.5-10.3,6.3-9.9,7.1c0.2,0.4,10.9-6.3,10.9-6.3s-11.2,7.4-11,7.7c0.6,1,11.1-7.6,11.6-6.7c0,0-11.9,8.6-11.9,8.7
						c0.3,0.5,12.3-7.3,12.4-7.1c0,0.1-12.6,9.1-12.6,9.1c0,0.1,12.8-7.4,12.8-7.4l-13,9.4c0,0,12.8-8.2,13.2-7.6
						c0.2,0.3-13.4,10.5-13.4,10.5c0.2,0.4,13.2-8.4,13.5-7.8l-13.7,10.3c0.1,0.1,13.3-8.6,13.7-7.9c0,0-14.6,9.3-13.9,10.6
						c0,0,13.8-8,13.8-8c0.5,0.9-14,9.8-13.9,9.9c0.2,0.3,13.9-8,13.9-8c0.7,1.2-14,9.9-14,9.9c0.3,0.5,13.3-9.2,13.9-8
						c0.2,0.4-14,9.8-14,9.8c0.6,1.1,13.9-8.1,14-8.1c0,0-14.7,8.3-14,9.5c0.5,0.9,14-8.1,14-8.1s-14.5,10-14.1,10.7
						c0.5,0.8,13.9-8.3,14.1-8.1c0.1,0.1-14.3,9.4-14.1,9.7c0,0,13.6-9,14.1-8.1c0,0-14.7,8.8-14.1,9.8c0.3,0.5,13.5-9.3,14.1-8.1
						l-14.2,9.9c0.2,0.4,13.9-8.5,14.1-8.2c0.4,0.7-14.5,9.2-14.2,9.8c0.1,0.2,13.9-8.6,14.2-8.2l-14.2,9.8l14.2-8.2
						c0,0-14.4,9.6-14.3,10c0,0,13.8-8.8,14.2-8.2c0,0-14.7,8.9-14.3,9.7l14.2-8.2c0.7,1.3-14.3,10.4-14.3,10.4
						c0.1,0.2,14.3-8.2,14.3-8.2s-14.5,9.4-14.3,9.7c0.2,0.4,14.3-8.3,14.3-8.3c0.2,0.3-15.1,9-14.4,10.3c0.7,1.3,14.3-8.3,14.3-8.3
						c0.4,0.7-14.8,9.3-14.4,10c0.1,0.2,14.4-8.3,14.4-8.3c0.5,0.8-15,8.9-14.4,9.9c0,0,14.4-8.3,14.4-8.3
						c0.7,1.3-14.8,9.5-14.5,10.1c0.2,0.4,14.4-8.3,14.4-8.3L526.4,322c0.4,0.8,14.5-8.4,14.5-8.4c0.7,1.3-15,9.5-14.6,10.2
						l14.6-8.4c0,0-15.1,9.1-14.7,9.9l14.7-8.5c0.7,1.2-14.9,9.8-14.8,10l14.9-8.6c0.3,0.6-15.9,10.3-15.5,11c0,0,14.8-10.3,15.5-9"
						/>
				</g>
			</g>
		</g>
	</g>
	<g>
		<path class="st4" d="M450.5,667.7c12.5,0,20,7.4,20,19.2v26.7h-7.6v-12.2h-24.5v12.2h-7.7v-26.7
			C430.6,675.1,438.2,667.7,450.5,667.7z M450.5,674.6c-7.6,0-12.3,4.7-12.2,12.3l-0.1,7.6h24.6v-7.6
			C462.8,679.3,458.2,674.6,450.5,674.6z"/>
		<path class="st4" d="M558.3,684.7v29h-7.8v-27.1c0-6.5-4-11.1-10-11.1c-6.9,0.1-11.9,6.1-11.9,13.7v24.5h-7.8v-27.1
			c0-6.5-4.1-11.1-10-11.1c-6.9,0.1-11.8,6.1-11.8,13.7v24.5h-7.7v-45.7h7.7v7.2c3.1-4.4,8.2-7.2,14.5-7.2c6.4,0,11.5,3.7,13.8,9.5
			c2.9-5.9,8.5-9.5,15.9-9.5C551.9,667.9,558.3,674.7,558.3,684.7z"/>
		<path class="st4" d="M615.4,683.5c0,10.3-6.6,16.3-18.1,16.3h-10.5v13.8h-7.7v-45.7h18.2C608.8,667.9,615.4,673.6,615.4,683.5z
			 M608,683.7c0-6-4-8.9-11-8.9h-10.2v18.1H597C604,692.9,608,689.9,608,683.7z"/>
		<path class="st4" d="M651.7,667.7c12.5,0,20,7.4,20,19.2v26.7h-7.6v-12.2h-24.5v12.2h-7.7v-26.7
			C631.9,675.1,639.4,667.7,651.7,667.7z M651.8,674.6c-7.6,0-12.3,4.7-12.2,12.3l-0.1,7.6h24.6v-7.6
			C664,679.3,659.5,674.6,651.8,674.6z"/>
		<path class="st4" d="M721.5,713.6l-8.4-13.8c-0.7,0.1-1.4,0.1-2.1,0.1h-10.8v13.8h-7.7v-45.7h18.5c11.7,0,18.4,5.7,18.4,15.6
			c0,7.3-3.4,12.5-9.5,14.8l10.2,15.3H721.5z M711.1,692.9c7,0,11.1-3,11.1-9.2c0-6-4-8.9-11.1-8.9h-10.8v18.1H711.1z"/>
		<path class="st4" d="M794.1,690.8c0,13-10.6,23.2-24.2,23.2s-24.2-10.1-24.2-23.2c0-13.1,10.6-23,24.2-23S794.1,677.7,794.1,690.8
			z M753.6,690.8c0,9.1,7.5,16.2,16.4,16.2s16.2-7.2,16.2-16.2s-7.3-16.1-16.2-16.1C761,674.7,753.6,681.7,753.6,690.8z"/>
	</g>
	<g>
		<path class="st5" d="M481.8,632.2h-12.6v14.9h-1.7v-32.2h17.5v1.8h-15.7v13.6h12.6V632.2z"/>
		<path class="st5" d="M508.7,647.1c-5.9,0-11.5-5-11.2-11.2V615h2v20.9c0,5.1,4.1,9.2,9.2,9.2c5.1,0,9.2-4.2,9.2-9.2V615h1.9v20.8
			C519.7,642.2,514.8,647.1,508.7,647.1z"/>
		<path class="st5" d="M551.4,647.1l-16.9-29.8l0.1,29.8h-1.9v-31.9h3l16.6,29.9v-29.9h1.9v32H551.4z"/>
		<path class="st5" d="M574.9,647.1h-7.9v-32h7.9c8.7,0.1,15.8,7.3,15.8,16C590.6,639.7,583.5,647,574.9,647.1z M574.6,645.3
			c7.6,0,14-6.6,14-14.3c0-7.6-6.4-14-14-14h-5.8l0,28.3H574.6z"/>
		<path class="st5" d="M608.1,639.5l-3.1,7.6h-2.3l13.5-32.1l13.6,32.1h-2.3l-3.2-7.6H608.1z M608.8,637.7h14.9l-7.4-17.6
			L608.8,637.7z"/>
		<path class="st5" d="M666.3,617.4l-1,1.8c-2.1-1.4-4.7-2-7.3-2c-7.6,0-14.1,6.4-14.1,14c0,7.6,6.4,14,14.1,14
			c2.6,0,5.2-0.7,7.4-2.1l0.9,1.8c-2.5,1.5-5.3,2.3-8.3,2.3c-8.8,0-16-7.2-16-16c0-8.9,7.2-16.1,16-16.1
			C661,615.1,663.8,615.9,666.3,617.4z"/>
		<path class="st5" d="M680.7,614.9V647H679v-32.1H680.7z"/>
		<path class="st5" d="M723.8,631c0,8.8-6.9,16-15.3,16c-8.5,0-15.3-7.2-15.3-16s6.9-16,15.3-16C717,615,723.8,622.2,723.8,631z
			 M722.1,631c0-7.6-6.2-14.1-13.6-14.1c-7.4,0-13.6,6.4-13.6,14.1c0,7.7,6.3,14.1,13.6,14.1C715.9,645.1,722.1,638.7,722.1,631z
			 M711.8,605.6l0.8,1.9l-7,3.2l-0.9-1.9L711.8,605.6z"/>
		<path class="st5" d="M755.1,647.1l-16.9-29.8l0.1,29.8h-1.9v-31.9h3L756,645v-29.9h1.9v32H755.1z"/>
	</g>
</g>
</svg>
