<svg xmlns="http://www.w3.org/2000/svg" xmlns:xlink="http://www.w3.org/1999/xlink" viewBox="0 0 1235.88 822.16"><defs><style>.cls-1{isolation:isolate;}.cls-2{fill:#ed3794;}.cls-3{fill:#54c8ef;}.cls-4{fill:#9d782c;}.cls-5{fill:url(#linear-gradient);}.cls-6{fill:url(#linear-gradient-2);}.cls-7{fill:url(#linear-gradient-3);}.cls-8{fill:#fff;}.cls-9{opacity:0.3;mix-blend-mode:multiply;}.cls-10{fill:#231f20;}.cls-11{fill:#fcfdff;}.cls-12{opacity:0.4;}.cls-12,.cls-13{mix-blend-mode:screen;}.cls-14{fill:#5f4a35;}.cls-15,.cls-16,.cls-17,.cls-18{fill:none;stroke-miterlimit:10;}.cls-15,.cls-16{stroke:#000;}.cls-15,.cls-17{stroke-width:2px;}.cls-16,.cls-18{stroke-width:0.5px;}.cls-17,.cls-18{stroke:#fff;}</style><linearGradient id="linear-gradient" x1="45.83" y1="472.25" x2="411.88" y2="472.25" gradientUnits="userSpaceOnUse"><stop offset="0.01" stop-color="#654320"/><stop offset="0.17" stop-color="#72542d"/><stop offset="0.35" stop-color="#7d6137"/><stop offset="0.53" stop-color="#80653a"/><stop offset="0.68" stop-color="#7e6338"/><stop offset="0.76" stop-color="#785b32"/><stop offset="0.83" stop-color="#6c4d28"/><stop offset="0.89" stop-color="#5d3a19"/><stop offset="0.91" stop-color="#553012"/><stop offset="0.97" stop-color="#270900"/></linearGradient><linearGradient id="linear-gradient-2" x1="248.74" y1="462.11" x2="614.8" y2="462.11" gradientTransform="matrix(-1, 0, 0, 1, 1400.52, 0)" gradientUnits="userSpaceOnUse"><stop offset="0.03" stop-color="#553012"/><stop offset="0.06" stop-color="#5d3a19"/><stop offset="0.13" stop-color="#6c4d28"/><stop offset="0.2" stop-color="#785b32"/><stop offset="0.3" stop-color="#7e6338"/><stop offset="0.47" stop-color="#80653a"/><stop offset="0.63" stop-color="#7d6137"/><stop offset="0.8" stop-color="#73542d"/><stop offset="0.86" stop-color="#6e4d28"/><stop offset="0.9" stop-color="#6b4b26"/><stop offset="0.93" stop-color="#624320"/><stop offset="0.96" stop-color="#523516"/><stop offset="0.98" stop-color="#3b2207"/><stop offset="0.99" stop-color="#301900"/></linearGradient><linearGradient id="linear-gradient-3" x1="348.39" y1="467.34" x2="846.6" y2="467.34" gradientTransform="matrix(0.84, -0.02, -0.08, 1.15, 119.84, -59.12)" gradientUnits="userSpaceOnUse"><stop offset="0.01" stop-color="#654320"/><stop offset="0.17" stop-color="#72542d"/><stop offset="0.35" stop-color="#7d6137"/><stop offset="0.53" stop-color="#80653a"/><stop offset="0.7" stop-color="#7e6338"/><stop offset="0.8" stop-color="#785b32"/><stop offset="0.87" stop-color="#6c4d28"/><stop offset="0.94" stop-color="#5d3a19"/><stop offset="0.97" stop-color="#553012"/></linearGradient></defs><g class="cls-1"><g id="fondo"><path class="cls-2" d="M659.07,435c-.07,0-.1,0-.1,0l-562.49,387h47.73L659,435.13S659,435.1,659.07,435Z" transform="translate(0.5)"/><path class="cls-2" d="M663.38,432.93s0,0-.06.07.1,0,.1,0L1231,282.51V259.22Z" transform="translate(0.5)"/><path class="cls-2" d="M659.66,435.44c-.06.05-.09.06-.1.05L359.16,822.07h28.25L659.66,435.53S659.64,435.51,659.66,435.44Z" transform="translate(0.5)"/><path class="cls-2" d="M659.34,435.26c-.07,0-.1.05-.1,0L245.77,822.07H281L659.33,435.35S659.31,435.33,659.34,435.26Z" transform="translate(0.5)"/><path class="cls-2" d="M660,435.57c0,.06-.08.07-.09.06L452.16,822.07h24.17L660,435.66S660,435.64,660,435.57Z" transform="translate(0.5)"/><path class="cls-2" d="M663.59,433.57s0,0-.08.05c.08,0,.11,0,.1,0l552.55-.93H1231V412Z" transform="translate(0.5)"/><path class="cls-2" d="M663,432.34s0,0,0,.09.1,0,.1,0L1231,98.39V66.3Z" transform="translate(0.5)"/><path class="cls-2" d="M663.16,434.84s0,0-.1,0,.07.09,0,.09L1231,767.71V737.55Z" transform="translate(0.5)"/><path class="cls-2" d="M663.25,432.62s0,0-.06.08.09,0,.09,0L1231,197.38V170.91Z" transform="translate(0.5)"/><path class="cls-2" d="M663.32,434.53s0,0-.09,0,.09.07.06.07L1231,668.8V643.38Z" transform="translate(0.5)"/><path class="cls-2" d="M661.87,435.6c0,.07,0,.1,0,.08L828.75,822.07h23.47L662,435.65S661.92,435.65,661.87,435.6Z" transform="translate(0.5)"/><path class="cls-2" d="M662.83,435.09q.07.09,0,.09L1145.7,822.07h44.42l-527.19-387S662.9,435.12,662.83,435.09Z" transform="translate(0.5)"/><path class="cls-2" d="M663.45,434.22s0,0-.09,0,.1.06.07.06L1231,583.76V561.13Z" transform="translate(0.5)"/><path class="cls-2" d="M663.5,433.25s0,0-.07.05c.08,0,.11,0,.1,0L1231,359.59V338.13Z" transform="translate(0.5)"/><path class="cls-2" d="M662.55,435.31c0,.07,0,.09,0,.08l354.31,386.68h33.31L662.65,435.34S662.61,435.35,662.55,435.31Z" transform="translate(0.5)"/><path class="cls-2" d="M663.6,433.91s0,0-.13,0c.07,0,.08.05,0,.06L1231,506.75V485.62Z" transform="translate(0.5)"/><path class="cls-2" d="M660.37,435.67c0,.06-.06.07-.07.06l-127,386.34H555L660.4,435.76S660.37,435.74,660.37,435.67Z" transform="translate(0.5)"/><path class="cls-2" d="M660.68,435.8l-53,386.27h20.57l32.58-386.51C660.75,435.74,660.7,435.83,660.68,435.8Z" transform="translate(0.5)"/><path class="cls-2" d="M661.13,435.77c0,.08,0,.12,0,.11l18,386.19h20.4L661.19,435.82S661.16,435.83,661.13,435.77Z" transform="translate(0.5)"/><path class="cls-2" d="M661.5,435.69c0,.08,0,.1,0,.09l90,386.29H773L661.57,435.75S661.54,435.75,661.5,435.69Z" transform="translate(0.5)"/><path class="cls-2" d="M662.22,435.48c0,.06,0,.09,0,.08L915,822.07h27.11L662.31,435.52S662.28,435.52,662.22,435.48Z" transform="translate(0.5)"/><polygon class="cls-3" points="144.6 822.15 246.18 822.15 246.27 822.07 144.71 822.07 144.6 822.15"/><polygon class="cls-3" points="387.85 822.15 452.62 822.15 452.67 822.07 387.91 822.07 387.85 822.15"/><polygon class="cls-3" points="773.47 822.15 829.29 822.15 829.25 822.07 773.45 822.07 773.47 822.15"/><polygon class="cls-3" points="281.39 822.15 359.6 822.15 359.66 822.07 281.48 822.07 281.39 822.15"/><polygon class="cls-3" points="1050.76 822.15 1146.31 822.15 1146.2 822.07 1050.67 822.07 1050.76 822.15"/><polygon class="cls-3" points="699.97 822.15 752.02 822.15 752 822.07 699.97 822.07 699.97 822.15"/><polygon class="cls-3" points="852.76 822.15 915.57 822.15 915.52 822.07 852.72 822.07 852.76 822.15"/><polygon class="cls-3" points="628.72 822.15 679.56 822.15 679.56 822.07 628.73 822.07 628.72 822.15"/><polygon class="cls-3" points="476.79 822.15 533.75 822.15 533.78 822.07 476.83 822.07 476.79 822.15"/><polygon class="cls-3" points="555.5 822.15 608.14 822.15 608.16 822.07 555.53 822.07 555.5 822.15"/><polygon class="cls-3" points="942.69 822.15 1017.43 822.15 1017.36 822.07 942.63 822.07 942.69 822.15"/><polygon class="cls-3" points="1190.62 822.07 1190.74 822.15 1231.5 822.15 1231.5 822.07 1190.62 822.07"/><path d="M1231.22,0H1231V.08h1.38c1,0,2,.05,3,.11-1.37-.12-2.76-.19-4.16-.19Z" transform="translate(0.5)"/><path class="cls-2" d="M658.51,434.25s0,0,.07-.07c-.08,0-.12,0-.11,0L-.5,563v25.79Z" transform="translate(0.5)"/><path class="cls-2" d="M658.63,434.56s0,0,.07-.08c-.08,0-.11,0-.1,0L-.5,656.4V685Z" transform="translate(0.5)"/><path class="cls-2" d="M658.33,433.6s0,0,.12-.05c-.07,0-.09,0-.07,0L-.5,392.23v24.09Z" transform="translate(0.5)"/><path class="cls-2" d="M658.41,433.93s0,0,.08-.06c-.08,0-.11,0-.1,0L-.5,476.37v24.32Z" transform="translate(0.5)"/><path class="cls-2" d="M658.8,434.86s0,0,.06-.09-.11,0-.1,0L-.5,762v33.54Z" transform="translate(0.5)"/><path class="cls-2" d="M658.7,432.66s0,0,.1,0-.08-.08-.06-.08L-.5,106.73v31.89Z" transform="translate(0.5)"/><path class="cls-2" d="M658.44,433.27s0,0,.1,0-.09-.06-.07-.07L-.5,305.65v25.23Z" transform="translate(0.5)"/><path class="cls-2" d="M658.56,433s0,0,.1,0-.09-.06-.07-.07L-.5,212.3V240Z" transform="translate(0.5)"/><path class="cls-2" d="M10.35,0A48.64,48.64,0,0,0-.5,1.23v18L658.9,432.37s0,0,.1,0-.06-.09,0-.09L28.51.08H153.24l505.91,432s0,0,.11,0,0-.09,0-.09L195.84.08h93.51L659.46,431.91s0,0,.11,0,0-.09,0-.09L322.69.08h75.94L659.81,431.75s0,0,.09.05,0-.09,0-.08L426.59.08h65.73L660.18,431.64s0,0,.08.06,0-.1,0-.09L517.22.08h59.86l83.48,431.48s.08.05.15.23L600.31.08h57.05L661,431.48s0,0,.06.08,0-.08.06-.06L680,.08H737.4l-76,431.45s0,0,0,.09.06-.07.07-.05L760.87.08h60.75L661.73,431.62s0,0,0,.09.07-.07.08,0L847.06.08H914.4L662.1,431.74s0,0,0,.08.08-.06.09,0L943.28.08H1022L662.45,431.89s0,0,0,.09.09-.05.1,0L1056.81.08h98.31l-492.35,432s0,0,0,.09.1,0,.1,0L1200.27.08H1231V0Z" transform="translate(0.5)"/><path class="cls-3" d="M662.85,432.16s0,0-.1,0,0-.1,0-.09L1155.12.08h-98.31L662.55,431.94s0,0-.1,0,0-.1,0-.09L1022,.08H943.28L662.21,431.78s0,0-.09,0,0-.09,0-.08L914.4.08H847.06L661.84,431.66s0,0-.08,0,0-.11,0-.09L821.62.08H760.87L661.46,431.57s0,0-.07.05,0-.1,0-.09L737.4.08H680L661.07,431.5s0,0-.06.06,0-.09-.06-.08L657.36.08H600.31l60.4,431.71c-.07-.18-.12-.26-.15-.23L577.08.08H517.22L660.29,431.61s0,0,0,.09-.07-.07-.08-.06L492.32.08H426.59L659.92,431.72s0,0,0,.08-.08-.06-.09-.05L398.63.08H322.69L659.56,431.86s0,0,0,.09-.1-.06-.11,0L289.35.08H195.84l463.4,432s0,0,0,.09-.11,0-.11,0L153.24.08H28.51L659,432.29s0,0,0,.09-.1,0-.1,0L-.5,19.23v87.5L658.74,432.57s0,0,.06.08-.1,0-.1,0L-.5,138.62V212.3L658.59,432.87s0,0,.07.07-.11,0-.1,0L-.5,240v65.66l659,127.53s0,0,.07.07-.11,0-.1,0L-.5,330.88v61.35l658.88,41.28s0,0,.07,0c-.1,0-.13,0-.12.05L-.5,416.32v60.05l658.89-42.53s0,0,.1,0c-.08,0-.1.05-.08.06L-.5,500.69V563l659-128.86s0,0,.11,0c-.07,0-.08.06-.07.07L-.5,588.81V656.4L658.6,434.47s0,0,.1,0c-.07,0-.08.07-.07.08L-.5,685v77L658.76,434.77s0,0,.1,0-.08.08-.06.09L-.5,795.54v25.3a48.57,48.57,0,0,0,10.85,1.23H96.48L659,435.05s0,0,.1,0-.06.08,0,.09L144.21,822.07H245.77L659.24,435.29s0,0,.1,0,0,.09,0,.09L281,822.07h78.18l300.4-386.58s0,0,.1-.05,0,.09,0,.09L387.41,822.07h64.75L659.92,435.63s0,0,.09-.06,0,.1,0,.09L476.33,822.07h56.95l127-386.34s0,0,.07-.06,0,.1,0,.09L555,822.07h52.63l53-386.27s.07-.06.13-.24L628.23,822.07h50.83l-18-386.19s0,0,0-.11,0,.06.06.05l38.27,386.25h52l-90-386.29s0,0,0-.09.06.07.07.06L773,822.07h55.8L661.84,435.68s0,0,0-.08.07.06.08,0L852.22,822.07H915L662.21,435.56s0,0,0-.08.08,0,.09,0L942.13,822.07h74.73L662.55,435.39s0,0,0-.08.09,0,.1,0l387.52,386.73h95.53L662.86,435.18s0,0,0-.09.1,0,.1,0l527.19,387H1231V767.71L663.1,434.92s0,0,0-.09.1,0,.1,0L1231,737.55V668.8L663.29,434.62s0,0-.06-.07.1,0,.09,0L1231,643.38V583.76L663.43,434.31s0,0-.07-.06.09,0,.09,0L1231,561.13V506.75L663.52,434s0,0,0-.06c.1,0,.14,0,.13,0L1231,485.62V432.73h-14.84l-552.55.93s0,0-.1,0c.08,0,.11,0,.08-.05L1231,412V359.59L663.53,433.34s0,0-.1,0c.08,0,.1-.05.07-.05L1231,338.13V282.51L663.42,433s0,0-.1,0,.08-.06.06-.07L1231,259.22V197.38L663.28,432.71s0,0-.09,0,.09-.08.06-.08L1231,170.91V98.39l-567.91,334s0,0-.1,0,.07-.09,0-.09l568-366V.08h-30.73Z" transform="translate(0.5)"/></g><g id="ribbon"><polygon class="cls-4" points="399.73 424.45 400.72 514.34 45 522.93 61.35 470.15 39.58 401.29 399.73 424.45"/><polygon class="cls-5" points="411.88 523.24 407.63 429.19 51.5 411.45 67.01 464.08 45.83 533.04 411.88 523.24"/><polygon class="cls-4" points="780.01 510.15 784.68 416.03 1152.03 396.29 1135.87 449.04 1157.5 517.93 780.01 510.15"/><polygon class="cls-6" points="785.73 513.1 789.98 419.05 1146.11 401.31 1130.6 453.95 1151.78 522.91 785.73 513.1"/><path class="cls-4" d="M779.7,526.68l-386.27,3.06s-5.95-116.84-4.74-142c24.84,7.52,229.26,4.73,412.11-4.32C797,410.33,779.7,526.68,779.7,526.68Z" transform="translate(0.5)"/><polyline class="cls-7" points="803.21 391.8 383.21 399.49 386.94 541.4 785.52 537.03"/></g><g id="copy"><path class="cls-8" d="M526.34,485.29C517.89,506.66,495.4,515,480.88,515c-23.6,0-34.93-10.53-34.93-39.24,0-28.87,13.88-82.94,55.67-82.94,15,0,26.64,5.9,26.64,21.37,0,8.46-3,14.68-11.17,14.68a11.48,11.48,0,0,1-9.09-4.15c3.83-1.91,7.34-8.61,7.34-14.68,0-5.1-2.56-9.72-9.73-9.72-17.55,0-33.18,41.94-33.18,74.48,0,14.68,3.83,24.88,19.14,24.88a38.67,38.67,0,0,0,31.1-15.95Z" transform="translate(0.5)"/><path class="cls-8" d="M602.74,432.65l-11.48,54.23a22.13,22.13,0,0,0-.64,5.11c0,4.46,2.07,6.86,6.54,6.86,6.22,0,10.53-7,12.92-15h6.7c-9.09,26-23.45,29.51-32.06,29.51-8.93,0-14.68-5.1-15.63-14.67-5,7.33-12.44,14.67-23.77,14.67-10.84,0-21.21-6.7-21.21-25.68,0-21.53,13.24-55.82,41-55.82,9.09,0,12.92,3.51,12.92,8.13v1.12l1.75-8.46Zm-55,52.8c0,12.28,5.11,12.44,8,12.44,4.62,0,11.32-4.79,13.24-14l7.65-36a6.18,6.18,0,0,0-6.54-6.06C556.49,441.75,547.71,470.46,547.71,485.45Z" transform="translate(0.5)"/><path class="cls-8" d="M667.5,416.7a42,42,0,0,0,.32-4.3c0-3.67-2.87-5.43-6.06-5.43-3.51,0-8.94,2.4-11.17,13.08l-2.71,12.6h11.64L658.41,439H646.6l-18.34,86.13c-4.78,22.81-18,27.12-28.55,27.12-9.73,0-18.82-6.86-18.82-17.23,0-14.67,12.28-19.3,27.43-23.92l19.3-91.08c4.79-22.8,18.5-27.11,29-27.11,9.73,0,18.82,6.86,18.82,17.23a38.91,38.91,0,0,1-.48,6.53ZM596,538.08c3.35,0,7-3,9.09-12.44l2.08-9.25c-10.05,3.35-17.55,7.82-17.55,16.43C589.66,535.05,592.53,538.08,596,538.08Z" transform="translate(0.5)"/><path class="cls-8" d="M691.9,498.21c6.06,0,13.72-4,18.82-8.46-3.35,18.19-14.83,23.61-27.59,23.61-14.83,0-24.72-7.34-24.72-25.36,0-18.34,10.36-56.78,43.06-56.78,14.2,0,17.55,7.34,17.55,15.31,0,18.5-17.55,32.54-36.69,33.66-.16,1.59-.32,3.35-.32,4.78C682,495,686.32,498.21,691.9,498.21Zm10.85-58.54c-8,0-16,17.71-19.3,32.86,12.44-.64,23.29-12.92,23.29-26.32C706.74,442.22,705.78,439.67,702.75,439.67Z" transform="translate(0.5)"/><g id="tilde"><g class="cls-9"><polygon class="cls-10" points="720.4 423.96 738.17 379.8 741.66 400.13 758.55 401.7 720.4 423.96"/></g><polygon class="cls-11" points="720.1 423.76 737.87 379.6 741.36 399.93 758.25 401.5 720.1 423.76"/></g><path class="cls-8" d="M812.47,483.69a5.23,5.23,0,0,0,1.85,1.52c.78.44,1.39.19,1.79-.82a9.38,9.38,0,0,0,.67-2.28,31.35,31.35,0,0,0-.34-9.66c0-.25-.11-.44-.11-.7-.22-1.76-.67-3.22-2.07-4.17a2.47,2.47,0,0,1-.78-.94c-.23-.32-.45-.63-.06-1.08,1.06-1.32.73-2.65.11-4.1-.72-1.83-1.45-3.67-2.12-5.63a16.39,16.39,0,0,1-1-5.68,7.38,7.38,0,0,1,2.07-5.37c1.34-1.45,2.85-2.65,4.81-2.72,2.18-.19,4.53,2.22,4.7,4.49,0,.57.22,1.14.22,1.7s.39.51.78.7a2.45,2.45,0,0,1,1.46,1.52c.22.69,0,1-.62,1a2.84,2.84,0,0,1-1.45-.19,1.1,1.1,0,0,0-1.34.31c-.68.82-2.13.26-2.74-.5a1.31,1.31,0,0,1,.5-2,1,1,0,0,0,.39-1.45,5.65,5.65,0,0,0-2.24-2.85c-.72-.44-1.06-.44-1.67.26a6.28,6.28,0,0,0-1.35,4.8,24.69,24.69,0,0,0,1.79,7c.84,2.08,1.35,4.17,2.24,6.25a6.94,6.94,0,0,0,1.06,1.58c.28.44.56.69.78,1a1.69,1.69,0,0,1-.11,1.77,1.52,1.52,0,0,0-.22,1.2,51.62,51.62,0,0,1,1.12,8.21,17.12,17.12,0,0,1-.84,6.32c-1,3.47-5.93,6.25-9.06,3.54a9.64,9.64,0,0,1-2.23-3.29,17.5,17.5,0,0,1-1.91-7.58c0-.19-.22-.44-.39-.63s-.67-.51-.95-1a1.15,1.15,0,0,1-.11-.88.94.94,0,0,1,.73-.38,2.19,2.19,0,0,1,.89.19c.34.19.62.06.84-.32a1.54,1.54,0,0,1,2.46-.44,1.87,1.87,0,0,1,.78,2.34c-.28.57-.78.82-1.39,1.51A14.62,14.62,0,0,0,812.47,483.69Z" transform="translate(0.5)"/><path class="cls-8" d="M853.5,487.23a2.63,2.63,0,0,0-3.18.32c-1.07.82-2.18.44-2.86-.82a3.14,3.14,0,0,1,2-1.71c.61-.19.56-.51.39-.95-.45-1.45-.9-2.84-1.29-4.29-.61-2.21-1.12-4.42-1.73-6.64l-1.34-5.05c-.06-.25-.22-.38-.39-.38-1.51-.19-3-.19-4.53-.38l-.51,3.67-1.34,12.5c-.16,1.21-.11,1.27,1,1.71a12.15,12.15,0,0,1,1.9,1.2c.23.19.17.63.34.95a1.53,1.53,0,0,1-.84.31,5.34,5.34,0,0,1-1.45-.38,3.45,3.45,0,0,0-3.92,0,1.68,1.68,0,0,1-2.23-.31c-.45-.51-.45-1,0-1.33a5.65,5.65,0,0,1,1.51-.94.72.72,0,0,0,.51-.7c.39-2.78.56-5.56,1-8.34.16-1.7.33-3.28.5-5a14.78,14.78,0,0,1,.17-1.77,1.11,1.11,0,0,0-.34-.69c-.17-.26-.44-.38-.61-.64-.73-1-.51-1.64.56-1.95a1.32,1.32,0,0,0,.83-1.2c.4-6.07,1.29-11.88,2.19-17.94a5.41,5.41,0,0,0,.05-1.33c0-.19-.28-.32-.45-.51-.44-.44-1-.75-1.45-1.2-.17-.19-.28-.69-.11-.88a1.09,1.09,0,0,1,.84-.32,3.29,3.29,0,0,1,1.12.32,1.93,1.93,0,0,0,1.84,0,2.21,2.21,0,0,1,2.74.63.72.72,0,0,1-.22,1.2c-.39.25-.73.32-1,.51.73,3.09,1.51,6.12,2.18,9.16.84,3.53,1.45,7.07,2.29,10.61.06.5.28.76.73.76a2.36,2.36,0,0,1,1.23.44c.39.25.84.88.78,1.2a3.09,3.09,0,0,1-1,1.14,2.68,2.68,0,0,1-.73.25l.84,3.09c.67,2.47,1.12,4.87,1.73,7.21.5,2,1.12,3.79,1.73,5.74a.57.57,0,0,0,.51.51,5,5,0,0,0,1.34.69,1.72,1.72,0,0,1,1,1.58A2,2,0,0,1,853.5,487.23Zm-8.66-21.73-2.74-12.95c-.11.32-.17.51-.17.44l-1.17,11.06c-.17,1.26-.06,1.2,1.06,1.39.17,0,.28.06.45.06Z" transform="translate(0.5)"/><path class="cls-8" d="M884,476.87V471.5c0-2.21.11-4.17.11-6.38v-6.88c0-2.22.06-4.3.06-6.51s.11-4.49.11-6.7c0-.25-.28-.57-.45-.75s-.56-.45-.73-.7c-.44-.57-.33-.95.39-1.14s1.29-.25,1.91-.44a2.67,2.67,0,0,1,2.68.82c.62.7.5,1.2-.34,1.52l-.5.12c.06,3,.11,6.07.17,9l.11,9a9.84,9.84,0,0,0,0,1.33,1.63,1.63,0,0,0,.45.63c.5.51,1.12,1,1.56,1.52a.65.65,0,0,1,0,.88c-.16.44-.33.57-.5,1a1.92,1.92,0,0,1-1.17,1.26.48.48,0,0,0-.34.51c0,5.56,0,10.8.06,16.17a2.18,2.18,0,0,0,.33,1.08l.45.56c.39.51.22,1-.39,1.08a7.25,7.25,0,0,1-1.62-.13c-.62-.06-1.18-.19-1.79-.19a2.42,2.42,0,0,1-2-.82c-.39-.5-.27-.88.23-1.2s.45-.44.28-.88c-1.18-3.79-2.35-7.52-3.41-11.31-1.18-4.3-2.18-8.66-3.36-12.95-.61-2.34-1.28-4.61-1.9-6.82a1.49,1.49,0,0,0-.28-.7.18.18,0,0,0-.16.06v3.79c0,3.54.05,6.64.05,10.17s.06,6.89.06,10.43v7.14c0,.44.16.69.44.76a.94.94,0,0,1,.45.31c.39.32.78.82.56,1.33a1.21,1.21,0,0,1-1.12.44,9.83,9.83,0,0,0-3.86-.06,1.83,1.83,0,0,1-2-1.08c-.17-.44-.17-.69.11-.88a3.87,3.87,0,0,1,1.34-.57c.39-.06.56-.32.56-.76-.06-2.34-.06-4.67-.06-7,0-2.53.06-5.05.12-7.52a2.16,2.16,0,0,0-.62-1.89,9.8,9.8,0,0,1-1.34-2,18.18,18.18,0,0,0,1.68-1.77,2.6,2.6,0,0,0,.33-1.33c0-3.22,0-6.25,0-9.35,0-2.46,0-4.86,0-7.32v-.13c.23-1.2.11-2-1.17-2.28-.23-.06-.45-.5-.62-.82a.64.64,0,0,1,.56-1.07,24.36,24.36,0,0,1,3.08-.06,2.69,2.69,0,0,1,2.18.88c.44.57.33,1.14-.34,1.64C878,455.2,880.5,466.2,883.8,477Z" transform="translate(0.5)"/><path class="cls-8" d="M906.38,477.5c0-2.84,0-5.68.06-8.53a1.46,1.46,0,0,0-.56-1.39c-.22-.25-.34-.44-.39-.5-.84-1.2-.67-1.83.39-2.59a1.2,1.2,0,0,0,.5-1.2c.06-4,.11-7.71.11-11.75,0-2,0-3.73.06-5.69,0-.56-.06-.75-.67-.82a11.4,11.4,0,0,1-1.9-.5c-.17-.07-.28,0-.34-.19L903,443.2a2.17,2.17,0,0,1,1-.38h5.31a8.45,8.45,0,0,1,5.36,1.39,19.83,19.83,0,0,1,6,7.52,21.93,21.93,0,0,1,1.9,9.66,49.79,49.79,0,0,1-.33,8.09c-.45,2.53-.79,5-1.4,7.52a9.9,9.9,0,0,1-3.19,5.62c-.89.76-1.68,1.71-2.51,2.53a7.49,7.49,0,0,1-4.59,2c-.17,0-.28,0-.33.06a5.11,5.11,0,0,1-3.86-.13,1.67,1.67,0,0,0-1.34.07,1.85,1.85,0,0,1-2-.19c-.67-.45-.73-.95-.11-1.65a3.33,3.33,0,0,1,2.63-.56,1.94,1.94,0,0,1,.72.06Zm3.19,3v4.3a9,9,0,0,0,1.62-.57,35.41,35.41,0,0,0,3.52-3.35,12.67,12.67,0,0,0,3.36-6.88,49.72,49.72,0,0,0,1.23-11.38c-.06-2.21,0-4.29-.23-6.38a16.93,16.93,0,0,0-3.91-8.59c-1.34-1.77-2.85-3-5-2.78-.62.07-.73.19-.73.89l.17,16.74c0,1.2-.17,2.4.78,3.35a1.86,1.86,0,0,1,.28.82,1.27,1.27,0,0,1-.56,1.58,1,1,0,0,0-.5,1.07Z" transform="translate(0.5)"/><path class="cls-8" d="M937.63,445l1.12,5.06c.67,3,1.17,5.81,1.68,8.78s.78,5.94,1.4,8.9,1.11,6.13,1.73,9.35a3.19,3.19,0,0,0,.28-.69c.61-2.46.95-4.93,1.62-7.39l1.79-6.76,1.17-5.06v-.06c.06-.44.39-1,.23-1.26s-.56-.38-.95-.63-.51-.64-1-1.08a5.88,5.88,0,0,1,1.11-.44c.84-.19,1.68-.13,2.52-.32a3.15,3.15,0,0,1,3.19,1c.44.56.33.94-.28,1.13a4.24,4.24,0,0,1-1.18.25c1.74,7.59,3.3,14.91,4.92,22.3h.11l.67-2.71c1.35-5.56,2.3-10.87,3.58-16.43.45-1.95.9-3.79,1.29-5.74.45-2.28.84-4.55,1.23-6.76a2.7,2.7,0,0,0,.22-1.58c-.17-.45-.78-.45-1.23-.7-.17-.06-.28-.13-.28-.19a10.92,10.92,0,0,1-.56-1.14c.4-.18.73-.5,1.12-.44a3.45,3.45,0,0,0,2.46-.5,3.41,3.41,0,0,1,2.85.19,2.57,2.57,0,0,1,.73.88c.17.19,0,.57-.17.82a1,1,0,0,1-.61.32c-1.06.19-1.06.88-1.23,1.83a122.91,122.91,0,0,1-2.29,13.84c-.84,3.09-1.35,6.12-2,9.34-.67,3-1.34,6.07-1.95,9.1l-1.4,7.2c.61.25,1.12.51,1.62.76a4.59,4.59,0,0,1,.61.51,7.36,7.36,0,0,1,.51,1c-.39.19-.73.57-1.12.57a3.27,3.27,0,0,1-1.62-.45,5.5,5.5,0,0,0-2.85-.38,6.6,6.6,0,0,1-2.24-.25.71.71,0,0,1-.5-.31c-.45-.57-.39-.95.22-1.27.39-.19.67-.19,1.06-.38l-4.69-21.6c-.06,0-.06-.06-.12-.06-.16.5-.22,1-.39,1.45-1.06,4.55-1.95,8.91-2.9,13.45-.51,2.21-.95,4.43-1.57,6.64a.75.75,0,0,0,.34.82,15.63,15.63,0,0,1,1.39,1.2c.4.44.34.82-.28,1-1.06.44-1.84-.06-2.73-.38a19.36,19.36,0,0,0-2-.51c-.73-.18-1.51-.18-2.24-.37a2,2,0,0,1-.67-.95c0-.19.39-.44.67-.63a1.76,1.76,0,0,1,.84-.26c.61.07.84-.25.67-1-.61-2.84-1.06-5.68-1.56-8.53l-.84-4.61c-.62-3-1-5.87-1.46-8.84-.61-3.54-1.06-6.95-1.67-10.49-.4-2-.73-3.85-1.18-5.81a2.77,2.77,0,0,0-.67-.76,17.94,17.94,0,0,1-1.51-1.07c-.33-.44-.22-.76.28-.95s.62-.13.73-.06a2.44,2.44,0,0,0,1.84-.38,2.75,2.75,0,0,1,3.13.57,9.88,9.88,0,0,1,.51.94C938.58,444.4,938.13,444.72,937.63,445Z" transform="translate(0.5)"/><path class="cls-8" d="M986.88,445.16v18.38c0,.44.06.82.45,1,0,.07.22.19.44.45.73.82.62,1.45-.22,1.89a1.16,1.16,0,0,0-.67,1.26c.06,5.56,0,10.87.06,16.43a1.39,1.39,0,0,0,.39.76c.28.44.67.63.89,1.07s.28.88-.33.95a8.41,8.41,0,0,1-1.23,0c-.95-.19-1.9-.25-2.86-.44a5.86,5.86,0,0,1-1.84-.83.61.61,0,0,1,.22-1.07,10.87,10.87,0,0,1,1.35-.38v-15c0-.95,0-1.77-.06-2.72a1.21,1.21,0,0,0-.39-.69,10.92,10.92,0,0,0-.84-.82c-.5-.63-.45-1.08.17-1.33,1.12-.57,1.23-1.45,1.17-2.65-.17-2.72-.05-5.5-.05-8.21,0-2.53,0-5.06.05-7.65,0-.5-.05-.76-.56-1l0-.06c-.45-.31-1-.63-.84-1.33s.78-.44,1.23-.44a12.56,12.56,0,0,0,2.18-.25,2.89,2.89,0,0,1,3,1.2c.28.44.22.76-.22.88Z" transform="translate(0.5)"/><path class="cls-8" d="M1006.78,464.87c0,.31-.06.57-.06.88-.05.76-.11,1.46.79,1.71.17.06.33.44.5.69.45.89.28,1.39-.56,1.58-.67.19-.78.51-.78,1.2a34.74,34.74,0,0,0,1.17,8.34c.39,1.45.9,2.78,1.4,4.11a5.22,5.22,0,0,0,1,1.58,1.53,1.53,0,0,0,2.4-.25,10.06,10.06,0,0,0,1.12-4.43,1.11,1.11,0,0,0-.34-.57c-.28-.44-.61-.63-.83-1.07a.84.84,0,0,1,.83-1.33,9.82,9.82,0,0,1,1.74.57c.61.25,1.23.44,1.84.63.34.19.62.38.9.57.67.76.56,1.27-.34,1.46-.39.06-.56.31-.56.82a9.69,9.69,0,0,1-1.34,4.92,2.15,2.15,0,0,1-2,1.2,17,17,0,0,1-4-.37c-1.73-.45-2.68-1.77-3.41-3.48a38,38,0,0,1-2.9-13.14c0-.25-.34-.5-.56-.69s-.51-.26-.67-.51c-.45-.5-.73-1,.11-1.45,1.28-.51,1.17-1.58,1.23-2.78.17-2.72.39-5.31.61-7.9.17-1.7.28-3.16.56-4.86a21,21,0,0,1,2.69-7.52,4.22,4.22,0,0,1,2.12-1.71,6.78,6.78,0,0,1,6.93,1.46,4.1,4.1,0,0,1,1.12,3.41c0,.25-.05.57-.05.88,0,.57-.17,1.27.67,1.46a1.85,1.85,0,0,1,.67.82c.16.31.16.76-.28.82a7.87,7.87,0,0,1-1.18.12,1.18,1.18,0,0,0-1.39.7,1.14,1.14,0,0,1-.79.44,3,3,0,0,1-1.51-.38,1.68,1.68,0,0,1,.12-2.71,1.29,1.29,0,0,0,.55-1.2c0-.7.12-1.33.17-2a1.53,1.53,0,0,0-1.34-1.9c-1.51-.19-2.68.63-3.47,2.53a32.71,32.71,0,0,0-2.46,11.24c-.16,2-.39,4.11-.61,6.13Z" transform="translate(0.5)"/><path class="cls-8" d="M1047.65,472.7c0,2.59,0,5.18,0,7.77,0,1.2,0,2.28,0,3.48a.93.93,0,0,0,.61,1,4,4,0,0,1,1.23,1c.28.44.11.95-.33.95-.73,0-1.51-.13-2.24-.19-.39-.07-.84-.26-1.23-.07a2.48,2.48,0,0,1-2.13-.31,2,2,0,0,1-.72-1.08c0-.19.45-.5.67-.69a.87.87,0,0,0,.56-.89c-.06-2.46-.06-4.86-.06-7.32V465.44c0-.44,0-.7-.56-.7h-7.15c-.4,0-.62.26-.62.76,0,5.81.06,11.31.06,17.12v.44a1.73,1.73,0,0,0,1.12,2.21c.44.19,1,.76.72,1.33a1.31,1.31,0,0,1-1.23.44,2.76,2.76,0,0,1-1.56-.44,1.8,1.8,0,0,0-1.51,0,2.58,2.58,0,0,1-2.18-.19,1.28,1.28,0,0,1-.67-.88c-.06-.19.33-.7.55-.76,1.29-.26,1.18-1.39,1.18-2.4V469.8c0-1.46,0-2.78,0-4.11a.92.92,0,0,0-.61-1,.86.86,0,0,1-.56-.32c-.84-.69-.78-1.45.17-1.89s1-1,1-1.9c0-4.8.06-9.47.06-14.27v-.19c.17-1.33.17-1.33-.89-1.83a3.4,3.4,0,0,1-1-.83c-.22-.44-.11-.88.34-.88a12.86,12.86,0,0,0,3.13-.32,2.91,2.91,0,0,1,2.4,1.14c.62.76.56,1-.28,1.45a.75.75,0,0,0-.39.7c0,3.79,0,7.45.11,11.24,0,1.84,0,3.6.06,5.44,0,.19.22.56.39.56h7.94v-6.5c0-2.09,0-4.24,0-6.32,0-1.45.06-2.91.06-4.36,0-.19-.22-.44-.39-.63a8.65,8.65,0,0,1-.9-.76.7.7,0,0,1-.16-.63.45.45,0,0,1,.5-.38,9.06,9.06,0,0,0,2.57-.32,2.12,2.12,0,0,1,2.52,1.2c.22.38.16.64-.11.76-.68.45-.68.89-.68,1.65.17,2.46.06,4.67.06,7.13.06,2.78.11,5.56.11,8.34a.87.87,0,0,0,.51.82,1.82,1.82,0,0,1,1,.83,1.12,1.12,0,0,1-.62,1.89,2.35,2.35,0,0,1-.89.25Z" transform="translate(0.5)"/><path class="cls-8" d="M1065.48,471.38c0-1.08,0-2.22,0-3.29a1,1,0,0,0-.73-1.14,1.47,1.47,0,0,1-1.06-1.89,2,2,0,0,1,1-.95,1.27,1.27,0,0,0,.78-1.33c-.17-3,0-5.87,0-8.84.06-2.72.06-5.43.23-8.15,0-.69,0-1.07-.73-1.26a2.72,2.72,0,0,1-2.18-1.27,1,1,0,0,1-.11-.82,1.49,1.49,0,0,1,.67-.5,1.09,1.09,0,0,1,.67,0c2.91.94,5.87.44,8.78.5a19.72,19.72,0,0,1,3.35,0c1.06.19,2.07.44,3.13.7a1.34,1.34,0,0,1,.45,1.58,5.54,5.54,0,0,0-.23,1.32c0,.32.12.89,0,.95a1.24,1.24,0,0,1-1.06.06c-1.07-.31-1.34-1.2-1.4-2.4H1072c-.61-.06-1.28-.06-2-.06-1,0-1.28.32-1.28,1.39,0,4.8,0,9.48.11,14.28v3.6c-.06.57.11.76.56.69h2.91a.6.6,0,0,0,.56-.31c.16-.63.5-.82,1-.63a1.39,1.39,0,0,1,1.11,1.32,8,8,0,0,1,.06,1.2c.06.7-.17.95-.78.89-1.62-.19-3.24-.13-4.81-.32-.5-.06-.56.19-.56.63,0,2.72.06,5.31.06,8s-.06,5.36-.06,8.08a8.43,8.43,0,0,0,.11.95h5.2a16.86,16.86,0,0,0,1.74-.06c.27,0,.39-.13.44-.45.17-.5.23-1,.39-1.45a.87.87,0,0,1,1.12-.69c.62.18,1.12.31,1.29,1.07a.69.69,0,0,1-.11.44,2.24,2.24,0,0,0-.28,2.21c.16.7-.06,1.08-.73,1.08-2.85,0-5.7-.07-8.55-.07a34.32,34.32,0,0,1-4.42-.06,3.09,3.09,0,0,1-1.62-.63c-.62-.51-.56-.95.17-1.27s1.22-.31,1.9-.56Z" transform="translate(0.5)"/><path class="cls-8" d="M1097,483.69a5.31,5.31,0,0,0,1.85,1.52c.78.44,1.4.19,1.79-.82a9,9,0,0,0,.67-2.28,31,31,0,0,0-.34-9.66c0-.25-.11-.44-.11-.7-.22-1.76-.67-3.22-2.07-4.17a2.47,2.47,0,0,1-.78-.94c-.22-.32-.45-.63,0-1.08,1.06-1.32.72-2.65.11-4.1-.73-1.83-1.46-3.67-2.13-5.63a16.38,16.38,0,0,1-1-5.68,7.41,7.41,0,0,1,2.06-5.37c1.35-1.45,2.86-2.65,4.81-2.72,2.18-.19,4.53,2.22,4.7,4.49a16.83,16.83,0,0,1,.22,1.7c0,.7.39.51.79.7a2.44,2.44,0,0,1,1.45,1.52c.22.69,0,1-.62,1a2.85,2.85,0,0,1-1.45-.19,1.11,1.11,0,0,0-1.34.31c-.67.82-2.13.26-2.74-.5a1.31,1.31,0,0,1,.5-2,1,1,0,0,0,.39-1.45,5.63,5.63,0,0,0-2.23-2.85c-.73-.44-1.06-.44-1.68.26a6.27,6.27,0,0,0-1.34,4.8,24.36,24.36,0,0,0,1.79,7c.84,2.08,1.34,4.17,2.23,6.25a7.34,7.34,0,0,0,1.07,1.58c.28.44.56.69.78,1a1.69,1.69,0,0,1-.11,1.77,1.51,1.51,0,0,0-.23,1.2,50.5,50.5,0,0,1,1.12,8.21,16.92,16.92,0,0,1-.84,6.32c-1,3.47-5.92,6.25-9,3.54a9.53,9.53,0,0,1-2.24-3.29,17.49,17.49,0,0,1-1.9-7.58c0-.19-.22-.44-.39-.63s-.67-.51-1-1a1.11,1.11,0,0,1-.12-.88,1,1,0,0,1,.73-.38,2.24,2.24,0,0,1,.9.19c.33.19.61.06.83-.32a1.54,1.54,0,0,1,2.46-.44,1.89,1.89,0,0,1,.79,2.34c-.28.57-.79.82-1.4,1.51A14.71,14.71,0,0,0,1097,483.69Z" transform="translate(0.5)"/><path class="cls-8" d="M93.43,448.87v18.39c0,.44.06.82.45,1,.06.06.22.19.45.44.72.82.61,1.45-.23,1.9a1.15,1.15,0,0,0-.67,1.26c.06,5.56,0,10.86.06,16.42a1.36,1.36,0,0,0,.39.76c.28.44.67.63.9,1.07s.27.89-.34.95a7.21,7.21,0,0,1-1.23,0c-.95-.19-1.9-.25-2.85-.44a6,6,0,0,1-1.85-.82.61.61,0,0,1,.23-1.07,10.17,10.17,0,0,1,1.34-.38v-15c0-.94,0-1.76-.06-2.71a1.24,1.24,0,0,0-.39-.7c-.22-.31-.56-.5-.84-.82-.5-.63-.44-1.07.17-1.32,1.12-.57,1.23-1.46,1.17-2.66-.16-2.71,0-5.49,0-8.21,0-2.53,0-5,0-7.64,0-.51,0-.76-.55-.95l-.06-.06c-.45-.32-1-.64-.84-1.33s.78-.44,1.23-.44a13.51,13.51,0,0,0,2.18-.26,2.91,2.91,0,0,1,3,1.2c.28.45.23.76-.22.89Z" transform="translate(0.5)"/><path class="cls-8" d="M113.33,468.58c0,.32,0,.57,0,.89-.06.76-.11,1.45.78,1.7.17.07.34.45.5.7.45.88.28,1.39-.56,1.58-.67.19-.78.5-.78,1.2A34.9,34.9,0,0,0,114.4,483a42.83,42.83,0,0,0,1.39,4.1,5.29,5.29,0,0,0,1,1.58,1.52,1.52,0,0,0,2.4-.25,9.76,9.76,0,0,0,1.12-4.42,1.07,1.07,0,0,0-.33-.57c-.28-.44-.62-.63-.84-1.07-.39-.7.11-1.52.84-1.33a9,9,0,0,1,1.73.57c.61.25,1.23.44,1.85.63.33.19.61.38.89.57.67.76.56,1.26-.34,1.45-.39.06-.55.32-.55.82a9.73,9.73,0,0,1-1.35,4.93,2.15,2.15,0,0,1-2,1.2,16.36,16.36,0,0,1-4-.38c-1.74-.44-2.69-1.77-3.41-3.47A38,38,0,0,1,110,474.21c0-.26-.34-.51-.56-.7s-.5-.25-.67-.5c-.45-.51-.73-1,.11-1.46,1.29-.5,1.18-1.58,1.23-2.78.17-2.71.39-5.3.62-7.89.16-1.71.28-3.16.56-4.87A21.05,21.05,0,0,1,114,448.5a4.16,4.16,0,0,1,2.12-1.71,6.77,6.77,0,0,1,6.94,1.45,4.09,4.09,0,0,1,1.11,3.41c0,.26-.05.57-.05.89,0,.57-.17,1.26.67,1.45a1.85,1.85,0,0,1,.67.82c.17.32.17.76-.28.82a6.65,6.65,0,0,1-1.17.13,1.19,1.19,0,0,0-1.4.7,1.14,1.14,0,0,1-.78.44,3,3,0,0,1-1.51-.38,1.68,1.68,0,0,1,.11-2.72,1.28,1.28,0,0,0,.56-1.2c0-.69.11-1.33.17-2a1.55,1.55,0,0,0-1.35-1.9c-1.51-.18-2.68.64-3.46,2.53a32.54,32.54,0,0,0-2.46,11.25c-.17,2-.39,4.1-.62,6.12Z" transform="translate(0.5)"/><path class="cls-8" d="M139.55,475.09c0-1.07,0-2.21.06-3.28a1,1,0,0,0-.73-1.14,1.48,1.48,0,0,1-1.06-1.9,1.91,1.91,0,0,1,1-.94,1.27,1.27,0,0,0,.79-1.33c-.17-3-.06-5.88,0-8.84,0-2.72,0-5.44.22-8.15.06-.7,0-1.08-.73-1.27a2.72,2.72,0,0,1-2.18-1.26,1.05,1.05,0,0,1-.11-.82,1.48,1.48,0,0,1,.67-.51,1.27,1.27,0,0,1,.67,0c2.91,1,5.87.44,8.78.51a19.84,19.84,0,0,1,3.36,0c1.06.19,2.06.44,3.13.69a1.33,1.33,0,0,1,.44,1.58,6.16,6.16,0,0,0-.22,1.33c-.06.31.11.88-.06.95a1.24,1.24,0,0,1-1.06.06c-1.06-.32-1.34-1.2-1.4-2.4H146c-.62-.06-1.29-.06-2-.06-1,0-1.29.31-1.29,1.39.06,4.8.06,9.47.12,14.27v3.6c-.06.57.11.76.55.7h2.91a.6.6,0,0,0,.56-.32c.17-.63.5-.82.95-.63a1.42,1.42,0,0,1,1.12,1.33,8,8,0,0,1,.06,1.2c.05.69-.17.94-.79.88-1.62-.19-3.24-.12-4.81-.31-.5-.07-.55.19-.55.63,0,2.71.05,5.3.05,8s-.05,5.37-.05,8.09a6.64,6.64,0,0,0,.11.94h5.2A16.76,16.76,0,0,0,150,488c.28,0,.39-.13.45-.44.16-.51.22-1,.39-1.45a.88.88,0,0,1,1.12-.7c.61.19,1.11.32,1.28,1.07a.66.66,0,0,1-.11.45,2.26,2.26,0,0,0-.28,2.21c.17.69-.05,1.07-.73,1.07-2.85,0-5.7-.06-8.55-.06a34.32,34.32,0,0,1-4.42-.07,3.07,3.07,0,0,1-1.62-.63c-.61-.5-.56-.94.17-1.26s1.23-.32,1.9-.57Z" transform="translate(0.5)"/><path class="cls-8" d="M193.61,468.58c0,.32-.06.57-.06.89-.05.76-.11,1.45.78,1.7.17.07.34.45.51.7.44.88.28,1.39-.56,1.58-.67.19-.78.5-.78,1.2a34.89,34.89,0,0,0,1.17,8.34,40.24,40.24,0,0,0,1.4,4.1,5.26,5.26,0,0,0,1,1.58,1.53,1.53,0,0,0,2.41-.25A10,10,0,0,0,200.6,484a1.11,1.11,0,0,0-.34-.57c-.28-.44-.61-.63-.84-1.07-.39-.7.11-1.52.84-1.33a8.76,8.76,0,0,1,1.73.57c.62.25,1.23.44,1.85.63.33.19.61.38.89.57.67.76.56,1.26-.33,1.45-.39.06-.56.32-.56.82A9.82,9.82,0,0,1,202.5,490a2.18,2.18,0,0,1-2,1.2,16.46,16.46,0,0,1-4-.38c-1.73-.44-2.68-1.77-3.41-3.47a38.27,38.27,0,0,1-2.91-13.14c0-.26-.33-.51-.56-.7s-.5-.25-.67-.5c-.44-.51-.72-1,.11-1.46,1.29-.5,1.18-1.58,1.23-2.78.17-2.71.4-5.3.62-7.89.17-1.71.28-3.16.56-4.87a21.05,21.05,0,0,1,2.68-7.51,4.23,4.23,0,0,1,2.13-1.71,6.75,6.75,0,0,1,6.93,1.45,4.1,4.1,0,0,1,1.12,3.41c0,.26-.06.57-.06.89,0,.57-.17,1.26.67,1.45a1.79,1.79,0,0,1,.67.82c.17.32.17.76-.28.82a6.65,6.65,0,0,1-1.17.13,1.19,1.19,0,0,0-1.4.7,1.14,1.14,0,0,1-.78.44,3.05,3.05,0,0,1-1.51-.38,1.69,1.69,0,0,1,.11-2.72,1.28,1.28,0,0,0,.56-1.2c0-.69.11-1.33.17-2a1.54,1.54,0,0,0-1.34-1.9c-1.51-.18-2.69.64-3.47,2.53a32.54,32.54,0,0,0-2.46,11.25c-.17,2-.39,4.1-.61,6.12Z" transform="translate(0.5)"/><path class="cls-8" d="M218.59,471.17a.85.85,0,0,0,.51-.75c0-1.71.05-3.23.05-4.93v-16c.23-.95-.05-1.33-.89-1.58a2.53,2.53,0,0,1-1-.95.66.66,0,0,1,.5-1c1.63-.19,3.19,0,4.81-.19a7.32,7.32,0,0,1,4.25,1.07,10.28,10.28,0,0,1,3.75,3,12,12,0,0,1,2.23,7.58c-.16,2.28-.22,4.61-.44,6.89-.28,3.28-1.29,6.19-3.69,8.27-.39.32-.34.51-.17.95l2.46,9.16c.45,1.71,1,3.35,1.45,5.05.23.95.51,1.46,1.35,1.65.16,0,.11.12.27.19.62.44,1,1.45.73,1.64a2,2,0,0,1-1.45.31,4.39,4.39,0,0,0-2.18-.06,2,2,0,0,1-2.13-.69c-.5-.57-.5-.89.11-1.33a.73.73,0,0,0,.28-.88c-.61-2-1.11-4.05-1.73-6-.84-2.71-1.4-5.24-2.07-8-.11-.44-.33-.63-.67-.63-.67.07-1.28,0-2,.07-.16,0-.33.38-.33.56v13.78c0,.69,0,1.07.61,1.32a1.81,1.81,0,0,1,1.07,1.77c-.17.44-1,.57-1.74.38-.28-.19-.61-.19-.89-.38a3.41,3.41,0,0,0-2.18-.38,2.19,2.19,0,0,1-2.18-.76c-.28-.56-.23-.94.17-1.13a3.25,3.25,0,0,1,1.11-.38c.4-.19.51-.19.51-.7V483c0-2.59.05-5.18.05-7.9a1.57,1.57,0,0,0-.61-1.52c-.51-.25-.73-.75-1.34-1.45A11.26,11.26,0,0,1,218.59,471.17Zm4-11h.06v10.61c0,.57,0,.7.67.7,1.51.06,2.46-.88,3.35-2.08a11.89,11.89,0,0,0,2-5.56,41.4,41.4,0,0,0,.5-8.72c-.22-3.29-1.57-5.75-4.42-6.95a6.07,6.07,0,0,0-2.12-.13,15.17,15.17,0,0,0-.06,1.65Z" transform="translate(0.5)"/><path class="cls-8" d="M250.68,475.09c0-1.07,0-2.21.06-3.28a1,1,0,0,0-.73-1.14,1.48,1.48,0,0,1-1.06-1.9,1.87,1.87,0,0,1,1-.94,1.27,1.27,0,0,0,.79-1.33c-.17-3-.06-5.88,0-8.84,0-2.72,0-5.44.22-8.15.06-.7,0-1.08-.73-1.27a2.72,2.72,0,0,1-2.18-1.26,1,1,0,0,1-.11-.82,1.48,1.48,0,0,1,.67-.51,1.27,1.27,0,0,1,.67,0c2.91,1,5.87.44,8.78.51a19.72,19.72,0,0,1,3.35,0c1.07.19,2.07.44,3.14.69a1.33,1.33,0,0,1,.44,1.58,6.16,6.16,0,0,0-.22,1.33c-.06.31.11.88-.06.95a1.24,1.24,0,0,1-1.06.06c-1.06-.32-1.34-1.2-1.4-2.4h-5.08c-.62-.06-1.29-.06-2-.06-1,0-1.29.31-1.29,1.39.06,4.8.06,9.47.11,14.27v3.6c-.05.57.12.76.56.7h2.91a.6.6,0,0,0,.56-.32c.17-.63.5-.82.95-.63a1.42,1.42,0,0,1,1.12,1.33,9.63,9.63,0,0,1,.05,1.2c.06.69-.16.94-.78.88-1.62-.19-3.24-.12-4.81-.31-.5-.07-.56.19-.56.63,0,2.71.06,5.3.06,8s-.06,5.37-.06,8.09a6.88,6.88,0,0,0,.12.94h5.2a16.76,16.76,0,0,0,1.73-.06c.28,0,.39-.13.45-.44.16-.51.22-1,.39-1.45a.88.88,0,0,1,1.12-.7c.61.19,1.11.32,1.28,1.07a.66.66,0,0,1-.11.45,2.24,2.24,0,0,0-.28,2.21c.17.69-.06,1.07-.73,1.07-2.85,0-5.7-.06-8.55-.06a34.32,34.32,0,0,1-4.42-.07,3,3,0,0,1-1.62-.63c-.61-.5-.56-.94.17-1.26s1.23-.32,1.9-.57Z" transform="translate(0.5)"/><path class="cls-8" d="M297.42,491a2.63,2.63,0,0,0-3.19.31c-1.06.82-2.18.44-2.85-.82a3.16,3.16,0,0,1,2-1.7c.62-.19.56-.51.39-.95-.45-1.46-.89-2.84-1.28-4.3-.62-2.21-1.12-4.42-1.74-6.63l-1.34-5.05a.41.41,0,0,0-.39-.38c-1.51-.19-3-.19-4.53-.38l-.5,3.66-1.34,12.51c-.17,1.2-.12,1.26.95,1.7a13.16,13.16,0,0,1,1.9,1.2c.22.19.16.64.33.95a1.55,1.55,0,0,1-.84.32,5.44,5.44,0,0,1-1.45-.38c-1.34-.7-2.57-.95-3.91,0a1.7,1.7,0,0,1-2.24-.32c-.45-.5-.45-.94.06-1.32a5.17,5.17,0,0,1,1.51-.95.72.72,0,0,0,.5-.7c.39-2.77.56-5.55.95-8.33.17-1.71.33-3.29.5-5a14.58,14.58,0,0,1,.17-1.77,1.13,1.13,0,0,0-.34-.7c-.16-.25-.44-.38-.61-.63-.73-1-.5-1.64.56-2a1.34,1.34,0,0,0,.84-1.2c.39-6.06,1.28-11.87,2.18-17.94a5.37,5.37,0,0,0,0-1.33c0-.19-.28-.31-.44-.5-.45-.44-1-.76-1.46-1.2-.16-.19-.28-.7-.11-.89a1.08,1.08,0,0,1,.84-.31,3.23,3.23,0,0,1,1.12.31,1.88,1.88,0,0,0,1.84,0,2.21,2.21,0,0,1,2.74.64.72.72,0,0,1-.22,1.2c-.39.25-.73.31-1,.5.73,3.1,1.51,6.13,2.18,9.16.84,3.54,1.46,7.08,2.3,10.61.05.51.28.76.72.76a2.46,2.46,0,0,1,1.23.44c.39.26.84.89.79,1.2a3,3,0,0,1-1,1.14,2.38,2.38,0,0,1-.73.25l.84,3.1c.67,2.46,1.12,4.86,1.73,7.2.51,2,1.12,3.79,1.74,5.75a.56.56,0,0,0,.5.51,5.67,5.67,0,0,0,1.34.69,1.69,1.69,0,0,1,.95,1.58A2,2,0,0,1,297.42,491Zm-8.67-21.74L286,456.27c-.11.31-.17.5-.17.44l-1.17,11.05c-.17,1.27-.06,1.2,1.06,1.39.17,0,.28.06.45.06Z" transform="translate(0.5)"/><path class="cls-8" d="M326,480h.22c.17-1.2.45-2.15.62-3.35.44-2.72.89-5.24,1.39-8,.39-2,.56-3.79,1-5.75.39-1.51.67-3,1-4.42l2-9.41c0-.19.05-.13.05-.32.51-.82.34-1.45-.5-1.77-.28-.19-.39-.69-.62-1,.4-.19.62-.44,1-.44.73-.06,1.4.06,2.12.06a2.28,2.28,0,0,0,1.07-.44,2.41,2.41,0,0,1,3.46.63c.34.57.28,1-.11,1.2a8.62,8.62,0,0,1-1.84.89c-.39.19-.56.19-.51.69l.17,13.52c0,1.45,0,2.65.06,4.11a.86.86,0,0,0,.33.63,3.72,3.72,0,0,1,1.51,2c.17.19,0,.69-.17.88-.44.45-1,.83-1.45,1.27a.66.66,0,0,0-.22.5v16.17a1,1,0,0,0,.67,1.14,6.54,6.54,0,0,1,1.62,1c.28.25.33.7.5,1.14-.28.19-.61.44-.89.38a7.15,7.15,0,0,1-2-.44,2.23,2.23,0,0,0-1.68-.13,2.51,2.51,0,0,1-2.57-.25c-.4-.19-.56-.57-1-1.08.73-.44,1.29-.75,1.9-1.2v-24h-.17c-.16.95-.39,1.7-.56,2.65-.83,4.8-1.73,9.35-2.57,14.15l-1.28,7.71a.82.82,0,0,0,.5,1.14,2.44,2.44,0,0,1,1,.94c.39.51.28,1.14-.34,1.14a8.75,8.75,0,0,1-2.18-.38,2.85,2.85,0,0,0-1.45,0,2.91,2.91,0,0,1-2.41-.25,1.21,1.21,0,0,1-.61-.89c-.06-.19.28-.5.5-.69a1,1,0,0,1,.62-.38c.72-.19.72-.69.55-1.26-.5-2-1-3.67-1.45-5.63s-.78-3.91-1.23-5.87l-1.84-8.59-1.29-5.75c-.06-.19-.11-.13-.17-.32a.19.19,0,0,0-.17.07v11.49c0,2.85.06,5.75.06,8.6v6.19a1.44,1.44,0,0,0,.34.88c.39.44,1.06.82.67,1.39-.23.44-.95.38-1.46.44a2.76,2.76,0,0,1-.61-.19,2.28,2.28,0,0,0-2,0c-.68.45-1.4,0-2-.44s-.5-1.2.23-1.7c0-.07.11-.13.28-.19,1.11-.51,1.06-.51,1.06-1.84,0-4.86.05-9.72.05-14.59a1,1,0,0,0-.55-.95,5.81,5.81,0,0,1-1.63-.82c-.78-.69-.78-1.32.06-2a15.12,15.12,0,0,0,2-2,.89.89,0,0,0,.11-.63l.11-12.38c0-1.58.06-3.16.06-4.74a1.67,1.67,0,0,0-.45-.82c-.39-.44-.73-.51-1-.95s-.22-1,.39-1.07a2.24,2.24,0,0,1,1.07.13,2.41,2.41,0,0,0,2.06-.19,3,3,0,0,1,3.19.82c.5.57.39,1-.28,1.32l-.61.26a2,2,0,0,0-.67.25Z" transform="translate(0.5)"/><g id="cafegrano"><path class="cls-8" d="M752.84,477.93c4.87,2.66,11.65-.37,15.15-6.78s2.4-13.76-2.47-16.42c0,0-6,2.85-6.34,11.6S752.84,477.93,752.84,477.93Z" transform="translate(0.5)"/><path class="cls-8" d="M763.86,454.85c-4.36-2.38-10.74.88-14.24,7.29s-2.81,13.54,1.55,15.92c0,0,5.63-3.05,6.35-11.61S763.86,454.85,763.86,454.85Z" transform="translate(0.5)"/></g><path class="cls-8" d="M413.38,478.89c-4.36,2.39-10.73-.88-14.23-7.29s-2.81-13.53,1.55-15.91c0,0,5.63,3,6.34,11.6S413.38,478.89,413.38,478.89Z" transform="translate(0.5)"/><path class="cls-8" d="M402.45,454.73c4.36-2.38,10.73.88,14.24,7.29s2.8,13.54-1.56,15.92c0,0-5.63-3.05-6.34-11.6S402.45,454.73,402.45,454.73Z" transform="translate(0.5)"/><path class="cls-8" d="M456.15,645.55c4.9,2.6,8.87,9,15.35,10.62a12.17,12.17,0,0,0,4.48.36c-1.62,4.29-4.4,6.58-7.19,5.85-7.4-1.93-10.87-14.09-19.74-16.86a9.18,9.18,0,0,0-1.17-.32q8.6-14.54,16.87-29.23a10.66,10.66,0,0,0-9.66,7.86,6.29,6.29,0,0,0-.3,3.29c-3.32-1-4.78-2.77-3.72-6,1.95-6,12.34-9,20.14-6.76.66.18,1.25.4,1.85.62Q464.75,630.35,456.15,645.55Z" transform="translate(0.5)"/><path class="cls-8" d="M487.38,637.7c0,.1.37.19.51.22,2.26.53,5.77-.14,8.17-1.07.07.54.11.8.17,1.34-2.27,1.5-5.84,2.18-9.57,1.88-2.8,8.37-9.16,12.53-15.37,10.9-4.7-1.23-7.51-4.2-6.05-9.41S473,626.34,483,628.82C487.09,629.85,486.65,635.62,487.38,637.7Zm-4.84,1.53a1.76,1.76,0,0,1-.85-2.26,2.61,2.61,0,0,1,2.13-2.12c.38-2,.07-2.81-1.19-3.13-3.44-.85-8.65,6.75-9.83,11.25-.8,3-.33,3.9,1.57,4.39C476.83,648,480.42,644.48,482.54,639.23Z" transform="translate(0.5)"/><path class="cls-8" d="M506,638.51c.23-1.16-.07-2-1-2.18-3.08-.61-8,7.22-9.13,12.38-.67,3.15.38,4.16,2.81,4.65,4,.82,6.84-.77,9.84-3l1.71.31c-3.64,3.78-8.83,7.32-15.61,5.89-4.79-1-7.45-3.87-6.26-9.1s6.93-15.65,16.79-13.69c4.32.85,5,3.18,4.59,5.33s-1.82,3.18-3.26,2.91a3.33,3.33,0,0,1-1.61-.9A7.88,7.88,0,0,0,506,638.51Z" transform="translate(0.5)"/><path class="cls-8" d="M536,639.29c-2.24,6.21-3.39,9.32-5.73,15.51a6.1,6.1,0,0,0-.41,1.48,1.82,1.82,0,0,0,1.81,2.3c2,.27,3.64-1.63,4.69-3.89l2.13.26c-3.82,7.34-8.63,7.76-11.4,7.36s-4.51-2.2-4.38-5.06c-1.91,1.92-4.67,3.7-8.31,3.09-3.48-.59-6.45-3.16-5.43-8.72,1.15-6.3,7-15.54,15.52-14.22,2.78.44,3.81,1.63,3.61,3l-.05.32.9-2.41C531.76,638.72,533.17,638.92,536,639.29Zm-19.46,13c-.6,3.6,1,3.92,1.93,4.07,1.48.23,3.83-.84,4.86-3.47,1.61-4.09,2.41-6.14,4-10.25a1.89,1.89,0,0,0-1.76-2.08C521.38,639.91,517.27,647.87,516.53,652.28Z" transform="translate(0.5)"/><path class="cls-8" d="M552.89,631.64c-3.19,10-4.85,15-8.28,24.92a6.41,6.41,0,0,0-.37,1.49c-.14,1.32.48,1.82,1.91,2,2,.21,4-1.41,5-3.7l2.13.19c-3.58,7.45-8.83,8-11.62,7.66-3.09-.35-5.31-2.35-4.82-6.31a14.19,14.19,0,0,1,.79-3c3.32-9.18,4.93-13.78,8-23C548.56,631.79,550,631.74,552.89,631.64Z" transform="translate(0.5)"/><path class="cls-8" d="M567,632.77c-2.88,10.08-4.38,15.12-7.51,25.16a6,6,0,0,0-.32,1.5c-.1,1.33.53,1.8,2,1.91,2,.14,4-1.54,4.88-3.86l2.13.13c-3.35,7.56-8.58,8.24-11.37,8-3.1-.25-5.37-2.18-5-6.15a15.78,15.78,0,0,1,.69-3c3-9.27,4.51-13.92,7.34-23.24C562.64,633.05,564.08,633,567,632.77Z" transform="translate(0.5)"/><path class="cls-8" d="M578.61,642.87c-1.67,6.4-2.53,9.59-4.29,16a4.88,4.88,0,0,0-.21,1.18c-.05,1.09.26,2.11,1.44,2.16,2,.08,3.41-1.67,4.25-4,1.6-6,2.37-9.06,3.88-15.12,2.86.08,4.29.11,7.15.14q-3.17,13.76-6.71,27.41c-1.74,6.75-6.35,7.89-9.85,7.73-3.23-.14-6.14-2.35-6-5.43.25-4.41,4.38-5.54,9.35-6.68.24-.83.35-1.24.59-2.07a8.18,8.18,0,0,1-6.42,2.47c-3.1-.15-5.43-2-5.19-6a15.21,15.21,0,0,1,.6-3.06c1.75-6,2.61-9,4.27-15C574.35,642.7,575.77,642.76,578.61,642.87Zm-5.36,31.18c1,.05,2.46-.8,3.25-3.57l.73-2.77c-3.3.87-5.87,2.11-6,4.67C571.19,673,572.09,674,573.25,674.05Z" transform="translate(0.5)"/><path class="cls-8" d="M617.23,657.45c.13,3.23,1.1,5.47,3.21,5.37,5.19-.25,9.89-12.57,9.22-22.14-.39-5.49-1.69-8.18-6.76-7.89-7.38.42-13.77,5.23-13.57,12.78a6.77,6.77,0,0,0,.57,2.55c-3.14.08-5-1-5.1-3.88-.12-6.64,9-13.09,19.13-13.7,8.4-.5,11.94,4.37,12.39,11.29.71,11-4.91,24-17.09,24.9-5.26.4-9.46-2.39-9.53-9.21-.08-8.35,3.52-21.54,12.54-22.79a6.92,6.92,0,0,1,2.54.23C620.53,637.84,616.92,650.15,617.23,657.45Z" transform="translate(0.5)"/><path class="cls-8" d="M648.38,640.37c-.7,6.57-1.08,9.86-1.88,16.43a4.4,4.4,0,0,0,0,1.2c.11,1.09.57,2,1.74,1.92,2-.21,3.13-2.16,3.62-4.6.68-6.22,1-9.32,1.6-15.53,2.82-.35,4.24-.53,7.06-.92-.54,6.59-.83,9.89-1.46,16.48a8.66,8.66,0,0,0,0,1.73c.12.94.71,1.49,1.94,1.32,5-.66,7.22-11.76,6.45-16.92-.1.35-1.12.65-1.51.7-1.19.18-2-1.1-2.12-2.13-.21-1.46.61-2.68,2.66-3,2.34-.35,3.4,1.56,3.71,3.61,1.32,8.8-1.43,21-11.42,22.67-3.21.52-5.72-.65-6.64-3.22-2.12,3.68-4.81,4.53-6.87,4.74-3.1.3-5.68-1.19-6-5.17a14.73,14.73,0,0,1,.13-3.11c.85-6.19,1.25-9.29,2-15.48C644.14,640.83,645.55,640.68,648.38,640.37Z" transform="translate(0.5)"/><path class="cls-8" d="M684.63,639.13c-1.77.33-2.73,2.53-3.06,5-.26,6.25-.42,9.37-.77,15.61-2.95.51-4.43.76-7.39,1.22.7-9.72,1-14.58,1.49-24.29,2.81-.47,4.21-.72,7-1.24,0,1,0,1.52-.09,2.53a7.58,7.58,0,0,1,5.21-3.69c3.11-.61,5.7.44,6.48,4.16s-.45,9.88.08,12.49a1.77,1.77,0,0,0,2.41,1.54c2.23-.46,2.78-2.33,3.36-5l2.1-.46c-1.12,8.22-4.88,10-7.58,10.57-4.44.89-6.52-1.44-7-4.1-.6-3.17.56-9.34,0-12.32C686.56,639.63,685.81,638.91,684.63,639.13Z" transform="translate(0.5)"/><path class="cls-8" d="M712.08,649.48c4-1,5.88-3.61,7.67-6.88l1.69-.44c-1.71,5-4.92,10.39-11.67,12-4.77,1.12-8.4-.34-9.54-5.58s-.43-17.1,9.44-19.54c4.29-1.06,5.85.77,6.44,3.06,1.38,5.29-3,10.8-8.9,12.52.11.66.21,1.32.34,1.87C708.28,649.61,709.67,650.07,712.08,649.48Zm-1.41-18.13c-2.47.62-3.66,6.12-3.58,10.93a8.07,8.07,0,0,0,5.26-9.34C712.06,631.79,711.59,631.12,710.67,631.35Z" transform="translate(0.5)"/><path class="cls-8" d="M741.36,637.35a7.26,7.26,0,0,0,.21,1.38c.33,1,1.06,1.66,2.6,1.17a3.55,3.55,0,0,0,1.49-.77c.78,3.29-1.3,5.55-4,6.38-2.55.78-4.95.25-6.33-2.21a9,9,0,0,1-6,5.82c-3.42,1-7.21-.11-8.65-5.57-1.63-6.2-.23-17.06,8.08-19.49,2.72-.8,4.17-.15,4.56,1.17l.06.18c-.32-4.46-.5-6.69-.86-11.15,2.65-1.21,4-1.83,6.61-3.09C740.12,621.62,740.58,626.86,741.36,637.35Zm-7.88-9.9a1.94,1.94,0,0,0-2.44-1c-4.09,1.21-4.44,10.17-3.23,14.46,1,3.52,2.59,3.12,3.49,2.86a4.43,4.43,0,0,0,2.92-4.4C734,634.6,733.8,632.21,733.48,627.45Z" transform="translate(0.5)"/><g class="cls-12"><g class="cls-13"><path class="cls-14" d="M386.92,352.94c-1.91-3-2.86-4.52-4.77-7.52,3.9-2.48,5.87-3.69,9.83-6.05l4.55,7.66c3.51,5.89,10.6,9.37,17.93,5.33,6.8-3.75,7.67-11.42,4.46-17.7l-37.45-73.37c4.62-2.36,6.95-3.51,11.62-5.73q17.71,37.17,35.45,74.35c5.18,11.66,1.4,23.88-9.78,30.25C407.85,366.37,393.9,363.68,386.92,352.94Z" transform="translate(0.5)"/><path class="cls-14" d="M463,338.26l-37.62-96.65c4.88-1.9,7.33-2.81,12.25-4.58l34.95,97.64C468.69,336.05,466.77,336.77,463,338.26Z" transform="translate(0.5)"/><path class="cls-14" d="M532.25,238.11q-.53,16.2-.77,32.4-.91,23.07-1.11,46.12c-3.93.72-5.89,1.11-9.81,1.94q-8.89-21-18.46-41.69Q495.79,261.4,489.24,246l-.46.11q3.81,16.26,7.64,32.51,4.59,23,9.45,45.83c-3.71.95-5.56,1.45-9.25,2.49Q484.52,276.4,473.37,225.6c5.69-1.54,8.55-2.27,14.28-3.64q15,30,28.38,60.6c2.74,8.31,4.09,12.46,6.73,20.79-.63-8.65-.92-13-1.43-21.64q.07-33.43,1.72-66.78c6-1,9-1.38,15-2.15q9.08,51.21,17.17,102.57c-3.93.46-5.9.71-9.82,1.27q-4.38-23.08-9-46.11-1.86-16.23-3.65-32.47Z" transform="translate(0.5)"/><path class="cls-14" d="M633.45,234.64q-4.1,15.68-7.93,31.42-6,22.29-11.32,44.72c-4-.17-6-.22-9.94-.29q-4-22.46-8.69-44.74-2.69-16.51-5.63-33h-.47q.09,16.69.21,33.4-.61,23.39-1,46.78c-3.8.1-5.7.17-9.49.37q-.56-52-.12-104c5.85-.24,8.78-.31,14.63-.37q7.9,32.53,14.1,65.39c.83,8.7,1.21,13.06,1.93,21.76,1.31-8.57,2-12.85,3.41-21.42q7.49-32.58,16.49-64.72c6,.4,9.05.64,15.08,1.23q-2.54,51.95-6.06,103.81c-3.93-.42-5.91-.61-9.85-.93q.85-23.49,1.44-47,1.8-16.24,3.66-32.47Z" transform="translate(0.5)"/><path class="cls-14" d="M664.26,318.73q9.16-51,18.34-102.08c5.09.92,7.63,1.41,12.7,2.46q-10.54,50.77-21.1,101.54C670.24,319.83,668.25,319.44,664.26,318.73Z" transform="translate(0.5)"/><path class="cls-14" d="M738.87,239.26l-17.82,56.63c9.75,3.07,14.59,4.76,24.18,8.45l-3.13,8.14c-9.38-3.61-14.12-5.27-23.67-8.27L713,321.55c9.51,2.95,19,6.35,28.22,10.12-1.33,3.3-2,4.95-3.33,8.26a372.7,372.7,0,0,0-37.51-12.86q14.19-49.87,28.37-99.75a472.63,472.63,0,0,1,47.93,16.43l-3.2,7.91Q756.42,244.79,738.87,239.26Z" transform="translate(0.5)"/><path class="cls-14" d="M767.87,329.82l4.63-9.72c4.13,2,6.18,3,10.26,5.07l-4.89,9.58c-3.67,6.25-2.79,13.91,4.71,18.06,7.32,4.05,13.86,1.12,17.76-5.41,1.6-2.67,2.4-4,4-6.69,2.57-4.3-.85-9.63-6.07-17.17-6.3-8.35-16.52-20.19-12.36-31.58,3.31-7,5-10.45,8.29-17.42,6.47-12.91,22.41-14.2,33.92-7.21,11.08,6.73,18.85,19.13,11.44,31.63L832,311.08c-4-2.52-6.09-3.75-10.19-6.16l7.13-12.16c3.57-6.08,3.24-13-5.12-17.62C817,271.39,810,272.42,806,280.35c-3.45,6.74-5.18,10.11-8.62,16.85-2,5,1.9,11.32,8.4,20.31,5.43,7.49,13.85,18.76,8.32,28.53l-4.47,7c-7.25,10.91-20,13.6-31.22,7.35C767.33,354.31,762.44,341.77,767.87,329.82Z" transform="translate(0.5)"/></g></g><g class="cls-9"><path class="cls-10" d="M386.54,351.7l-4.77-7.51c3.91-2.48,5.87-3.69,9.83-6.05l4.55,7.66c3.51,5.89,10.61,9.37,17.94,5.33,6.79-3.75,7.66-11.43,4.45-17.7l-37.45-73.37c4.62-2.36,7-3.51,11.62-5.73q17.73,37.17,35.45,74.35c5.18,11.66,1.4,23.88-9.78,30.25C407.47,365.14,393.53,362.45,386.54,351.7Z" transform="translate(0.5)"/><path class="cls-10" d="M462.57,337Q443.76,288.7,425,240.38c4.88-1.9,7.33-2.82,12.25-4.58l35,97.64C468.31,334.82,466.39,335.54,462.57,337Z" transform="translate(0.5)"/><path class="cls-10" d="M531.87,236.88q-.52,16.2-.76,32.4-.93,23.07-1.12,46.12c-3.93.72-5.89,1.11-9.8,1.94q-8.91-21-18.47-41.69-6.32-15.48-12.86-30.86l-.46.11q3.81,16.26,7.64,32.51,4.6,22.95,9.45,45.83c-3.71.95-5.56,1.45-9.25,2.49Q484.14,275.16,473,224.37c5.7-1.54,8.55-2.27,14.28-3.64q15,30,28.38,60.6c2.74,8.3,4.09,12.46,6.73,20.79-.63-8.65-.91-13-1.43-21.64Q521,247,522.67,213.7c6-.95,9-1.38,15-2.15q9.08,51.21,17.17,102.57c-3.93.45-5.9.71-9.82,1.27q-4.38-23.08-9-46.11-1.85-16.23-3.65-32.47Z" transform="translate(0.5)"/><path class="cls-10" d="M633.07,233.4q-4.1,15.69-7.93,31.43-6,22.29-11.31,44.72c-4-.17-6-.23-10-.29q-4-22.45-8.69-44.74-2.69-16.51-5.63-33h-.47q.09,16.69.21,33.4-.62,23.38-1,46.78c-3.8.1-5.7.17-9.5.36q-.55-52-.12-104c5.85-.23,8.78-.3,14.63-.36q7.9,32.53,14.11,65.39c.82,8.7,1.21,13.06,1.92,21.76,1.31-8.57,2-12.85,3.42-21.42q7.47-32.58,16.48-64.72c6,.39,9.05.64,15.08,1.23q-2.54,51.94-6.06,103.81c-3.93-.42-5.9-.61-9.85-.94q.87-23.47,1.44-47,1.8-16.25,3.66-32.47Z" transform="translate(0.5)"/><path class="cls-10" d="M663.89,317.5l18.33-102.08c5.09.91,7.63,1.41,12.7,2.46L673.83,319.42C669.86,318.59,667.87,318.21,663.89,317.5Z" transform="translate(0.5)"/><path class="cls-10" d="M738.49,238l-17.82,56.63c9.75,3.07,14.59,4.76,24.18,8.45-1.25,3.26-1.87,4.88-3.13,8.14-9.38-3.61-14.12-5.27-23.67-8.27l-5.45,17.34c9.51,2.95,19,6.35,28.22,10.12-1.33,3.3-2,4.95-3.33,8.26A372.7,372.7,0,0,0,700,325.84q14.19-49.87,28.37-99.75a473.35,473.35,0,0,1,47.93,16.42l-3.19,7.92Q756,243.56,738.49,238Z" transform="translate(0.5)"/><path class="cls-10" d="M767.5,328.59l4.62-9.72c4.13,2,6.18,3,10.27,5.07l-4.9,9.58c-3.67,6.25-2.79,13.91,4.71,18.06,7.33,4.05,13.86,1.12,17.76-5.41,1.6-2.68,2.4-4,4-6.69,2.57-4.3-.84-9.63-6.06-17.17-6.31-8.35-16.53-20.19-12.37-31.58,3.31-7,5-10.45,8.29-17.42,6.47-12.91,22.41-14.2,33.92-7.21,11.08,6.73,18.86,19.13,11.45,31.63l-7.56,12.12c-4-2.52-6.09-3.75-10.19-6.16l7.13-12.16c3.57-6.08,3.25-13-5.12-17.62-6.82-3.75-13.81-2.72-17.87,5.21L797,296c-2,5,1.9,11.33,8.41,20.32,5.42,7.49,13.84,18.76,8.32,28.53l-4.48,7.05c-7.25,10.91-20,13.6-31.22,7.35C767,353.08,762.06,340.54,767.5,328.59Z" transform="translate(0.5)"/></g><path class="cls-8" d="M386.24,351.4l-4.77-7.51c3.91-2.48,5.87-3.69,9.83-6.05l4.55,7.66c3.51,5.89,10.61,9.37,17.94,5.33,6.79-3.75,7.66-11.43,4.45-17.7l-37.45-73.37c4.62-2.36,6.95-3.51,11.62-5.73q17.73,37.17,35.45,74.35c5.18,11.66,1.4,23.88-9.78,30.25C407.17,364.84,393.23,362.15,386.24,351.4Z" transform="translate(0.5)"/><path class="cls-8" d="M462.27,336.73q-18.81-48.33-37.61-96.65c4.88-1.9,7.33-2.82,12.25-4.58l34.95,97.64C468,334.52,466.09,335.24,462.27,336.73Z" transform="translate(0.5)"/><path class="cls-8" d="M531.57,236.58q-.52,16.2-.76,32.4-.93,23.07-1.12,46.12c-3.93.72-5.89,1.11-9.8,1.94q-8.91-21-18.47-41.69-6.32-15.48-12.86-30.86l-.46.11q3.81,16.26,7.64,32.51,4.61,23,9.45,45.83c-3.71.95-5.56,1.45-9.25,2.49q-12.1-50.56-23.25-101.36c5.7-1.54,8.55-2.27,14.28-3.64q15,30,28.38,60.6c2.74,8.3,4.09,12.46,6.73,20.79-.63-8.65-.91-13-1.43-21.64q.08-33.44,1.72-66.78c6-1,9-1.38,15-2.15q9.07,51.21,17.17,102.57c-3.93.45-5.9.71-9.82,1.27q-4.38-23.08-9-46.11-1.84-16.23-3.65-32.47Z" transform="translate(0.5)"/><path class="cls-8" d="M632.77,233.1q-4.1,15.69-7.93,31.43-6,22.29-11.31,44.72c-4-.17-6-.23-9.95-.29q-4-22.45-8.69-44.74-2.68-16.52-5.63-33h-.47q.09,16.69.21,33.4-.62,23.38-1,46.78c-3.8.1-5.7.17-9.5.36q-.56-52-.12-104c5.85-.23,8.78-.3,14.63-.36q7.9,32.53,14.11,65.39c.82,8.7,1.21,13.06,1.92,21.76,1.31-8.57,2-12.85,3.42-21.42Q620,240.61,629,208.47c6,.39,9,.64,15.08,1.23q-2.53,51.95-6.06,103.81c-3.93-.42-5.9-.61-9.85-.94q.87-23.47,1.44-47,1.8-16.25,3.66-32.47Z" transform="translate(0.5)"/><path class="cls-8" d="M663.59,317.2l18.33-102.08c5.09.91,7.63,1.41,12.7,2.46L673.53,319.12C669.56,318.29,667.57,317.91,663.59,317.2Z" transform="translate(0.5)"/><path class="cls-8" d="M738.19,237.73l-17.82,56.63c9.75,3.07,14.59,4.76,24.18,8.45-1.25,3.26-1.87,4.88-3.13,8.14-9.38-3.61-14.12-5.27-23.67-8.27L712.3,320c9.51,3,19,6.35,28.22,10.12-1.33,3.3-2,4.95-3.33,8.26a372.7,372.7,0,0,0-37.51-12.86q14.19-49.87,28.37-99.75A473.35,473.35,0,0,1,776,242.21l-3.19,7.92Q755.73,243.26,738.19,237.73Z" transform="translate(0.5)"/><path class="cls-8" d="M767.2,328.29l4.62-9.72c4.13,2,6.18,3,10.27,5.07l-4.9,9.58c-3.67,6.25-2.79,13.91,4.71,18.06,7.33,4.05,13.86,1.12,17.76-5.41,1.6-2.68,2.4-4,4-6.69,2.57-4.3-.84-9.63-6.06-17.17-6.31-8.35-16.53-20.19-12.37-31.58,3.31-7,5-10.45,8.29-17.42,6.47-12.91,22.41-14.2,33.92-7.21,11.08,6.73,18.86,19.13,11.45,31.63l-7.56,12.12c-4.05-2.52-6.09-3.75-10.19-6.16l7.13-12.16c3.57-6.08,3.25-13-5.12-17.62-6.82-3.75-13.81-2.72-17.87,5.21l-8.62,16.84c-2,5,1.9,11.33,8.41,20.32,5.42,7.49,13.84,18.76,8.32,28.53l-4.48,7.05c-7.25,10.91-20,13.6-31.22,7.35C766.66,352.78,761.76,340.24,767.2,328.29Z" transform="translate(0.5)"/><g id="top"><g class="cls-9"><path class="cls-15" d="M872.51,240.8C823.35,193.51,745,159.6,654,150" transform="translate(0.5)"/><path class="cls-15" d="M349.39,225.29c48.24-39.35,118.5-67,198.9-75.42" transform="translate(0.5)"/><path class="cls-16" d="M653.82,159.4c91.46,11.2,161.8,41.37,211.55,88.58" transform="translate(0.5)"/><path class="cls-16" d="M354.18,231.8c60.8-43.78,112.44-62.66,193.69-73" transform="translate(0.5)"/></g><g id="fuscia"><path class="cls-17" d="M872.31,240.6c-49.16-47.29-127.51-81.2-218.51-90.85" transform="translate(0.5)"/><path class="cls-17" d="M349.19,225.09c48.24-39.35,118.5-67,198.9-75.42" transform="translate(0.5)"/><path class="cls-18" d="M653.62,159.2c91.46,11.2,161.8,41.37,211.55,88.58" transform="translate(0.5)"/><path class="cls-18" d="M354,231.6c60.8-43.78,112.44-62.66,193.69-73" transform="translate(0.5)"/></g></g><g id="llamita"><g class="cls-9"><path class="cls-10" d="M602.32,123.71q-2.61,4.94-5,9.43a70.68,70.68,0,0,0-3.07,6.88,32.92,32.92,0,0,0,.89,6.9,38.07,38.07,0,0,0,6.37,14.2,25.31,25.31,0,0,0,2,2.55,23.49,23.49,0,0,0,1.93,2.17c.17.16.31.31.46.44a16.15,16.15,0,0,1-3.79-8.41c-.69-5.1.78-10.73,3.11-16.66s5.75-11.76,7.44-17.8c1.52-6.19.38-12.39-1.54-17.89a84.21,84.21,0,0,0-5-11.09,46,46,0,0,1,1.28,5.44,31.91,31.91,0,0,1-.43,12.58C605.92,116.82,604,120.29,602.32,123.71Z" transform="translate(0.5)"/><path class="cls-10" d="M588.27,153.23a27.38,27.38,0,0,0,2.24,2.85,26.53,26.53,0,0,0,2.16,2.44l.51.48a18.14,18.14,0,0,1-4.25-9.41c-.77-5.71.88-12,3.49-18.67,2.57-6.48,6.44-13.17,8.33-19.93,1.7-6.92.43-13.87-1.72-20a91.43,91.43,0,0,0-7.62-15.91,47,47,0,0,0-5.63-7.38A36.09,36.09,0,0,1,591,76.53a27,27,0,0,1,1.59,9.09A39.9,39.9,0,0,1,591,96c-2,7-5.68,13.92-8.29,21.06a38.92,38.92,0,0,0-2.51,10.44,33.65,33.65,0,0,0,.94,9.86A42.7,42.7,0,0,0,588.27,153.23Z" transform="translate(0.5)"/></g><path class="cls-8" d="M602.12,123.51q-2.61,4.93-5,9.43a70.68,70.68,0,0,0-3.07,6.88,32.92,32.92,0,0,0,.89,6.9,38.07,38.07,0,0,0,6.37,14.2,25.31,25.31,0,0,0,2,2.55,23.49,23.49,0,0,0,1.93,2.17c.17.16.31.31.46.44a16.15,16.15,0,0,1-3.79-8.41c-.69-5.1.78-10.73,3.11-16.66s5.75-11.76,7.44-17.8c1.52-6.19.38-12.39-1.54-17.89a84.21,84.21,0,0,0-5-11.09,46,46,0,0,1,1.28,5.44,31.91,31.91,0,0,1-.43,12.58C605.72,116.62,603.76,120.09,602.12,123.51Z" transform="translate(0.5)"/><path class="cls-8" d="M588.07,153a27.38,27.38,0,0,0,2.24,2.85,26.53,26.53,0,0,0,2.16,2.44q.25.26.51.48a18.14,18.14,0,0,1-4.25-9.41c-.77-5.71.88-12,3.49-18.67,2.57-6.48,6.44-13.17,8.33-19.93,1.7-6.92.43-13.87-1.72-20a91.43,91.43,0,0,0-7.62-15.91,47,47,0,0,0-5.63-7.38,36.09,36.09,0,0,1,5.25,8.84,27,27,0,0,1,1.59,9.09,39.9,39.9,0,0,1-1.62,10.36c-2,7-5.68,13.92-8.29,21.06A38.92,38.92,0,0,0,580,127.28a33.65,33.65,0,0,0,.94,9.86A42.7,42.7,0,0,0,588.07,153Z" transform="translate(0.5)"/></g></g></g></svg>